<svg id="Capa_1" enable-background="new 0 0 512 512" height="512" viewBox="0 0 512 512" width="512" xmlns="http://www.w3.org/2000/svg"><g><g fill="#4f8980"><path d="m332.163 256.051s-2.926 2.438-5.156 6.498c1.416 14.948 7.517 14.59 12.963 13.678 13.129-2.198 36.195-9.49 47.894-26.433 1.036-1.501 5.158-7.865-3.895-19.228-15.074-9.906-29.329-12.73-41.374-10.713-14.128 2.365-25.106 11.231-23.446 21.151 1.806 10.792 13.014 15.047 13.014 15.047z"/><path d="m52.412 220.525c9.185 18.271 12.745 18.975 20.42 20.146 16.082 2.454 35.648-2.078 56.156-6.434 11.682-2.482 47.887 8.17 59.709 7.126 14.654-1.295 18.494-4.179 18.025-21.198l-8.021-6.189c-3.859-2.978-.648-9.077 3.991-7.581l32.145 10.364c1.593.514 3.231-.678 3.224-2.353-.017-4.204-.857-8.365-2.637-12.381-6.509-14.689-19.193-21.925-28.298-25.363-5.052-1.907-7.589-7.633-5.608-12.657 3.57-9.055 6.731-23.311.223-38-4.489-10.13-13.652-16.485-25.144-19.191-1.35-.318-2.704.531-2.992 1.888l-6.243 29.372c-1.013 4.768-7.901 4.514-8.562-.315l-4.038-29.527c-.187-1.365-1.455-2.303-2.819-2.103-7.754 1.141-15.776 3.458-23.63 6.938-6.796 3.011-13.441 6.915-19.84 11.73-.788.593-1.141 1.61-.903 2.567l5.645 22.741c1.145 4.611-4.876 7.455-7.71 3.642l-9.941-13.375c-.934-1.257-2.779-1.327-3.824-.161-10.238 11.416-19.428 25.808-27.038 43.423-.419.969-.168 2.107.616 2.814l15.279 13.771c3.4 3.065.366 8.626-4.052 7.426l-16.692-4.536c-1.272-.346-2.597.364-2.995 1.62-1.599 5.053-3.085 10.317-4.449 15.797z"/><path d="m327.647 120.092c-.908 4.962-1.425 11.277-.442 18.037 18.28 9.672 23.296 1.784 27.553 0 28.956-12.134 50.326-15.707 63.686-33.807 8.552-11.587 12.693-37.155 17.139-48.421 3.797-9.621 16.234-15.562 18.242-23.489 1.803-7.118 2.195-8.805-5.493-21.173-10.57-3.386-20.684-5.968-30.332-7.786-2.068-.39-4.011 1.113-4.14 3.214l-.516 8.385c-.281 4.569-6.523 5.657-8.334 1.453l-5.982-13.887c-.512-1.188-1.643-2.005-2.933-2.104-19.358-1.485-36.507.299-51.388 4.64-2.274.663-3.211 3.379-1.865 5.327l10.159 14.696c2.701 3.908-1.925 8.697-5.924 6.133l-23.767-15.239c-1.104-.708-2.519-.748-3.644-.075-2.009 1.2-3.958 2.454-5.835 3.77-12.028 8.435-21.396 19.044-26.911 29.997-.864 1.715-.141 3.808 1.577 4.665l32.253 16.089c4.362 2.176 2.39 8.78-2.45 8.209l-32.101-3.785c-2.416-.285-4.399 1.935-3.802 4.293.902 3.562 2.425 6.958 4.632 10.106 9.225 13.155 23.068 17.802 32.667 19.416 5.327.896 8.923 6.024 7.951 11.336z"/></g><path d="m448.333 11.24c-6.967 27.172-32.982 96.435-121.127 126.889.914 6.284 3.123 12.952 7.568 19.29 6.172 8.801 15.974 13.265 27.327 13.92 1.961.113 3.61-1.471 3.639-3.436l.433-28.97c.073-4.874 6.88-5.956 8.461-1.346l9.329 27.201c.633 1.847 2.661 2.828 4.493 2.152 7.062-2.604 14.14-6.305 20.862-11.019 5.915-4.148 11.526-9.095 16.746-14.841.939-1.034 1.148-2.543.556-3.808l-9.647-20.608c-2.014-4.303 3.344-8.257 6.861-5.063l11.401 10.351c1.642 1.491 4.247 1.098 5.362-.819 7.439-12.793 13.386-28.092 17.338-46.023.322-1.461-.339-2.969-1.623-3.737l-17.02-10.181c-3.929-2.35-2.026-8.394 2.54-8.069l16.275 1.155c1.862.132 3.512-1.223 3.713-3.079 1.094-10.091 1.634-20.855 1.552-32.315-.01-1.446-.922-2.749-2.278-3.25-4.33-1.6-8.577-3.054-12.761-4.394z" fill="#3d6b73"/><g><path d="m97.135 250.499c1.159-4.429 7.493-4.29 8.458.185l3.315 15.386c.192.892.867 1.613 1.745 1.861 19.653 5.533 37.62 7.06 53.673 5.375 1.486-.156 2.399-1.701 1.803-3.071l-7.834-18.007c-1.895-4.356 3.57-8.161 6.998-4.873l20.827 19.98c.668.641 1.643.86 2.517.553 2.409-.847 4.761-1.769 7.044-2.781 13.806-6.117 25.298-15.031 32.821-25.042.814-1.084.616-2.619-.457-3.447l-21.323-16.454c-51.484 16.72-120.903 6.834-154.31.36-1.375 5.525-2.628 11.266-3.746 17.234-.189 1.008.27 2.044 1.144 2.581 14.501 8.92 28.395 15.868 41.634 21.085 1.369.539 2.899-.253 3.271-1.676z" fill="#3d6b73"/></g><path d="m383.968 230.567c-12.318 20.093-27.333 29.938-41.625 32.33-5.446.912-10.762.754-15.337-.348-1.727 3.143-3.036 7.258-2.248 11.967 1.661 9.92 14.928 14.727 29.056 12.362 15.688-2.626 32.248-14.222 45.155-38.504 1.204-2.266.725-5.081-1.152-6.83-4.665-4.349-9.294-7.984-13.849-10.977z" fill="#3d6b73"/><g><path d="m285.753 330.727c-3.719 0-7.013-2.668-7.678-6.456-.553-3.15-13.34-78.152 4.259-164.761 12.947-63.713 114.914-107.997 119.248-109.851 3.963-1.695 8.549.143 10.245 4.107 1.695 3.962-.142 8.548-4.105 10.244-.986.423-98.772 42.91-110.091 98.608-17.016 83.74-4.312 158.212-4.182 158.954.746 4.246-2.092 8.292-6.337 9.037-.457.08-.911.118-1.359.118z" fill="#95d6a4"/></g><g><path d="m281.556 237.182c-3.395 0-6.519-2.233-7.5-5.661-5.125-17.916-16.251-31.873-32.175-40.363-18.566-9.898-42.224-11.372-64.905-4.045l-57.928 18.715c-4.096 1.33-8.501-.924-9.826-5.027-1.325-4.102.926-8.501 5.027-9.826l57.928-18.715c26.687-8.621 54.77-6.753 77.049 5.124 19.745 10.527 33.521 27.763 39.838 49.845 1.185 4.143-1.213 8.464-5.358 9.65-.717.206-1.44.303-2.15.303z" fill="#95d6a4"/></g><g><path d="m282.872 306.749c-.334 0-.674-.021-1.014-.065-4.275-.55-7.291-4.497-6.741-8.772.199-1.551 5.46-38.126 55.314-49.471 4.204-.951 8.386 1.676 9.342 5.879s-1.676 8.385-5.879 9.342c-38.812 8.831-43.14 35.193-43.305 36.311-.506 3.934-3.855 6.776-7.717 6.776z" fill="#95d6a4"/></g><g><g><path d="m174.804 491.788c-.751-1.832-1.373-3.754-1.866-5.761-.813-3.309 1.698-6.51 5.106-6.51h218.01c3.407 0 5.919 3.201 5.106 6.51-.493 2.007-1.115 3.929-1.866 5.761-5.073 12.374-17.412 20.212-30.785 20.212h-162.921c-13.372 0-25.712-7.838-30.784-20.212z" fill="#9d6b6b"/><path d="m396.054 479.518h-24.671c3.407 0 5.919 3.201 5.106 6.51-.493 2.007-1.115 3.929-1.866 5.761-5.073 12.373-17.412 20.211-30.785 20.211h24.671c13.372 0 25.712-7.838 30.784-20.212.751-1.832 1.373-3.754 1.866-5.761.814-3.308-1.698-6.509-5.105-6.509z" fill="#8b5e5e"/></g><path d="m207.195 479.518c-36.142-47.491-49.348-82.902-39.62-151.187.866-6.079 6.046-10.613 12.186-10.613h214.575c6.141 0 11.32 4.534 12.186 10.613 9.729 68.285-3.478 103.696-39.62 151.187z" fill="#c6865c"/><path d="m406.522 328.331c-.866-6.079-6.046-10.613-12.186-10.613h-26.131c6.141 0 11.32 4.534 12.186 10.613 9.729 68.285-3.478 103.696-39.62 151.187h26.131c36.142-47.491 49.349-82.902 39.62-151.187z" fill="#c17d4f"/></g></g></svg>