<svg id="Capa_1" enable-background="new 0 0 512 512" height="512" viewBox="0 0 512 512" width="512" xmlns="http://www.w3.org/2000/svg"><g><path d="m326.821 250.266h-141.642l-48.392 195.366c-2.82 11.384.661 23.408 9.127 31.525l24.175 23.178c7.808 7.485 18.207 11.665 29.023 11.665h113.775c10.817 0 21.215-4.18 29.023-11.665l24.175-23.178c8.466-8.117 11.947-20.14 9.127-31.525z" fill="#d3effb"/><path d="m326.821 250.266h-141.642l-5.76 23.256h103.962c15.138 0 28.327 10.32 31.967 25.015l35.539 143.48c3.374 13.621-.791 28.007-10.921 37.719l-33.653 32.264h6.574c10.817 0 21.215-4.179 29.023-11.665l24.175-23.178c8.466-8.117 11.947-20.14 9.127-31.525z" fill="#b1e4f9"/><g><path d="m256 103.089-18.104-18.104c-19.478-19.478-19.478-51.057 0-70.535l11.867-11.867c3.444-3.444 9.028-3.444 12.472 0l11.867 11.867c19.478 19.478 19.478 51.057 0 70.535z" fill="#78c2a4"/></g><path d="m222.327 110.247-9.127-9.127c-21.098-21.098-21.098-55.305 0-76.403l3.597-3.597c3.054-3.054 8.006-3.054 11.06 0l3.597 3.597c21.098 21.098 21.098 55.305 0 76.403z" fill="#3d6b73"/><path d="m289.673 110.247-9.127-9.127c-21.098-21.098-21.098-55.305 0-76.403l3.597-3.597c3.054-3.054 8.006-3.054 11.06 0l3.597 3.597c21.098 21.098 21.098 55.305 0 76.403z" fill="#3d6b73"/><g><path d="m256 134.732-18.104-18.104c-19.478-19.478-19.478-51.057 0-70.535l11.867-11.867c3.444-3.444 9.028-3.444 12.472 0l11.867 11.867c19.478 19.478 19.478 51.057 0 70.535z" fill="#95d6a4"/></g><g><path d="m218.015 146.773-10.524-7.474c-24.327-17.276-30.042-51.002-12.766-75.328l2.945-4.147c2.501-3.522 7.383-4.349 10.905-1.848l4.147 2.945c24.327 17.276 30.042 51.002 12.766 75.328z" fill="#78c2a4"/></g><g><path d="m215.642 171.937-11.98-4.805c-27.692-11.108-41.137-42.562-30.029-70.254l1.894-4.721c1.608-4.009 6.161-5.955 10.17-4.347l4.721 1.894c27.692 11.108 41.137 42.562 30.029 70.254z" fill="#4f8980"/></g><g><path d="m232.57 171.521-9.127-9.127c-21.098-21.098-21.098-55.305 0-76.403l3.597-3.597c3.054-3.054 8.006-3.054 11.06 0l3.597 3.597c21.098 21.098 21.098 55.305 0 76.403z" fill="#3d6b73"/></g><g><path d="m218.591 227.302-14.236-3.033c-32.908-7.011-53.902-39.372-46.891-72.28l1.195-5.61c1.015-4.764 5.7-7.803 10.463-6.788l5.61 1.195c32.908 7.011 53.902 39.372 46.891 72.28z" fill="#69af81"/></g><g><path d="m231.502 215.714-12.605-7.278c-29.139-16.823-39.122-54.083-22.299-83.221l2.868-4.968c2.435-4.218 7.829-5.663 12.047-3.228l4.968 2.868c29.139 16.823 39.122 54.083 22.299 83.221z" fill="#78c2a4"/></g><g><path d="m293.985 146.773 10.524-7.474c24.327-17.276 30.042-51.002 12.766-75.328l-2.945-4.147c-2.501-3.522-7.383-4.349-10.905-1.848l-4.147 2.945c-24.327 17.276-30.042 51.002-12.766 75.328z" fill="#78c2a4"/></g><g><path d="m296.358 171.937 11.98-4.805c27.692-11.108 41.137-42.562 30.029-70.254l-1.894-4.721c-1.608-4.009-6.161-5.955-10.17-4.347l-4.721 1.894c-27.692 11.108-41.137 42.562-30.029 70.254z" fill="#3d6b73"/></g><g><path d="m279.43 171.521 9.127-9.127c21.098-21.098 21.098-55.305 0-76.403l-3.597-3.597c-3.054-3.054-8.006-3.054-11.06 0l-3.597 3.597c-21.098 21.098-21.098 55.305 0 76.403z" fill="#4f8980"/></g><path d="m293.409 227.302 14.236-3.033c32.908-7.011 53.902-39.372 46.891-72.28l-1.195-5.61c-1.015-4.764-5.7-7.803-10.463-6.788l-5.61 1.195c-32.908 7.011-53.902 39.372-46.891 72.28z" fill="#69af81"/><g><path d="m280.498 215.714 12.605-7.278c29.139-16.823 39.122-54.083 22.299-83.221l-2.868-4.968c-2.435-4.218-7.829-5.663-12.047-3.228l-4.968 2.868c-29.139 16.823-39.122 54.083-22.299 83.221z" fill="#78c2a4"/></g><g><path d="m256 216.226-18.104-18.104c-19.478-19.478-19.478-51.057 0-70.535l11.867-11.867c3.444-3.444 9.028-3.444 12.472 0l11.867 11.867c19.478 19.478 19.478 51.057 0 70.535z" fill="#95d6a4"/></g><path d="m346.874 250.266h-181.748c-4.137 0-7.49-3.354-7.49-7.49v-39.703c0-4.137 3.354-7.49 7.49-7.49h181.748c4.137 0 7.49 3.354 7.49 7.49v39.703c.001 4.137-3.353 7.49-7.49 7.49z" fill="#d3effb"/><path d="m330.935 195.583v54.683h15.94c4.137 0 7.49-3.354 7.49-7.49v-39.703c0-4.137-3.354-7.49-7.49-7.49z" fill="#b1e4f9"/><path d="m298.288 250.266h-84.576v72.345c0 1.231.998 2.23 2.23 2.23h80.117c1.231 0 2.23-.998 2.23-2.23v-72.345z" fill="#4a80aa"/><path d="m213.712 250.266h84.576v23.256h-84.576z" fill="#407093"/><g><g><g><path d="m225.798 479.581c-.113 0-.224-.002-.338-.007-4.262-.183-7.568-3.787-7.385-8.049.786-18.276-2.571-30.432-6.457-44.508-3.16-11.447-6.742-24.421-7.996-41.781-2.893-40.086 22.519-64.933 23.603-65.972 3.079-2.951 7.967-2.848 10.921.232 2.945 3.074 2.847 7.948-.213 10.902-.278.273-21.254 21.139-18.903 53.725 1.143 15.834 4.364 27.501 7.479 38.782 4.058 14.696 7.89 28.577 7 49.283-.179 4.149-3.598 7.393-7.711 7.393z" fill="#f6f1f1"/></g><g><path d="m189.547 332.567c-.779 0-1.571-.119-2.353-.368-4.063-1.299-6.305-5.645-5.007-9.709 12.793-40.032 44.796-42.557 46.152-42.644 4.262-.296 7.931 2.952 8.208 7.208.275 4.237-2.921 7.896-7.147 8.204-1.079.094-23.051 2.373-32.497 31.935-1.049 3.28-4.087 5.374-7.356 5.374z" fill="#f6f1f1"/></g><g><path d="m193.25 406.073c-1.64.001-3.293-.52-4.696-1.596-3.384-2.596-4.023-7.444-1.426-10.83 9.373-12.219 18.433-20.446 18.814-20.79 3.164-2.858 8.049-2.614 10.909.554 2.858 3.164 2.612 8.046-.55 10.905-.083.076-8.443 7.689-16.917 18.734-1.521 1.983-3.815 3.023-6.134 3.023z" fill="#f6f1f1"/></g><g><path d="m232.566 433.717c-3.381 0-6.484-2.237-7.436-5.652-.172-.618-.23-.826-1.498-.985-1.552-.196-3.308.147-3.854.295-4.093 1.19-8.349-1.176-9.539-5.273-1.19-4.096 1.2-8.391 5.296-9.581 1.568-.456 9.75-2.531 16.751 1.368 3.817 2.125 6.488 5.593 7.724 10.028 1.146 4.109-1.257 8.369-5.367 9.514-.692.194-1.391.286-2.077.286z" fill="#f6f1f1"/></g></g><g><g><path d="m286.201 479.581c-4.112 0-7.532-3.243-7.711-7.392-.89-20.706 2.943-34.587 7-49.283 3.116-11.281 6.337-22.948 7.48-38.782 2.354-32.637-18.692-53.519-18.905-53.726-3.049-2.967-3.136-7.852-.18-10.912 2.956-3.058 7.819-3.162 10.89-.221 1.083 1.039 26.495 25.887 23.603 65.972-1.253 17.36-4.836 30.334-7.997 41.781-3.886 14.076-7.243 26.233-6.457 44.508.183 4.262-3.123 7.866-7.385 8.049-.113.004-.226.006-.338.006z" fill="#f6f1f1"/></g><g><path d="m322.453 332.567c-3.27 0-6.307-2.093-7.355-5.375-9.481-29.665-31.573-31.858-32.508-31.936-4.257-.276-7.448-3.948-7.173-8.205.277-4.257 3.958-7.478 8.244-7.206 1.356.087 33.358 2.612 46.151 42.644 1.299 4.063-.942 8.41-5.006 9.709-.781.25-1.573.369-2.353.369z" fill="#f6f1f1"/></g><g><path d="m318.75 406.073c-2.32 0-4.613-1.04-6.134-3.022-8.474-11.045-16.834-18.657-16.917-18.734-3.16-2.862-3.404-7.745-.544-10.907 2.86-3.161 7.738-3.411 10.903-.552.381.344 9.441 8.571 18.814 20.79 2.597 3.385 1.958 8.234-1.426 10.83-1.402 1.075-3.055 1.595-4.696 1.595z" fill="#f6f1f1"/></g><g><path d="m279.434 433.717c-.686 0-1.384-.093-2.078-.286-4.109-1.146-6.512-5.405-5.367-9.514 1.236-4.435 3.907-7.903 7.724-10.028 7-3.9 15.183-1.824 16.751-1.368 4.096 1.19 6.453 5.475 5.263 9.572-1.184 4.078-5.437 6.432-9.515 5.279-.556-.148-2.302-.487-3.845-.292-1.267.159-1.326.367-1.498.985-.951 3.416-4.055 5.652-7.435 5.652z" fill="#f6f1f1"/></g></g><g><path d="m256.005 399.077c-2.899 0-5.675-1.639-6.993-4.434-14.307-30.372-.902-70.593-.324-72.29 1.374-4.04 5.763-6.2 9.8-4.824 4.036 1.373 6.195 5.756 4.827 9.792-.121.358-11.951 36.061-.327 60.738 1.817 3.859.163 8.461-3.696 10.28-1.065.501-2.185.738-3.287.738z" fill="#f6f1f1"/></g><g><path d="m270.639 380.731c-3.044 0-5.926-1.812-7.149-4.796-.422-.997-4.193-9.289-12.244-8.167-4.215.582-8.128-2.356-8.719-6.581-.59-4.224 2.355-8.128 6.581-8.719 16.186-2.264 25.848 10.562 28.697 17.659 1.589 3.96-.332 8.457-4.29 10.045-.944.38-1.917.559-2.876.559z" fill="#f6f1f1"/></g></g></g></svg>