<svg id="Capa_1" enable-background="new 0 0 512 512" height="512" viewBox="0 0 512 512" width="512" xmlns="http://www.w3.org/2000/svg"><g><g><path d="m235.105 116.629c-4.301 0-7.805-3.468-7.843-7.777-.197-22.944-8.9-42.178-25.867-57.165-13-11.483-26.246-16.107-26.378-16.153-4.091-1.402-6.284-5.855-4.892-9.948 1.392-4.094 5.828-6.297 9.923-4.912.642.217 15.911 5.458 31.233 18.815 20.483 17.856 31.434 41.795 31.671 69.228.037 4.332-3.444 7.874-7.777 7.912-.024 0-.047 0-.07 0z" fill="#69af81"/></g><g><path d="m276.895 116.629c-.022 0-.045 0-.068 0-4.333-.038-7.814-3.58-7.777-7.912.237-27.433 11.188-51.372 31.671-69.228 15.322-13.357 30.59-18.598 31.233-18.815 4.104-1.385 8.555.823 9.939 4.928 1.381 4.099-.816 8.541-4.909 9.932-.132.046-13.378 4.67-26.378 16.153-16.967 14.987-25.67 34.22-25.867 57.165-.039 4.309-3.543 7.777-7.844 7.777z" fill="#69af81"/></g><path d="m270.786 128.812c-19.898-13.178-119.035-87.934-148.265-94.007-43.472-9.033-85.887 19.649-93.409 63.408-.149.864-.293 1.731-.435 2.602-.426 2.622 2.294 4.625 4.664 3.423l7.987-4.052c33.95-17.223 146.071 40.738 183.185 49.207l16.777 3.828z" fill="#95d6a4"/><path d="m260.378 145.62c8.556-5.666-11.48-20.207 15.336-37.874 35.55-23.421 80.364-67.828 113.765-72.942 43.889-6.72 85.887 19.649 93.409 63.408.148.864.293 1.731.435 2.602.426 2.622-2.294 4.625-4.664 3.423l-7.987-4.052c-33.95-17.223-146.071 40.738-183.185 49.207l-4.234 1.103c-20.678 5.385-42.451 4.87-62.85-1.488z" fill="#78c2a4"/><g><path d="m270.786 170.335c-19.898-13.178-98.117-67.016-127.347-73.089-43.472-9.033-85.887 19.649-93.409 63.408-.149.864-.293 1.731-.435 2.602-.426 2.622 2.294 4.625 4.664 3.423l7.987-4.052c33.95-17.223 125.153 19.82 162.267 28.289l16.777 3.828z" fill="#69af81"/><path d="m256 185.67c6.88-4.556-15.886-12.618 4.379-26.205 38.35-25.712 89.058-58.246 108.182-62.219 43.472-9.033 85.887 19.649 93.409 63.408.148.864.293 1.731.435 2.602.426 2.622-2.294 4.625-4.664 3.423l-7.987-4.052c-33.95-17.223-125.153 19.82-162.267 28.289l-4.234 1.103c-20.678 5.385-42.451 4.87-62.85-1.488z" fill="#5ea570"/></g><g><path d="m256 390.554-3.628-18.78c-23.022-119.166-23.022-241.638 0-360.804l1.833-9.489c.382-1.975 3.208-1.975 3.59 0l1.833 9.489c23.022 119.166 23.022 241.638 0 360.804z" fill="#4f8980"/></g><g><path d="m326.234 512h-140.468c-4.508 0-8.253-3.478-8.585-7.974l-17.769-240.642h193.176l-17.769 240.642c-.332 4.496-4.077 7.974-8.585 7.974z" fill="#4a80aa"/><path d="m329.237 263.384-18.359 248.616h15.355c4.508 0 8.253-3.478 8.585-7.974l17.77-240.642z" fill="#407093"/></g><g><path d="m270.786 213.252c-19.898-13.178-98.117-67.016-127.347-73.089-43.472-9.033-85.887 19.649-93.409 63.408-.149.864-.293 1.731-.435 2.602-.426 2.622 2.294 4.625 4.664 3.423l7.987-4.052c33.95-17.223 125.153 19.82 162.267 28.289l16.777 3.828z" fill="#95d6a4"/><path d="m216.42 232.207c19.898-13.178 122.911-85.971 152.14-92.044 43.472-9.033 85.887 19.649 93.409 63.408.148.864.293 1.731.435 2.602.426 2.622-2.294 4.625-4.664 3.423l-7.987-4.052c-33.95-17.223-125.153 19.82-162.267 28.289l-4.234 1.103c-20.678 5.385-42.451 4.87-62.85-1.488z" fill="#78c2a4"/></g><g><path d="m270.786 244.806c-19.898-13.178-66.741-46.098-95.97-52.171-43.472-9.033-85.887 19.649-93.409 63.408-.005.029-.01.058-.015.088-.628 3.66 3.206 6.464 6.518 4.784l5.712-2.898c33.95-17.223 93.776-1.098 130.891 7.371l16.777 3.828z" fill="#69af81"/><path d="m216.42 263.761c19.898-13.178 91.534-65.053 120.764-71.126 43.472-9.033 85.887 19.649 93.409 63.408.005.029.01.058.015.088.628 3.66-3.206 6.464-6.518 4.784l-5.712-2.898c-33.95-17.223-93.776-1.098-130.891 7.371l-4.234 1.103c-20.678 5.385-42.451 4.87-62.85-1.488z" fill="#5ea570"/></g><g><path d="m270.786 273.996c-19.899-13.179-45.825-25.181-75.056-31.254-43.47-9.031-85.882 19.648-93.404 63.405-.051.296-.101.592-.151.888-.562 3.333 2.892 5.896 5.906 4.367l6.46-3.277c33.95-17.223 72.858-22.016 109.973-13.547l16.777 3.828z" fill="#95d6a4"/><path d="m216.42 292.952c19.898-13.178 70.616-44.135 99.846-50.208 43.472-9.033 85.887 19.649 93.409 63.408.052.303.104.607.155.912.559 3.32-2.909 5.862-5.911 4.339l-6.46-3.277c-33.95-17.223-72.858-22.016-109.973-13.547l-4.234 1.103c-20.678 5.385-42.451 4.87-62.85-1.488z" fill="#78c2a4"/></g><g><g><g><path d="m256 278.075c-17.073 4.42-80.973 18.141-98.754 31.198-26.445 19.42-31.648 56.896-11.324 82.652.014.017.027.034.041.052 1.7 2.154 5.138 1.424 5.852-1.225l1.229-4.562c7.315-27.163 45.738-52.063 68.732-68.268l2.698-1.781c13.177-8.699 23.653-20.916 30.241-35.265z" fill="#69af81"/></g></g><g><g><path d="m256 278.075c17.073 4.42 80.973 18.141 98.754 31.198 26.445 19.42 31.648 56.896 11.324 82.652-.014.017-.027.034-.041.052-1.7 2.154-5.138 1.424-5.852-1.225l-1.229-4.562c-7.315-27.163-45.738-52.063-68.732-68.268l-2.698-1.781c-13.177-8.699-23.653-20.916-30.241-35.265z" fill="#69af81"/></g></g></g><g><path d="m297.764 383.564c-4.214 0-7.698-3.347-7.835-7.591-.746-23.088-13.822-41.132-25.36-57.051-3.098-4.275-6.048-8.345-8.569-12.292-2.522 3.948-5.472 8.018-8.569 12.292-11.538 15.919-24.614 33.963-25.359 57.051-.139 4.331-3.745 7.739-8.093 7.587-4.33-.14-7.727-3.763-7.587-8.093.9-27.894 16.112-48.884 28.336-65.751 6.906-9.528 13.428-18.528 13.428-24.208 0-4.332 3.512-7.844 7.844-7.844s7.844 3.512 7.844 7.844c0 5.68 6.523 14.679 13.428 24.208 12.224 16.866 27.436 37.857 28.337 65.751.14 4.33-3.257 7.953-7.587 8.093-.087.003-.172.004-.258.004z" fill="#4f8980"/></g></g></svg>