<svg id="Capa_1" enable-background="new 0 0 512 512" height="512" viewBox="0 0 512 512" width="512" xmlns="http://www.w3.org/2000/svg"><g><g><g><path d="m218.504 166.446c-.298 0-.599-.018-.902-.053-4.172-.493-7.153-4.274-6.66-8.444l17.875-151.236c.493-4.172 4.273-7.147 8.444-6.66 4.172.493 7.153 4.274 6.66 8.444l-17.875 151.236c-.457 3.867-3.741 6.713-7.542 6.713z" fill="#efe7e4"/></g><g><path d="m293.495 166.446c-3.801 0-7.085-2.845-7.542-6.713l-17.874-151.236c-.493-4.171 2.488-7.951 6.66-8.444 4.165-.49 7.951 2.488 8.444 6.66l17.874 151.236c.493 4.171-2.488 7.951-6.66 8.444-.303.035-.604.053-.902.053z" fill="#efe7e4"/></g></g><path d="m285.256 279.007h-58.512c-36.72 0-68.718-25.016-77.58-60.65l-12.389-49.821c-3.503-14.086 7.154-27.717 21.669-27.717h195.112c14.515 0 25.172 13.631 21.669 27.717l-12.389 49.821c-8.862 35.635-40.86 60.65-77.58 60.65z" fill="#c6865c"/><path d="m353.556 140.818h-27.309c14.515 0 25.172 13.631 21.669 27.717l-12.389 49.821c-8.862 35.635-40.86 60.651-77.58 60.651h27.309c36.72 0 68.718-25.015 77.58-60.651l12.389-49.821c3.503-14.086-7.154-27.717-21.669-27.717z" fill="#c17d4f"/><g><path d="m115.992 510.732c-2.751-1.817-4.002-5.185-3.151-8.37 3.627-13.572 7.271-55.988-43.954-145.82-9.069-15.902-16.313-32.112-21.533-48.177-11.463-35.283-11.751-72.808-.831-108.518 10.867-35.536 31.998-66.608 61.109-89.854 15.626-12.48 37.91-16.246 59.611-10.071 22.39 6.369 39.962 21.812 47.09 41.357 1.349 3.7-.056 7.943-3.573 9.715-4.162 2.098-9.096.036-10.615-4.223-5.389-15.106-19.244-27.152-37.064-32.221-16.985-4.833-34.164-2.092-45.959 7.326-26.704 21.327-46.088 49.826-56.055 82.418-10.002 32.709-9.742 67.071.752 99.371 4.9 15.083 11.724 30.338 20.28 45.343 28.886 50.655 44.877 93.544 47.531 127.472 1.08 13.809-.343 23.547-2.078 29.892-1.37 5.011-7.225 7.223-11.56 4.36z" fill="#78c2a4"/></g><g><path d="m169.706 381.446c-2.614 0-5.158-1.349-6.572-3.768-2.12-3.626-.898-8.284 2.727-10.403 17.781-10.394 26.976-26.156 28.937-49.606 1.825-21.813-2.894-47.294-7.458-71.936-3.55-19.166-6.903-37.27-7.51-54.159-1.197-33.293 14.928-49.432 28.667-57.108 3.663-2.051 8.299-.738 10.347 2.929 2.049 3.667.738 8.3-2.929 10.347-14.598 8.157-21.626 22.72-20.886 43.285.567 15.769 3.821 33.337 7.265 51.936 9.449 51.02 20.159 108.849-28.758 137.441-1.206.707-2.527 1.042-3.83 1.042z" fill="#78c2a4"/></g><g fill="#95d6a4"><ellipse cx="115.54" cy="86.514" rx="19.032" ry="23.4" transform="matrix(.75 -.661 .661 .75 -28.342 98.006)"/><ellipse cx="146.244" cy="128.419" rx="19.032" ry="23.4" transform="matrix(.75 -.661 .661 .75 -48.381 128.774)"/><g><ellipse cx="62.557" cy="132.858" rx="19.032" ry="23.4" transform="matrix(.709 -.705 .705 .709 -75.467 82.718)"/><ellipse cx="95.713" cy="172.851" rx="19.032" ry="23.4" transform="matrix(.709 -.705 .705 .709 -94.02 117.716)"/></g><g><ellipse cx="161.254" cy="204.822" rx="23.4" ry="19.032" transform="matrix(.999 -.044 .044 .999 -8.917 7.346)"/><ellipse cx="213.149" cy="207.2" rx="23.4" ry="19.032" transform="matrix(.999 -.044 .044 .999 -8.972 9.648)"/></g><g><ellipse cx="173.459" cy="276.004" rx="23.4" ry="19.032" transform="matrix(.999 -.044 .044 .999 -12.059 7.957)"/><ellipse cx="225.354" cy="278.381" rx="23.4" ry="19.032" transform="matrix(.999 -.044 .044 .999 -12.114 10.259)"/></g><ellipse cx="172.149" cy="337.352" rx="19.032" ry="23.4" transform="matrix(.37 -.929 .929 .37 -204.944 372.605)"/><ellipse cx="218.495" cy="360.82" rx="19.032" ry="23.4" transform="matrix(.37 -.929 .929 .37 -197.535 430.462)"/><g><ellipse cx="26.893" cy="203.531" rx="19.032" ry="23.4" transform="matrix(.37 -.929 .929 .37 -172.163 153.284)"/><ellipse cx="73.239" cy="226.999" rx="19.032" ry="23.4" transform="matrix(.37 -.929 .929 .37 -164.755 211.141)"/></g><g><ellipse cx="27.186" cy="294.017" rx="23.4" ry="19.032" transform="matrix(.968 -.252 .252 .968 -73.275 16.361)"/><ellipse cx="78.431" cy="285.492" rx="23.4" ry="19.032" transform="matrix(.968 -.252 .252 .968 -69.468 29.01)"/></g><g><ellipse cx="48.339" cy="357.626" rx="23.4" ry="19.032" transform="matrix(.929 -.37 .37 .929 -128.805 43.217)"/><ellipse cx="98.14" cy="342.838" rx="23.4" ry="19.032" transform="matrix(.929 -.37 .37 .929 -119.809 60.583)"/></g><g><ellipse cx="76.354" cy="418.577" rx="23.4" ry="19.032" transform="matrix(.929 -.37 .37 .929 -149.357 57.895)"/><ellipse cx="126.154" cy="403.789" rx="23.4" ry="19.032" transform="matrix(.929 -.37 .37 .929 -140.36 75.261)"/></g><g><ellipse cx="97.493" cy="476.971" rx="23.4" ry="19.032" transform="matrix(.962 -.274 .274 .962 -126.903 44.938)"/><ellipse cx="148.534" cy="467.297" rx="23.4" ry="19.032" transform="matrix(.962 -.274 .274 .962 -122.302 58.547)"/></g></g><g><path d="m396.051 510.57c-4.331 2.936-10.263.742-11.633-4.307-1.721-6.347-3.121-16.052-2.048-29.782 2.653-33.929 18.644-76.817 47.531-127.472 8.554-14.999 15.377-30.255 20.28-45.343 10.494-32.3 10.753-66.662.752-99.371-9.967-32.592-29.351-61.091-56.055-82.418-11.479-9.167-27.399-11.772-43.674-7.14-17.642 5.018-32.037 17.722-37.608 33.175-1.347 3.737-5.358 5.971-9.191 4.928-4.328-1.178-6.663-5.755-5.185-9.898 7.266-20.37 25.144-36.382 47.822-42.833 21.061-5.989 41.956-2.389 57.325 9.885 29.111 23.247 50.243 54.318 61.11 89.854 10.92 35.71 10.633 73.235-.831 108.518-5.222 16.072-12.467 32.281-21.534 48.178-51.107 89.624-47.516 132.192-43.98 145.732.822 3.146-.388 6.469-3.081 8.294z" fill="#78c2a4"/></g><g><path d="m342.294 381.446c-1.304 0-2.624-.335-3.831-1.041-48.917-28.593-38.207-86.421-28.758-137.441 3.444-18.6 6.698-36.167 7.265-51.936.74-20.564-6.288-35.127-20.886-43.285-3.667-2.049-4.978-6.682-2.929-10.347 2.047-3.667 6.682-4.98 10.347-2.929 13.739 7.676 29.864 23.816 28.667 57.108-.607 16.89-3.96 34.993-7.51 54.159-4.564 24.642-9.283 50.123-7.458 71.936 1.962 23.451 11.156 39.212 28.937 49.606 3.625 2.119 4.847 6.777 2.727 10.403-1.413 2.418-3.958 3.767-6.571 3.767z" fill="#78c2a4"/></g><g fill="#95d6a4"><ellipse cx="396.46" cy="86.514" rx="23.4" ry="19.032" transform="matrix(.661 -.75 .75 .661 69.417 326.738)"/><ellipse cx="365.757" cy="128.419" rx="23.4" ry="19.032" transform="matrix(.661 -.75 .75 .661 27.577 317.902)"/></g><g fill="#95d6a4"><ellipse cx="449.443" cy="132.858" rx="23.4" ry="19.032" transform="matrix(.705 -.709 .709 .705 38.392 357.997)"/><ellipse cx="416.287" cy="172.851" rx="23.4" ry="19.032" transform="matrix(.705 -.709 .709 .705 .241 346.281)"/></g><g fill="#95d6a4"><ellipse cx="350.746" cy="204.822" rx="19.032" ry="23.4" transform="matrix(.044 -.999 .999 .044 130.583 546.149)"/><ellipse cx="298.851" cy="207.2" rx="19.032" ry="23.4" transform="matrix(.044 -.999 .999 .044 78.613 496.576)"/></g><g fill="#95d6a4"><ellipse cx="338.541" cy="276.004" rx="19.032" ry="23.4" transform="matrix(.044 -.999 .999 .044 47.807 601.982)"/><ellipse cx="286.646" cy="278.381" rx="19.032" ry="23.4" transform="matrix(.044 -.999 .999 .044 -4.163 552.41)"/></g><g fill="#95d6a4"><ellipse cx="339.852" cy="337.352" rx="23.4" ry="19.032" transform="matrix(.929 -.37 .37 .929 -100.631 149.521)"/><ellipse cx="293.505" cy="360.82" rx="23.4" ry="19.032" transform="matrix(.929 -.37 .37 .929 -112.589 134.051)"/></g><g fill="#95d6a4"><ellipse cx="485.107" cy="203.531" rx="23.4" ry="19.032" transform="matrix(.929 -.37 .37 .929 -40.876 193.736)"/><ellipse cx="438.761" cy="226.999" rx="23.4" ry="19.032" transform="matrix(.929 -.37 .37 .929 -52.833 178.266)"/></g><g fill="#95d6a4"><ellipse cx="484.814" cy="294.017" rx="19.032" ry="23.4" transform="matrix(.252 -.968 .968 .252 78.027 689.005)"/><ellipse cx="433.569" cy="285.492" rx="19.032" ry="23.4" transform="matrix(.252 -.968 .968 .252 47.957 633.041)"/></g><g fill="#95d6a4"><ellipse cx="463.661" cy="357.626" rx="19.032" ry="23.4" transform="matrix(.37 -.929 .929 .37 -40.058 656.197)"/><ellipse cx="413.86" cy="342.838" rx="19.032" ry="23.4" transform="matrix(.37 -.929 .929 .37 -57.705 600.606)"/></g><ellipse cx="435.646" cy="418.577" fill="#95d6a4" rx="19.032" ry="23.4" transform="matrix(.37 -.929 .929 .37 -114.346 668.582)"/><ellipse cx="385.846" cy="403.789" fill="#95d6a4" rx="19.032" ry="23.4" transform="matrix(.37 -.929 .929 .37 -131.993 612.992)"/><g fill="#95d6a4"><ellipse cx="414.507" cy="476.971" rx="19.032" ry="23.4" transform="matrix(.274 -.962 .962 .274 -157.751 744.999)"/><ellipse cx="363.466" cy="467.297" rx="19.032" ry="23.4" transform="matrix(.274 -.962 .962 .274 -185.508 688.885)"/></g></g></svg>