<svg id="Capa_1" enable-background="new 0 0 512 512" height="512" viewBox="0 0 512 512" width="512" xmlns="http://www.w3.org/2000/svg"><g><g><path d="m140.415 309.847c-2.204 0-4.391-.952-5.896-2.793-2.661-3.254-2.18-8.05 1.073-10.711 19.899-16.274 13.515-53.36 6.125-96.302-8.68-50.426-18.516-107.582 6.125-159.051 1.815-3.793 6.363-5.394 10.152-3.579 3.792 1.816 5.394 6.361 3.579 10.152-22.547 47.094-13.147 101.71-4.853 149.896 8.199 47.635 15.28 88.775-11.49 110.668-1.415 1.157-3.12 1.72-4.815 1.72z" fill="#528e61"/></g><g><path d="m472.049 345.681c-.278 0-.56-.016-.842-.047-73.544-8.096-128.266-44.977-176.546-77.517-26.946-18.16-50.217-33.844-72.682-41.7-23.8-8.322-43.184-6.588-62.861 5.619-3.573 2.215-8.265 1.118-10.481-2.455-2.216-3.572-1.117-8.265 2.455-10.481 51.067-31.684 97.876-.137 152.077 36.393 46.822 31.557 99.891 67.323 169.704 75.009 4.178.46 7.193 4.22 6.733 8.398-.43 3.897-3.728 6.781-7.557 6.781z" fill="#528e61"/></g><g><path d="m421.669 334.969c-1.566 0-3.146-.482-4.503-1.481-3.381-2.49-4.112-7.239-1.629-10.624.804-1.095 19.978-26.839 44.585-25.856 4.2.168 7.47 3.71 7.301 7.91-.168 4.199-3.686 7.461-7.91 7.301-.252-.01-.504-.015-.755-.015-13.433 0-26.85 14.125-30.954 19.675-1.494 2.02-3.8 3.09-6.135 3.09z" fill="#528e61"/></g><g><path d="m147.103 71.355c-2.097 0-4.183-.863-5.685-2.557-.939-1.059-22.956-26.356-18.994-62.027.464-4.177 4.219-7.188 8.405-6.724 4.177.464 7.188 4.227 6.724 8.405-3.197 28.785 15.086 50.054 15.272 50.266 2.762 3.156 2.459 7.961-.689 10.733-1.449 1.276-3.245 1.904-5.033 1.904z" fill="#528e61"/></g><g><path d="m190.563 97.985c-17.124-7.474-25.766-28.636-18.811-45.978 3.147-7.847 9.01-14.568 17.386-18.194 22.239-9.627 32.328 10.347 62.373 8.648 3.179-.18 5.328 3.211 3.77 5.988-8.435 15.031-17.772 41.007-38.223 49.86-8.851 3.832-18.303 3.252-26.495-.324z" fill="#69af81"/><g><path d="m149.726 91.048c-2.666 0-5.347-.139-8.029-.437-4.177-.466-7.187-4.23-6.722-8.408.467-4.177 4.218-7.185 8.408-6.722 29.313 3.264 60.628-17.596 60.941-17.807 3.484-2.353 8.216-1.434 10.567 2.052 2.352 3.486 1.433 8.216-2.052 10.567-1.354.914-31.157 20.755-63.113 20.755z" fill="#528e61"/></g><g><path d="m193.325 79.794c-3.774 0-7.049-2.805-7.54-6.647l-1.836-14.363c-.533-4.169 2.415-7.982 6.585-8.515 4.166-.528 7.982 2.414 8.515 6.585l1.836 14.363c.533 4.169-2.415 7.982-6.585 8.515-.327.041-.653.062-.975.062z" fill="#528e61"/></g><g><path d="m209.274 84.785c-1.889 0-3.781-.699-5.255-2.106l-7.825-7.47c-3.041-2.903-3.153-7.721-.25-10.761 2.903-3.042 7.722-3.152 10.761-.25l7.825 7.47c3.041 2.903 3.153 7.721.25 10.761-1.495 1.567-3.499 2.356-5.506 2.356z" fill="#528e61"/></g></g><g><path d="m232.687 193.542c-15.536 3.228-31.232-6.305-35.529-21.58-2.069-7.355-1.455-15.426 2.825-22.472 10.619-17.484 27.241-8.977 47.027-24.204 2.485-1.912 6.09-.334 6.454 2.78 1.717 14.67 7.517 36.714-2.138 52.609-4.28 7.047-11.158 11.313-18.639 12.867z" fill="#69af81"/><g><path d="m189.115 221.392c-2.656 0-5.236-1.392-6.635-3.871-2.066-3.66-.774-8.303 2.887-10.37 21.52-12.149 35.846-48.607 35.988-48.973 1.519-3.918 5.929-5.864 9.844-4.35 3.919 1.515 5.868 5.918 4.356 9.837-.658 1.704-16.412 41.9-42.706 56.742-1.182.668-2.467.985-3.734.985z" fill="#528e61"/></g></g><g><path d="m318.737 236.462c-15.781-1.664-27.82-15.53-27.254-31.388.273-7.635 3.32-15.134 9.545-20.539 15.446-13.412 28.681-.241 52.168-8.707 2.95-1.063 5.902 1.539 5.299 4.616-2.839 14.495-4.039 37.257-18.082 49.451-6.225 5.403-14.077 7.368-21.676 6.567z" fill="#69af81"/><g><path d="m271.054 250.056c-3.534 0-6.702-2.475-7.446-6.071-.851-4.117 1.796-8.145 5.912-8.996 24.2-5.005 48.963-35.358 49.211-35.663 2.64-3.269 7.432-3.779 10.702-1.141s3.784 7.425 1.148 10.697c-1.147 1.422-28.409 34.899-57.976 41.015-.521.107-1.04.159-1.551.159z" fill="#528e61"/></g></g><g><path d="m413.01 289.092c-15.827 1.139-30.119-10.393-32.353-26.103-1.075-7.564.605-15.482 5.781-21.898 12.845-15.92 28.191-5.284 49.822-17.752 2.717-1.566 6.08.476 6.029 3.612-.244 14.768 2.58 37.387-9.098 51.861-5.176 6.416-12.56 9.732-20.181 10.28z" fill="#69af81"/><g><path d="m367.134 310.983c-3.02 0-5.877-1.809-7.068-4.784-1.562-3.903.335-8.333 4.237-9.896 22.942-9.185 41.977-43.421 42.167-43.765 2.025-3.683 6.652-5.027 10.334-3.007 3.683 2.023 5.032 6.644 3.012 10.329-.877 1.602-21.824 39.352-49.853 50.576-.929.371-1.888.547-2.829.547z" fill="#528e61"/></g></g><g><path d="m302.212 323.241c9.722-12.541 27.849-15.479 41.034-6.651 6.349 4.251 11.12 10.789 12.439 18.927 3.273 20.193-14.892 24.512-20.057 48.939-.649 3.068-4.415 4.208-6.714 2.076-10.83-10.043-29.552-23.046-32.527-41.404-1.318-8.138 1.144-15.849 5.825-21.887z" fill="#69af81"/><g><path d="m326.608 352.916c-3.141 0-6.079-1.958-7.18-5.088-.606-1.723-14.719-42.524-4.355-70.883 1.443-3.947 5.81-5.981 9.761-4.536 3.948 1.442 5.979 5.813 4.536 9.761-7.062 19.326.795 50.303 4.418 60.608 1.394 3.966-.69 8.311-4.655 9.706-.835.292-1.687.432-2.525.432z" fill="#528e61"/></g></g><g><path d="m398.741 371.104c5.172-15.001 21.392-23.613 36.716-19.493 7.378 1.984 13.999 6.64 17.865 13.921 9.592 18.068-6.219 27.999-3.254 52.789.372 3.114-2.827 5.404-5.69 4.124-13.484-6.027-35.393-12.319-44.114-28.745-3.866-7.28-4.014-15.373-1.523-22.596z" fill="#69af81"/><g><path d="m428.938 391.759c-2.256 0-4.488-.998-5.989-2.911-1.128-1.436-27.612-35.532-26.918-65.718.097-4.202 3.552-7.506 7.785-7.434 4.202.097 7.53 3.582 7.434 7.785-.568 24.705 23.434 55.661 23.676 55.971 2.59 3.308 2.011 8.092-1.296 10.684-1.394 1.093-3.049 1.623-4.692 1.623z" fill="#528e61"/></g></g><path d="m79.567 28.915c18.57 2.063 33.096 19.712 31.594 38.335-.68 8.427-4.287 16.584-11.212 22.53-18.386 15.786-33.942-.299-62.133 10.229-2.983 1.114-6.041-1.488-5.376-4.601 3.6-16.855 4.819-44.432 21.726-58.949 7.318-6.283 16.517-8.53 25.401-7.544z" fill="#69af81"/><g><path d="m72.431 74.341c-1.672 0-3.354-.548-4.759-1.676-3.279-2.631-3.803-7.421-1.171-10.7 1.107-1.381 27.525-33.878 61.923-40.492 4.135-.797 8.117 1.91 8.912 6.038.794 4.128-1.91 8.118-6.038 8.912-28.963 5.569-52.689 34.776-52.926 35.07-1.504 1.873-3.712 2.848-5.941 2.848z" fill="#528e61"/></g><g><path d="m90.586 75.167c-2.889 0-5.651-1.653-6.93-4.453l-6.012-13.172c-1.745-3.825-.059-8.34 3.764-10.085 3.827-1.744 8.339-.06 10.085 3.764l6.012 13.172c1.745 3.825.059 8.34-3.764 10.085-1.024.467-2.098.689-3.155.689z" fill="#528e61"/></g><g><path d="m77.547 66.767c-1.138 0-2.293-.257-3.382-.798l-9.687-4.815c-3.765-1.871-5.299-6.439-3.428-10.203 1.87-3.764 6.438-5.301 10.203-3.428l9.687 4.815c3.765 1.871 5.299 6.439 3.428 10.203-1.33 2.676-4.023 4.226-6.821 4.226z" fill="#528e61"/></g><path d="m116.991 141.595c9.569 15.929 5.102 36.917-10.125 47.568-7.325 5.123-16.476 7.559-25.909 5.551-23.702-5.045-20.347-27.17-45.814-43.2-2.695-1.696-2.481-5.705.398-7.065 15.585-7.359 38.251-23.114 60.047-18.475 9.433 2.007 16.799 7.958 21.403 15.621z" fill="#69af81"/><g><path d="m146.61 191.023c-1.786 0-3.58-.624-5.026-1.898-22.117-19.464-59.215-22.65-59.588-22.68-4.187-.337-7.314-4.002-6.981-8.189.332-4.187 3.991-7.319 8.178-6.987 1.723.136 42.474 3.57 68.448 26.429 3.156 2.777 3.463 7.587.685 10.742-1.504 1.71-3.605 2.583-5.716 2.583z" fill="#528e61"/></g><g><path d="m92.941 181.398c-1.211 0-2.439-.29-3.582-.901-3.708-1.982-5.106-6.595-3.124-10.301l5.421-10.139c1.982-3.708 6.595-5.105 10.301-3.124 3.708 1.982 5.106 6.595 3.124 10.301l-5.421 10.139c-1.371 2.565-4 4.025-6.719 4.025z" fill="#528e61"/></g><g><path d="m91.718 165.942c-3.576 0-6.764-2.531-7.466-6.172l-2.047-10.621c-.796-4.128 1.906-8.119 6.034-8.914 4.139-.801 8.119 1.908 8.914 6.034l2.047 10.621c.796 4.128-1.906 8.119-6.034 8.914-.487.094-.971.138-1.448.138z" fill="#528e61"/></g><g><path d="m41.702 492.289c-.732-1.787-1.339-3.661-1.82-5.618-.793-3.227 1.656-6.349 4.979-6.349h192.312c3.323 0 5.772 3.122 4.979 6.349-.481 1.957-1.088 3.831-1.82 5.618-4.946 12.066-16.98 19.711-30.021 19.711h-138.588c-13.041 0-25.075-7.645-30.021-19.711z" fill="#9d6b6b"/><path d="m237.173 480.322h-24.06c3.323 0 5.773 3.122 4.979 6.349-.481 1.957-1.088 3.831-1.82 5.618-4.946 12.066-16.98 19.711-30.021 19.711h24.06c13.042 0 25.076-7.645 30.022-19.713.732-1.786 1.338-3.66 1.819-5.616.793-3.227-1.656-6.349-4.979-6.349z" fill="#8b5e5e"/></g><path d="m79.943 480.322c-33.216-56.561-44.944-98.454-35.182-181.324.517-4.392 4.255-7.697 8.677-7.697h175.158c4.422 0 8.16 3.305 8.677 7.697 9.762 82.871-1.966 124.764-35.182 181.324z" fill="#c6865c"/><path d="m228.596 291.301h-14.01c11.41 88.026 0 130.736-34.229 189.022h21.734c33.216-56.561 44.944-98.454 35.182-181.324-.518-4.393-4.255-7.698-8.677-7.698z" fill="#c17d4f"/><g><path d="m225.873 273.472c9.722-12.541 27.849-15.479 41.034-6.651 6.349 4.251 11.12 10.789 12.439 18.927 3.273 20.193-14.892 24.512-20.057 48.939-.649 3.068-4.415 4.208-6.714 2.076-10.83-10.043-29.552-23.046-32.527-41.404-1.319-8.138 1.144-15.849 5.825-21.887z" fill="#69af81"/><g><path d="m250.266 303.145c-3.14 0-6.078-1.956-7.178-5.087-.606-1.723-14.718-42.523-4.354-70.882 1.442-3.948 5.811-5.98 9.761-4.536 3.948 1.442 5.979 5.813 4.536 9.761-8.482 23.211 4.289 60.242 4.419 60.613 1.389 3.966-.699 8.309-4.663 9.7-.834.292-1.685.431-2.521.431z" fill="#528e61"/></g></g></g></svg>