<svg id="Capa_1" enable-background="new 0 0 512.001 512.001" height="512" viewBox="0 0 512.001 512.001" width="512" xmlns="http://www.w3.org/2000/svg"><g><g><path d="m211.888 275.655c-.244 0-.49-.012-.737-.036l-25.533-2.455c-4.184-.402-7.251-4.121-6.848-8.305.402-4.184 4.116-7.248 8.305-6.848l25.533 2.455c4.184.402 7.251 4.12 6.848 8.305-.379 3.937-3.693 6.884-7.568 6.884z" fill="#e7a52e"/></g><g><path d="m317.387 279.064h-28.696c-4.204 0-7.612-3.407-7.612-7.612s3.407-7.611 7.612-7.611h28.696c4.204 0 7.611 3.407 7.611 7.611s-3.407 7.612-7.611 7.612z" fill="#e7a52e"/></g><g><g><path d="m280.311 46.313c-2.657 0-5.21-1.396-6.603-3.821l-16.033-27.909c-2.094-3.645-.836-8.297 2.808-10.391 3.643-2.094 8.297-.837 10.391 2.809l12.746 22.187 28.892-11.512c3.908-1.555 8.333.349 9.889 4.254 1.555 3.905-.349 8.332-4.254 9.888l-35.023 13.954c-.918.366-1.872.541-2.813.541z" fill="#528e61"/></g><g><path d="m266.623 73.517c-2.536 0-4.958-1.272-6.385-3.468l-23.408-36.064c-2.288-3.526-1.285-8.24 2.241-10.529 3.524-2.288 8.24-1.285 10.528 2.24l20.445 31.499 40.086-10.087c4.073-1.023 8.212 1.446 9.239 5.524 1.026 4.076-1.448 8.213-5.524 9.239l-45.365 11.415c-.617.156-1.24.231-1.857.231z" fill="#528e61"/></g><g><path d="m261.364 104.535c-2.189 0-4.313-.947-5.781-2.66l-35.5-41.442c-2.734-3.193-2.364-7.998.83-10.732 3.192-2.736 7.997-2.363 10.732.829l32.353 37.768 53.929-14.909c4.047-1.12 8.243 1.257 9.364 5.308 1.121 4.052-1.256 8.244-5.308 9.365l-58.589 16.198c-.672.184-1.354.275-2.03.275z" fill="#528e61"/></g><g><path d="m256.675 133.551c-1.966 0-3.884-.763-5.323-2.171l-50.831-49.737c-3.005-2.94-3.057-7.759-.117-10.764 2.939-3.004 7.758-3.058 10.763-.117l47.798 46.77 71.066-17.581c4.079-1.012 8.207 1.48 9.216 5.56 1.01 4.081-1.48 8.207-5.561 9.217l-75.184 18.601c-.604.149-1.219.222-1.827.222z" fill="#528e61"/></g><g><path d="m256.457 162.84c-1.794 0-3.553-.635-4.947-1.828l-49.015-41.929c-3.194-2.732-3.569-7.537-.836-10.732 2.732-3.193 7.537-3.57 10.731-.836l46.013 39.361 59.669-15.223c4.068-1.039 8.219 1.42 9.258 5.494 1.039 4.073-1.42 8.218-5.494 9.257l-63.497 16.2c-.622.158-1.255.236-1.882.236z" fill="#528e61"/></g><g><path d="m255.866 189.769c-1.576 0-3.131-.49-4.438-1.428l-46.702-33.518c-3.415-2.451-4.197-7.207-1.745-10.622 2.451-3.415 7.207-4.196 10.621-1.746l43.754 31.403 47.572-13.023c4.056-1.107 8.242 1.277 9.351 5.332 1.11 4.055-1.276 8.241-5.331 9.351l-51.072 13.981c-.662.181-1.338.27-2.01.27z" fill="#528e61"/></g><g><path d="m256.645 215.48c-3.81 0-7.099-2.854-7.55-6.73-.152-1.302-3.676-32.355-.167-73.244 3.264-38.028 13.549-91.878 44.017-132.463 2.523-3.361 7.295-4.042 10.657-1.517 3.362 2.524 4.041 7.295 1.517 10.657-15.588 20.764-35.354 59.186-40.996 124.308-3.415 39.418.057 70.194.093 70.5.484 4.175-2.508 7.953-6.683 8.438-.298.034-.594.051-.888.051z" fill="#69af81"/></g></g><g><g><path d="m495.394 163.733c-1.11 0-2.237-.244-3.302-.758l-33.772-16.295c-1.899-.916-3.332-2.578-3.959-4.591-.627-2.012-.391-4.194.65-6.027l18.724-32.932c2.077-3.655 6.725-4.932 10.379-2.855 3.654 2.078 4.933 6.725 2.854 10.379l-14.7 25.853 26.438 12.756c3.787 1.827 5.375 6.377 3.548 10.163-1.311 2.721-4.03 4.307-6.86 4.307z" fill="#528e61"/></g><g><path d="m463.849 183.277c-1.51 0-3.037-.448-4.367-1.383l-37.107-26.053c-3.1-2.176-4.128-6.301-2.411-9.678l22.67-44.601c1.905-3.748 6.488-5.24 10.234-3.336 3.747 1.905 5.241 6.487 3.336 10.234l-19.679 38.716 31.705 22.26c3.44 2.416 4.272 7.163 1.855 10.603-1.48 2.11-3.839 3.238-6.236 3.238z" fill="#528e61"/></g><g><path d="m442.217 208.823c-1.439 0-2.893-.407-4.184-1.259l-49.374-32.567c-2.947-1.944-4.169-5.658-2.955-8.972l21.172-57.799c1.445-3.947 5.814-5.976 9.765-4.529 3.946 1.446 5.974 5.818 4.528 9.765l-19.1 52.144 44.346 29.251c3.508 2.315 4.477 7.036 2.163 10.545-1.463 2.218-3.888 3.421-6.361 3.421z" fill="#528e61"/></g><g><path d="m422.442 237.651c-1.523 0-3.06-.456-4.398-1.405l-61.179-43.415c-2.609-1.851-3.781-5.136-2.935-8.221l20.746-75.629c1.112-4.053 5.296-6.44 9.354-5.327 4.053 1.112 6.438 5.3 5.326 9.354l-19.337 70.492 56.835 40.332c3.428 2.433 4.235 7.184 1.802 10.612-1.484 2.091-3.83 3.207-6.214 3.207z" fill="#528e61"/></g><g><path d="m384.104 252.123c-1.5 0-3.016-.443-4.341-1.365l-52.159-36.301c-2.496-1.737-3.719-4.792-3.109-7.772l13.992-68.447c.84-4.119 4.86-6.776 8.981-5.933 4.119.842 6.775 4.863 5.933 8.982l-12.988 63.538 48.046 33.439c3.451 2.401 4.301 7.145 1.9 10.595-1.48 2.125-3.848 3.264-6.255 3.264z" fill="#528e61"/></g><g><path d="m329.99 252.123c-1.447 0-2.909-.412-4.204-1.272l-25.222-16.751c-2.382-1.582-3.676-4.366-3.351-7.207l4.08-35.623c.479-4.177 4.244-7.175 8.428-6.696 4.176.478 7.174 4.252 6.696 8.428l-3.55 30.995 21.341 14.173c3.501 2.326 4.455 7.05 2.13 10.552-1.466 2.206-3.884 3.401-6.348 3.401z" fill="#528e61"/></g><g><path d="m282.644 253.717c-2.076 0-4.143-.844-5.645-2.503-2.821-3.116-2.583-7.929.533-10.75 1.169-1.059 29.128-26.253 70.828-53.428 56.291-36.683 108.092-58.083 153.962-63.605 4.175-.506 7.965 2.473 8.467 6.647s-2.474 7.964-6.647 8.467c-29.888 3.598-79.698 17.119-147.258 61.106-40.742 26.527-68.855 51.845-69.135 52.098-1.457 1.318-3.284 1.968-5.105 1.968z" fill="#69af81"/></g></g><g><g><path d="m16.608 145c-2.832 0-5.549-1.586-6.861-4.306-1.827-3.786-.239-8.336 3.548-10.163l26.438-12.756-14.7-25.853c-2.078-3.654-.8-8.301 2.854-10.379 3.655-2.076 8.301-.799 10.379 2.855l18.724 32.932c1.042 1.833 1.278 4.014.65 6.027s-2.06 3.675-3.959 4.591l-33.772 16.295c-1.066.514-2.192.757-3.301.757z" fill="#528e61"/></g><g><path d="m48.152 164.544c-2.396 0-4.755-1.128-6.236-3.238-2.416-3.441-1.585-8.187 1.855-10.603l31.704-22.26-19.678-38.716c-1.905-3.747-.411-8.33 3.336-10.234 3.746-1.902 8.33-.411 10.234 3.336l22.67 44.601c1.717 3.377.689 7.502-2.411 9.678l-37.107 26.053c-1.331.934-2.857 1.383-4.367 1.383z" fill="#528e61"/></g><g><path d="m69.784 190.091c-2.473 0-4.897-1.203-6.361-3.422-2.314-3.509-1.346-8.23 2.163-10.545l44.346-29.251-19.1-52.144c-1.446-3.947.582-8.319 4.528-9.765 3.95-1.444 8.32.582 9.765 4.529l21.172 57.799c1.214 3.314-.009 7.028-2.955 8.972l-49.374 32.567c-1.291.852-2.745 1.26-4.184 1.26z" fill="#528e61"/></g><g><path d="m89.558 218.918c-2.384 0-4.73-1.116-6.214-3.207-2.433-3.428-1.626-8.179 1.802-10.612l56.836-40.332-19.337-70.491c-1.112-4.054 1.273-8.242 5.326-9.354 4.055-1.114 8.243 1.273 9.354 5.327l20.746 75.629c.846 3.085-.326 6.37-2.935 8.221l-61.18 43.415c-1.337.948-2.875 1.404-4.398 1.404z" fill="#528e61"/></g><g><path d="m127.897 233.39c-2.407 0-4.775-1.138-6.255-3.264-2.401-3.45-1.551-8.194 1.9-10.595l48.046-33.439-12.989-63.538c-.842-4.118 1.814-8.14 5.933-8.982 4.115-.84 8.14 1.814 8.981 5.933l13.993 68.447c.61 2.979-.613 6.035-3.109 7.772l-52.159 36.301c-1.325.922-2.841 1.365-4.341 1.365z" fill="#528e61"/></g><g><path d="m189.525 228.4c-2.464 0-4.882-1.195-6.348-3.401-2.325-3.501-1.372-8.226 2.13-10.552l13.826-9.182-3.55-30.995c-.479-4.176 2.519-7.95 6.696-8.428s7.949 2.519 8.428 6.696l4.08 35.623c.325 2.841-.969 5.624-3.351 7.207l-17.707 11.76c-1.295.86-2.757 1.272-4.204 1.272z" fill="#528e61"/></g><g><path d="m232.007 233.389c-1.772 0-3.552-.615-4.994-1.87-1.138-.99-114.981-99.166-219.154-111.706-4.173-.502-7.15-4.293-6.647-8.467.502-4.173 4.296-7.15 8.467-6.647 45.833 5.517 98.05 26.629 155.198 62.75 42.343 26.762 70.937 51.548 72.133 52.59 3.169 2.761 3.501 7.567.741 10.737-1.504 1.728-3.618 2.613-5.744 2.613z" fill="#69af81"/></g></g><path d="m151.723 492.29c-.732-1.787-1.339-3.661-1.82-5.618-.793-3.227 1.656-6.349 4.979-6.349h192.312c3.323 0 5.772 3.122 4.979 6.349-.481 1.957-1.088 3.831-1.82 5.618-4.946 12.067-16.98 19.711-30.021 19.711h-138.588c-13.041 0-25.075-7.644-30.021-19.711z" fill="#9d6b6b"/><path d="m347.193 480.323h-24.06c3.323 0 5.772 3.122 4.979 6.349-.481 1.957-1.088 3.831-1.82 5.618-4.946 12.067-16.98 19.711-30.021 19.711h24.06c13.041 0 25.075-7.644 30.021-19.711.732-1.787 1.339-3.661 1.82-5.618.794-3.227-1.656-6.349-4.979-6.349z" fill="#8b5e5e"/><path d="m189.964 480.323c-33.719-57.417-45.294-99.719-34.724-185.116.276-2.232 2.181-3.905 4.429-3.905h182.737c2.249 0 4.153 1.673 4.429 3.905 10.57 85.398-1.005 127.7-34.724 185.116z" fill="#c6865c"/><path d="m342.406 291.302h-17.799c11.41 88.026 0 130.736-34.229 189.021h21.734c33.719-57.417 45.294-99.719 34.724-185.116-.277-2.232-2.182-3.905-4.43-3.905z" fill="#c17d4f"/><path d="m271.542 291.302 16.695-1.946c5.859-16.553-1.812-45.025-16.669-54.385-7.393-7.591-13.107-16.573-14.56-27.116-.277-2.008-.632-10.385-11.452-4.956l-19.827 17.595c-19.919 17.677-27.574 45.417-19.54 70.807h65.353z" fill="#ecbe6b"/><path d="m281.486 235.958c-7.393-7.591-10.956-17.085-12.409-27.628-.853-6.192-6.039-10.861-12.29-10.861h-.411c-3.029 0-5.954 1.11-8.22 3.121l-2.601 2.308c1.076 1.58 1.814 3.423 2.091 5.431 1.453 10.543 5.016 20.037 12.409 27.628 14.857 9.36 21.248 27.764 15.389 44.317l-3.903 11.026h21.43l3.903-11.026c5.86-16.552-.531-34.956-15.388-44.316z" fill="#e7a52e"/><g><path d="m244.138 240.448c-2.403 0-4.767-1.134-6.247-3.254l-3.756-5.378c-2.407-3.446-1.565-8.191 1.881-10.599 3.448-2.408 8.192-1.564 10.599 1.882l3.756 5.378c2.407 3.446 1.565 8.191-1.881 10.599-1.328.927-2.848 1.372-4.352 1.372z" fill="#e7a52e"/></g><g><path d="m226.593 271.932c-1.993 0-3.983-.778-5.477-2.325-2.92-3.024-2.835-7.842.189-10.763l6.892-6.654c3.023-2.92 7.841-2.835 10.762.19 2.92 3.024 2.835 7.843-.189 10.763l-6.892 6.653c-1.477 1.426-3.382 2.136-5.285 2.136z" fill="#e7a52e"/></g><g><path d="m263.952 281.559c-1.735 0-3.48-.59-4.91-1.799l-5.905-4.991c-3.21-2.714-3.613-7.515-.899-10.726 2.714-3.21 7.514-3.615 10.726-.899l5.905 4.991c3.21 2.714 3.613 7.515.899 10.726-1.504 1.782-3.653 2.698-5.816 2.698z" fill="#e7a52e"/></g></g></svg>