<svg id="Capa_1" enable-background="new 0 0 512 512" height="512" viewBox="0 0 512 512" width="512" xmlns="http://www.w3.org/2000/svg"><g><g><g><path d="m99.552 122.09h-22.883c-4.267 0-7.726-3.459-7.726-7.726 0-4.268 3.459-7.726 7.726-7.726h22.883c4.267 0 7.726 3.459 7.726 7.726.001 4.267-3.458 7.726-7.726 7.726z" fill="#ccf49f"/></g><g><path d="m76.67 207.929c-2.038 0-4.071-.801-5.59-2.391-2.947-3.087-2.833-7.977.254-10.924l19.505-18.62c3.086-2.948 7.976-2.834 10.924.254 2.947 3.087 2.833 7.977-.254 10.924l-19.505 18.62c-1.496 1.427-3.417 2.137-5.334 2.137z" fill="#ccf49f"/></g><g><path d="m129.459 263.561c-.189 0-.379-.006-.57-.02l-24.887-1.815c-4.256-.311-7.454-4.012-7.144-8.269s4.018-7.464 8.268-7.144l24.887 1.815c4.256.311 7.454 4.012 7.144 8.269-.297 4.064-3.687 7.164-7.698 7.164z" fill="#ccf49f"/></g><g><path d="m129.457 91.437c-2.756 0-5.423-1.479-6.816-4.078-2.016-3.761-.601-8.444 3.16-10.46l18.996-10.181c3.759-2.018 8.444-.603 10.46 3.16 2.016 3.761.601 8.444-3.16 10.46l-18.996 10.181c-1.162.622-2.412.918-3.644.918z" fill="#ccf49f"/></g></g><g><g><path d="m353.833 119.3c-4.268 0-7.726-3.459-7.726-7.726v-28.585c0-4.268 3.459-7.726 7.726-7.726s7.726 3.459 7.726 7.726v28.585c0 4.267-3.459 7.726-7.726 7.726z" fill="#ccf49f"/></g><g><path d="m438.755 123.563h-30.097c-4.268 0-7.726-3.459-7.726-7.726s3.459-7.726 7.726-7.726h30.097c4.268 0 7.726 3.459 7.726 7.726s-3.458 7.726-7.726 7.726z" fill="#ccf49f"/></g><g><path d="m434.329 212.608c-1.741 0-3.492-.586-4.936-1.786l-18.032-14.993c-3.282-2.727-3.729-7.6-1.001-10.88 2.728-3.282 7.601-3.728 10.88-1.001l18.032 14.993c3.282 2.727 3.729 7.6 1.001 10.88-1.527 1.838-3.728 2.787-5.944 2.787z" fill="#ccf49f"/></g><g><path d="m408.655 283.492c-1.022 0-2.06-.204-3.058-.635l-26.019-11.232c-3.918-1.691-5.722-6.238-4.031-10.156s6.239-5.722 10.156-4.031l26.019 11.232c3.918 1.691 5.722 6.238 4.031 10.156-1.261 2.92-4.108 4.666-7.098 4.666z" fill="#ccf49f"/></g></g><path d="m87.679 78.253-26.153-5.725c-9.639-2.11-15.145-12.298-11.628-21.517 3.731-9.781 15.643-13.476 24.254-7.524l30.356 20.98z" fill="#e490d0"/><path d="m96.174 58.707 3.38-18.169c1.939-10.421 13.743-15.639 22.755-10.06 7.365 4.56 9.381 14.374 4.409 21.468l-15.125 21.582z" fill="#dd5ca2"/><path d="m203.032 331.65c-6.008-.629-17.149-23.69-36.047-38.959-11.048-8.926-34.161-8.209-45.107-22.814-9.136-12.191-3.729-35.267-10.668-51.733-6.01-14.264-26.488-25.403-29.495-43.078-2.594-15.246 12.554-32.648 13.066-50.564.242-8.467-4.066-17.978-7.45-27.728-4.322-12.451 1.021-26.098 12.222-31.328 10.585-4.943 23.242-.873 29.661 9.695 5.562 9.156 10.156 19.238 16.979 24.522 13.788 10.677 36.255 9.039 46.113 20.609 11.427 13.413 7.119 37.098 14.122 50.86 8.084 15.887 28.784 25.749 32.291 40.789 4.202 18.018-10.653 36.52-10.785 51.105-.225 24.948 10.214 48.365 6.966 53.679z" fill="#69af81"/><g><path d="m162.248 232.381c-2.8 0-5.502-1.527-6.874-4.187-34.063-66.052-62.92-159.544-63.208-160.481-1.252-4.079 1.04-8.401 5.119-9.654 4.084-1.249 8.402 1.04 9.654 5.119.284.924 28.747 93.125 62.17 157.934 1.956 3.793.467 8.453-3.326 10.408-1.132.584-2.343.861-3.535.861z" fill="#5ea570"/></g><path d="m424.321 78.253 26.153-5.725c9.639-2.11 15.145-12.298 11.628-21.517-3.731-9.781-15.643-13.476-24.254-7.524l-30.356 20.98z" fill="#e490d0"/><path d="m415.826 58.707-3.38-18.169c-1.939-10.421-13.743-15.639-22.755-10.06-7.365 4.56-9.381 14.374-4.409 21.468l15.125 21.582z" fill="#dd5ca2"/><path d="m308.968 331.65c6.008-.629 17.149-23.69 36.047-38.959 11.048-8.926 34.161-8.209 45.107-22.814 9.136-12.191 3.729-35.267 10.668-51.733 6.01-14.264 26.488-25.403 29.495-43.078 2.594-15.246-12.554-32.648-13.066-50.564-.242-8.467 4.066-17.978 7.45-27.728 4.322-12.451-1.021-26.098-12.222-31.328-10.585-4.943-23.242-.873-29.661 9.695-5.562 9.156-10.156 19.238-16.979 24.522-13.788 10.677-36.255 9.039-46.113 20.609-11.427 13.413-7.119 37.098-14.121 50.86-8.084 15.887-28.784 25.749-32.291 40.789-4.202 18.018 10.653 36.52 10.785 51.105.225 24.948-10.214 48.365-6.966 53.679z" fill="#69af81"/><g><path d="m349.752 232.381c-1.193 0-2.402-.277-3.535-.861-3.793-1.956-5.282-6.616-3.326-10.408 33.423-64.809 61.886-157.01 62.17-157.934 1.253-4.079 5.576-6.366 9.654-5.119 4.078 1.253 6.371 5.574 5.119 9.654-.288.937-29.145 94.429-63.208 160.481-1.373 2.66-4.075 4.187-6.874 4.187z" fill="#5ea570"/></g><path d="m268.569 45.375 21.046-16.548c7.756-6.099 8.273-17.668 1.091-24.434-7.62-7.178-19.951-5.314-25.109 3.795l-18.182 32.11z" fill="#e490d0"/><path d="m252.406 31.483-10.959-14.881c-6.286-8.535-19.184-8.089-24.865.86-4.642 7.313-2.18 17.026 5.385 21.244l23.017 12.835z" fill="#dd5ca2"/><g><g><path d="m222.545 113.518c-1.702 0-3.415-.559-4.844-1.711l-17.809-14.357c-3.322-2.678-3.844-7.542-1.166-10.864 2.678-3.321 7.543-3.844 10.864-1.166l17.809 14.357c3.322 2.678 3.844 7.542 1.166 10.864-1.526 1.893-3.764 2.877-6.02 2.877z" fill="#ccf49f"/></g><g><path d="m204.741 170.893h-25.674c-4.267 0-7.726-3.459-7.726-7.726 0-4.268 3.459-7.726 7.726-7.726h25.674c4.267 0 7.726 3.459 7.726 7.726s-3.459 7.726-7.726 7.726z" fill="#ccf49f"/></g><g><path d="m181.914 259.414c-2.027 0-4.05-.792-5.566-2.367-2.96-3.073-2.868-7.965.206-10.925l20.049-19.306c3.073-2.961 7.965-2.868 10.925.206 2.96 3.073 2.868 7.965-.206 10.925l-20.049 19.306c-1.499 1.443-3.43 2.161-5.359 2.161z" fill="#ccf49f"/></g><g><path d="m271.599 73.614c-3.042 0-5.926-1.808-7.152-4.797-1.619-3.948.27-8.461 4.217-10.08l24.686-10.124c3.953-1.619 8.461.27 10.081 4.217 1.619 3.948-.27 8.461-4.217 10.08l-24.686 10.124c-.96.394-1.953.58-2.929.58z" fill="#ccf49f"/></g><g><path d="m332.452 166.283c-.747 0-1.507-.11-2.259-.339l-24.959-7.62c-4.081-1.245-6.38-5.564-5.134-9.645 1.245-4.081 5.567-6.377 9.645-5.134l24.959 7.62c4.081 1.245 6.38 5.564 5.134 9.645-1.015 3.33-4.077 5.473-7.386 5.473z" fill="#ccf49f"/></g><g><path d="m321.66 272.258c-2.104 0-4.199-.854-5.724-2.535l-15.781-17.395c-2.867-3.16-2.63-8.046.531-10.913 3.158-2.866 8.046-2.63 10.913.531l15.781 17.395c2.867 3.16 2.63 8.046-.531 10.913-1.479 1.342-3.337 2.004-5.189 2.004z" fill="#ccf49f"/></g></g><path d="m275.151 323.714c5.133-3.184 5.113-28.796 15.471-50.772 6.055-12.848 27.171-22.273 30.659-40.188 2.912-14.954-12.009-33.368-12.939-51.213-.805-15.457 12.773-34.406 7.778-51.625-4.308-14.853-25.525-23.916-33.792-39.818-3.907-7.515-4.174-17.954-5.376-28.204-1.535-13.09-12.29-23.046-24.651-22.873-11.681.163-21.3 9.341-22.473 21.65-1.017 10.665-.759 21.741-4.598 29.469-7.758 15.618-28.694 23.933-32.525 38.642-4.441 17.052 9.756 36.493 9.45 51.931-.354 17.822-14.689 35.717-11.293 50.783 4.069 18.049 25.501 28.229 31.974 41.299 11.073 22.357 11.88 47.982 17.119 51.35z" fill="#95d6a4"/><g><path d="m258.008 275.962c-.728 0-1.469-.104-2.203-.322-4.091-1.214-6.422-5.516-5.207-9.607 7.706-25.949 9.152-73.093 4.178-136.337-3.795-48.257-10.048-89.092-10.111-89.499-.65-4.217 2.242-8.163 6.459-8.813 4.214-.644 8.162 2.241 8.813 6.458 1.04 6.746 25.253 165.994 5.473 232.592-.996 3.356-4.07 5.528-7.402 5.528z" fill="#78c2a4"/></g><path d="m356.64 337.103-19.613-18.533-166.42-.333-15.247 18.866 25.86 142.741 22.018 16.078h103.027l24.515-16.078z" fill="#c6865c"/><path d="m155.36 337.103 3.716 20.515h119.687c25.049 0 43.988 22.678 39.522 47.326l-13.569 74.901 8.756 16.078 17.307-16.078 25.859-142.742-26.275-18.865-152.679.014z" fill="#c17d4f"/><path d="m374.787 337.103h-237.574c-2.471 0-4.474-2.003-4.474-4.474v-28.783c0-2.471 2.003-4.474 4.474-4.474h237.574c2.471 0 4.474 2.003 4.474 4.474v28.783c0 2.471-2.003 4.474-4.474 4.474z" fill="#9d6b6b"/><path d="m374.787 299.372h-18.653v37.731h18.653c2.471 0 4.474-2.003 4.474-4.474v-28.783c0-2.471-2.003-4.474-4.474-4.474z" fill="#8b5e5e"/><path d="m155.186 491.992c-.743-1.813-1.359-3.716-1.848-5.703-.805-3.276 1.681-6.445 5.054-6.445h195.214c3.373 0 5.86 3.169 5.054 6.445-.488 1.986-1.104 3.889-1.848 5.703-5.019 12.249-17.235 20.008-30.473 20.008h-140.678c-13.238 0-25.454-7.759-30.475-20.008z" fill="#9d6b6b"/><path d="m353.607 479.844h-24.423c3.373 0 5.86 3.169 5.054 6.445-.488 1.986-1.104 3.889-1.848 5.703-5.02 12.249-17.236 20.008-30.473 20.008h24.423c13.238 0 25.453-7.759 30.474-20.008.743-1.814 1.359-3.716 1.848-5.703.804-3.276-1.682-6.445-5.055-6.445z" fill="#8b5e5e"/></g></svg>