<svg id="Capa_1" enable-background="new 0 0 512.002 512.002" height="512" viewBox="0 0 512.002 512.002" width="512" xmlns="http://www.w3.org/2000/svg"><g><g><g><path d="m292.99 167.73h-73.978c-2.139 0-4.176-.913-5.599-2.51s-2.097-3.726-1.852-5.851l17.629-152.728c.475-4.114 4.2-7.069 8.311-6.59 4.115.475 7.065 4.195 6.591 8.311l-16.665 144.368h57.147l-16.662-144.368c-.476-4.115 2.476-7.836 6.59-8.311 4.111-.475 7.837 2.476 8.311 6.59l17.628 152.729c.245 2.125-.428 4.254-1.852 5.851-1.423 1.596-3.46 2.509-5.599 2.509z" fill="#efe7e4"/></g><path d="m284.854 275.17h-57.707c-36.215 0-67.773-24.671-76.513-59.816l-12.219-49.136c-3.455-13.892 7.055-27.336 21.371-27.336h192.428c14.315 0 24.825 13.444 21.371 27.336l-12.219 49.136c-8.738 35.145-40.296 59.816-76.512 59.816z" fill="#c6865c"/><path d="m352.215 138.882h-26.933c14.315 0 24.825 13.444 21.371 27.336l-12.219 49.136c-8.74 35.145-40.298 59.816-76.513 59.816h26.933c36.215 0 67.773-24.671 76.513-59.816l12.219-49.136c3.455-13.892-7.055-27.336-21.371-27.336z" fill="#c17d4f"/></g><g><path d="m252.924 446.707c-.991 0-1.997-.197-2.964-.614-3.804-1.639-5.56-6.051-3.921-9.855 31.089-72.16 16.735-106.541-4.992-158.584-4.907-11.754-9.981-23.908-15.062-37.664-12.396-33.559-13.437-61.693-3.095-83.625 8.102-17.181 20.538-23.85 21.063-24.125 3.667-1.923 8.202-.51 10.125 3.16 1.914 3.651.521 8.159-3.108 10.098-1.66.918-36.129 21.029-10.914 89.295 4.973 13.462 9.986 25.471 14.834 37.083 22.37 53.581 38.532 92.295 4.925 170.298-1.221 2.836-3.987 4.533-6.891 4.533z" fill="#3d6b73"/></g><g><path d="m282.327 195.896c-20.745 3.574-41.671-5.266-53.571-22.631-3.255-4.75-.499-11.275 5.176-12.252 20.745-3.574 41.671 5.266 53.571 22.631 3.255 4.75.499 11.275-5.176 12.252z" fill="#4f8980"/></g><path d="m297.241 241.364c-16.063 13.606-38.58 16.607-57.646 7.682-5.215-2.441-6.151-9.462-1.757-13.184 16.063-13.606 38.58-16.607 57.646-7.682 5.215 2.441 6.151 9.463 1.757 13.184z" fill="#4f8980"/><g><path d="m316.93 344.755c-20.745 3.574-41.671-5.266-53.571-22.631-3.255-4.75-.499-11.275 5.176-12.252 20.745-3.574 41.671 5.266 53.571 22.631 3.255 4.75.499 11.275-5.176 12.252z" fill="#4f8980"/></g><g><path d="m198.66 302.476c.087-21.051 12.429-40.121 31.598-48.822 5.243-2.38 11.19 1.468 11.166 7.227-.087 21.051-12.429 40.121-31.598 48.822-5.243 2.379-11.189-1.469-11.166-7.227z" fill="#4f8980"/></g><g><path d="m286.576 443.483c-16.238-13.396-23.184-35.024-17.782-55.37 1.478-5.565 8.222-7.731 12.664-4.067 16.238 13.396 23.184 35.024 17.782 55.37-1.478 5.566-8.222 7.732-12.664 4.067z" fill="#4f8980"/></g><g><path d="m211.254 355.958c4.493-20.566 20.556-36.629 41.122-41.122 5.626-1.229 10.634 3.779 9.405 9.405-4.493 20.566-20.556 36.629-41.122 41.122-5.626 1.23-10.635-3.779-9.405-9.405z" fill="#4f8980"/></g><g><path d="m215.568 418.035c5.282-20.377 21.952-35.809 42.676-39.507 5.669-1.011 10.481 4.186 9.036 9.76-5.282 20.377-21.952 35.809-42.676 39.507-5.669 1.012-10.481-4.186-9.036-9.76z" fill="#4f8980"/></g><g><path d="m169.939 209.936c6.525-20.014 24.112-34.392 45.023-36.809 5.72-.661 10.204 4.823 8.419 10.297-6.525 20.014-24.112 34.392-45.023 36.809-5.72.661-10.204-4.823-8.419-10.297z" fill="#4f8980"/></g><g><path d="m99.823 512.002c-1.2.001-2.416-.288-3.546-.896-3.648-1.962-5.015-6.51-3.053-10.158.14-.26 14.325-27.046 20.473-64.452 8.138-49.515-.902-93.298-26.869-130.134-48.176-68.342-43.245-132.032-36.018-163.914 2.952-13.021 10.289-24.922 20.66-33.511 23.743-19.662 58.603-18.583 81.084 2.509l23.413 21.966c3.021 2.834 3.172 7.58.338 10.602-2.836 3.021-7.581 3.17-10.601.338l-23.413-21.966c-16.984-15.935-43.318-16.75-61.253-1.896-7.835 6.489-13.375 15.465-15.598 25.274-6.676 29.452-11.183 88.356 33.648 151.955 28.008 39.732 38.149 88.736 29.327 141.714-6.618 39.74-21.356 67.459-21.98 68.62-1.355 2.519-3.941 3.949-6.612 3.949z" fill="#3d6b73"/></g><g><g><path d="m151.069 111.657c2.952-20.843 17.776-38.056 37.95-44.066 5.519-1.644 10.886 2.978 10.078 8.68-2.952 20.843-17.776 38.056-37.95 44.066-5.518 1.644-10.885-2.979-10.078-8.68z" fill="#4f8980"/></g><g><path d="m144.168 189.54c-11.134-17.865-10.84-40.58.754-58.15 3.171-4.806 10.254-4.715 13.3.172 11.134 17.865 10.84 40.58-.754 58.15-3.172 4.806-10.255 4.715-13.3-.172z" fill="#4f8980"/></g></g><g><g><path d="m91.189 96.141c-2.053-20.95 8.288-41.177 26.473-51.78 4.974-2.901 11.281.324 11.843 6.055 2.053 20.95-8.288 41.177-26.473 51.78-4.975 2.9-11.281-.324-11.843-6.055z" fill="#4f8980"/></g><g><path d="m90.749 173.17c-12.301-17.083-13.522-39.767-3.125-58.071 2.844-5.007 9.917-5.388 13.282-.715 12.301 17.083 13.522 39.767 3.125 58.071-2.845 5.008-9.918 5.388-13.282.715z" fill="#4f8980"/></g></g><g><g><path d="m76.858 297.987c-18.613 9.834-41.249 7.923-57.949-4.892-4.568-3.506-3.973-10.564 1.119-13.254 18.613-9.834 41.249-7.923 57.949 4.892 4.568 3.506 3.973 10.564-1.119 13.254z" fill="#4f8980"/></g><g><path d="m144.168 268.466c-11.152 17.854-31.684 27.574-52.562 24.885-5.711-.736-8.742-7.138-5.691-12.022 11.152-17.854 31.684-27.574 52.562-24.885 5.71.736 8.741 7.138 5.691 12.022z" fill="#4f8980"/></g></g><g><g><path d="m113.092 353.18c-17.946 11.003-40.658 10.543-58.143-1.178-4.783-3.206-4.64-10.288.27-13.298 17.946-11.003 40.658-10.543 58.143 1.178 4.782 3.206 4.639 10.288-.27 13.298z" fill="#4f8980"/></g><g><path d="m174.365 319.034c-9.988 18.53-29.857 29.543-50.864 28.193-5.747-.369-9.18-6.564-6.448-11.633 9.988-18.53 29.857-29.543 50.864-28.193 5.746.369 9.18 6.564 6.448 11.633z" fill="#4f8980"/></g></g><path d="m118.914 419.913c-20.636 4.158-41.803-4.087-54.189-21.109-3.388-4.656-.817-11.256 4.828-12.394 20.636-4.158 41.803 4.087 54.189 21.109 3.388 4.657.817 11.257-4.828 12.394z" fill="#4f8980"/><path d="m187.584 412.37c-15.753 13.963-38.198 17.469-57.459 8.974-5.269-2.324-6.362-9.322-2.052-13.141 15.753-13.963 38.198-17.468 57.459-8.974 5.268 2.324 6.361 9.322 2.052 13.141z" fill="#4f8980"/><g><g><path d="m103.019 483.281c-20.715 3.746-41.714-4.919-53.758-22.183-3.295-4.723-.593-11.27 5.074-12.295 20.715-3.746 41.714 4.919 53.758 22.183 3.294 4.723.592 11.27-5.074 12.295z" fill="#4f8980"/></g><g><path d="m175.823 477.306c-16.028 13.647-38.538 16.705-57.626 7.828-5.221-2.428-6.175-9.447-1.79-13.18 16.028-13.647 38.538-16.705 57.626-7.828 5.221 2.428 6.174 9.447 1.79 13.18z" fill="#4f8980"/></g></g><g><g><path d="m110.358 225.969c-20.745 3.574-41.671-5.266-53.571-22.631-3.255-4.75-.499-11.275 5.176-12.252 20.745-3.574 41.671 5.266 53.571 22.631 3.255 4.749.499 11.274-5.176 12.252z" fill="#4f8980"/></g></g><g><g><path d="m14.593 245.686c-1.753-20.978 8.876-41.054 27.211-51.396 5.015-2.829 11.275.485 11.755 6.224 1.753 20.978-8.876 41.054-27.211 51.396-5.015 2.829-11.275-.486-11.755-6.224z" fill="#4f8980"/></g></g><g><g><path d="m58.189 123.07c-17.889-11.096-27.674-31.597-25.05-52.484.718-5.713 7.11-8.764 12.004-5.729 17.889 11.096 27.674 31.597 25.05 52.484-.719 5.713-7.111 8.764-12.004 5.729z" fill="#4f8980"/></g></g><g><g><path d="m41.73 180.435c-19.376-8.229-32.182-26.992-32.784-48.034-.165-5.756 5.686-9.749 10.986-7.498 19.376 8.229 32.182 26.992 32.784 48.034.165 5.756-5.686 9.749-10.986 7.498z" fill="#4f8980"/></g></g><g><path d="m412.18 512.002c-2.672.001-5.258-1.431-6.612-3.948-.624-1.161-15.362-28.88-21.98-68.62-8.822-52.978 1.319-101.981 29.327-141.714 44.831-63.598 40.325-122.503 33.648-151.955-2.224-9.811-7.763-18.786-15.598-25.274-17.938-14.854-44.27-14.038-61.254 1.896l-23.411 21.965c-3.021 2.834-7.768 2.682-10.602-.338-2.834-3.021-2.683-7.768.338-10.602l23.412-21.966c22.485-21.093 57.344-22.171 81.084-2.509 10.371 8.589 17.709 20.489 20.66 33.511 7.228 31.882 12.158 95.572-36.018 163.914-26.054 36.96-35.067 80.903-26.79 130.607 6.214 37.313 20.253 63.717 20.395 63.979 1.962 3.648.595 8.196-3.053 10.158-1.13.608-2.346.896-3.546.896z" fill="#3d6b73"/></g><g><g><path d="m360.933 111.657c-2.952-20.843-17.776-38.056-37.95-44.066-5.519-1.644-10.886 2.978-10.078 8.68 2.952 20.843 17.776 38.056 37.95 44.066 5.518 1.644 10.885-2.979 10.078-8.68z" fill="#4f8980"/></g><g><path d="m367.834 189.54c11.134-17.865 10.84-40.58-.754-58.15-3.171-4.806-10.254-4.715-13.3.172-11.134 17.865-10.84 40.58.754 58.15 3.172 4.806 10.255 4.715 13.3-.172z" fill="#4f8980"/></g></g><g><g><path d="m420.813 96.141c2.053-20.95-8.288-41.177-26.473-51.78-4.975-2.901-11.281.324-11.843 6.055-2.053 20.95 8.288 41.177 26.473 51.78 4.975 2.9 11.282-.324 11.843-6.055z" fill="#4f8980"/></g><g><path d="m421.254 172.17c12.301-17.083 13.522-39.767 3.126-58.071-2.844-5.007-9.917-5.388-13.282-.715-12.301 17.083-13.522 39.767-3.125 58.071 2.843 5.008 9.916 5.388 13.281.715z" fill="#4f8980"/></g></g><g><g><path d="m435.144 297.987c18.613 9.834 41.249 7.923 57.949-4.892 4.568-3.506 3.973-10.564-1.119-13.254-18.613-9.834-41.249-7.923-57.949 4.892-4.568 3.506-3.972 10.564 1.119 13.254z" fill="#4f8980"/></g><g><path d="m367.835 268.466c11.152 17.854 31.684 27.574 52.562 24.885 5.711-.736 8.742-7.138 5.691-12.022-11.152-17.854-31.684-27.574-52.562-24.885-5.711.736-8.742 7.138-5.691 12.022z" fill="#4f8980"/></g></g><g><g><path d="m398.911 353.18c17.946 11.003 40.658 10.543 58.143-1.178 4.783-3.206 4.64-10.288-.27-13.298-17.946-11.003-40.658-10.543-58.143 1.178-4.783 3.206-4.64 10.288.27 13.298z" fill="#4f8980"/></g><g><path d="m337.638 319.034c9.988 18.53 29.857 29.543 50.864 28.193 5.747-.369 9.18-6.564 6.448-11.633-9.988-18.53-29.857-29.543-50.864-28.193-5.747.369-9.181 6.564-6.448 11.633z" fill="#4f8980"/></g></g><g><g><path d="m393.088 419.913c20.636 4.158 41.803-4.087 54.189-21.109 3.388-4.656.817-11.256-4.828-12.394-20.636-4.158-41.803 4.087-54.189 21.109-3.388 4.657-.817 11.257 4.828 12.394z" fill="#4f8980"/></g><g><path d="m324.418 412.37c15.753 13.963 38.198 17.469 57.459 8.974 5.269-2.324 6.362-9.322 2.052-13.141-15.753-13.963-38.198-17.468-57.459-8.974-5.268 2.324-6.361 9.322-2.052 13.141z" fill="#4f8980"/></g></g><g><g><path d="m408.984 483.281c20.715 3.746 41.714-4.919 53.758-22.183 3.295-4.723.593-11.27-5.074-12.295-20.715-3.746-41.714 4.919-53.758 22.183-3.295 4.723-.593 11.27 5.074 12.295z" fill="#4f8980"/></g><g><path d="m336.18 477.306c16.028 13.647 38.538 16.705 57.626 7.828 5.221-2.428 6.175-9.447 1.79-13.18-16.028-13.647-38.538-16.705-57.626-7.828-5.221 2.428-6.175 9.447-1.79 13.18z" fill="#4f8980"/></g></g><g><g><path d="m401.644 225.969c20.745 3.574 41.671-5.266 53.571-22.631 3.255-4.75.499-11.275-5.176-12.252-20.745-3.574-41.671 5.266-53.571 22.631-3.255 4.749-.499 11.274 5.176 12.252z" fill="#4f8980"/></g></g><path d="m497.409 245.686c1.753-20.978-8.876-41.054-27.211-51.396-5.015-2.829-11.275.485-11.755 6.224-1.753 20.978 8.876 41.054 27.211 51.396 5.015 2.829 11.275-.486 11.755-6.224z" fill="#4f8980"/><g><g><path d="m453.814 123.07c17.889-11.096 27.674-31.597 25.05-52.484-.718-5.713-7.11-8.764-12.004-5.729-17.889 11.096-27.674 31.597-25.05 52.484.718 5.713 7.11 8.764 12.004 5.729z" fill="#4f8980"/></g></g><g><g><path d="m470.272 180.435c19.376-8.229 32.182-26.992 32.784-48.034.165-5.756-5.686-9.749-10.986-7.498-19.376 8.229-32.182 26.992-32.784 48.034-.164 5.756 5.686 9.749 10.986 7.498z" fill="#4f8980"/></g></g></g></svg>