<svg id="Capa_1" enable-background="new 0 0 512.002 512.002" height="512" viewBox="0 0 512.002 512.002" width="512" xmlns="http://www.w3.org/2000/svg"><g><path d="m190.381 211.878-2.253-.007c-50.117-.144-98.865-16.366-139.075-46.28-.572-.397-.25-1.363.445-1.338 50.117.144 98.865 16.366 139.075 46.28z" fill="#78c2a4"/><g><path d="m281.115 107.927 2.446-.451c54.401-10.033 110.586-2.346 160.293 21.933.925.25.746 1.55-.211 1.542-54.401 10.033-110.586 2.346-160.293-21.933z" fill="#78c2a4"/><path d="m281.115 107.927 1.28-2.132c28.483-47.422 71.432-84.453 122.529-105.647.8-.527 1.656.466 1.017 1.179-28.482 47.423-71.431 84.454-122.528 105.648z" fill="#78c2a4"/><path d="m281.115 107.927 2.054-1.402c45.686-31.192 100.175-46.902 155.454-44.819.947-.145 1.31 1.115.431 1.496-45.686 31.192-100.175 46.902-155.454 44.819z" fill="#95d6a4"/></g><g><path d="m314.257 227.633 1.732-1.441c38.531-32.048 86.329-50.886 136.364-53.745.693-.063 1.066.885.517 1.312-38.531 32.048-86.329 50.886-136.364 53.745z" fill="#78c2a4"/><path d="m314.257 227.633 2.176-.586c48.394-13.027 99.692-10.181 146.348 8.118.656.232.599 1.25-.078 1.408-48.394 13.027-99.692 10.181-146.348-8.118z" fill="#95d6a4"/></g><path d="m190.381 211.878-2.044-.947c-45.477-21.062-82.995-56.161-107.037-100.134-.354-.599.342-1.343.964-1.03 45.476 21.062 82.994 56.161 107.037 100.134z" fill="#95d6a4"/><path d="m291.427 336.658h-76.707v-254.143c0-1.233.999-2.232 2.232-2.232h72.243c1.233 0 2.232.999 2.232 2.232z" fill="#69af81"/><path d="m271.456 80.283v256.375h19.971v-254.143c0-1.233-.999-2.232-2.232-2.232z" fill="#5ea570"/><g><path d="m293.671 143.476h-81.195c-4.272 0-7.734-3.462-7.734-7.734s3.462-7.734 7.734-7.734h81.195c4.272 0 7.734 3.462 7.734 7.734-.001 4.272-3.463 7.734-7.734 7.734z" fill="#5ea570"/></g><g><path d="m287.568 234.606h-69.53c-4.272 0-7.734-3.462-7.734-7.734s3.462-7.734 7.734-7.734h69.53c4.272 0 7.734 3.462 7.734 7.734s-3.462 7.734-7.734 7.734z" fill="#5ea570"/></g><g><path d="m291.427 277.832h-77.248c-4.272 0-7.734-3.462-7.734-7.734s3.462-7.734 7.734-7.734h77.248c4.272 0 7.734 3.462 7.734 7.734s-3.462 7.734-7.734 7.734z" fill="#5ea570"/></g><g><g><g><path d="m173.406 496.8c-35.407-43.995-44.716-94.133-27.926-150.412 1.725-5.783 7.077-9.729 13.113-9.729h183.747c6.035 0 11.387 3.946 13.113 9.729 16.79 56.28 7.481 106.417-27.926 150.412-7.748 9.627-19.466 15.203-31.824 15.203h-90.474c-12.357-.001-24.075-5.576-31.823-15.203z" fill="#4a80aa"/><path d="m355.453 346.387c-1.725-5.783-7.077-9.729-13.113-9.729h-27.324c6.035 0 11.387 3.946 13.113 9.729 16.79 56.28 7.481 106.417-27.926 150.412-7.748 9.627-19.466 15.203-31.824 15.203h27.324c12.358 0 24.076-5.575 31.824-15.203 35.407-43.994 44.716-94.132 27.926-150.412z" fill="#407093"/></g></g></g><path d="m229.055 336.658h-48.018v-142.627c0-1.233.999-2.232 2.232-2.232h43.553c1.233 0 2.232.999 2.232 2.232v142.627z" fill="#95d6a4"/><path d="m209.661 191.798v144.859h19.394v-142.626c0-1.233-.999-2.232-2.232-2.232h-17.162z" fill="#78c2a4"/><g><path d="m231.656 242.934h-53.22c-4.272 0-7.734-3.462-7.734-7.734s3.462-7.734 7.734-7.734h53.22c4.272 0 7.734 3.462 7.734 7.734s-3.463 7.734-7.734 7.734z" fill="#78c2a4"/></g><g><path d="m231.656 300.882h-53.22c-4.272 0-7.734-3.462-7.734-7.734s3.462-7.734 7.734-7.734h53.22c4.272 0 7.734 3.462 7.734 7.734s-3.463 7.734-7.734 7.734z" fill="#78c2a4"/></g><path d="m324.569 336.658h-48.018v-116.834c0-1.233 1-2.232 2.232-2.232h43.553c1.233 0 2.232.999 2.232 2.232v116.834z" fill="#95d6a4"/><path d="m305.175 217.591v119.067h19.394v-116.834c0-1.233-1-2.232-2.232-2.232h-17.162z" fill="#78c2a4"/><g><path d="m328.454 256.874h-55.788c-4.272 0-7.734-3.462-7.734-7.734s3.462-7.734 7.734-7.734h55.788c4.272 0 7.734 3.462 7.734 7.734s-3.462 7.734-7.734 7.734z" fill="#78c2a4"/></g><g><path d="m328.454 302.695h-55.788c-4.272 0-7.734-3.462-7.734-7.734s3.462-7.734 7.734-7.734h55.788c4.272 0 7.734 3.462 7.734 7.734s-3.462 7.734-7.734 7.734z" fill="#78c2a4"/></g></g></svg>