<svg id="Capa_1" enable-background="new 0 0 512 512" height="512" viewBox="0 0 512 512" width="512" xmlns="http://www.w3.org/2000/svg"><g><g><g><path d="m288.274 29.443c-2.121 0-4.231-.867-5.758-2.57-2.847-3.178-2.579-8.063.599-10.91l15.109-13.536c3.18-2.847 8.063-2.577 10.91.599 2.847 3.178 2.579 8.063-.599 10.91l-15.109 13.536c-1.474 1.32-3.317 1.971-5.152 1.971z" fill="#f6f1f1"/></g><g><path d="m316.329 65.49c-.354 0-.711-.024-1.071-.074l-21.395-2.966c-4.226-.586-7.178-4.487-6.592-8.714s4.488-7.19 8.714-6.592l21.395 2.966c4.226.586 7.178 4.487 6.592 8.714-.537 3.866-3.848 6.666-7.643 6.666z" fill="#f6f1f1"/></g><g><path d="m225.736 28.413c-.139 0-.279-.004-.421-.011l-19.209-1.03c-4.261-.228-7.53-3.868-7.301-8.129.229-4.262 3.861-7.519 8.129-7.302l19.209 1.03c4.261.228 7.53 3.868 7.301 8.129-.221 4.121-3.631 7.313-7.708 7.313z" fill="#f6f1f1"/></g><g><path d="m202.812 75.722c-2.216 0-4.416-.949-5.944-2.786-2.729-3.28-2.281-8.152.999-10.88l15.892-13.219c3.281-2.73 8.152-2.282 10.881.999 2.729 3.28 2.281 8.152-.999 10.88l-15.892 13.219c-1.444 1.201-3.196 1.787-4.937 1.787z" fill="#f6f1f1"/></g></g><g><g><path d="m201.912 133.153c-2.373 0-4.714-1.09-6.229-3.148l-13.003-17.668c-2.529-3.437-1.794-8.273 1.643-10.803 3.436-2.529 8.272-1.794 10.802 1.644l13.003 17.668c2.529 3.437 1.794 8.273-1.643 10.803-1.379 1.014-2.983 1.504-4.573 1.504z" fill="#ccf49f"/></g><g><path d="m181.241 171.427c-1.905 0-3.815-.701-5.308-2.114l-12.425-11.756c-3.1-2.933-3.235-7.823-.303-10.923 2.932-3.102 7.822-3.235 10.923-.303l12.425 11.756c3.1 2.933 3.235 7.823.303 10.923-1.52 1.607-3.566 2.417-5.615 2.417z" fill="#ccf49f"/></g><g><path d="m159.805 222.391c-1.467 0-2.951-.417-4.265-1.29l-15.384-10.209c-3.555-2.359-4.525-7.154-2.165-10.71 2.36-3.553 7.154-4.524 10.71-2.165l15.384 10.209c3.555 2.359 4.525 7.154 2.165 10.71-1.487 2.24-3.942 3.455-6.445 3.455z" fill="#ccf49f"/></g><g><path d="m152.889 275.882c-3.119 0-6.056-1.901-7.226-4.991-1.512-3.99.497-8.451 4.487-9.963l17.378-6.585c3.989-1.51 8.451.498 9.963 4.488s-.497 8.451-4.488 9.963l-17.378 6.585c-.901.341-1.827.503-2.736.503z" fill="#ccf49f"/></g><g><path d="m312.593 137.088c-3.073 0-5.979-1.846-7.182-4.875-1.575-3.966.361-8.458 4.327-10.033l19.801-7.867c3.963-1.577 8.458.361 10.033 4.327s-.361 8.458-4.327 10.033l-19.801 7.867c-.935.372-1.901.548-2.851.548z" fill="#ccf49f"/></g><g><path d="m351.535 179.886c-.569 0-1.147-.063-1.725-.195l-19.136-4.364c-4.16-.949-6.764-5.091-5.815-9.252.949-4.16 5.091-6.762 9.251-5.815l19.136 4.364c4.16.949 6.764 5.091 5.815 9.252-.817 3.581-4.001 6.01-7.526 6.01z" fill="#ccf49f"/></g><g><path d="m346.446 244.197c-3.896 0-7.245-2.938-7.673-6.899-.457-4.242 2.612-8.052 6.854-8.51l21.242-2.29c4.25-.453 8.052 2.612 8.51 6.854.457 4.242-2.612 8.052-6.854 8.51l-21.242 2.29c-.28.03-.561.045-.837.045z" fill="#ccf49f"/></g><g><path d="m361.67 279.913c-1.68 0-3.371-.545-4.791-1.669l-16.675-13.202c-3.346-2.649-3.91-7.508-1.262-10.853 2.65-3.346 7.508-3.909 10.853-1.262l16.675 13.202c3.346 2.649 3.91 7.508 1.262 10.853-1.525 1.927-3.783 2.931-6.062 2.931z" fill="#ccf49f"/></g></g><path d="m235.632 89.84c-8.614-7.896-15.215-16.195-19.803-24.897-15.429-29.258 6.091-64.502 39.165-64.936.3-.004.6-.006.9-.007 34.179-.072 56.264 36.102 39.809 66.059-4.557 8.296-10.958 16.224-19.203 23.782h-40.868z" fill="#e490d0"/><path d="m255.895 0c-.3.001-.6.003-.9.007-3.012.039-5.925.375-8.727.961 28.531 5.914 45.112 38.034 30.25 65.091-4.557 8.296-10.958 16.223-19.203 23.781h19.186c8.245-7.558 14.646-15.485 19.203-23.781 16.455-29.957-5.631-66.131-39.809-66.059z" fill="#dd5ca2"/><g><g><path d="m265.004 46.251c-2.714 0-5.347-1.433-6.76-3.973l-3.869-6.96c-2.074-3.729-.731-8.434 2.998-10.507 3.729-2.072 8.433-.731 10.507 2.998l3.869 6.96c2.073 3.729.731 8.434-2.998 10.507-1.189.661-2.477.975-3.747.975z" fill="#dd5ca2"/></g><g><path d="m236.111 58.127c-1.141 0-2.298-.254-3.391-.789-3.833-1.876-5.419-6.504-3.543-10.337l2.682-5.479c1.876-3.834 6.506-5.42 10.337-3.542 3.833 1.876 5.419 6.504 3.543 10.337l-2.682 5.479c-1.342 2.739-4.089 4.331-6.946 4.331z" fill="#dd5ca2"/></g></g><path d="m219.087 103.319-1.178 6.414c-.705 3.839-4.308 6.443-8.174 5.908-12.079-1.671-21.515 10.242-17.122 21.618l5.232 13.548c.749 1.94-1.115 3.868-3.08 3.185-12.242-4.26-24.205 7.039-20.649 19.504l4.892 17.15c.44 1.543-.702 3.083-2.306 3.11-15.436.259-26.689 14.705-23.164 29.735l17.796 75.881h169.334l17.796-75.881c3.525-15.03-7.728-29.475-23.164-29.735-1.604-.027-2.747-1.568-2.306-3.11l4.892-17.15c3.556-12.465-8.408-23.765-20.649-19.504-1.964.684-3.829-1.245-3.08-3.185l5.232-13.548c4.393-11.376-5.042-23.289-17.122-21.618-3.867.535-7.469-2.069-8.174-5.908l-1.178-6.414c-3.272-17.814-18.801-30.75-36.913-30.75-18.114 0-33.643 12.935-36.915 30.75z" fill="#95d6a4"/><g><path d="m216.611 179.886c-3.481 0-6.641-2.368-7.501-5.9-1.01-4.146 1.533-8.326 5.679-9.335l10.879-2.649c4.149-1.013 8.325 1.533 9.335 5.679s-1.533 8.326-5.679 9.335l-10.879 2.649c-.614.149-1.229.221-1.834.221z" fill="#ccf49f"/></g><g><path d="m244.674 140.361h-10.932c-4.267 0-7.726-3.459-7.726-7.726s3.459-7.726 7.726-7.726h10.932c4.267 0 7.726 3.459 7.726 7.726s-3.459 7.726-7.726 7.726z" fill="#ccf49f"/></g><g><path d="m210.812 230.838c-3.744 0-7.033-2.727-7.625-6.542-.654-4.217 2.233-8.166 6.45-8.82l9.661-1.499c4.219-.652 8.165 2.233 8.819 6.45s-2.233 8.166-6.45 8.82l-9.661 1.499c-.401.062-.8.092-1.194.092z" fill="#ccf49f"/></g><g><path d="m234.095 268.151h-9.232c-4.267 0-7.726-3.459-7.726-7.726s3.459-7.726 7.726-7.726h9.232c4.267 0 7.726 3.459 7.726 7.726s-3.459 7.726-7.726 7.726z" fill="#ccf49f"/></g><g><path d="m291.632 148.046c-.47 0-.946-.042-1.424-.132l-12.105-2.255c-4.195-.781-6.963-4.815-6.181-9.01.782-4.196 4.824-6.963 9.01-6.181l12.105 2.255c4.195.781 6.963 4.815 6.181 9.01-.691 3.717-3.938 6.313-7.586 6.313z" fill="#ccf49f"/></g><g><path d="m271.431 189.194c-3.585 0-6.8-2.509-7.557-6.158-.867-4.178 1.817-8.268 5.995-9.136l9.958-2.067c4.173-.867 8.269 1.816 9.136 5.995.867 4.178-1.817 8.268-5.995 9.136l-9.958 2.067c-.529.11-1.059.163-1.579.163z" fill="#ccf49f"/></g><g><path d="m293.422 236.166c-3.17 0-6.142-1.966-7.273-5.121-1.441-4.017.648-8.441 4.665-9.88l9.958-3.57c4.013-1.441 8.441.648 9.88 4.665 1.441 4.017-.648 8.441-4.665 9.88l-9.958 3.57c-.86.309-1.741.456-2.607.456z" fill="#ccf49f"/></g><g><path d="m276.409 277.5c-3.925 0-7.285-2.978-7.68-6.966-.421-4.246 2.681-8.03 6.928-8.451l9.489-.94c4.243-.418 8.03 2.681 8.451 6.928.421 4.246-2.681 8.03-6.928 8.451l-9.489.94c-.259.025-.516.038-.771.038z" fill="#ccf49f"/></g><g><path d="m285.251 316.056h-58.502c-4.034 0-7.389-3.104-7.703-7.126l-6.148-78.878c-.96-12.32.857-27.919 7.08-34.997.493-.561.994-1.05 1.497-1.477l-1.457-15.366c-.79-8.327.021-23.077 7.619-28.056l-1.201-9.357c-1.132-8.823-.266-23.894 6.763-29.26.618-.471 1.272-.864 1.951-1.177l.385-6.299c1.499-24.558 9.149-39.22 20.465-39.22 11.315 0 18.965 14.662 20.465 39.22l.383 6.299c.68.313 1.334.706 1.952 1.178 7.028 5.365 7.894 20.437 6.762 29.259l-1.201 9.357c7.6 4.979 8.409 19.729 7.621 28.056l-1.457 15.366c.503.427 1.004.917 1.497 1.477 6.224 7.078 8.041 22.678 7.08 34.997l-6.148 78.878c-.313 4.022-3.669 7.126-7.703 7.126zm-51.354-15.453h44.207l5.593-71.753c.927-11.876-1.413-20.414-2.882-23.01-1.355-.461-2.575-1.283-3.552-2.412-2.597-3.004-2.511-7.188-2.354-8.847l1.69-17.828c.464-4.885-.005-9.071-.631-11.726-.866-.098-1.726-.338-2.545-.728-4.484-2.138-5.519-7.283-4.994-11.384l1.808-14.083c.742-5.782.045-11.165-.78-13.966-.836-.221-1.649-.571-2.414-1.049-4.167-2.598-5.342-8.036-5.594-12.141l-.406-6.671c-.734-12.03-3.187-19.567-5.041-23.029-1.855 3.462-4.307 10.999-5.041 23.03h.001l-.407 6.668c-.251 4.106-1.425 9.543-5.591 12.142-.766.478-1.579.828-2.415 1.049-.825 2.802-1.523 8.185-.781 13.967l1.807 14.082c.527 4.101-.508 9.244-4.99 11.383-.819.391-1.68.633-2.548.73-.625 2.655-1.094 6.841-.631 11.726l1.69 17.827c.157 1.66.242 5.843-2.354 8.848-.977 1.13-2.197 1.952-3.552 2.413-1.469 2.596-3.808 11.134-2.882 23.009zm49.1-94.344h.009c-.003 0-.006 0-.009 0zm-53.991 0c-.004 0-.007 0-.01 0zm.252-43.714.004.004c-.002-.001-.003-.002-.004-.004zm42.317-10.682c-.002.003-.005.006-.008.009.003-.003.005-.006.008-.009zm-2.55-41.658c-.005.001-.009.003-.013.005.004-.001.008-.004.013-.005zm-26.05 0c.004.001.007.003.01.004-.003 0-.006-.003-.01-.004zm26.056-.003s0 0-.001 0z" fill="#ccf49f"/></g><path d="m356.64 337.103-19.613-18.533-166.42-.333-15.247 18.866 25.86 142.741 22.017 16.078h103.028l24.515-16.078z" fill="#c6865c"/><path d="m155.36 337.103 3.716 20.515h119.687c25.049 0 43.988 22.678 39.522 47.326l-13.569 74.901 8.756 16.078 17.307-16.078 25.859-142.742-26.275-18.865-152.679.014z" fill="#c17d4f"/><path d="m374.787 337.103h-237.574c-2.471 0-4.474-2.003-4.474-4.474v-28.783c0-2.471 2.003-4.474 4.474-4.474h237.574c2.471 0 4.474 2.003 4.474 4.474v28.783c0 2.471-2.003 4.474-4.474 4.474z" fill="#9d6b6b"/><path d="m374.787 299.372h-18.653v37.731h18.653c2.471 0 4.474-2.003 4.474-4.474v-28.783c0-2.471-2.003-4.474-4.474-4.474z" fill="#8b5e5e"/><path d="m155.186 491.992c-.743-1.813-1.359-3.716-1.848-5.703-.805-3.276 1.681-6.445 5.054-6.445h195.214c3.373 0 5.86 3.169 5.054 6.445-.488 1.986-1.104 3.889-1.848 5.703-5.019 12.249-17.235 20.008-30.473 20.008h-140.678c-13.238 0-25.454-7.759-30.475-20.008z" fill="#9d6b6b"/><path d="m353.607 479.844h-24.423c3.373 0 5.86 3.169 5.054 6.445-.488 1.986-1.104 3.889-1.848 5.703-5.02 12.249-17.236 20.008-30.473 20.008h24.423c13.238 0 25.453-7.759 30.474-20.008.743-1.814 1.359-3.716 1.848-5.703.804-3.276-1.682-6.445-5.055-6.445z" fill="#8b5e5e"/></g></svg>