<svg id="Capa_1" enable-background="new 0 0 512 512" height="512" viewBox="0 0 512 512" width="512" xmlns="http://www.w3.org/2000/svg"><g><path d="m304.571 197.186-8.192-11.001c-55.285-74.243-5.998-180.19 86.401-185.729l7.247-.434c4.021-.241 7.894 1.56 10.3 4.792l4.336 5.823c55.285 74.243 5.998 180.19-86.401 185.729z" fill="#4f8980"/><g><path d="m304.565 204.92c-1.092 0-2.201-.233-3.256-.724-3.872-1.801-5.55-6.4-3.749-10.271l76.227-163.857c1.8-3.873 6.4-5.552 10.271-3.749 3.872 1.801 5.55 6.4 3.749 10.271l-76.227 163.857c-1.309 2.817-4.1 4.473-7.015 4.473z" fill="#3d6b73"/></g><g><path d="m365.521 73.897c-1.114 0-2.228-.241-3.261-.722-2.019-.938-3.534-2.701-4.16-4.837l-8.204-28.021c-1.199-4.098 1.15-8.393 5.248-9.593 4.102-1.193 8.393 1.151 9.593 5.248l5.727 19.565 18.656-8.222c3.908-1.724 8.471.05 10.193 3.958 1.722 3.907-.049 8.471-3.958 10.193l-26.716 11.774c-.993.438-2.056.657-3.118.657z" fill="#3d6b73"/></g><g><path d="m317.896 176.271c-2.921 0-5.667-1.663-6.975-4.401l-14.866-31.12c-1.84-3.853-.209-8.469 3.644-10.309 3.852-1.839 8.469-.21 10.309 3.644l12.116 25.364 27.206-7.071c4.142-1.069 8.354 1.405 9.428 5.538s-1.405 8.354-5.538 9.428l-33.379 8.676c-.646.169-1.3.251-1.945.251z" fill="#3d6b73"/></g><g><path d="m350.325 106.562c-2.99 0-5.799-1.743-7.065-4.595l-17.551-39.525c-1.733-3.903.026-8.472 3.928-10.204 3.903-1.732 8.473.027 10.204 3.928l14.812 33.359 35.057-10.159c4.105-1.188 8.391 1.172 9.578 5.273 1.189 4.102-1.172 8.39-5.273 9.578l-41.538 12.038c-.714.207-1.438.307-2.152.307z" fill="#3d6b73"/></g><g><path d="m333.991 141.673c-2.99 0-5.799-1.743-7.065-4.595l-17.551-39.524c-1.733-3.903.026-8.472 3.928-10.204 3.903-1.733 8.471.026 10.204 3.928l14.812 33.358 35.057-10.159c4.105-1.179 8.391 1.173 9.579 5.274 1.188 4.102-1.173 8.39-5.274 9.579l-41.538 12.037c-.715.207-1.438.306-2.152.306z" fill="#3d6b73"/></g><g><path d="m261.307 352.077c-4.109 0-7.53-3.234-7.718-7.38-3.236-71.102 42.402-148.232 44.346-151.481 2.194-3.666 6.944-4.855 10.605-2.664 3.665 2.194 4.857 6.942 2.664 10.605-.528.884-45.187 76.496-42.168 142.837.194 4.266-3.107 7.881-7.372 8.075-.119.005-.238.008-.357.008z" fill="#3d6b73"/></g><path d="m339.111 290.478.369-11.335c2.492-76.497 88.949-119.626 151.561-75.607l3.996 2.81c3.296 2.317 5.202 6.139 5.071 10.165l-.159 4.883c-2.492 76.497-88.949 119.626-151.561 75.607z" fill="#4f8980"/><g><path d="m339.116 298.212c-2.839 0-5.571-1.57-6.924-4.283-1.907-3.821-.354-8.464 3.467-10.37l133.713-66.703c3.823-1.904 8.464-.354 10.37 3.467 1.907 3.821.354 8.464-3.467 10.37l-133.713 66.703c-1.109.554-2.286.816-3.446.816z" fill="#3d6b73"/></g><g><path d="m469.378 251.025c-.651 0-1.315-.084-1.974-.257l-23.345-6.149c-2.152-.567-3.956-2.034-4.949-4.026-.994-1.991-1.081-4.314-.24-6.375l9.128-22.349c1.615-3.954 6.126-5.85 10.082-4.234 3.954 1.615 5.849 6.128 4.234 10.082l-5.797 14.192 14.824 3.905c4.13 1.088 6.595 5.318 5.508 9.446-.913 3.47-4.044 5.765-7.471 5.765z" fill="#3d6b73"/></g><g><path d="m388.542 298.134c-1.05 0-2.116-.214-3.137-.668l-26.057-11.585c-3.384-1.505-5.226-5.197-4.392-8.805l6.417-27.784c.961-4.16 5.123-6.75 9.273-5.794 4.161.96 6.754 5.113 5.794 9.273l-4.981 21.571 20.229 8.993c3.902 1.735 5.659 6.304 3.924 10.206-1.282 2.881-4.108 4.593-7.07 4.593z" fill="#3d6b73"/></g><g><path d="m452.435 271.786c-.981 0-1.977-.188-2.941-.584l-33.065-13.613c-3.574-1.472-5.513-5.358-4.538-9.098l9.01-34.604c1.076-4.132 5.296-6.61 9.43-5.534 4.133 1.076 6.61 5.299 5.534 9.43l-7.31 28.075 26.826 11.044c3.948 1.626 5.831 6.145 4.206 10.094-1.228 2.985-4.111 4.79-7.152 4.79z" fill="#3d6b73"/></g><g><path d="m423.782 286.08c-.981 0-1.977-.187-2.941-.584l-33.065-13.614c-3.575-1.472-5.513-5.358-4.538-9.099l9.011-34.603c1.076-4.132 5.294-6.609 9.43-5.533 4.133 1.076 6.61 5.299 5.534 9.43l-7.311 28.074 26.826 11.045c3.948 1.626 5.831 6.145 4.206 10.094-1.228 2.985-4.111 4.79-7.152 4.79z" fill="#3d6b73"/></g><g><path d="m258.889 369.23c-1.574 0-3.16-.478-4.531-1.473-3.457-2.506-4.229-7.34-1.723-10.797 34.47-47.561 80.92-72.296 82.88-73.326 3.777-1.985 8.455-.532 10.44 3.25 1.985 3.78.531 8.454-3.249 10.44-.681.36-45.365 24.304-77.551 68.711-1.512 2.085-3.873 3.194-6.266 3.195z" fill="#3d6b73"/></g><path d="m207.429 197.186 8.192-11.001c55.285-74.243 5.998-180.19-86.401-185.729l-7.247-.434c-4.022-.241-7.894 1.56-10.3 4.792l-4.336 5.823c-55.285 74.243-5.998 180.19 86.401 185.729z" fill="#4f8980"/><g><path d="m207.434 204.92c-2.915 0-5.705-1.656-7.015-4.473l-76.226-163.857c-1.801-3.871-.123-8.47 3.749-10.271 3.874-1.803 8.471-.122 10.271 3.749l76.226 163.857c1.801 3.871.123 8.47-3.749 10.271-1.055.491-2.165.724-3.256.724z" fill="#3d6b73"/></g><g><path d="m146.478 73.897c-1.062 0-2.124-.218-3.118-.656l-26.717-11.775c-3.908-1.723-5.679-6.286-3.958-10.193 1.724-3.908 6.289-5.678 10.193-3.958l18.655 8.222 5.728-19.565c1.199-4.097 5.493-6.445 9.593-5.248 4.098 1.2 6.447 5.496 5.248 9.593l-8.205 28.021c-.626 2.136-2.141 3.899-4.16 4.837-1.031.481-2.145.722-3.259.722z" fill="#3d6b73"/></g><g><path d="m194.104 176.271c-.645 0-1.299-.082-1.947-.25l-33.379-8.676c-4.133-1.074-6.612-5.296-5.538-9.428s5.291-6.614 9.428-5.538l27.206 7.071 12.116-25.364c1.84-3.854 6.457-5.485 10.309-3.644 3.854 1.84 5.485 6.456 3.644 10.309l-14.866 31.12c-1.305 2.736-4.052 4.4-6.973 4.4z" fill="#3d6b73"/></g><g><path d="m161.675 106.562c-.714 0-1.438-.1-2.153-.307l-41.538-12.038c-4.102-1.188-6.462-5.477-5.273-9.578 1.188-4.102 5.48-6.46 9.578-5.273l35.057 10.159 14.812-33.359c1.734-3.902 6.306-5.66 10.204-3.928 3.902 1.733 5.661 6.301 3.928 10.204l-17.551 39.525c-1.265 2.852-4.075 4.595-7.064 4.595z" fill="#3d6b73"/></g><g><path d="m178.009 141.673c-.714 0-1.438-.099-2.153-.306l-41.537-12.037c-4.102-1.189-6.462-5.478-5.274-9.579 1.189-4.103 5.478-6.459 9.579-5.274l35.056 10.159 14.812-33.358c1.733-3.903 6.305-5.661 10.204-3.928 3.902 1.733 5.661 6.301 3.928 10.204l-17.551 39.524c-1.266 2.853-4.075 4.595-7.064 4.595z" fill="#3d6b73"/></g><g><path d="m250.693 352.077c-.119 0-.238-.003-.357-.008-4.266-.194-7.567-3.81-7.372-8.075 3.021-66.398-41.718-142.082-42.17-142.839-2.191-3.665-.997-8.411 2.668-10.603 3.666-2.193 8.41-.999 10.602 2.664 1.944 3.249 47.583 80.379 44.347 151.481-.188 4.145-3.609 7.38-7.718 7.38z" fill="#3d6b73"/></g><path d="m172.889 290.478-.369-11.335c-2.492-76.497-88.949-119.626-151.561-75.607l-3.996 2.81c-3.296 2.317-5.202 6.139-5.071 10.165l.159 4.883c2.492 76.497 88.949 119.626 151.561 75.607z" fill="#4f8980"/><g><path d="m172.883 298.212c-1.16 0-2.337-.262-3.445-.815l-133.713-66.703c-3.822-1.906-5.374-6.549-3.467-10.37 1.905-3.823 6.547-5.378 10.37-3.467l133.712 66.703c3.822 1.906 5.374 6.549 3.467 10.37-1.352 2.713-4.085 4.282-6.924 4.282z" fill="#3d6b73"/></g><g><path d="m42.621 251.025c-3.427 0-6.558-2.295-7.472-5.765-1.087-4.129 1.378-8.358 5.508-9.446l14.825-3.905-5.798-14.192c-1.615-3.953.281-8.467 4.234-10.082 3.956-1.616 8.466.281 10.082 4.234l9.129 22.349c.842 2.06.754 4.383-.24 6.375-.993 1.992-2.797 3.459-4.949 4.026l-23.346 6.149c-.658.173-1.321.257-1.973.257z" fill="#3d6b73"/></g><g><path d="m123.459 298.134c-2.962 0-5.788-1.711-7.069-4.593-1.735-3.902.022-8.472 3.924-10.206l20.229-8.993-4.982-21.57c-.961-4.161 1.633-8.313 5.793-9.274 4.168-.956 8.314 1.633 9.274 5.793l6.418 27.784c.834 3.609-1.009 7.301-4.392 8.806l-26.057 11.585c-1.022.452-2.088.668-3.138.668z" fill="#3d6b73"/></g><g><path d="m59.565 271.786c-3.04 0-5.924-1.804-7.153-4.79-1.625-3.948.258-8.468 4.206-10.094l26.826-11.044-7.311-28.075c-1.076-4.132 1.401-8.354 5.534-9.43 4.134-1.075 8.354 1.402 9.43 5.534l9.011 34.604c.975 3.74-.964 7.626-4.538 9.098l-33.065 13.613c-.962.396-1.959.584-2.94.584z" fill="#3d6b73"/></g><g><path d="m88.218 286.08c-3.04 0-5.924-1.804-7.153-4.79-1.625-3.948.258-8.468 4.206-10.094l26.826-11.045-7.311-28.074c-1.076-4.132 1.401-8.354 5.534-9.43 4.132-1.079 8.355 1.403 9.43 5.533l9.011 34.603c.975 3.741-.963 7.627-4.538 9.099l-33.065 13.614c-.963.396-1.959.584-2.94.584z" fill="#3d6b73"/></g><g><path d="m253.111 369.23c-2.394 0-4.754-1.108-6.266-3.195-32.368-44.66-77.103-68.475-77.551-68.711-3.78-1.985-5.236-6.66-3.25-10.44 1.983-3.778 6.656-5.238 10.44-3.25 1.96 1.03 48.411 25.765 82.881 73.326 2.507 3.457 1.735 8.292-1.723 10.797-1.37.994-2.957 1.473-4.531 1.473z" fill="#3d6b73"/></g><g><path d="m256 337.984c-4.271 0-7.732-3.461-7.732-7.732v-86.961c0-4.271 3.461-7.732 7.732-7.732s7.732 3.461 7.732 7.732v86.961c0 4.271-3.462 7.732-7.732 7.732z" fill="#3d6b73"/></g><path d="m308.642 512h-105.284c-22.917 0-41.495-18.578-41.495-41.495v-115.958c0-5.634 4.568-10.202 10.202-10.202h167.869c5.634 0 10.202 4.568 10.202 10.202v115.958c.001 22.917-18.577 41.495-41.494 41.495z" fill="#4a80aa"/><path d="m328.484 344.345v126.16c0 22.917-18.578 41.495-41.495 41.495h21.653c22.917 0 41.495-18.578 41.495-41.495v-115.958c0-5.634-4.568-10.202-10.202-10.202z" fill="#407093"/></g></svg>