<svg id="Capa_1" enable-background="new 0 0 512 512" height="512" viewBox="0 0 512 512" width="512" xmlns="http://www.w3.org/2000/svg"><g><g><path d="m255.479 183.357c-.012 0-.024 0-.036 0-4.267-.019-7.71-3.494-7.691-7.762l.241-53.458c.191-28.261 15.355-54.833 39.575-69.365.054-.033.11-.065.166-.098l38.358-21.736c3.71-2.101 8.428-.8 10.531 2.913 2.104 3.712.8 8.428-2.913 10.531l-38.272 21.688c-19.582 11.788-31.839 33.296-31.993 56.155l-.241 53.441c-.019 4.254-3.475 7.691-7.725 7.691z" fill="#69af81"/></g><g><path d="m264.9 94.764c-4.214 0-7.661-3.383-7.723-7.612-.314-21.045-35.175-37.585-48.58-42.181-4.034-1.383-6.188-5.775-4.808-9.81 1.38-4.036 5.764-6.189 9.803-4.814 2.388.815 58.497 20.369 59.036 56.575.063 4.267-3.343 7.777-7.611 7.84-.038.002-.079.002-.117.002z" fill="#69af81"/></g><g><path d="m249.222 186.623c-3.842 0-7.171-2.863-7.657-6.775-4.167-33.546-46.552-58.267-46.98-58.512-3.697-2.125-4.977-6.845-2.856-10.544 2.121-3.698 6.835-4.982 10.535-2.865 2.019 1.155 49.51 28.76 54.635 70.016.526 4.234-2.48 8.095-6.714 8.62-.323.04-.645.06-.963.06z" fill="#69af81"/></g><g><path d="m262.778 186.623c-.318 0-.639-.02-.963-.06-4.234-.525-7.24-4.385-6.714-8.62 5.125-41.257 52.616-68.861 54.635-70.016 3.701-2.12 8.424-.835 10.542 2.87 2.118 3.701.836 8.419-2.863 10.539-.428.245-42.813 24.966-46.98 58.512-.486 3.912-3.815 6.775-7.657 6.775z" fill="#69af81"/></g><path d="m303.42 247.207 7.08-7.024c3.713-3.684 9.234-4.865 14.129-3.023l.586.221c5.231 1.969 11.135.477 14.802-3.741l.404-.465c3.434-3.95 8.857-5.533 13.877-4.051l.499.147c5.41 1.597 11.239-.372 14.573-4.922l.403-.55c3.041-4.15 8.193-6.188 13.25-5.24l.406.076c5.682 1.065 11.405-1.642 14.186-6.71l.395-.72c2.363-4.305 6.895-6.969 11.805-6.939 6.191.038 11.598-4.179 13.071-10.192.44-1.798 3.044-1.664 3.285.171 3.17 24.089 3.078 96.767-109.25 112.497l-52.542-42.79z" fill="#5ea570"/><path d="m208.58 247.207-7.08-7.024c-3.713-3.684-9.234-4.865-14.129-3.023l-.586.221c-5.231 1.969-11.135.477-14.802-3.741l-.404-.465c-3.434-3.95-8.857-5.533-13.877-4.051l-.499.147c-5.41 1.597-11.239-.372-14.573-4.922l-.403-.55c-3.041-4.15-8.193-6.188-13.25-5.24l-.406.076c-5.682 1.065-11.405-1.642-14.186-6.71l-.395-.72c-2.363-4.305-6.895-6.969-11.805-6.939-6.191.038-11.598-4.179-13.071-10.192-.44-1.798-3.044-1.664-3.285.171-3.17 24.089-3.078 96.767 109.25 112.497l52.542-42.79z" fill="#5ea570"/><path d="m250.049 237.027-4.911-8.681c-2.576-4.553-7.569-7.186-12.781-6.74l-.624.053c-5.569.477-10.847-2.56-13.234-7.614l-.263-.557c-2.235-4.733-7.026-7.727-12.259-7.662l-.52.006c-5.64.07-10.717-3.405-12.693-8.688l-.239-.638c-1.802-4.819-6.209-8.177-11.333-8.636l-.411-.037c-5.758-.516-10.533-4.672-11.836-10.305l-.185-.8c-1.107-4.784-4.747-8.577-9.482-9.879-5.969-1.642-10.031-7.167-9.818-13.354.064-1.85-2.478-2.427-3.209-.726-9.581 22.328-29.194 92.309 74.663 137.9l62.174-26.945z" fill="#69af81"/><path d="m261.951 237.027 4.911-8.681c2.576-4.553 7.569-7.186 12.781-6.74l.624.053c5.569.477 10.847-2.56 13.234-7.614l.263-.557c2.235-4.733 7.026-7.727 12.259-7.662l.52.006c5.64.07 10.717-3.405 12.693-8.688l.239-.638c1.802-4.819 6.209-8.177 11.333-8.636l.411-.037c5.758-.516 10.533-4.672 11.836-10.305l.185-.8c1.107-4.784 4.747-8.577 9.482-9.879 5.969-1.642 10.031-7.167 9.818-13.354-.064-1.85 2.478-2.427 3.209-.726 9.581 22.328 29.194 92.309-74.663 137.9l-62.174-26.945z" fill="#69af81"/><path d="m356.64 337.103-19.613-18.533-166.42-.333-15.247 18.866 25.86 142.741 22.018 16.078h103.027l24.515-16.078z" fill="#c6865c"/><path d="m155.36 337.103 3.716 20.515h119.687c25.049 0 43.988 22.678 39.522 47.326l-13.569 74.901 8.756 16.078 17.307-16.078 25.859-142.742-26.274-18.865-152.679.014z" fill="#c17d4f"/><path d="m374.787 337.103h-237.574c-2.471 0-4.474-2.003-4.474-4.474v-28.783c0-2.471 2.003-4.474 4.474-4.474h237.574c2.471 0 4.474 2.003 4.474 4.474v28.783c0 2.471-2.003 4.474-4.474 4.474z" fill="#9d6b6b"/><path d="m374.787 299.372h-18.653v37.731h18.653c2.471 0 4.474-2.003 4.474-4.474v-28.783c0-2.471-2.003-4.474-4.474-4.474z" fill="#8b5e5e"/><path d="m155.186 491.992c-.743-1.814-1.359-3.716-1.848-5.703-.805-3.276 1.681-6.445 5.054-6.445h195.214c3.373 0 5.86 3.169 5.054 6.445-.488 1.986-1.104 3.889-1.848 5.703-5.019 12.249-17.235 20.008-30.473 20.008h-140.678c-13.238 0-25.454-7.759-30.475-20.008z" fill="#9d6b6b"/><path d="m353.607 479.844h-24.423c3.373 0 5.86 3.169 5.054 6.445-.488 1.986-1.104 3.889-1.848 5.703-5.02 12.249-17.236 20.008-30.473 20.008h24.423c13.238 0 25.453-7.759 30.474-20.008.743-1.814 1.359-3.716 1.848-5.703.804-3.276-1.682-6.445-5.055-6.445z" fill="#8b5e5e"/><path d="m354.219 5.693 2.387 3.201c1.715 2.3 4.088 4.024 6.805 4.944l3.782 1.281c8.968 3.038 12.482 13.854 7.013 21.583l-2.307 3.26c-1.657 2.342-2.563 5.131-2.599 8l-.05 3.993c-.118 9.468-9.319 16.152-18.36 13.339l-3.813-1.187c-2.739-.852-5.672-.852-8.411 0l-3.813 1.187c-9.041 2.813-18.242-3.871-18.36-13.339l-.05-3.993c-.036-2.868-.942-5.658-2.599-8l-2.307-3.26c-5.469-7.729-1.955-18.545 7.013-21.583l3.782-1.281c2.717-.92 5.09-2.645 6.805-4.944l2.387-3.201c5.662-7.591 17.034-7.591 22.695 0z" fill="#ecbe6b"/><g><path d="m342.872 43.248c-4.268 0-7.726-3.459-7.726-7.726v-5.101c0-4.268 3.459-7.726 7.726-7.726 4.268 0 7.726 3.459 7.726 7.726v5.101c0 4.267-3.459 7.726-7.726 7.726z" fill="#f6f1f1"/></g><path d="m206.317 5.693 2.387 3.201c1.715 2.3 4.088 4.024 6.805 4.944l3.782 1.281c8.968 3.038 12.482 13.854 7.013 21.583l-2.307 3.26c-1.657 2.342-2.563 5.131-2.599 8l-.05 3.993c-.118 9.468-9.319 16.152-18.36 13.339l-3.813-1.187c-2.739-.852-5.672-.852-8.411 0l-3.813 1.187c-9.041 2.813-18.242-3.871-18.36-13.339l-.05-3.993c-.036-2.868-.942-5.658-2.599-8l-2.307-3.26c-5.469-7.729-1.955-18.545 7.013-21.583l3.782-1.281c2.717-.92 5.09-2.645 6.805-4.944l2.387-3.201c5.662-7.591 17.034-7.591 22.695 0z" fill="#ecbe6b"/><g><path d="m194.969 43.248c-4.268 0-7.726-3.459-7.726-7.726v-5.101c0-4.268 3.459-7.726 7.726-7.726 4.268 0 7.726 3.459 7.726 7.726v5.101c.001 4.267-3.458 7.726-7.726 7.726z" fill="#f6f1f1"/></g><path d="m196.813 91.536 1.886 2.529c1.355 1.817 3.23 3.179 5.377 3.907l2.989 1.012c7.086 2.401 9.863 10.947 5.541 17.054l-1.823 2.576c-1.309 1.85-2.026 4.055-2.054 6.321l-.039 3.155c-.093 7.481-7.363 12.763-14.507 10.54l-3.013-.938c-2.164-.673-4.482-.673-6.646 0l-3.013.938c-7.144 2.223-14.414-3.059-14.507-10.54l-.039-3.155c-.028-2.266-.745-4.471-2.054-6.321l-1.823-2.576c-4.322-6.107-1.545-14.653 5.541-17.054l2.989-1.012c2.147-.727 4.022-2.09 5.377-3.907l1.886-2.529c4.473-5.997 13.459-5.997 17.932 0z" fill="#ecbe6b"/><path d="m335.504 91.536 1.886 2.529c1.355 1.817 3.23 3.179 5.377 3.907l2.989 1.012c7.086 2.401 9.863 10.947 5.541 17.054l-1.823 2.576c-1.309 1.85-2.026 4.055-2.054 6.321l-.039 3.155c-.093 7.481-7.363 12.763-14.507 10.54l-3.013-.938c-2.164-.673-4.482-.673-6.646 0l-3.013.938c-7.144 2.223-14.414-3.059-14.507-10.54l-.039-3.155c-.028-2.266-.745-4.471-2.054-6.321l-1.823-2.576c-4.322-6.107-1.545-14.653 5.541-17.054l2.989-1.012c2.147-.727 4.022-2.09 5.377-3.907l1.886-2.529c4.473-5.997 13.459-5.997 17.932 0z" fill="#ecbe6b"/><g><path d="m311.018 299.372 1.57-7.332c-5.235-2.065-7.854-3.105-5.961-8.405 0 0 2.013-12.033-3.225-14.17 0 0-11.512-4.679-9.284-9.773 0 0 2.297-14.559-2.541-16.809 0 0-9.431-2.148-7.525-7.232 0 0 1.665-14.645-3.616-16.711-5.164-2.02-10.359-12.216-10.359-12.216 1.95-5.201 7.112-11.228 1.955-13.291l-3.281-13.965c-5.237-2.095-10.283-7.369-8.233-12.624 1.954-5.036-8.422-4.293-16.466-3.806-4.792 2.306-7.078 7.937-5.125 12.973l.004.01c2.046 5.273-.551 11.208-5.811 13.285l-.011.004c-5.261 2.077-7.857 8.012-5.812 13.285l.002.005c2.046 5.274-.552 11.21-5.814 13.286-5.262 2.076-7.86 8.012-5.814 13.286l.002.005c2.046 5.273-.551 11.209-5.813 13.285l-.005.002c-5.262 2.077-7.859 8.013-5.813 13.286l.002.004c2.046 5.273-.551 11.209-5.812 13.286l-.006.002c-5.262 2.076-7.859 8.012-5.812 13.286l.001.003c2.046 5.274-.551 11.21-5.814 13.286l-9.514 3.753h133.931z" fill="#95d6a4"/><path d="m325.402 295.619c-5.09-2.008-7.749-7.867-5.909-13.02l.103-.288c1.908-5.344-.75-11.24-6.019-13.347l-.731-.292c-4.807-1.923-7.133-7.389-5.184-12.186 2.192-5.396-.234-11.563-5.515-14.019l-.257-.119c-4.964-2.309-7.369-8.006-5.56-13.173 1.874-5.353-.802-11.176-6.03-13.374-5.117-2.151-7.616-7.997-5.598-13.198 2.094-5.235-.465-11.176-5.708-13.25l-.138-.055c-5.253-2.078-7.839-8.012-5.786-13.275l.01-.026c2.057-5.27-.547-11.209-5.816-13.269l-.022-.009c-5.983-6.731-16.501-6.731-22.484 0l-.022.009c-.236.093-.46.203-.685.311 4.792 2.306 7.078 7.937 5.125 12.973-2.051 5.255.518 11.18 5.755 13.274l.169.068c5.158 2.063 7.721 7.87 5.771 13.071l-.253.674c-1.947 5.192.809 10.759 5.973 12.779 5.281 2.066 7.891 8.014 5.842 13.296l-.002.005c-1.906 5.084.423 10.778 5.346 13.068l1.43.665c4.838 2.25 6.994 7.952 4.855 12.84l-.002.004c-2.228 5.093.16 10.978 5.307 13.079l.362.148c5.238 2.138 7.865 8.019 5.962 13.347l-.001.004c-1.893 5.299.842 11.325 6.076 13.39l9.251 3.649h23.898z" fill="#78c2a4"/></g></g></svg>