<svg id="Capa_1" enable-background="new 0 0 512 512" height="512" viewBox="0 0 512 512" width="512" xmlns="http://www.w3.org/2000/svg"><g><path d="m146.447 260.083c12.434-5.921 21.965-17.15 20.574-34.453-13.004-20.069-64.534 4.467-64.534 4.467s54.465-25.937 43.389-49.194c-6.557-13.768-27.85-15.269-47.385-5.966-19.898 9.476-38.229 30.504-47.292 65.842 1.841 12.653 7.311 17.058 10.965 18.685 32.39 14.419 64.732 9.93 84.283.619z" fill="#95d6a4"/><path d="m365.553 260.083c-12.434-5.921-21.965-17.15-20.574-34.453 13.004-20.069 64.534 4.467 64.534 4.467s-54.465-25.937-43.389-49.194c6.557-13.768 27.85-15.269 47.385-5.966 19.898 9.476 38.229 30.504 47.292 65.842-1.841 12.653-7.311 17.058-10.965 18.685-32.39 14.419-64.732 9.93-84.283.619z" fill="#95d6a4"/><path d="m64.269 101.047c-.005 12.497 3.288 14.766 7.006 16.849 38.81 21.741 84.255 20.701 108.145 11.315 14.96-5.878 20.938-19.772 20.938-36.335-13.5-24.428-75.501-.073-75.501-.073s65.533-25.747 54.538-53.73c-6.509-16.566-31.177-20.053-54.683-10.819-23.943 9.407-47.008 32.386-60.449 72.791z" fill="#e490d0"/><path d="m447.731 101.047c.005 12.497-3.288 14.766-7.006 16.849-38.81 21.741-84.255 20.701-108.145 11.315-14.96-5.878-20.938-19.772-20.938-36.335 13.5-24.428 75.501-.073 75.501-.073s-65.533-25.747-54.538-53.73c6.509-16.566 31.177-20.053 54.682-10.819 23.943 9.407 47.008 32.386 60.449 72.791z" fill="#e490d0"/><g><path d="m200.358 92.876c-4.922 10.746-16.708 20.722-31.669 26.599-26.179 10.285-62.636 7.962-104.421-18.428-1.366 4.106-2.635 8.387-3.794 12.855-.722 2.782.438 5.726 2.86 7.273 42.177 26.951 78.981 29.374 105.356 19.012 23.505-9.235 39.203-28.582 32.694-45.148-.3-.763-.648-1.479-1.026-2.163z" fill="#dd5ca2"/></g><g><path d="m311.642 92.876c4.922 10.746 16.708 20.722 31.669 26.599 26.179 10.285 62.636 7.962 104.421-18.428 1.366 4.106 2.635 8.387 3.794 12.855.722 2.782-.438 5.726-2.86 7.273-42.177 26.951-78.981 29.374-105.356 19.012-23.505-9.235-39.203-28.582-32.694-45.148.3-.763.648-1.479 1.026-2.163z" fill="#dd5ca2"/></g><g><path d="m167.022 225.63c-3.562 9.48-13.037 18.713-25.471 24.634-21.757 10.361-53.056 10.563-90.352-9.485-.865 3.373-1.648 6.872-2.339 10.506-.539 2.834.818 5.714 3.357 7.083 37.396 20.172 68.775 19.98 90.577 9.597 19.535-9.303 31.791-26.78 25.234-40.548-.302-.634-.642-1.225-1.006-1.787z" fill="#78c2a4"/></g><g><path d="m344.978 225.63c3.562 9.48 13.037 18.713 25.471 24.634 21.757 10.361 53.056 10.563 90.352-9.485.865 3.373 1.648 6.872 2.339 10.506.539 2.834-.818 5.714-3.357 7.083-37.396 20.172-68.775 19.98-90.577 9.597-19.535-9.303-31.791-26.78-25.234-40.548.302-.634.642-1.225 1.006-1.787z" fill="#78c2a4"/></g><g><path d="m256 357.674c-1.41 1.335-3.472 2.131-5.359 2.107-2.768 0-5.454-1.46-6.896-4.05-29.064-52.195-22.496-168.969-18.15-246.24l.472-8.427c.236-4.253.955-17.192-7.969-22.761-17.647-11.012-64.191 7.271-89.386 21.379-3.797 2.128-8.603.774-10.732-3.025-2.128-3.798-.776-8.602 3.022-10.732 7.496-4.204 74.161-40.513 105.437-21.006 11.179 6.971 16.351 19.427 15.374 37.02l-.472 8.437c-3.908 69.496-10.4 184.904 14.66 234.804 25.06-49.9 18.569-165.308 14.66-234.804l-.472-8.437c-.977-17.592 4.195-30.048 15.374-37.02 31.276-19.507 97.941 16.802 105.437 21.006 3.798 2.13 5.15 6.934 3.022 10.732-2.129 3.799-6.935 5.153-10.732 3.025-25.195-14.108-71.739-32.391-89.386-21.379-8.924 5.569-8.205 18.508-7.969 22.761l.472 8.427c4.346 77.271 10.914 194.045-18.15 246.24-1.443 2.59-4.128 4.05-6.896 4.05-1.888.024-3.951-.772-5.361-2.107z" fill="#69af81"/></g><g><path d="m231.705 301.595c-3.479 0-6.664-2.32-7.61-5.841-11.566-43.052-29.236-68.664-52.522-76.124-31.269-10.017-63.742 16.282-64.067 16.548-3.36 2.762-8.326 2.287-11.095-1.066-2.769-3.355-2.304-8.313 1.046-11.088.397-.329 9.883-8.123 24.081-14.421 19.279-8.551 38.208-10.287 54.743-5.025 28.77 9.162 49.982 38.461 63.043 87.083 1.129 4.206-1.363 8.532-5.569 9.661-.684.185-1.372.273-2.05.273z" fill="#69af81"/></g><g><path d="m280.295 301.595c3.479 0 6.664-2.32 7.61-5.841 11.566-43.052 29.236-68.664 52.522-76.124 31.269-10.017 63.742 16.282 64.067 16.548 3.36 2.762 8.326 2.287 11.095-1.066 2.769-3.355 2.304-8.313-1.046-11.088-.397-.329-9.883-8.123-24.081-14.421-19.279-8.551-38.208-10.287-54.743-5.025-28.77 9.162-49.982 38.461-63.043 87.083-1.129 4.206 1.363 8.532 5.569 9.661.684.185 1.372.273 2.05.273z" fill="#69af81"/></g><g><path d="m125.209 109.439c-6.06 0-11.783-3.634-14.154-9.61-.708-1.785-15.164-29.643-8.687-86.314.956-8.366 8.507-14.371 16.877-13.415 8.364.956 14.371 8.512 13.415 16.877-5.569 48.722 6.605 71.274 6.749 71.645 3.057 7.828-.788 16.672-8.608 19.751-1.838.723-3.731 1.066-5.592 1.066z" fill="#ecbe6b"/></g><g><path d="m386.791 109.439c6.06 0 11.783-3.634 14.154-9.61.708-1.785 15.164-29.643 8.687-86.314-.956-8.366-8.507-14.371-16.877-13.415-8.364.956-14.371 8.512-13.415 16.877 5.569 48.722-6.605 71.274-6.749 71.645-3.057 7.828.789 16.672 8.608 19.751 1.838.723 3.731 1.066 5.592 1.066z" fill="#ecbe6b"/></g><g><path d="m177.437 496.5c-36.099-44.855-45.59-95.972-28.472-153.352 1.759-5.896 7.216-9.92 13.369-9.92h187.339c6.153 0 11.61 4.023 13.369 9.92 17.118 57.38 7.627 108.497-28.472 153.352-7.899 9.815-19.846 15.5-32.445 15.5h-92.242c-12.6 0-24.546-5.684-32.446-15.5z" fill="#4a80aa"/><path d="m363.042 343.148c-1.759-5.896-7.216-9.92-13.369-9.92h-27.858c6.153 0 11.61 4.023 13.369 9.92 17.118 57.38 7.627 108.497-28.472 153.352-7.899 9.816-19.846 15.5-32.446 15.5h27.858c12.599 0 24.546-5.684 32.446-15.5 36.099-44.854 45.59-95.972 28.472-153.352z" fill="#407093"/></g><path d="m192.557 367.321c7.464-11.573 6.612-27.482-.561-37.727-21.612-10.235-52.548 37.727-52.548 37.727s32.695-50.697 11.047-64.658c-12.816-8.265-31.718 1.653-43.445 19.837-11.945 18.522-16.483 46.046-5.616 80.871 6.462 6.704 27.636 9.455 33.628 8.36 31.269-5.714 46.535-27.415 57.495-44.41z" fill="#95d6a4"/><path d="m319.443 367.321c-7.464-11.573-6.612-27.482.561-37.727 21.612-10.235 52.548 37.727 52.548 37.727s-32.695-50.697-11.047-64.658c12.816-8.265 31.718 1.653 43.445 19.837 11.945 18.522 16.483 46.046 5.616 80.871-6.462 6.704-27.636 9.455-33.628 8.36-31.269-5.714-46.535-27.415-57.495-44.41z" fill="#95d6a4"/><g><path d="m191.996 329.595c1.953 9.937-1.252 22.772-8.717 34.345-13.061 20.252-39.58 36.878-81.845 39.431 1.037 3.324 2.211 6.712 3.534 10.167 1.032 2.694 3.7 4.431 6.579 4.261 42.416-2.5 69.008-19.16 82.095-39.454 11.727-18.184 12.965-39.494.149-47.759-.59-.381-1.189-.705-1.795-.991z" fill="#78c2a4"/></g><g><path d="m320.004 329.595c-1.953 9.937 1.252 22.772 8.717 34.345 13.061 20.252 39.58 36.878 81.845 39.431-1.037 3.324-2.211 6.712-3.534 10.167-1.032 2.694-3.7 4.431-6.579 4.261-42.416-2.5-69.008-19.16-82.095-39.454-11.727-18.184-12.965-39.494-.149-47.759.59-.381 1.189-.705 1.795-.991z" fill="#78c2a4"/></g><g><path d="m139.443 375.206c-1.116 0-2.248-.237-3.325-.74-3.947-1.839-5.655-6.527-3.817-10.473 1.322-2.84 32.837-69.625 71.892-76.848 13.164-2.433 25.449 1.763 36.514 12.475 3.128 3.029 3.209 8.021.181 11.15s-8.02 3.212-11.15.181c-7.287-7.056-14.701-9.765-22.668-8.301-25.8 4.762-52.401 50.703-60.474 68.003-1.339 2.867-4.183 4.553-7.153 4.553z" fill="#69af81"/></g><g><path d="m372.557 375.206c1.116 0 2.248-.237 3.325-.74 3.947-1.839 5.655-6.527 3.817-10.473-1.322-2.84-32.837-69.625-71.892-76.848-13.164-2.433-25.449 1.763-36.514 12.475-3.128 3.029-3.209 8.021-.181 11.15s8.02 3.212 11.15.181c7.287-7.056 14.701-9.765 22.668-8.301 25.8 4.762 52.401 50.703 60.474 68.003 1.339 2.867 4.183 4.553 7.153 4.553z" fill="#69af81"/></g></g></svg>