<svg id="Capa_1" enable-background="new 0 0 512 512" height="512" viewBox="0 0 512 512" width="512" xmlns="http://www.w3.org/2000/svg"><g><g><path d="m469.76 180.259-6.097-36.496c-.622-3.724-3.649-6.577-7.403-6.979l-36.792-3.938c-40.799-4.367-75.728 24.484-81.911 62.283.612-.633 1.209-1.284 1.772-1.972l6.627 27.001s28.328 30.697 28.332 30.693c0 0 36.419 14.121 35.404 15.395 38.777-7.198 66.991-44.544 60.068-85.987z" fill="#78c2a4"/><path d="m387.926 267.062c7.502.803 14.804.477 21.766-.816 1.014-1.273 2.12-2.486 3.337-3.607l.004-.004c7.809-7.198 11.547-17.796 9.982-28.3-1.565-10.505 2.173-21.103 9.983-28.301 7.81-7.198 11.548-17.797 9.983-28.301l-2.377-15.949c-.149-1.102-1.11-2.008-2.218-2.091l-16.061-1.434c-10.579-.944-20.939 3.412-27.665 11.632-6.726 8.22-17.085 12.576-27.664 11.632-10.578-.944-20.938 3.412-27.664 11.631l-.004.005c-.563.688-1.16 1.339-1.772 1.972-1.286 7.859-1.329 16.105.077 24.52l7.149 42.796z" fill="#dd5ca2"/><path d="m440.362 51.633-18.575-46.349c-1.404-3.505-4.972-5.644-8.724-5.234l-49.637 5.432c-52.944 5.794-89.222 52.077-86.564 101.722.6-.973 30.232 42.613 30.232 42.613-.004.007 30.463 19.614 30.463 19.614s51.454 6.017 50.521 7.913c47.17-19.895 72.572-75.084 52.284-125.711z" fill="#95d6a4"/><path d="m360.705 184.424c9.735-1.065 18.903-3.507 27.373-7.079.933-1.896 1.998-3.74 3.229-5.5l.004-.006c7.903-11.295 9.699-25.772 4.797-38.656-4.902-12.885-3.105-27.362 4.799-38.658 7.904-11.296 9.701-25.773 4.798-38.658l-7.837-20.598-1.9-1.14-21.862 2.783c-13.676 1.741-25.602 10.141-31.848 22.432-6.245 12.291-18.171 20.691-31.847 22.432-13.675 1.741-25.601 10.141-31.847 22.431l-.004.007c-.522 1.029-1.099 2.019-1.699 2.992.553 10.322 2.788 20.79 6.907 31.069l20.95 52.278z" fill="#e490d0"/><g><path d="m370.071 149.817c-3.847 0-7.18-2.867-7.667-6.783l-2.404-19.343c-.528-4.24 2.482-8.104 6.723-8.631 4.231-.53 8.104 2.482 8.631 6.723l2.404 19.343c.528 4.24-2.482 8.104-6.723 8.631-.324.04-.646.06-.964.06z" fill="#dd5ca2"/></g><g><path d="m308.657 123.469c-2.365 0-4.7-1.08-6.218-3.126-2.546-3.431-1.829-8.276 1.602-10.822l15.652-11.617c3.429-2.546 8.276-1.83 10.822 1.602 2.546 3.431 1.829 8.276-1.602 10.822l-15.652 11.617c-1.385 1.029-3.002 1.524-4.604 1.524z" fill="#dd5ca2"/></g><path d="m414.41 185.65c-2.707-3.307-7.58-3.79-10.885-1.086-4.351 3.562-106.541 87.706-106.541 159.262 0 4.273 3.463 7.736 7.736 7.736s7.736-3.463 7.736-7.736c0-23.033 17.201-61.599 49.743-97.866 25.237-28.128 50.873-49.214 51.129-49.423 3.304-2.709 3.789-7.582 1.082-10.887z" fill="#4f8980"/></g><g><path d="m42.24 180.259 6.097-36.496c.622-3.724 3.649-6.577 7.403-6.979l36.792-3.938c40.799-4.367 75.728 24.484 81.911 62.283-.612-.633-1.209-1.284-1.772-1.972l-6.627 27.001s-28.328 30.697-28.332 30.693c0 0-36.419 14.121-35.404 15.395-38.778-7.198-66.991-44.544-60.068-85.987z" fill="#78c2a4"/><path d="m124.074 267.062c-7.502.803-14.804.477-21.767-.816-1.014-1.273-2.12-2.486-3.337-3.607l-.004-.004c-7.809-7.198-11.547-17.796-9.982-28.3 1.565-10.505-2.173-21.103-9.983-28.301-7.81-7.198-11.548-17.797-9.983-28.301l2.377-15.949c.149-1.102 1.11-2.008 2.218-2.091l16.061-1.434c10.579-.944 20.939 3.412 27.665 11.632 6.726 8.22 17.085 12.576 27.664 11.632 10.578-.944 20.938 3.412 27.664 11.631l.004.005c.563.688 1.16 1.339 1.772 1.972 1.286 7.859 1.329 16.105-.077 24.52l-7.149 42.796z" fill="#dd5ca2"/><path d="m71.638 51.633 18.574-46.349c1.404-3.505 4.972-5.644 8.724-5.234l49.637 5.432c52.944 5.794 89.222 52.077 86.564 101.722-.6-.973-30.232 42.613-30.232 42.613.004.007-30.463 19.614-30.463 19.614s-51.454 6.017-50.521 7.913c-47.169-19.895-72.572-75.084-52.283-125.711z" fill="#95d6a4"/><path d="m151.294 184.424c-9.735-1.065-18.903-3.507-27.373-7.079-.933-1.896-1.998-3.74-3.229-5.5l-.004-.006c-7.903-11.295-9.699-25.772-4.797-38.656 4.902-12.885 3.105-27.362-4.799-38.658-7.904-11.296-9.701-25.773-4.798-38.658l7.837-20.598 1.9-1.14 21.862 2.783c13.676 1.741 25.602 10.141 31.848 22.432 6.245 12.291 18.171 20.691 31.847 22.432 13.675 1.741 25.601 10.141 31.847 22.431l.004.007c.522 1.029 1.099 2.019 1.699 2.992-.553 10.322-2.788 20.79-6.907 31.069l-20.95 52.278z" fill="#e490d0"/><g><path d="m141.929 149.817c3.847 0 7.18-2.867 7.667-6.783l2.404-19.343c.528-4.24-2.482-8.104-6.723-8.631-4.231-.53-8.104 2.482-8.631 6.723l-2.404 19.343c-.528 4.24 2.482 8.104 6.723 8.631.323.04.646.06.964.06z" fill="#dd5ca2"/></g><g><path d="m203.343 123.469c2.365 0 4.7-1.08 6.218-3.126 2.546-3.431 1.829-8.276-1.602-10.822l-15.652-11.617c-3.429-2.546-8.276-1.83-10.822 1.602-2.546 3.431-1.829 8.276 1.602 10.822l15.652 11.617c1.385 1.029 3.002 1.524 4.604 1.524z" fill="#dd5ca2"/></g><path d="m97.59 185.65c2.707-3.307 7.58-3.79 10.885-1.086 4.351 3.562 106.541 87.706 106.541 159.262 0 4.273-3.463 7.736-7.736 7.736s-7.736-3.463-7.736-7.736c0-23.033-17.201-61.599-49.743-97.866-25.237-28.128-50.873-49.214-51.129-49.423-3.305-2.709-3.789-7.582-1.082-10.887z" fill="#4f8980"/></g><g><path d="m256 318.098c-4.273 0-7.736-3.463-7.736-7.736v-110.408c0-4.273 3.463-7.736 7.736-7.736s7.736 3.463 7.736 7.736v110.408c0 4.273-3.463 7.736-7.736 7.736z" fill="#4f8980"/></g><path d="m335.902 150.764c36.323-65.524 73.844-121.59 74.219-122.148 2.38-3.549 1.433-8.355-2.115-10.735-3.547-2.38-8.354-1.431-10.734 2.114-5.393 8.04-116.212 174.05-141.251 273.545-24.745-99.085-133.627-267.306-138.934-275.466-2.331-3.582-7.122-4.598-10.703-2.267-3.582 2.329-4.597 7.121-2.267 10.703.369.567 37.317 57.508 73.103 123.749 46.862 86.743 70.433 156.81 68.165 188.967-.3 4.262 2.911 7.961 7.173 8.261 1.18.086 2.389-.113 3.444-.545 1.048.429 2.247.629 3.419.547 4.263-.286 7.487-3.974 7.201-8.237-2.203-32.851 21.754-102.752 69.28-188.488z" fill="#4f8980"/><path d="m178.921 496.793c-35.417-44.008-44.729-94.159-27.934-150.455 1.726-5.785 7.08-9.732 13.116-9.732h183.801c6.037 0 11.391 3.947 13.116 9.732 16.794 56.296 7.483 106.448-27.934 150.455-7.75 9.63-19.471 15.207-31.833 15.207h-90.499c-12.362 0-24.083-5.577-31.833-15.207z" fill="#4a80aa"/><path d="m361.02 346.337c-1.726-5.785-7.079-9.732-13.116-9.732h-27.332c6.037 0 11.39 3.947 13.116 9.732 16.795 56.296 7.483 106.448-27.934 150.455-7.75 9.63-19.471 15.207-31.833 15.207h27.332c12.361 0 24.083-5.577 31.833-15.207 35.417-44.007 44.729-94.159 27.934-150.455z" fill="#407093"/></g></svg>