<svg id="Capa_1" enable-background="new 0 0 511.974 511.974" height="512" viewBox="0 0 511.974 511.974" width="512" xmlns="http://www.w3.org/2000/svg"><g><path d="m225.646 320.744c-20.191-85.882-28.76-203.773-17.632-295.113.126-1.403 2.201-1.687 2.701-.371 35.435 84.918 59.094 200.728 62.901 288.869z" fill="#78c2a4"/><path d="m286.328 320.744c20.191-85.882 28.76-203.773 17.632-295.113-.126-1.403-2.201-1.687-2.701-.371-35.435 84.918-59.094 200.728-62.901 288.869z" fill="#78c2a4"/><path d="m239.01 293.538c-5.747-87.064-.55-203.724 15.59-292.406.23-1.509 2.544-1.509 2.774 0 16.141 88.682 21.338 205.342 15.59 292.406z" fill="#95d6a4"/><g><path d="m217.467 261.793s4.536-124.101-92.07-189.398c-1.303-.828-.335-2.965 1.146-2.532 33.298 8.717 159.368 52.387 132.13 209.029z" fill="#69af81"/></g><g><path d="m294.507 261.793s-4.536-124.101 92.07-189.398c1.303-.828.335-2.965-1.146-2.532-33.298 8.717-159.368 52.387-132.13 209.029z" fill="#5ea570"/></g><g><path d="m222.64 309.63s-11.222-123.676-115.321-176.209c-1.397-.657-.708-2.898.816-2.657 34.134 4.429 164.72 31.777 157.545 190.608z" fill="#95d6a4"/></g><g><path d="m289.335 309.63s11.222-123.676 115.321-176.209c1.397-.657.708-2.898-.816-2.657-34.134 4.429-164.72 31.777-157.545 190.608z" fill="#78c2a4"/></g><g><path d="m232.328 342.393s-43.377-116.362-157.633-139.644c-1.521-.266-1.446-2.61.088-2.778 34.096-4.711 167.276-12.697 202.158 142.422z" fill="#69af81"/></g><g><path d="m279.647 342.393s43.377-116.362 157.633-139.644c1.521-.266 1.446-2.61-.088-2.778-34.096-4.711-167.276-12.697-202.158 142.422z" fill="#5ea570"/></g><path d="m309.234 511.974h-106.494c-23.18 0-41.972-18.791-41.972-41.972v-120.78c0-3.772 3.058-6.83 6.83-6.83h176.777c3.772 0 6.83 3.058 6.83 6.83v120.78c.001 23.181-18.791 41.972-41.971 41.972z" fill="#4a80aa"/><path d="m329.304 342.393v127.61c0 23.18-18.791 41.972-41.972 41.972h21.902c23.18 0 41.972-18.791 41.972-41.972v-120.78c0-3.772-3.058-6.83-6.83-6.83z" fill="#407093"/><path d="m212.055 342.393s-23.701-59.332-139.252-79.625c-1.41-.202-1.565-2.321-.201-2.727 25.932-8.599 142.847-39.69 184.066 82.352z" fill="#95d6a4"/><path d="m299.919 342.393s23.701-59.332 139.252-79.625c1.41-.202 1.565-2.321.201-2.727-25.932-8.599-142.847-39.69-184.066 82.352z" fill="#78c2a4"/></g></svg>