<svg id="Capa_1" enable-background="new 0 0 512.037 512.037" height="512" viewBox="0 0 512.037 512.037" width="512" xmlns="http://www.w3.org/2000/svg"><g><g><path d="m343.375 103.716c-2.681 0-5.28-1.419-6.669-3.932-2.033-3.679-.7-8.308 2.978-10.342 3.487-1.927 86.022-47.048 141.921-33.373 4.082.999 6.583 5.12 5.584 9.202-.998 4.084-5.118 6.586-9.202 5.585-50.112-12.263-130.137 31.466-130.939 31.91-1.166.643-2.428.95-3.673.95z" fill="#69af81"/></g><g><path d="m470.047 116.539c-2.253 0-4.485-.996-5.986-2.904-12.212-15.515-47.862-28.235-64.995-34.348-3.959-1.412-6.024-5.767-4.61-9.726 1.412-3.959 5.769-6.028 9.726-4.61 19.891 7.096 56.914 20.307 71.841 39.27 2.6 3.303 2.03 8.089-1.274 10.689-1.395 1.097-3.054 1.629-4.702 1.629z" fill="#69af81"/></g><g><path d="m176.643 379.253c-3.324 0-6.378-2.193-7.321-5.551-.415-1.48-10.117-36.754-4.509-81.761 5.21-41.815 25.195-100.009 90.817-139.78 51.971-31.497 90.415-64.335 114.265-97.603 20.62-28.765 22.14-47.2 22.152-47.383.214-4.058 3.57-7.175 7.587-7.175.138 0 .276.004.413.011 4.198.223 7.419 3.839 7.196 8.037-.048.906-1.446 22.555-24.977 55.381-25.055 34.948-65.007 69.181-118.746 101.751-26.613 16.129-47.34 36.811-61.608 61.473-11.437 19.77-18.814 42.188-21.926 66.633-5.355 42.066 3.9 75.969 3.994 76.307 1.128 4.047-1.234 8.246-5.279 9.378-.687.191-1.378.282-2.058.282z" fill="#69af81"/></g><path d="m172.395 382.06c64.715-22.528 115.28-73.859 136.832-138.905.959-2.895-1.819-5.632-4.699-4.629-64.715 22.528-115.28 73.859-136.832 138.905-.96 2.894 1.819 5.631 4.699 4.629z" fill="#95d6a4"/><path d="m171.324 375.535c-60.718-31.761-103.222-89.943-115.017-157.444-.525-3.004 2.624-5.305 5.327-3.891 60.718 31.761 103.222 89.943 115.017 157.444.524 3.004-2.625 5.305-5.327 3.891z" fill="#69af81"/><path d="m180.932 380.672c-68.406-4.023-131.054-39.616-169.53-96.318-1.712-2.523.214-5.915 3.259-5.736 68.405 4.023 131.054 39.616 169.53 96.318 1.712 2.524-.214 5.915-3.259 5.736z" fill="#95d6a4"/><path d="m467.31 59.214c3.199-8.285 13.175-11.577 20.677-6.824l9.679 6.132c3.13 1.983 4.423 5.9 3.088 9.357l-2.857 7.399c-1.335 3.456-4.925 5.488-8.575 4.853l-11.288-1.965c-8.75-1.524-13.923-10.667-10.724-18.952z" fill="#e490d0"/><path d="m463.597 100.966c7.626-4.553 17.51-.998 20.49 7.369l3.844 10.793c1.243 3.49-.153 7.372-3.334 9.272l-6.81 4.066c-3.181 1.899-7.261 1.287-9.744-1.463l-7.678-8.504c-5.954-6.592-4.394-16.98 3.232-21.533z" fill="#e490d0"/><g><path d="m410.216 481.514h-322.263c-2.889 0-5.23-2.342-5.23-5.23v-112.692c0-2.889 2.342-5.23 5.23-5.23h322.263c2.889 0 5.23 2.342 5.23 5.23v112.692c0 2.889-2.341 5.23-5.23 5.23z" fill="#f6f1f1"/><path d="m396.376 358.362v123.152h13.84c2.889 0 5.23-2.342 5.23-5.23v-112.692c0-2.889-2.342-5.23-5.23-5.23z" fill="#efe7e4"/><path d="m395.142 512.037h-292.115c-2.889 0-5.23-2.342-5.23-5.23v-25.292h302.576v25.292c0 2.888-2.342 5.23-5.231 5.23z" fill="#4a80aa"/><path d="m383.426 481.514v30.523h11.716c2.889 0 5.23-2.342 5.23-5.23v-25.292h-16.946z" fill="#407093"/></g><path d="m233.452 150.611 2.768 13.623c1.007 4.957 4.489 9.05 9.221 10.84l13.002 4.917c11.675 4.415 12.905 20.444 2.039 26.589l-12.101 6.842c-4.403 2.49-7.22 7.066-7.46 12.119l-.659 13.886c-.591 12.468-15.456 18.591-24.657 10.156l-10.247-9.394c-3.729-3.418-8.951-4.683-13.831-3.35l-13.409 3.664c-12.041 3.29-22.457-8.955-17.278-20.312l5.768-12.648c2.099-4.603 1.688-9.96-1.088-14.189l-7.629-11.621c-6.85-10.435 1.577-24.125 13.979-22.709l13.811 1.577c5.026.574 9.995-1.473 13.159-5.42l8.695-10.846c7.807-9.74 23.431-5.956 25.917 6.276z" fill="#e490d0"/><path d="m258.443 179.991-13.002-4.917c-4.732-1.789-8.213-5.883-9.22-10.84l-2.768-13.623c-2.486-12.232-18.11-16.017-25.917-6.277l-8.683 10.831 2.236 11.001c1.007 4.958 4.489 9.051 9.22 10.84l13.002 4.917c11.676 4.415 12.905 20.444 2.039 26.589l-12.1 6.842c-4.403 2.49-7.22 7.066-7.46 12.119l-.597 12.58c.053.048.113.086.166.134l10.247 9.394c9.201 8.435 24.066 2.313 24.657-10.156l.659-13.885c.24-5.053 3.057-9.629 7.46-12.119l12.101-6.842c10.865-6.143 9.635-22.172-2.04-26.588z" fill="#dd5ca2"/><g><g><path d="m207.56 208.51c-.593 0-1.195-.07-1.798-.216-4.085-.989-6.596-5.103-5.605-9.189l3.802-15.699c.989-4.085 5.097-6.596 9.189-5.605 4.085.989 6.596 5.103 5.605 9.189l-3.802 15.699c-.843 3.483-3.957 5.821-7.391 5.821z" fill="#f6f1f1"/></g><g><path d="m217.311 202.561c-.593 0-1.195-.07-1.798-.216l-15.699-3.802c-4.085-.989-6.596-5.103-5.605-9.189.989-4.085 5.093-6.6 9.189-5.605l15.699 3.802c4.085.989 6.596 5.103 5.605 9.189-.843 3.482-3.959 5.821-7.391 5.821z" fill="#f6f1f1"/></g></g><g><path d="m302.741 94.402 6.249 8.07c2.274 2.937 5.896 4.5 9.593 4.141l10.159-.987c9.122-.887 15.14 9.268 9.982 16.844l-5.744 8.437c-2.09 3.07-2.458 6.999-.974 10.403l4.078 9.356c3.662 8.402-4.136 17.263-12.935 14.699l-9.799-2.855c-3.566-1.039-7.415-.175-10.195 2.289l-7.638 6.77c-6.859 6.079-17.696 1.401-17.976-7.759l-.312-10.202c-.114-3.712-2.125-7.107-5.327-8.989l-8.799-5.172c-7.901-4.645-6.801-16.397 1.825-19.494l9.606-3.45c3.496-1.255 6.102-4.217 6.903-7.844l2.2-9.967c1.976-8.951 13.492-11.537 19.104-4.29z" fill="#e490d0"/><path d="m328.742 105.625-10.159.987c-3.697.359-7.319-1.204-9.593-4.141l-6.249-8.07c-5.611-7.246-17.128-4.661-19.104 4.289l-2.197 9.953 5.047 6.517c2.274 2.937 5.897 4.5 9.593 4.141l10.159-.987c9.122-.887 15.14 9.268 9.982 16.844l-5.744 8.437c-2.09 3.07-2.458 6.998-.974 10.403l3.695 8.476c.051.014.102.02.153.034l9.799 2.855c8.799 2.564 16.597-6.297 12.935-14.699l-4.078-9.356c-1.484-3.405-1.116-7.333.974-10.403l5.744-8.437c5.157-7.575-.861-17.73-9.983-16.843z" fill="#dd5ca2"/><g><path d="m302.022 143.538c-3.483 0-6.625-2.406-7.419-5.946l-2.598-11.571c-.922-4.101 1.657-8.172 5.759-9.093 4.101-.921 8.174 1.659 9.093 5.759l2.598 11.571c.922 4.101-1.657 8.172-5.759 9.093-.561.126-1.122.187-1.674.187z" fill="#f6f1f1"/></g><g><path d="m294.937 139.051c-3.483 0-6.625-2.406-7.42-5.946-.921-4.101 1.658-8.173 5.76-9.094l11.572-2.598c4.101-.916 8.174 1.659 9.094 5.76.921 4.101-1.658 8.173-5.76 9.094l-11.572 2.598c-.561.126-1.122.186-1.674.186z" fill="#f6f1f1"/></g></g><g><path d="m371.321 35.955 6.24 6.077c2.271 2.211 5.517 3.103 8.599 2.36l8.467-2.041c7.603-1.833 13.895 6.033 10.436 13.048l-3.852 7.812c-1.402 2.843-1.246 6.206.413 8.907l4.558 7.422c4.093 6.665-1.444 15.079-9.185 13.958l-8.62-1.249c-3.137-.455-6.287.733-8.344 3.145l-5.651 6.628c-5.074 5.952-14.788 3.286-16.113-4.422l-1.476-8.584c-.537-3.124-2.64-5.753-5.569-6.963l-8.05-3.326c-7.228-2.986-7.695-13.048-.774-16.691l7.708-4.056c2.805-1.476 4.656-4.289 4.901-7.449l.675-8.684c.608-7.796 10.034-11.349 15.637-5.892z" fill="#e490d0"/><path d="m394.626 42.351-8.467 2.041c-3.081.743-6.328-.148-8.599-2.36l-6.24-6.077c-5.603-5.457-15.028-1.904-15.635 5.893l-.674 8.672 5.039 4.908c2.271 2.212 5.518 3.103 8.599 2.36l8.467-2.041c7.603-1.833 13.895 6.033 10.436 13.048l-3.852 7.812c-1.402 2.843-1.246 6.206.413 8.907l4.129 6.724c.045.006.089.004.133.011l8.62 1.249c7.74 1.121 13.277-7.293 9.185-13.958l-4.558-7.422c-1.659-2.701-1.814-6.064-.413-8.907l3.852-7.812c3.46-7.015-2.831-14.881-10.435-13.048z" fill="#dd5ca2"/><g><path d="m374.539 75.789c-3.076 0-5.973-1.879-7.123-4.928l-1.114-2.954c-1.484-3.934.503-8.325 4.436-9.808 3.935-1.484 8.324.502 9.808 4.436l1.114 2.954c1.484 3.934-.503 8.325-4.436 9.808-.885.335-1.792.492-2.685.492z" fill="#f6f1f1"/></g></g></g></svg>