<svg id="Capa_1" enable-background="new 0 0 512 512" height="512" viewBox="0 0 512 512" width="512" xmlns="http://www.w3.org/2000/svg"><g><g fill="#e7a52e"><path d="m359.7 34.369c9.444-1.307 18.206 1.225 26.382 7.066 5.286 3.776 4.953 11.761-.527 15.248l-8.063 5.131c-29.243 18.609-53.334 44.277-70.054 74.639l-26.264 47.694-30.477-35.557 60.003-108.256z"/><path d="m281.5 112.629-26.695 48.132-24.305-48.132 9.781-92.848c.847-8.044 7.631-14.15 15.719-14.15 8.088 0 14.872 6.106 15.719 14.15z"/><path d="m152.3 34.369c-9.444-1.307-18.206 1.225-26.382 7.066-5.286 3.776-4.953 11.761.527 15.248l8.063 5.131c29.243 18.609 53.334 44.277 70.054 74.639l26.264 47.694 30.477-35.557-60.003-108.256z"/></g><path d="m239.65 155.897-27.9-62.894c-8.44-19.026-22.597-34.689-40.282-44.565l-10.995-6.14c-13.038-7.281-15.547-25.733-4.928-36.241 5.719-5.659 13.99-7.527 21.517-4.861.484.172.967.346 1.448.523 25.474 9.374 45.479 30.593 54.887 57.101l24.102 67.909z" fill="#ecbe6b"/><path d="m272.35 155.897 27.9-62.894c8.44-19.026 22.597-34.689 40.282-44.565l10.995-6.14c13.038-7.281 15.547-25.733 4.928-36.241-5.719-5.659-13.99-7.527-21.517-4.861-.484.172-.967.346-1.448.523-25.474 9.374-45.479 30.593-54.887 57.101l-24.102 67.909z" fill="#ecbe6b"/><path d="m366.97 306.144-19.618-18.537-187.071-.333-15.251 18.87 25.866 173.692 22.023 16.082h123.663l24.522-16.082z" fill="#c6865c"/><path d="m145.03 306.144 3.717 20.52h140.327c25.056 0 43.999 22.684 39.533 47.338l-13.573 105.834 8.758 16.082 17.311-16.082 25.866-173.692-26.281-18.87-173.327.014z" fill="#c17d4f"/><path d="m385.122 306.144h-258.244c-2.471 0-4.475-2.003-4.475-4.475v-28.791c0-2.471 2.003-4.475 4.475-4.475h258.244c2.471 0 4.475 2.003 4.475 4.475v28.791c0 2.472-2.004 4.475-4.475 4.475z" fill="#9d6b6b"/><path d="m385.122 268.404h-18.658v37.74h18.658c2.471 0 4.475-2.003 4.475-4.475v-28.791c0-2.471-2.004-4.474-4.475-4.474z" fill="#8b5e5e"/><path d="m144.856 491.987c-.744-1.814-1.36-3.717-1.848-5.704-.806-3.276 1.682-6.446 5.056-6.446h215.873c3.374 0 5.861 3.17 5.056 6.446-.488 1.987-1.104 3.89-1.848 5.704-5.023 12.252-17.242 20.013-30.483 20.013h-161.324c-13.241 0-25.46-7.761-30.482-20.013z" fill="#9d6b6b"/><path d="m363.936 479.836h-24.429c3.374 0 5.861 3.17 5.056 6.446-.488 1.987-1.104 3.89-1.848 5.704-5.022 12.252-17.241 20.014-30.482 20.014h24.429c13.241 0 25.46-7.762 30.482-20.013.744-1.814 1.36-3.717 1.848-5.704.805-3.277-1.682-6.447-5.056-6.447z" fill="#8b5e5e"/><g><path d="m267.611 206.025c7.448-6.948 16.536-22.787 16.536-33.777 0-14.628-9.509-29.364-18.237-41.036-2.375-3.176-5.58-6.974-7.99-9.895-.469-.569-2.659-.897-9.154.426-.897.851-1.719 1.817-2.433 2.913-12.732 19.569-30.375 24.464-30.375 47.453 0 10.99 4.885 20.611 12.333 27.559 4.842 4.517 10.561 7.621 16.608 9.313 6.049-1.691 17.871 1.56 22.712-2.956z" fill="#4f8980"/></g><path d="m272.459 123.319c-6.128-7.428-17.087-7.838-23.692-1.575.522.487 1.023 1.007 1.492 1.575 11.264 13.653 23.581 30.183 23.581 48.791 0 10.99-4.885 20.611-12.333 27.559-4.842 4.517-10.561 7.621-16.608 9.313 13.29 3.718 28.167.614 38.808-9.313 7.448-6.948 12.333-16.569 12.333-27.559 0-18.608-12.316-35.138-23.581-48.791z" fill="#3d6b73"/><path d="m322.101 174.767h-25.781c-12.146 0-23.006 7.564-27.218 18.956l-2.205 5.966c-3.741 10.119-18.053 10.119-21.794 0l-2.205-5.966c-4.212-11.392-15.072-18.956-27.218-18.956h-25.781c-16.448 0-29.7 13.662-29.005 30.096.97 22.952 9.128 44.132 24.473 63.541h141.266c15.346-19.409 23.504-40.59 24.473-63.541.695-16.434-12.557-30.096-29.005-30.096z" fill="#4a80aa"/><g><path d="m322.101 174.767h-25.5c16.448 0 29.7 13.662 29.005 30.096-.97 22.952-9.128 44.132-24.473 63.541h25.5c15.346-19.409 23.504-40.59 24.473-63.541.695-16.434-12.557-30.096-29.005-30.096z" fill="#407093"/></g><g><g><path d="m213.564 219.299c-3.786 0-7.572-1.045-11.253-3.133-3.712-2.107-5.014-6.824-2.908-10.536 2.108-3.712 6.825-5.015 10.536-2.907 2.611 1.479 4.643 1.479 7.252 0 3.709-2.109 8.428-.806 10.536 2.907 2.106 3.712.804 8.429-2.908 10.536-3.681 2.088-7.468 3.133-11.255 3.133z" fill="#407093"/></g><g><path d="m298.493 219.299c-3.788 0-7.573-1.044-11.254-3.134-3.712-2.106-5.013-6.824-2.906-10.536 2.107-3.713 6.825-5.014 10.536-2.906 2.608 1.479 4.64 1.479 7.25 0 3.709-2.109 8.428-.806 10.536 2.907 2.106 3.712.804 8.429-2.908 10.536-3.681 2.088-7.468 3.133-11.254 3.133z" fill="#407093"/></g><g><path d="m256.006 255.413c-2.783 0-5.471-1.508-6.852-4.145-4.355-8.315-4.355-17.105 0-25.419 1.981-3.781 6.654-5.24 10.432-3.259 3.781 1.98 5.24 6.651 3.259 10.432-2.006 3.829-2.006 7.244 0 11.075 1.98 3.781.521 8.451-3.26 10.431-1.144.6-2.371.885-3.579.885z" fill="#407093"/></g></g></g></svg>