<svg id="Capa_1" enable-background="new 0 0 512 512" height="512" viewBox="0 0 512 512" width="512" xmlns="http://www.w3.org/2000/svg"><g><g><path d="m292.989 165.494h-73.979c-2.141 0-4.18-.915-5.604-2.515-1.423-1.6-2.095-3.731-1.846-5.858l17.63-150.495c.481-4.114 4.209-7.042 8.322-6.576 4.113.482 7.058 4.208 6.576 8.322l-16.648 142.122h57.119l-16.648-142.122c-.481-4.114 2.463-7.84 6.576-8.322 4.104-.47 7.84 2.462 8.322 6.576l17.629 150.495c.249 2.127-.423 4.259-1.846 5.858-1.424 1.6-3.463 2.515-5.603 2.515z" fill="#efe7e4"/></g><path d="m284.853 275.168h-57.707c-36.215 0-67.773-24.671-76.513-59.816l-12.219-49.136c-3.455-13.892 7.055-27.336 21.371-27.336h192.428c14.315 0 24.825 13.444 21.371 27.336l-12.219 49.136c-8.739 35.144-40.297 59.816-76.512 59.816z" fill="#c6865c"/><path d="m352.214 138.88h-26.933c14.315 0 24.825 13.444 21.371 27.336l-12.219 49.136c-8.74 35.145-40.298 59.816-76.513 59.816h26.933c36.215 0 67.773-24.671 76.513-59.816l12.219-49.136c3.454-13.893-7.056-27.336-21.371-27.336z" fill="#c17d4f"/><g><path d="m252.922 446.705c-.99 0-1.996-.197-2.964-.614-3.804-1.639-5.559-6.051-3.92-9.855 31.089-72.16 16.734-106.541-4.992-158.584-4.907-11.754-9.981-23.909-15.062-37.664-12.396-33.559-13.437-61.693-3.095-83.625 8.103-17.181 20.538-23.85 21.063-24.125 3.666-1.923 8.201-.51 10.125 3.16 1.914 3.65.522 8.157-3.107 10.097-1.64.907-36.138 21.009-10.916 89.296 4.973 13.462 9.986 25.47 14.834 37.082 22.369 53.582 38.532 92.295 4.926 170.299-1.222 2.835-3.986 4.533-6.892 4.533z" fill="#78c2a4"/></g><g><path d="m99.821 512c-1.199.001-2.415-.288-3.546-.896-3.647-1.962-5.015-6.51-3.053-10.158.14-.26 14.325-27.046 20.473-64.452 8.138-49.515-.902-93.298-26.869-130.134-48.176-68.343-43.245-132.032-36.018-163.914 2.951-13.02 10.288-24.921 20.659-33.511 23.744-19.66 58.604-18.583 81.085 2.509l23.413 21.966c3.021 2.834 3.172 7.58.338 10.602-2.835 3.02-7.58 3.172-10.602.338l-23.413-21.966c-16.985-15.936-43.318-16.75-61.254-1.896-7.835 6.489-13.374 15.465-15.598 25.274-6.677 29.452-11.183 88.356 33.648 151.955 28.009 39.732 38.149 88.736 29.327 141.714-6.617 39.74-21.355 67.459-21.979 68.62-1.353 2.518-3.939 3.949-6.611 3.949z" fill="#78c2a4"/></g><g><path d="m412.179 512c-2.672.001-5.258-1.431-6.612-3.948-.624-1.161-15.362-28.88-21.98-68.62-8.822-52.978 1.319-101.981 29.327-141.714 44.831-63.598 40.325-122.503 33.648-151.955-2.224-9.811-7.763-18.786-15.598-25.274-17.937-14.854-44.27-14.038-61.254 1.896l-23.412 21.966c-3.021 2.834-7.768 2.682-10.602-.338-2.834-3.021-2.683-7.768.338-10.602l23.412-21.966c22.485-21.093 57.345-22.171 81.084-2.509 10.371 8.589 17.709 20.489 20.66 33.511 7.228 31.882 12.158 95.572-36.018 163.914-26.054 36.96-35.067 80.903-26.79 130.607 6.214 37.313 20.253 63.717 20.395 63.979 1.962 3.648.595 8.196-3.053 10.158-1.129.607-2.346.895-3.545.895z" fill="#78c2a4"/></g><path d="m92.849 460.479c2.002-.899 11.947 1.483 13.69 0 3.79-3.226 8.5-5.177 13.461-5.576 11.59-.932 20.273-6.41 21.205-18 .399-4.961 2.35-9.671 5.576-13.461 7.536-8.854 9.387-29.153 1.851-38.007-3.226-3.791-5.177-8.5-5.576-13.461-.932-11.59-11.056-22.617-22.646-23.548-4.961-.399-9.671-2.35-13.461-5.576-1.743-1.484-12.098-.841-14.1-1.741-3.968 3.204-8.804 5.156-13.898 5.566-12.409.998-22.261 10.85-23.259 23.259-.427 5.312-2.516 10.355-5.97 14.413-8.069 9.48-8.069 23.414 0 32.894 3.454 4.058 5.543 9.101 5.97 14.413.998 12.409 10.85 22.261 23.259 23.26 5.093.409 9.93 2.361 13.898 5.565z" fill="#f6f1f1"/><path d="m169.899 384.347c-3.454-4.058-5.543-9.101-5.97-14.413-.998-12.409-10.85-22.261-23.259-23.259-5.312-.427-10.355-2.516-14.413-5.97-9.48-8.069-23.414-8.069-32.894 0-.167.142-.344.267-.514.404 2.002.899 3.91 2.08 5.653 3.563 3.79 3.226 8.5 5.177 13.461 5.576 11.59.932 20.792 10.134 21.724 21.724.399 4.961 2.35 9.671 5.576 13.461 7.536 8.854 7.536 21.868 0 30.722-3.226 3.79-5.177 8.5-5.576 13.461-.932 11.59-10.134 20.792-21.724 21.724-4.961.399-9.671 2.35-13.461 5.576-1.743 1.483-3.651 2.664-5.653 3.563.17.137.348.262.514.404 9.48 8.069 23.414 8.069 32.894 0 4.058-3.454 9.101-5.543 14.413-5.97 12.409-.998 22.261-10.85 23.259-23.26.427-5.312 2.516-10.355 5.97-14.413 8.069-9.48 8.069-23.413 0-32.893z" fill="#efe7e4"/><g><g><path d="m109.81 374.038c-4.143 0-7.5-3.357-7.5-7.5v-3.402c0-4.143 3.357-7.5 7.5-7.5s7.5 3.357 7.5 7.5v3.402c0 4.142-3.357 7.5-7.5 7.5z" fill="#e490d0"/></g><g><path d="m134.086 384.093c-1.919 0-3.839-.732-5.304-2.196-2.929-2.93-2.929-7.678 0-10.607l2.406-2.406c2.93-2.928 7.678-2.928 10.607 0 2.929 2.93 2.929 7.678 0 10.607l-2.406 2.406c-1.464 1.464-3.384 2.196-5.303 2.196z" fill="#e490d0"/></g><g><path d="m147.545 408.37h-3.403c-4.143 0-7.5-3.357-7.5-7.5s3.357-7.5 7.5-7.5h3.403c4.143 0 7.5 3.357 7.5 7.5s-3.357 7.5-7.5 7.5z" fill="#e490d0"/></g><g><path d="m136.493 435.052c-1.919 0-3.839-.732-5.304-2.196l-2.406-2.406c-2.929-2.93-2.929-7.678 0-10.607 2.93-2.928 7.678-2.928 10.607 0l2.406 2.406c2.929 2.93 2.929 7.678 0 10.607-1.465 1.464-3.384 2.196-5.303 2.196z" fill="#e490d0"/></g><g><path d="m109.81 446.104c-4.143 0-7.5-3.357-7.5-7.5v-3.402c0-4.143 3.357-7.5 7.5-7.5s7.5 3.357 7.5 7.5v3.402c0 4.143-3.357 7.5-7.5 7.5z" fill="#e490d0"/></g><g><path d="m83.127 435.052c-1.919 0-3.839-.732-5.304-2.196-2.929-2.93-2.929-7.678 0-10.607l2.406-2.406c2.93-2.928 7.678-2.928 10.607 0 2.929 2.93 2.929 7.678 0 10.607l-2.406 2.406c-1.464 1.464-3.384 2.196-5.303 2.196z" fill="#e490d0"/></g><g><path d="m75.478 408.37h-3.402c-4.143 0-7.5-3.357-7.5-7.5s3.357-7.5 7.5-7.5h3.402c4.143 0 7.5 3.357 7.5 7.5s-3.357 7.5-7.5 7.5z" fill="#e490d0"/></g><g><path d="m85.534 384.093c-1.919 0-3.839-.732-5.304-2.196l-2.406-2.406c-2.929-2.93-2.929-7.678 0-10.607 2.93-2.928 7.678-2.928 10.607 0l2.406 2.406c2.929 2.93 2.929 7.678 0 10.607-1.464 1.464-3.384 2.196-5.303 2.196z" fill="#e490d0"/></g><g><path d="m109.81 409.995c-4.143 0-7.5-3.357-7.5-7.5v-3.402c0-4.143 3.357-7.5 7.5-7.5s7.5 3.357 7.5 7.5v3.402c0 4.142-3.357 7.5-7.5 7.5z" fill="#e490d0"/></g></g><path d="m432.397 357.701c3.791-3.226 8.5-5.177 13.461-5.576 11.59-.932 22.025-4.887 22.957-16.477.399-4.961 2.35-9.671 5.576-13.461 7.536-8.854 16.737-31.436 9.201-40.29-3.226-3.791-5.177-8.5-5.576-13.461-.932-11.59-17.081-23.599-28.671-24.531-4.961-.399-9.671-2.35-13.461-5.576-1.743-1.484-12.486.899-14.488 0-3.968 3.204-8.805 5.156-13.899 5.566-12.409.998-22.261 10.851-23.259 23.26-.427 5.312-2.516 10.355-5.97 14.413-8.069 9.48-8.069 23.414 0 32.894 3.454 4.058 5.543 9.101 5.97 14.413.998 12.409 10.85 22.262 23.259 23.26 5.094.41 9.931 2.362 13.899 5.566 2.004-.899 9.258 1.484 11.001 0z" fill="#f6f1f1"/><path d="m498.448 281.569c-3.454-4.058-5.543-9.101-5.97-14.413-.998-12.409-10.85-22.261-23.259-23.259-5.312-.427-10.355-2.516-14.413-5.97-9.48-8.069-23.414-8.069-32.894 0-.167.142-.344.267-.514.404 2.002.899 3.91 2.08 5.653 3.563 3.79 3.226 8.5 5.177 13.461 5.576 11.59.932 20.792 10.134 21.724 21.724.399 4.961 2.35 9.671 5.576 13.461 7.536 8.854 7.536 21.868 0 30.722-3.226 3.79-5.177 8.5-5.576 13.461-.932 11.59-10.134 20.792-21.724 21.724-4.961.399-9.671 2.35-13.461 5.576-1.743 1.483-3.651 2.664-5.653 3.563.17.137.348.262.514.404 9.48 8.069 23.414 8.069 32.894 0 4.058-3.454 9.101-5.543 14.413-5.97 12.409-.998 22.261-10.85 23.259-23.26.427-5.312 2.516-10.355 5.97-14.413 8.069-9.479 8.069-23.413 0-32.893z" fill="#efe7e4"/><g><g><path d="m438.359 271.259c-4.143 0-7.5-3.357-7.5-7.5v-3.402c0-4.143 3.357-7.5 7.5-7.5s7.5 3.357 7.5 7.5v3.402c0 4.143-3.358 7.5-7.5 7.5z" fill="#e490d0"/></g><g><path d="m462.635 281.315c-1.92 0-3.84-.732-5.305-2.198-2.928-2.929-2.927-7.678.003-10.606l2.406-2.405c2.929-2.927 7.678-2.928 10.606.003 2.928 2.929 2.927 7.678-.003 10.606l-2.406 2.405c-1.463 1.463-3.382 2.195-5.301 2.195z" fill="#e490d0"/></g><g><path d="m476.093 305.592h-3.402c-4.143 0-7.5-3.357-7.5-7.5s3.357-7.5 7.5-7.5h3.402c4.143 0 7.5 3.357 7.5 7.5s-3.357 7.5-7.5 7.5z" fill="#e490d0"/></g><g><path d="m465.041 332.275c-1.919 0-3.839-.732-5.304-2.196l-2.406-2.406c-2.929-2.93-2.929-7.678 0-10.607 2.93-2.928 7.678-2.928 10.607 0l2.406 2.406c2.929 2.93 2.929 7.678 0 10.607-1.464 1.464-3.384 2.196-5.303 2.196z" fill="#e490d0"/></g><g><path d="m438.359 343.327c-4.143 0-7.5-3.357-7.5-7.5v-3.402c0-4.143 3.357-7.5 7.5-7.5s7.5 3.357 7.5 7.5v3.402c0 4.142-3.358 7.5-7.5 7.5z" fill="#e490d0"/></g><g><path d="m411.676 332.275c-1.919 0-3.839-.732-5.304-2.196-2.929-2.93-2.929-7.678 0-10.607l2.406-2.406c2.93-2.928 7.678-2.928 10.607 0 2.929 2.93 2.929 7.678 0 10.607l-2.406 2.406c-1.464 1.464-3.384 2.196-5.303 2.196z" fill="#e490d0"/></g><g><path d="m404.027 305.592h-3.402c-4.143 0-7.5-3.357-7.5-7.5s3.357-7.5 7.5-7.5h3.402c4.143 0 7.5 3.357 7.5 7.5s-3.358 7.5-7.5 7.5z" fill="#e490d0"/></g><g><path d="m414.082 281.315c-1.919 0-3.838-.731-5.302-2.195l-2.406-2.405c-2.93-2.929-2.931-7.678-.003-10.606 2.929-2.932 7.678-2.932 10.606-.003l2.406 2.405c2.93 2.929 2.931 7.678.003 10.606-1.464 1.466-3.384 2.198-5.304 2.198z" fill="#e490d0"/></g><g><path d="m438.359 307.217c-4.143 0-7.5-3.357-7.5-7.5v-3.402c0-4.143 3.357-7.5 7.5-7.5s7.5 3.357 7.5 7.5v3.402c0 4.143-3.358 7.5-7.5 7.5z" fill="#e490d0"/></g></g><g><g><path d="m177.191 57.232 2.28 14.278c1.607 10.064-5.501 19.438-15.626 20.606-10.811 1.247-16.697 13.237-11.119 22.581 1.321 2.213 2.783 4.315 4.401 6.295 5.531 6.768 15.196 8.464 22.806 4.167 26.914-15.198 29.613-53.286 4.723-71.611-.227-.167-.456-.334-.685-.5-3.107-2.246-7.384.398-6.78 4.184z" fill="#95d6a4"/></g><g><path d="m61.309 55.301 12.85 6.63c9.057 4.673 12.391 15.955 7.329 24.8-5.405 9.445.76 21.294 11.592 22.342 2.565.248 5.125.317 7.679.188 8.729-.441 15.825-7.218 16.877-15.895 3.719-30.684-25.353-55.44-54.867-46.261-.269.084-.539.169-.808.255-3.653 1.171-4.059 6.183-.652 7.941z" fill="#95d6a4"/></g><g><path d="m29.855 261.37-1.177-14.411c-.829-10.158 6.977-18.958 17.162-19.345 10.875-.413 17.664-11.916 12.819-21.661-1.147-2.308-2.444-4.516-3.905-6.614-4.995-7.173-14.501-9.606-22.419-5.905-28.001 13.086-33.616 50.855-10.206 71.037.214.184.429.368.645.551 2.926 2.477 7.393.17 7.081-3.652z" fill="#95d6a4"/></g><g><path d="m16.426 114.865 12.85 6.63c9.057 4.673 12.391 15.955 7.329 24.8-5.405 9.445.76 21.294 11.592 22.342 2.565.248 5.125.317 7.679.188 8.729-.441 15.825-7.218 16.877-15.895 3.719-30.684-25.353-55.44-54.867-46.261-.269.084-.539.169-.808.255-3.653 1.171-4.06 6.183-.652 7.941z" fill="#95d6a4"/></g><g><path d="m106.285 162.983 14.373-1.576c10.131-1.111 17.292-10.444 15.742-20.517-1.655-10.756 8.352-19.602 18.839-16.692 2.483.689 4.897 1.543 7.235 2.581 7.989 3.545 12.18 12.418 10.047 20.894-7.542 29.974-43.562 42.646-67.816 23.485-.221-.175-.442-.351-.663-.529-2.987-2.404-1.568-7.228 2.243-7.646z" fill="#95d6a4"/></g><g><path d="m115.736 294.641-5.286-13.458c-3.726-9.487-14.609-13.953-23.924-9.818-9.947 4.415-21.106-2.926-21.044-13.809.015-2.577.207-5.13.596-7.658 1.328-8.639 8.794-15.007 17.533-15.169 30.903-.572 52.567 30.871 40.428 59.297-.111.26-.223.519-.336.778-1.538 3.512-6.565 3.406-7.967-.163z" fill="#95d6a4"/></g></g><g><g><path d="m334.808 57.232-2.28 14.278c-1.607 10.064 5.501 19.438 15.626 20.606 10.811 1.247 16.697 13.237 11.119 22.581-1.321 2.213-2.783 4.315-4.401 6.295-5.531 6.768-15.196 8.464-22.806 4.167-26.914-15.198-29.613-53.286-4.723-71.611.227-.167.456-.334.685-.5 3.108-2.246 7.385.398 6.78 4.184z" fill="#95d6a4"/></g><g><path d="m450.691 55.301-12.85 6.63c-9.057 4.673-12.391 15.955-7.329 24.8 5.405 9.445-.76 21.294-11.592 22.342-2.565.248-5.125.317-7.679.188-8.729-.441-15.825-7.218-16.877-15.895-3.719-30.684 25.353-55.44 54.867-46.261.269.084.539.169.808.255 3.652 1.171 4.059 6.183.652 7.941z" fill="#95d6a4"/></g><g><path d="m431.281 436.517-5.457-13.39c-3.846-9.438-14.785-13.766-24.047-9.513-9.89 4.541-21.141-2.658-21.218-13.54-.018-2.577.142-5.133.498-7.665 1.218-8.655 8.602-15.118 17.338-15.391 30.894-.965 52.956 30.2 41.18 58.777-.108.261-.216.522-.326.782-1.493 3.532-6.521 3.49-7.968-.06z" fill="#95d6a4"/></g><g><path d="m495.574 114.865-12.85 6.63c-9.057 4.673-12.391 15.955-7.329 24.8 5.405 9.445-.76 21.294-11.592 22.342-2.565.248-5.125.317-7.679.188-8.729-.441-15.825-7.218-16.877-15.895-3.719-30.684 25.353-55.44 54.867-46.261.269.084.539.169.808.255 3.652 1.171 4.059 6.183.652 7.941z" fill="#95d6a4"/></g><g><path d="m405.714 162.983-14.373-1.576c-10.131-1.111-17.292-10.444-15.742-20.517 1.655-10.756-8.352-19.602-18.839-16.692-2.483.689-4.897 1.543-7.235 2.581-7.989 3.545-12.18 12.418-10.047 20.894 7.542 29.974 43.562 42.646 67.816 23.485.221-.175.442-.351.663-.529 2.988-2.404 1.568-7.228-2.243-7.646z" fill="#95d6a4"/></g><g><path d="m362.499 499.123 5.286-13.458c3.726-9.487 14.609-13.953 23.924-9.818 9.947 4.415 21.105-2.926 21.044-13.809-.015-2.577-.207-5.131-.596-7.658-1.328-8.639-8.794-15.007-17.533-15.169-30.903-.572-52.567 30.871-40.428 59.297.111.26.223.519.336.778 1.538 3.512 6.565 3.406 7.967-.163z" fill="#95d6a4"/></g></g><g><path d="m203.675 277.552 3.431-14.046c2.419-9.901 12.603-15.787 22.39-12.941 10.449 3.04 20.522-5.733 19-16.509-.36-2.552-.894-5.056-1.618-7.509-2.476-8.382-10.729-13.691-19.41-12.678-30.701 3.581-47.947 37.648-32.102 64.187.145.242.291.484.438.726 1.994 3.274 6.961 2.494 7.871-1.23z" fill="#95d6a4"/></g><g><path d="m225.013 437.989 7.451-12.391c5.252-8.734 16.727-11.327 25.224-5.7 9.073 6.008 21.298.626 23.048-10.115.414-2.544.65-5.093.687-7.65.128-8.739-6.174-16.261-14.764-17.875-30.377-5.706-56.971 21.694-49.731 51.743.066.274.134.549.202.823.932 3.719 5.907 4.45 7.883 1.165z" fill="#95d6a4"/></g><g><path d="m286.472 189.33-6.455-12.938c-4.55-9.12-15.785-12.606-24.699-7.664-9.517 5.277-21.282-1.049-22.182-11.894-.213-2.568-.248-5.129-.084-7.681.559-8.722 7.432-15.726 16.123-16.66 30.732-3.302 55.091 26.103 45.512 55.49-.087.268-.176.537-.266.805-1.221 3.634-6.238 3.973-7.949.542z" fill="#95d6a4"/></g><g><path d="m313.822 350.202-8.653-11.584c-6.1-8.165-17.776-9.597-25.668-3.149-8.427 6.886-21.129 2.754-23.944-7.758-.667-2.489-1.156-5.003-1.449-7.543-1.001-8.683 4.516-16.797 12.902-19.262 29.654-8.716 58.855 15.886 54.657 46.509-.038.28-.078.559-.119.839-.555 3.794-5.431 5.02-7.726 1.948z" fill="#95d6a4"/></g></g></svg>