<svg id="Capa_1" enable-background="new 0 0 512 512" height="512" viewBox="0 0 512 512" width="512" xmlns="http://www.w3.org/2000/svg"><g><path d="m256 252.196-23.661-.014-24.486-19.809c7.436-9.103 8.86-22.258 3.57-32.979-5.115-10.365-3.967-23.048 2.909-32.138l4.674-6.18c6.388-8.446 7.87-20.059 3.836-30.066l-1.881-4.667c-3.53-8.757-2.863-18.836 1.784-26.958l5.831-10.19c4.269-7.461 5.199-16.613 2.529-24.902l-1.587-4.927c-1.884-5.849-2.022-12.208-.32-18.123 3.449-11.982 7.788-23.356 13.818-33.576 6.031-10.222 19.938-10.222 25.969 0 6.03 10.22 10.369 21.594 13.818 33.576 1.702 5.914 1.564 12.274-.32 18.123l-1.587 4.927c-2.67 8.289-1.741 17.441 2.529 24.902l5.831 10.19c4.647 8.122 5.314 18.2 1.784 26.958l-1.881 4.667c-4.034 10.007-2.552 21.62 3.836 30.066l4.674 6.18c6.876 9.09 8.024 21.773 2.909 32.138-5.29 10.72-3.866 23.876 3.57 32.979l-29.788 19.819z" fill="#69af81"/><g><path d="m258.857 254.748c-1.388 0-2.793-.373-4.06-1.157-3.63-2.246-4.752-7.009-2.506-10.639 4.59-7.417 4.342-17.384-.615-24.8-8.056-12.053-8.684-27.894-1.601-40.357l3.829-6.737c3.864-6.8 3.814-15.706-.129-22.691l-2.475-4.382c-5.796-10.265-6.606-22.859-2.167-33.69 1.617-3.95 6.134-5.839 10.082-4.221 3.95 1.618 5.84 6.133 4.221 10.082-2.659 6.489-2.164 14.052 1.325 20.229l2.475 4.383c6.658 11.795 6.699 26.328.107 37.928l-3.829 6.737c-4.154 7.31-3.747 17.007 1.013 24.129 8.263 12.362 8.627 29.049.909 41.524-1.462 2.362-3.991 3.662-6.579 3.662z" fill="#5ea570"/></g><g><path d="m203.101 210.154-40.821-10.004c-5.884-1.442-11.831-4.788-16.651-9.369l-10.87-10.329c-6.02-5.721-13.719-9.447-20.784-10.061l-2.404-.209c-11.066-.961-23.019-9.415-28.17-19.923-2.249-4.588-5.901-8.96-10.415-12.466l-1.553-1.206c-8.18-6.354-6.521-15.944 2.477-14.315 4.1.705 7.893.4 10.987-.885l3.84-1.595c8.009-3.325 19.984.115 28.999 8.33l3.478 3.17c6.153 5.607 13.886 9.144 20.878 9.547l11.212.647c6.429.371 13.516 3.395 19.433 8.292l35.462 29.352z" fill="#4f8980"/><path d="m246.77 248.987-3.574 8.268c-5.732 13.261-20.258 21.496-35.625 20.196l-5.792-.49c-9.327-.789-18.633 1.941-25.796 7.567l-9.684 7.606c-6.977 5.48-15.997 8.218-25.099 7.619l-17.01-1.119c-9.511-.626-18.913 2.392-25.989 8.343l-2.319 1.95c-11.025 9.271-27.18 11.077-40.156 4.488l-.81-.411c-5.652-2.87-12.077-4.217-18.544-3.888l-13.44.684c-8.092.412-11.758-9.104-5.229-13.572l4.972-3.402c5.284-3.617 9.36-8.532 11.753-14.177 5.45-12.855 19.189-21.113 34.1-20.496l6.362.263c9.583.397 18.947-2.888 25.862-9.072l9.408-8.413c6.692-5.984 15.688-9.262 24.971-9.099l11.8.208c8.205.145 16.223-2.4 22.626-7.182l9.028-6.742c6.312-4.714 14.197-7.256 22.287-7.186l26.009.224z" fill="#4f8980"/><path d="m199.349 240.15c-3.898-3.028-8.635-5.097-14.142-6.289-15.086-3.266-32.212 3.328-42.423 15.312-1.88 2.207-4.065 4.108-6.505 5.738-8.539 5.706-19.435 7.342-28.555 4.792-8.813-2.465-17-2.453-24.397.687-11.392 4.836-24.063 4.068-32.215-2.325l-15.28-11.982c-5.835-4.575-4.39-13.225 2.996-17.941l6.135-3.917c21.729-13.875 47.143-22.069 72.462-23.364l.933-.048c8.808-.451 17.4.282 25.685 1.799 8.718 1.597 18.105 1.446 27.467-.493 19.865-4.114 39.515-.729 53.617 9.237l24.145 17.062-43.025 16.729z" fill="#69af81"/><path d="m308.899 210.154 40.821-10.004c5.884-1.442 11.831-4.788 16.651-9.369l10.87-10.329c6.02-5.721 13.719-9.447 20.784-10.061l2.404-.209c11.066-.961 23.019-9.415 28.17-19.923 2.249-4.588 5.901-8.96 10.415-12.466l1.553-1.206c8.18-6.354 6.521-15.944-2.477-14.315-4.1.705-7.893.4-10.987-.885l-3.84-1.595c-8.009-3.325-19.984.115-28.999 8.33l-3.478 3.17c-6.153 5.607-13.886 9.144-20.878 9.547l-11.212.647c-6.429.371-13.516 3.395-19.433 8.292l-35.463 29.354z" fill="#4f8980"/><path d="m265.23 248.987 3.574 8.268c5.732 13.261 20.258 21.496 35.625 20.196l5.792-.49c9.327-.789 18.633 1.941 25.796 7.567l9.684 7.606c6.977 5.48 15.997 8.218 25.099 7.619l17.01-1.119c9.511-.626 18.913 2.392 25.989 8.343l2.319 1.95c11.025 9.271 27.18 11.077 40.156 4.488l.81-.411c5.652-2.87 12.077-4.217 18.544-3.888l13.44.684c8.092.412 11.758-9.104 5.229-13.572l-4.972-3.402c-5.284-3.617-9.36-8.532-11.753-14.177-5.45-12.855-19.189-21.113-34.1-20.496l-6.362.263c-9.583.397-18.947-2.888-25.862-9.072l-9.408-8.413c-6.692-5.984-15.688-9.262-24.971-9.099l-11.8.208c-8.205.145-16.223-2.4-22.626-7.182l-9.028-6.742c-6.312-4.714-14.197-7.256-22.287-7.186l-26.009.224z" fill="#4f8980"/><path d="m312.651 240.15c3.898-3.028 8.635-5.097 14.142-6.289 15.086-3.266 32.212 3.328 42.423 15.312 1.88 2.207 4.065 4.108 6.505 5.738 8.539 5.706 19.435 7.342 28.555 4.792 8.813-2.465 17-2.453 24.397.687 11.392 4.836 24.063 4.068 32.215-2.325l15.28-11.982c5.835-4.575 4.39-13.225-2.996-17.941l-6.135-3.917c-21.729-13.875-47.143-22.069-72.462-23.364l-.933-.048c-8.808-.451-17.4.282-25.685 1.799-8.718 1.597-18.105 1.446-27.467-.493-19.865-4.114-39.515-.729-53.617 9.237l-11.675 29.537 30.554 4.254z" fill="#69af81"/></g><path d="m248.909 317.173 43.831-18.327-18.663-13.671c-8.576-6.282-14.618-18.015-15.146-29.413-.51-11.02-6.182-22.396-14.371-28.826l-5.568-4.372c-7.609-5.974-13.095-16.268-14.204-26.65l-.517-4.842c-.971-9.086-5.31-18.195-11.608-24.366l-7.901-7.742c-5.785-5.669-9.947-13.849-11.323-22.257l-.818-4.998c-.971-5.934-3.328-11.84-6.768-16.813-6.969-10.075-14.311-19.334-22.36-27.047-8.051-7.715-17.527-3.756-17.696 7.393-.169 11.147 1.258 22.877 3.527 34.915 1.12 5.942 3.665 11.77 7.204 16.631l2.981 4.095c5.015 6.888 7.91 15.597 7.877 23.697l-.045 11.062c-.036 8.817 3.395 18.306 9.176 25.382l3.081 3.771c6.607 8.085 10.074 19.223 8.976 28.834l-.803 7.033c-1.181 10.345 2.926 22.375 10.407 30.482 7.738 8.386 11.839 20.93 10.281 31.446l-3.39 22.885z" fill="#95d6a4"/><path d="m263.091 317.173-43.831-18.327 18.663-13.671c8.576-6.282 14.618-18.015 15.146-29.413.51-11.02 6.182-22.396 14.371-28.826l5.568-4.372c7.609-5.974 13.095-16.268 14.204-26.65l.517-4.842c.971-9.086 5.31-18.195 11.608-24.366l7.901-7.742c5.785-5.669 9.947-13.849 11.323-22.257l.818-4.998c.971-5.934 3.328-11.84 6.768-16.813 6.969-10.075 14.311-19.334 22.36-27.047 8.051-7.715 17.527-3.756 17.696 7.393.169 11.147-1.258 22.877-3.527 34.915-1.12 5.942-3.665 11.77-7.204 16.631l-2.981 4.095c-5.015 6.888-7.91 15.597-7.877 23.697l.045 11.062c.036 8.817-3.395 18.306-9.176 25.382l-3.081 3.771c-6.607 8.085-10.074 19.223-8.976 28.834l.803 7.033c1.181 10.345-2.926 22.375-10.407 30.482-7.737 8.386-11.839 20.93-10.281 31.446l3.39 22.885z" fill="#95d6a4"/><g><path d="m155.156 491.986c-.744-1.814-1.36-3.717-1.848-5.704-.806-3.277 1.682-6.447 5.056-6.447h195.273c3.374 0 5.861 3.17 5.056 6.447-.488 1.987-1.105 3.89-1.848 5.704-5.023 12.252-17.242 20.014-30.484 20.014h-140.722c-13.242 0-25.461-7.762-30.483-20.014z" fill="#9d6b6b"/><path d="m353.636 479.835h-24.43c3.374 0 5.861 3.17 5.056 6.447-.488 1.987-1.105 3.89-1.848 5.704-5.022 12.252-17.242 20.014-30.484 20.014h24.43c13.242 0 25.461-7.762 30.483-20.014.744-1.814 1.36-3.717 1.848-5.704.807-3.277-1.68-6.447-5.055-6.447z" fill="#8b5e5e"/></g><path d="m193.986 479.835c-33.728-55.952-45.636-97.394-35.724-179.372.525-4.344 4.32-7.614 8.811-7.614h177.855c4.49 0 8.285 3.27 8.811 7.614 9.912 81.978-1.996 123.42-35.724 179.372z" fill="#c6865c"/><path d="m344.928 292.848h-14.225c11.586 87.079 0 129.328-34.756 186.986h22.068c33.728-55.952 45.636-97.394 35.724-179.372-.526-4.344-4.321-7.614-8.811-7.614z" fill="#c17d4f"/><path d="m216.46 291.761c-7.832 5.126-16.606 8.528-25.736 10.594-1.558.353-3.135.812-4.728 1.374-14.555 5.138-25.672 19.74-28.073 35.299-.442 2.865-1.304 5.63-2.525 8.298-4.274 9.339-12.69 16.45-21.791 19.066-8.795 2.528-15.758 6.835-20.406 13.39-7.158 10.096-18.347 16.092-28.641 14.93l-19.295-2.179c-7.368-.832-10.678-8.953-6.867-16.844l3.166-6.554c11.213-23.215 28.544-43.528 49.416-57.92l.77-.531c7.261-5.006 14.958-8.892 22.807-11.949 8.259-3.217 16.169-8.272 23.121-14.836 3.874-3.658 8.007-6.868 12.308-9.594 17.642-11.18 41.125-3.57 49.114 15.728z" fill="#69af81"/><path d="m295.54 291.761c7.832 5.126 16.606 8.528 25.736 10.594 1.558.353 3.135.812 4.728 1.374 14.555 5.138 25.672 19.74 28.073 35.299.442 2.865 1.304 5.63 2.525 8.298 4.274 9.339 12.69 16.45 21.791 19.066 8.795 2.528 15.758 6.835 20.406 13.39 7.158 10.096 18.347 16.092 28.641 14.93l19.295-2.179c7.368-.832 10.678-8.953 6.867-16.844l-3.166-6.554c-11.213-23.215-28.544-43.528-49.416-57.92l-.77-.531c-7.261-5.006-14.958-8.892-22.807-11.949-8.259-3.217-16.169-8.272-23.121-14.836-3.874-3.658-8.007-6.868-12.308-9.594-17.642-11.18-41.125-3.57-49.113 15.728z" fill="#69af81"/><g fill="#5ea570"><path d="m260.801 295.68c5.47 8.461 12.451 15.622 20.253 21.614 1.332 1.023 2.642 2.159 3.93 3.405 11.765 11.379 16.857 30.644 13.43 47.09-.631 3.028-.832 6.14-.661 9.309.598 11.096 5.89 21.776 13.465 28.299 7.32 6.304 12.274 13.579 14.238 22.08 3.025 13.092 11.323 23.866 21.394 27.164l18.878 6.182c7.208 2.36 13.274-4.251 12.581-13.713l-.576-7.859c-2.038-27.836-10.869-55.443-25.178-78.716l-.528-.858c-4.978-8.096-10.774-15.271-17.014-21.691-6.566-6.755-12.135-15.18-16.255-24.685-2.296-5.297-4.998-10.262-8.034-14.82-12.454-18.696-37.238-21.31-51.766-5.652z"/><path d="m251.199 295.68c-5.47 8.461-12.451 15.622-20.253 21.614-1.332 1.023-2.641 2.159-3.93 3.405-11.765 11.379-16.857 30.644-13.43 47.09.631 3.028.832 6.14.661 9.309-.598 11.096-5.89 21.776-13.465 28.299-7.32 6.304-12.274 13.579-14.238 22.08-3.025 13.092-11.323 23.866-21.394 27.164l-18.878 6.182c-7.208 2.36-13.274-4.251-12.581-13.713l.575-7.859c2.038-27.836 10.869-55.443 25.178-78.716l.528-.858c4.978-8.096 10.774-15.271 17.014-21.691 6.566-6.755 12.135-15.18 16.255-24.685 2.296-5.297 4.998-10.262 8.034-14.82 12.454-18.696 37.238-21.31 51.766-5.652z"/></g></g></svg>