<svg id="Capa_1" enable-background="new 0 0 511.99 511.99" height="512" viewBox="0 0 511.99 511.99" width="512" xmlns="http://www.w3.org/2000/svg"><g><g><path d="m216.326 78.628c-15.943-9.979-43.258-7.447-61.434 9.365-3.605 3.335-6.545 7.304-9.033 11.539-11.717 19.949-35.012 38.33-61.629 56.259-.882.552-.558 2.016.475 2.145 63.584 10.102 113.314-4.975 149.189-45.23z" fill="#69af81"/></g><g><path d="m255.995 138.864c-4.204 0-7.612-3.407-7.612-7.612v-123.64c0-4.204 3.408-7.612 7.612-7.612s7.612 3.407 7.612 7.612v123.641c0 4.204-3.408 7.611-7.612 7.611z" fill="#407093"/></g><path d="m295.664 78.628c15.943-9.979 43.258-7.447 61.434 9.365 3.605 3.335 6.545 7.304 9.033 11.539 11.717 19.949 35.012 38.33 61.629 56.259.882.552.558 2.016-.475 2.145-63.584 10.102-113.314-4.975-149.189-45.23z" fill="#69af81"/><g><path d="m194.094 283.648c-15.393-6.32-38.834-.03-52.171 17.346-2.645 3.447-4.616 7.347-6.152 11.412-7.207 19.069-24.661 38.497-45.085 58.028-.776.694-.208 2.082.832 2.033 56.775-.772 97.77-21.348 122.987-61.728z" fill="#5ea570"/></g><path d="m184.887 229.556c-15.393-6.32-38.834-.03-52.171 17.346-2.645 3.447-4.616 7.347-6.152 11.412-7.207 19.069-24.661 38.497-45.085 58.028-.776.694-.208 2.082.832 2.033 56.775-.772 97.77-21.348 122.987-61.728z" fill="#69af81"/><g><path d="m194.094 143.27c-15.393-6.32-38.834-.03-52.171 17.346-2.645 3.447-4.616 7.347-6.152 11.412-7.207 19.069-24.661 38.497-45.085 58.028-.776.694-.208 2.083.832 2.033 56.775-.772 97.77-21.348 122.987-61.728z" fill="#5ea570"/></g><g><path d="m317.896 283.648c15.393-6.32 38.834-.03 52.171 17.346 2.645 3.447 4.616 7.347 6.152 11.412 7.207 19.069 24.661 38.497 45.085 58.028.776.694.208 2.082-.832 2.033-56.775-.772-97.77-21.348-122.987-61.728z" fill="#5ea570"/></g><g><path d="m327.103 229.556c15.393-6.32 38.834-.03 52.171 17.346 2.645 3.447 4.616 7.347 6.152 11.412 7.207 19.069 24.661 38.497 45.085 58.028.776.694.208 2.082-.832 2.033-56.775-.772-97.77-21.348-122.987-61.728z" fill="#69af81"/></g><g><path d="m317.896 143.27c15.393-6.32 38.834-.03 52.171 17.346 2.645 3.447 4.616 7.347 6.152 11.412 7.207 19.069 24.661 38.497 45.085 58.028.776.694.208 2.083-.832 2.033-56.775-.772-97.77-21.348-122.987-61.728z" fill="#5ea570"/></g><g><g><g><path d="m255.995 160.081s3.549-13.776 24.604-13.776c14.565 0 24.604 16.698 24.604 36.144 0 22.509-13.683 49.141-49.207 72.288-35.524-23.147-49.207-49.779-49.207-72.288 0-19.446 10.038-36.144 24.604-36.144 21.053-.001 24.602 13.776 24.602 13.776z" fill="#3d6b73"/></g></g></g><g><g><g><path d="m254.956 244.797c.206.382.605.621 1.039.621s.834-.238 1.04-.62c2.131-3.959 8.166-11.328 23.565-11.328 14.565 0 24.604 16.698 24.604 36.144 0 22.509-13.683 91.3-49.207 114.447-35.524-23.147-49.207-91.938-49.207-114.447 0-19.446 10.038-36.144 24.604-36.144 15.395 0 21.43 7.368 23.562 11.327z" fill="#4f8980"/></g></g></g><g><g><g><g><path d="m191.272 201.821s3.549-13.776 24.604-13.776c14.565 0 24.604 16.698 24.604 36.144 0 22.509-13.683 49.141-49.207 72.288-35.524-23.147-49.207-49.779-49.207-72.288 0-19.446 10.038-36.144 24.604-36.144 21.053 0 24.602 13.776 24.602 13.776z" fill="#95d6a4"/></g></g></g><g><g><g><path d="m320.718 201.821s3.549-13.776 24.604-13.776c14.565 0 24.604 16.698 24.604 36.144 0 22.509-13.683 49.141-49.207 72.288-35.524-23.147-49.207-49.779-49.207-72.288 0-19.446 10.038-36.144 24.604-36.144 21.052 0 24.602 13.776 24.602 13.776z" fill="#95d6a4"/></g></g></g></g><g><path d="m207.925 511.99c-7.37 0-14.168-4.104-17.474-10.691-20.386-40.62-26.764-90.37-19.132-149.248h169.353c7.632 58.878 1.254 108.628-19.132 149.248-3.306 6.587-10.104 10.691-17.474 10.691z" fill="#c6865c"/><path d="m340.671 352.051h-23.999c7.632 58.878 1.254 108.628-19.132 149.248-3.306 6.587-10.104 10.691-17.474 10.691h23.999c7.37 0 14.168-4.104 17.474-10.691 20.387-40.621 26.764-90.37 19.132-149.248z" fill="#c17d4f"/></g><g><g><g><g><path d="m216.411 120.339c.079.427.386.777.799.91.414.133.866.028 1.179-.273 3.244-3.114 11.248-8.275 25.903-3.551 13.863 4.469 18.294 23.441 12.328 41.949-6.686 20.742-26.766 41.227-65.167 52.613-2.326.69-4.841-.12-6.326-2.039-24.524-31.669-28.86-60.026-22.174-80.767 5.966-18.508 20.643-31.321 34.506-26.853 14.655 4.724 18.138 13.589 18.952 18.011z" fill="#78c2a4"/></g></g></g><g><g><g><path d="m295.579 120.338c-.079.427-.385.776-.798.91-.413.133-.866.03-1.18-.271-3.243-3.114-11.248-8.276-25.904-3.552-13.863 4.469-18.294 23.441-12.328 41.949 6.686 20.742 26.766 41.228 65.168 52.613 2.327.69 4.84-.121 6.326-2.04 24.523-31.669 28.859-60.025 22.174-80.767-5.966-18.508-20.643-31.321-34.506-26.853-14.654 4.725-18.137 13.589-18.952 18.011z" fill="#78c2a4"/></g></g></g></g><g><g><g><g><path d="m213.739 290.673c.076.431.384.785.801.919s.873.026 1.186-.28c3.397-3.315 11.961-8.987 27.769-3.892 14.807 4.773 19.54 25.038 13.168 44.807-7.157 22.204-28.684 44.133-69.88 56.278-2.322.685-4.827-.124-6.312-2.035-26.347-33.917-31.015-64.289-23.858-86.493 6.372-19.769 22.049-33.455 36.857-28.682 15.809 5.096 19.447 14.703 20.269 19.378z" fill="#78c2a4"/></g></g></g><g><g><g><path d="m298.251 290.673c-.076.431-.384.785-.801.919s-.873.026-1.186-.28c-3.397-3.315-11.961-8.987-27.769-3.892-14.807 4.773-19.54 25.038-13.168 44.807 7.157 22.204 28.684 44.132 69.879 56.278 2.321.684 4.828-.123 6.312-2.034 26.347-33.917 31.016-64.29 23.858-86.494-6.372-19.769-22.049-33.455-36.857-28.682-15.808 5.096-19.446 14.703-20.268 19.378z" fill="#78c2a4"/></g></g></g></g><g><path d="m254.838 63.026c.111.55.595.946 1.157.946s1.046-.395 1.158-.946c2.232-11.023 8.324-30.588 23.446-30.588 14.565 0 24.603 16.698 24.603 36.144 0 21.793-12.827 47.451-45.883 70.069-2.003 1.37-4.644 1.371-6.647.001-33.057-22.618-45.884-48.277-45.884-70.069 0-19.446 10.038-36.144 24.604-36.144 15.122-.001 21.214 19.563 23.446 30.587z" fill="#95d6a4"/></g></g></svg>