<svg id="Capa_1" enable-background="new 0 0 512 512" height="512" viewBox="0 0 512 512" width="512" xmlns="http://www.w3.org/2000/svg"><g><g><g><path d="m292.826 313.31c-2.695 0-5.31-1.411-6.73-3.918-1.273-2.183-6.042-8.953-14.262-5.241-3.891 1.756-8.469.024-10.225-3.864-1.756-3.891-.026-8.468 3.864-10.225 17.423-7.862 29.922 4.255 34.098 11.759 2.076 3.73.736 8.435-2.994 10.511-1.189.664-2.479.978-3.751.978z" fill="#407093"/></g><g><path d="m229.553 332.502c-2.683 0-5.844-.472-9.077-1.991-5.972-2.805-10.337-8.189-12.975-16.002-1.366-4.045.805-8.429 4.85-9.795 4.044-1.365 8.43.805 9.795 4.85 2.599 7.697 6.597 8.163 9.488 7.198l-.149.055 5.547 14.427c-.507.197-3.457 1.258-7.479 1.258z" fill="#407093"/></g></g><path d="m295.91 349.599h-59.847c-17.07-44.704 16.067-98.762 14.759-212.404-.082-7.161 5.67-13.024 12.832-13.024 6.572 0 12.048 4.969 12.767 11.501 10.409 94.499-30.695 155.883 19.489 213.927z" fill="#4a80aa"/><path d="m212.345 500.949c-20.001-39.968-26.665-88.628-19.99-145.979.356-3.055 2.928-5.371 6.004-5.371h130.357c3.076 0 5.649 2.316 6.004 5.371 6.675 57.352.012 106.011-19.99 145.979-3.383 6.762-10.278 11.051-17.84 11.051h-66.705c-7.561 0-14.456-4.289-17.84-11.051z" fill="#f6f1f1"/><path d="m328.717 349.599h-10.739c8.443 65.137 0 119.271-25.329 162.401h4.242c7.562 0 14.457-4.289 17.841-11.051 20.001-39.968 26.665-88.628 19.99-145.979-.357-3.055-2.93-5.371-6.005-5.371z" fill="#efe7e4"/><g><g><path d="m263.538 398.145c-27.245 0-54.491-3.937-81.546-11.812-4.099-1.193-6.454-5.483-5.261-9.58 1.194-4.098 5.483-6.456 9.58-5.261 51.244 14.914 103.21 14.914 154.453 0 4.099-1.194 8.388 1.163 9.58 5.261 1.193 4.098-1.162 8.388-5.261 9.58-27.054 7.875-54.3 11.812-81.545 11.812z" fill="#efe7e4"/></g><g><path d="m263.538 429.411c-26.707 0-53.413-3.783-79.934-11.349-4.105-1.17-6.483-5.447-5.312-9.552 1.17-4.105 5.451-6.483 9.552-5.312 50.225 14.326 101.16 14.326 151.385 0 4.103-1.17 8.383 1.207 9.552 5.312 1.171 4.105-1.207 8.382-5.312 9.552-26.518 7.566-53.224 11.349-79.931 11.349z" fill="#efe7e4"/></g><g><path d="m263.538 460.665c-25.077 0-50.155-3.334-75.056-10.003-4.123-1.105-6.57-5.343-5.467-9.466 1.106-4.123 5.343-6.569 9.466-5.467 47.15 12.63 94.964 12.63 142.113 0 4.126-1.103 8.36 1.342 9.466 5.467 1.104 4.123-1.343 8.361-5.467 9.466-24.901 6.669-49.978 10.003-75.055 10.003z" fill="#efe7e4"/></g><g><path d="m263.536 491.936c-21.987 0-43.966-2.562-65.797-7.688-4.156-.976-6.734-5.135-5.758-9.291s5.142-6.727 9.291-5.758c41.316 9.7 83.214 9.7 124.534 0 4.154-.973 8.314 1.603 9.291 5.758.975 4.155-1.603 8.314-5.758 9.291-21.83 5.125-43.821 7.688-65.803 7.688z" fill="#efe7e4"/></g></g><path d="m261.037 199.667-33.323-33.323c-36.447-36.447-36.447-95.539 0-131.985l33.323-33.323c1.381-1.381 3.621-1.381 5.003 0l33.323 33.323c36.447 36.447 36.447 95.539 0 131.985l-33.323 33.323c-1.382 1.381-3.622 1.381-5.003 0z" fill="#4f8980"/><g><path d="m263.535 208.433c-3.307 0-6.365-2.137-7.386-5.462-.322-1.051-7.937-26.076-11.825-56.714-5.365-42.284-.997-73.381 12.983-92.429 2.525-3.441 7.365-4.181 10.803-1.657 3.441 2.525 4.183 7.362 1.657 10.803-11.371 15.494-14.876 43.545-10.136 81.119 3.703 29.357 11.22 54.099 11.295 54.345 1.25 4.081-1.045 8.403-5.124 9.654-.753.231-1.517.341-2.267.341z" fill="#3d6b73"/></g><g><path d="m250.016 114.037c-1.852 0-3.7-.662-5.167-1.979l-24.111-21.662c-3.175-2.853-3.437-7.739-.584-10.915 2.851-3.174 7.738-3.437 10.915-.584l19.172 17.225 21.252-17.449c3.297-2.708 8.168-2.23 10.878 1.069 2.708 3.3 2.23 8.17-1.07 10.879l-26.382 21.662c-1.428 1.171-3.167 1.754-4.903 1.754z" fill="#3d6b73"/></g><g><path d="m250.016 154.334c-1.852 0-3.7-.662-5.167-1.979l-24.111-21.663c-3.175-2.853-3.437-7.74-.584-10.915 2.853-3.174 7.74-3.437 10.915-.584l19.172 17.226 21.251-17.449c3.299-2.71 8.17-2.231 10.878 1.068 2.709 3.299 2.231 8.17-1.068 10.878l-26.383 21.663c-1.428 1.173-3.167 1.755-4.903 1.755z" fill="#3d6b73"/></g><path d="m269.162 252.547 21.367-34.728c23.371-37.984 73.108-49.83 111.092-26.459l34.728 21.367c1.44.886 1.889 2.771 1.003 4.211l-21.367 34.728c-23.371 37.984-73.108 49.83-111.092 26.459l-34.728-21.367c-1.44-.886-1.889-2.771-1.003-4.211z" fill="#4f8980"/><g><path d="m268.799 262.589c-2.651 0-5.231-1.364-6.671-3.814-2.162-3.679-.933-8.414 2.746-10.578 3.333-1.959 82.151-47.782 126.697-28.985 3.933 1.659 5.775 6.193 4.116 10.126-1.66 3.933-6.195 5.772-10.126 4.116-31.051-13.102-91.993 15.821-112.854 28.07-1.23.722-2.577 1.065-3.908 1.065z" fill="#3d6b73"/></g><g><path d="m369.047 250.146c-1.628 0-3.271-.512-4.668-1.574l-23.521-17.863c-3.041-2.31-3.94-6.493-2.115-9.847l13.4-24.638c2.041-3.751 6.737-5.135 10.482-3.098 3.75 2.04 5.136 6.733 3.098 10.482l-10.228 18.806 18.234 13.847c3.399 2.581 4.062 7.43 1.48 10.829-1.521 2.004-3.828 3.056-6.162 3.056z" fill="#3d6b73"/></g><g><path d="m335.13 258.225c-1.628 0-3.271-.512-4.668-1.574l-23.522-17.864c-3.041-2.31-3.94-6.493-2.115-9.847l13.4-24.638c2.04-3.751 6.736-5.135 10.482-3.098 3.75 2.04 5.136 6.732 3.098 10.482l-10.228 18.806 18.235 13.848c3.399 2.581 4.062 7.43 1.48 10.829-1.522 2.004-3.828 3.056-6.162 3.056z" fill="#3d6b73"/></g><path d="m242.838 252.547-21.367-34.728c-23.371-37.984-73.108-49.83-111.092-26.459l-34.728 21.367c-1.44.886-1.889 2.771-1.003 4.211l21.367 34.728c23.371 37.984 73.108 49.83 111.092 26.459l34.728-21.367c1.44-.886 1.889-2.771 1.003-4.211z" fill="#4f8980"/><g><path d="m243.202 262.59c-1.331 0-2.68-.344-3.91-1.067-20.862-12.249-81.806-41.173-112.854-28.069-3.933 1.656-8.466-.183-10.126-4.116-1.659-3.933.183-8.466 4.116-10.126 44.548-18.8 123.366 27.026 126.698 28.985 3.68 2.164 4.909 6.901 2.746 10.58-1.44 2.449-4.021 3.813-6.67 3.813z" fill="#3d6b73"/></g><g><path d="m142.952 250.146c-2.335 0-4.64-1.053-6.161-3.054-2.582-3.399-1.919-8.248 1.48-10.829l18.235-13.847-10.228-18.806c-2.039-3.75-.652-8.442 3.098-10.482 3.749-2.042 8.442-.653 10.482 3.098l13.4 24.638c1.825 3.354.926 7.539-2.115 9.847l-23.523 17.863c-1.397 1.06-3.04 1.572-4.668 1.572z" fill="#3d6b73"/></g><g><path d="m176.87 258.225c-2.334 0-4.64-1.053-6.161-3.054-2.581-3.399-1.919-8.248 1.48-10.829l18.234-13.848-10.227-18.806c-2.039-3.75-.652-8.442 3.098-10.482 3.749-2.041 8.442-.652 10.482 3.098l13.399 24.638c1.825 3.354.926 7.538-2.115 9.847l-23.521 17.864c-1.398 1.06-3.041 1.572-4.669 1.572z" fill="#3d6b73"/></g></g></svg>