<svg id="Capa_1" enable-background="new 0 0 512 512" height="512" viewBox="0 0 512 512" width="512" xmlns="http://www.w3.org/2000/svg"><g><g><path d="m256.01 289.569c-.272 0-.547-.015-.824-.044-4.244-.449-7.32-4.254-6.87-8.498 6.327-59.729 40.424-115.864 67.913-152.438 29.598-39.379 57.331-64.488 58.497-65.537 3.171-2.854 8.057-2.6 10.912.573 2.855 3.172 2.599 8.058-.573 10.912-.362.328-28.003 25.396-56.669 63.586-47.539 63.334-61.429 113.554-64.71 144.532-.422 3.967-3.775 6.914-7.676 6.914z" fill="#69af81"/></g><g><path d="m408.634 275.108c-2.895 0-5.668-1.634-6.99-4.423-.414-.867-29.655-61.302-70.863-65.535-20.957-2.147-42.302 10.903-63.437 38.81-2.576 3.401-7.422 4.073-10.825 1.494-3.402-2.577-4.071-7.423-1.495-10.825 24.63-32.522 50.657-47.616 77.377-44.848 49.948 5.166 81.876 71.472 83.211 74.292 1.825 3.857.178 8.464-3.678 10.291-1.066.504-2.192.744-3.3.744z" fill="#69af81"/></g><g><path d="m284.791 200.461c-2.061 0-4.115-.818-5.636-2.439-2.921-3.112-2.766-8.002.346-10.922 24.554-23.047 57.607-35.932 95.586-37.263 28.432-1.004 49.521 4.747 50.404 4.992 4.112 1.141 6.522 5.399 5.382 9.511-1.139 4.11-5.389 6.527-9.505 5.383-.321-.088-20.127-5.415-46.215-4.424-34.464 1.303-63.087 12.429-85.076 33.069-1.491 1.4-3.391 2.093-5.286 2.093z" fill="#69af81"/></g><g><path d="m255.062 253.029c-4.267 0-7.727-3.459-7.727-7.727v-150.757c0-4.268 3.46-7.727 7.727-7.727s7.727 3.459 7.727 7.727v150.757c.001 4.268-3.459 7.727-7.727 7.727z" fill="#69af81"/></g><g><path d="m255.991 289.569c-3.902 0-7.254-2.947-7.675-6.914-11.443-108.034-120.282-207.129-121.38-208.118-3.172-2.854-3.429-7.74-.574-10.912 2.856-3.172 7.742-3.429 10.913-.573 1.166 1.049 28.899 26.158 58.497 65.537 27.49 36.573 61.586 92.709 67.913 152.438.45 4.244-2.627 8.049-6.87 8.498-.277.028-.552.044-.824.044z" fill="#69af81"/></g><g><path d="m103.365 275.105c-1.109 0-2.235-.239-3.303-.747-3.854-1.827-5.5-6.43-3.675-10.286 1.335-2.819 33.263-69.125 83.211-74.292 26.708-2.772 52.745 12.326 77.376 44.848 2.577 3.402 1.908 8.248-1.495 10.825-3.402 2.58-8.248 1.908-10.825-1.494-21.134-27.906-42.472-40.95-63.436-38.81-41.296 4.243-70.575 64.928-70.865 65.539-1.323 2.786-4.097 4.417-6.988 4.417z" fill="#69af81"/></g><g><path d="m226.572 199.866c-1.878 0-3.76-.68-5.246-2.057-21.981-20.344-50.503-31.286-84.775-32.522-26.013-.939-45.724 4.382-45.921 4.436-4.112 1.128-8.365-1.283-9.5-5.394-1.134-4.11 1.271-8.361 5.38-9.501.876-.242 21.801-5.949 50.081-5.003 37.76 1.257 70.69 13.928 95.231 36.643 3.132 2.899 3.321 7.787.423 10.919-1.523 1.646-3.595 2.479-5.673 2.479z" fill="#69af81"/></g><path d="m366.95 306.181-19.614-18.534-187.038-.333-15.248 18.867 25.861 173.661 22.02 16.079h123.641l24.517-16.079z" fill="#c6865c"/><path d="m145.05 306.181 3.717 20.516h140.302c25.051 0 43.991 22.679 39.526 47.329l-13.57 105.815 8.757 16.079 17.308-16.079 25.861-173.661-26.277-18.867-173.296.014z" fill="#c17d4f"/><path d="m385.099 306.181h-258.198c-2.471 0-4.474-2.003-4.474-4.474v-28.786c0-2.471 2.003-4.474 4.474-4.474h258.198c2.471 0 4.474 2.003 4.474 4.474v28.786c0 2.471-2.003 4.474-4.474 4.474z" fill="#9d6b6b"/><path d="m385.099 268.447h-18.654v37.734h18.654c2.471 0 4.474-2.003 4.474-4.474v-28.786c0-2.471-2.003-4.474-4.474-4.474z" fill="#8b5e5e"/><path d="m144.876 491.99c-.743-1.814-1.359-3.717-1.848-5.703-.805-3.276 1.681-6.445 5.055-6.445h215.834c3.373 0 5.86 3.169 5.055 6.445-.488 1.987-1.104 3.89-1.848 5.703-5.021 12.25-17.238 20.01-30.477 20.01h-161.295c-13.238 0-25.455-7.76-30.476-20.01z" fill="#9d6b6b"/><path d="m363.917 479.842h-24.425c3.373 0 5.86 3.169 5.055 6.445-.488 1.987-1.104 3.889-1.848 5.703-5.021 12.25-17.238 20.01-30.477 20.01h24.425c13.239 0 25.455-7.76 30.477-20.01.743-1.814 1.359-3.717 1.848-5.703.805-3.276-1.681-6.445-5.055-6.445z" fill="#8b5e5e"/><path d="m295.335 75.052c1.344-29.975-6.774-67.417-34.023-68.638-.717-.032-5.312-6.38-25.604.01-16.799 10.688-29.03 33.075-29.986 54.418-1.344 29.975 20.216 42.785 47.465 44.006 4.613.207 9.088.059 13.355-.46 15.465-4.066 28.076-13.329 28.793-29.336z" fill="#95d6a4"/><path d="m257.886.034c-7.847-.352-15.384 2.067-22.178 6.39.712-.013 1.425-.017 2.142.015 27.249 1.221 47.858 35.256 46.514 65.231-.717 16.007-7.505 26.551-17.822 32.719 20.938-2.544 36.741-14.223 37.858-39.124 1.344-29.975-19.265-64.01-46.514-65.231z" fill="#78c2a4"/><g><path d="m255.543 60.168c-.117 0-.234-.002-.352-.008-4.263-.191-7.564-3.802-7.373-8.065l.546-12.176c.191-4.263 3.811-7.597 8.066-7.373 4.263.191 7.564 3.802 7.373 8.065l-.546 12.176c-.186 4.145-3.606 7.381-7.714 7.381z" fill="#69af81"/></g><g><path d="m416.169 95.399c23.867-18.184 51.11-56.711 34.58-78.408-.435-.571-3.438-8.408-16.819-14.403-18.972-6.042-43.994-1.079-60.989 11.869-23.867 18.184-19.879 42.943-3.348 64.64 2.798 3.673 5.781 7.013 8.914 9.956 11.347 3.964 24.917 16.056 37.662 6.346z" fill="#95d6a4"/><path d="m453.05 15.513c-4.76-6.248-11.448-10.482-19.121-12.926.466.538.926 1.083 1.361 1.654 16.53 21.697 3.619 59.332-20.248 77.515-12.745 9.71-25.189 11.26-36.537 7.295 15.374 14.44 34.469 19.082 54.296 3.977 23.868-18.183 36.779-55.818 20.249-77.515z" fill="#78c2a4"/><g><path d="m411.328 55.032c-2.329 0-4.632-1.048-6.152-3.045-2.587-3.395-1.931-8.243 1.464-10.829l9.695-7.386c3.394-2.587 8.243-1.931 10.829 1.464 2.587 3.395 1.931 8.243-1.464 10.829l-9.695 7.386c-1.399 1.066-3.045 1.581-4.677 1.581z" fill="#69af81"/></g><path d="m410.24 173.316c-1.686 13.23 3.375 28.577 16.2 34.302 24.017 10.721 57.034 13.473 66.779-8.361.257-.575 6.028-6.781 6.825-19.635-3.324-17.134-17.656-34.298-34.757-41.931-24.017-10.721-41.388 2.751-51.134 24.584-1.649 3.697-2.965 7.394-3.913 11.041z" fill="#95d6a4"/><path d="m498.135 199.763c2.806-6.287 3.254-13.211 1.909-20.14-.218.585-.444 1.167-.7 1.742-9.746 21.833-44.123 27.714-68.14 16.993-12.825-5.725-19.246-14.647-20.964-25.042-4.648 17.895-.197 34.535 19.755 43.44 24.017 10.721 58.394 4.84 68.14-16.993z" fill="#78c2a4"/><g><path d="m465.897 193.103c-1.052 0-2.122-.216-3.145-.673l-9.756-4.354c-3.897-1.74-5.646-6.308-3.907-10.205 1.741-3.896 6.308-5.646 10.205-3.907l9.756 4.354c3.897 1.74 5.646 6.308 3.907 10.205-1.283 2.874-4.104 4.58-7.06 4.58z" fill="#69af81"/></g></g><g><path d="m95.831 95.399c-23.867-18.184-51.11-56.711-34.58-78.408.435-.571 3.438-8.408 16.819-14.403 18.972-6.042 43.994-1.079 60.989 11.869 23.867 18.184 19.879 42.943 3.348 64.64-2.798 3.673-5.781 7.013-8.914 9.956-11.347 3.964-24.917 16.056-37.662 6.346z" fill="#95d6a4"/><path d="m58.95 15.513c4.76-6.248 11.448-10.482 19.12-12.925-.466.538-.926 1.083-1.361 1.654-16.53 21.697-3.619 59.332 20.248 77.515 12.745 9.71 25.189 11.26 36.537 7.295-15.374 14.44-34.469 19.082-54.296 3.977-23.867-18.184-36.778-55.819-20.248-77.516z" fill="#78c2a4"/><g><path d="m100.672 55.032c2.329 0 4.632-1.048 6.152-3.045 2.587-3.395 1.931-8.243-1.464-10.829l-9.695-7.386c-3.394-2.587-8.243-1.931-10.829 1.464-2.587 3.395-1.931 8.243 1.464 10.829l9.695 7.386c1.399 1.066 3.045 1.581 4.677 1.581z" fill="#69af81"/></g><path d="m101.76 173.316c1.686 13.23-3.375 28.577-16.2 34.302-24.017 10.721-57.034 13.473-66.779-8.361-.257-.575-6.028-6.781-6.825-19.635 3.324-17.134 17.656-34.298 34.757-41.931 24.017-10.721 41.388 2.751 51.134 24.584 1.649 3.697 2.965 7.394 3.913 11.041z" fill="#95d6a4"/><path d="m13.865 199.763c-2.806-6.287-3.254-13.211-1.909-20.14.218.585.444 1.167.7 1.742 9.746 21.833 44.123 27.714 68.14 16.993 12.825-5.725 19.246-14.647 20.964-25.042 4.648 17.895.197 34.535-19.755 43.44-24.017 10.721-58.394 4.84-68.14-16.993z" fill="#78c2a4"/><g><path d="m46.103 193.103c1.052 0 2.122-.216 3.145-.673l9.756-4.354c3.897-1.74 5.646-6.308 3.907-10.205-1.741-3.896-6.308-5.646-10.205-3.907l-9.756 4.354c-3.897 1.74-5.646 6.308-3.907 10.205 1.283 2.874 4.104 4.58 7.06 4.58z" fill="#69af81"/></g></g><g><path d="m418.92 358.469c13.13-2.041 20.157-8.355 22.542-10.669 15.333-14.873 15.063-49.208 8.477-71.693-6.337-21.636-27.149-22.524-48.764-18.416h-.001c-24.511 8.111-40.728 25.411-32.623 53.085 6.879 23.485 28.447 44.79 50.369 47.693z" fill="#95d6a4"/><path d="m463.347 283.013c-8.433-28.795-32.98-33.935-59.157-26.268-1.019.298-2.021.617-3.014.946 18.387-.472 33.821 7.807 40.157 29.443 7.609 25.982-1.359 59.417-22.413 71.335 4.957.656 9.932.379 14.76-1.035 26.177-7.666 38.1-45.625 29.667-74.421z" fill="#78c2a4"/><g><path d="m422.358 326.515c-3.343 0-6.425-2.186-7.412-5.557l-3.426-11.696c-1.2-4.096 1.148-8.388 5.243-9.587 4.102-1.2 8.389 1.148 9.587 5.243l3.426 11.696c1.2 4.096-1.148 8.388-5.243 9.587-.725.213-1.457.314-2.175.314z" fill="#69af81"/></g></g><g><path d="m94.122 358.469c-13.13-2.041-20.157-8.355-22.542-10.669-15.333-14.873-15.063-49.208-8.477-71.693 6.337-21.636 27.149-22.524 48.764-18.416h.001c24.511 8.111 40.728 25.411 32.623 53.085-6.879 23.485-28.447 44.79-50.369 47.693z" fill="#95d6a4"/><path d="m49.695 283.013c8.433-28.795 32.98-33.935 59.157-26.268 1.019.298 2.021.617 3.014.946-18.387-.472-33.821 7.807-40.157 29.443-7.61 25.982 1.359 59.417 22.413 71.335-4.957.656-9.932.379-14.76-1.035-26.177-7.666-38.101-45.625-29.667-74.421z" fill="#78c2a4"/><g><path d="m90.684 326.515c3.343 0 6.425-2.186 7.412-5.557l3.426-11.696c1.2-4.096-1.148-8.388-5.243-9.587-4.102-1.2-8.389 1.148-9.587 5.243l-3.426 11.696c-1.2 4.096 1.148 8.388 5.243 9.587.725.213 1.456.314 2.175.314z" fill="#69af81"/></g></g><g><path d="m341.619 383.54c-.096 0-.192-.002-.289-.005-4.265-.157-7.595-3.742-7.438-8.006 1.763-47.882-9.902-86.596-33.732-111.958-17.602-18.731-35.372-23.61-35.55-23.657-4.124-1.095-6.581-5.325-5.486-9.45 1.095-4.123 5.328-6.577 9.45-5.486.898.238 22.253 6.094 42.847 28.011 33.759 35.927 39.252 86.777 37.914 123.107-.153 4.169-3.58 7.444-7.716 7.444z" fill="#69af81"/></g><g><path d="m170.381 383.54c-4.137 0-7.563-3.275-7.717-7.443-1.337-36.331 4.155-87.18 37.914-123.107 20.595-21.917 41.949-27.773 42.847-28.011 4.124-1.098 8.356 1.361 9.45 5.486 1.092 4.116-1.351 8.337-5.459 9.443-.358.1-18.698 5.367-36.206 24.34-23.402 25.361-34.849 63.841-33.103 111.281.157 4.264-3.173 7.849-7.438 8.006-.096.003-.193.005-.288.005z" fill="#69af81"/></g><g><path d="m335.23 451.558c6.877 0 13.298-.455 16.179-2.324 14.536-9.427 25.909-35.249 25.201-54.08-.706-18.789-8.436-27.256-35.152-28.709h-.001c-21.476 1.554-38.121 12.232-37.217 36.264.766 20.395 13.856 42.026 30.99 48.849z" fill="#95d6a4"/><path d="m386.56 399.615c-.94-25.006-19.739-34.173-42.471-33.319-.885.033-1.76.086-2.631.15 14.964 3.372 25.754 13.218 26.46 32.007.848 22.563-13.23 47.767-32.688 53.106 3.874 1.543 7.954 2.334 12.146 2.177 22.732-.855 40.124-29.115 39.184-54.121z" fill="#78c2a4"/><g><path d="m346.109 427.9c-4.133 0-7.56-3.271-7.717-7.436l-.382-10.158c-.16-4.265 3.167-7.852 7.431-8.013 4.271-.122 7.852 3.167 8.013 7.431l.382 10.158c.16 4.265-3.167 7.852-7.431 8.013-.098.003-.198.005-.296.005z" fill="#69af81"/></g></g><g><path d="m176.77 451.558c-6.877 0-13.298-.455-16.179-2.324-14.536-9.427-25.909-35.249-25.201-54.08.706-18.789 8.436-27.256 35.152-28.709h.001c21.476 1.554 38.121 12.232 37.217 36.264-.766 20.395-13.856 42.026-30.99 48.849z" fill="#95d6a4"/><path d="m125.441 399.615c.94-25.006 19.739-34.173 42.471-33.319.885.033 1.76.086 2.631.15-14.964 3.372-25.754 13.218-26.46 32.007-.848 22.563 13.23 47.767 32.688 53.106-3.874 1.543-7.954 2.334-12.146 2.177-22.733-.855-40.125-29.115-39.184-54.121z" fill="#78c2a4"/><g><path d="m165.891 427.9c4.133 0 7.56-3.271 7.717-7.436l.382-10.158c.16-4.265-3.167-7.852-7.431-8.013-4.271-.122-7.852 3.167-8.013 7.431l-.382 10.158c-.16 4.265 3.167 7.852 7.431 8.013.098.003.198.005.296.005z" fill="#69af81"/></g></g></g></svg>