<svg id="Capa_1" enable-background="new 0 0 511.999 511.999" height="512" viewBox="0 0 511.999 511.999" width="512" xmlns="http://www.w3.org/2000/svg"><g><path d="m334.75 511.998h-160.537c-3.503 0-6.342-2.839-6.342-6.342v-33.282h173.221v33.282c0 3.503-2.839 6.342-6.342 6.342z" fill="#4a80aa"/><path d="m323.89 472.374v39.624h10.861c3.503 0 6.342-2.839 6.342-6.342v-33.282z" fill="#407093"/><g><g><path d="m152.946 96.572c-2.501 0-4.955-1.212-6.443-3.452l-15.146-22.794c-2.361-3.553-1.394-8.349 2.16-10.711 3.553-2.36 8.349-1.394 10.711 2.16l15.146 22.794c2.361 3.553 1.394 8.349-2.16 10.711-1.314.874-2.799 1.292-4.268 1.292z" fill="#ccf49f"/></g><g><path d="m180.528 85.174c-4.268 0-7.726-3.459-7.726-7.726v-35.435c0-4.268 3.459-7.726 7.726-7.726s7.726 3.459 7.726 7.726v35.435c0 4.267-3.459 7.726-7.726 7.726z" fill="#ccf49f"/></g><g><path d="m114.076 153.604h-17.565c-4.268 0-7.726-3.459-7.726-7.726s3.459-7.726 7.726-7.726h17.565c4.268 0 7.726 3.459 7.726 7.726s-3.458 7.726-7.726 7.726z" fill="#ccf49f"/></g><g><path d="m103.686 231.385c-3.195 0-6.185-1.998-7.296-5.185-1.404-4.029.723-8.435 4.753-9.839l13.257-4.621c4.033-1.405 8.436.724 9.839 4.753 1.404 4.029-.723 8.435-4.753 9.839l-13.257 4.621c-.842.293-1.7.432-2.543.432z" fill="#ccf49f"/></g><g><path d="m140.606 286.496c-1.453 0-2.921-.408-4.225-1.264-3.57-2.338-4.569-7.127-2.231-10.696l6.922-10.569c2.338-3.571 7.129-4.569 10.696-2.231 3.57 2.338 4.569 7.127 2.231 10.696l-6.922 10.569c-1.483 2.264-3.953 3.495-6.471 3.495z" fill="#ccf49f"/></g><g><path d="m335.964 73.189c-2.255 0-4.49-.982-6.016-2.872-2.681-3.32-2.163-8.185 1.157-10.865l10.22-8.253c3.321-2.68 8.185-2.163 10.865 1.157 2.681 3.32 2.163 8.185-1.157 10.865l-10.22 8.253c-1.429 1.153-3.144 1.715-4.849 1.715z" fill="#ccf49f"/></g><g><path d="m388.558 121.308c-2.061 0-4.118-.82-5.639-2.442-2.919-3.114-2.761-8.003.352-10.922l10.096-9.465c3.114-2.919 8.003-2.759 10.922.352 2.919 3.114 2.761 8.003-.352 10.922l-10.096 9.465c-1.491 1.397-3.39 2.09-5.283 2.09z" fill="#ccf49f"/></g><g><path d="m415.487 202.419c-.833 0-1.679-.136-2.51-.421l-13.567-4.658c-4.036-1.385-6.184-5.781-4.799-9.817 1.386-4.035 5.789-6.18 9.817-4.799l13.567 4.658c4.036 1.385 6.184 5.781 4.799 9.817-1.101 3.205-4.099 5.22-7.307 5.22z" fill="#ccf49f"/></g><g><path d="m394.233 259.327c-1.926 0-3.854-.715-5.353-2.156l-11.608-11.156c-3.076-2.957-3.173-7.848-.216-10.925 2.957-3.076 7.846-3.175 10.925-.216l11.608 11.156c3.076 2.957 3.173 7.848.216 10.925-1.518 1.578-3.543 2.372-5.572 2.372z" fill="#ccf49f"/></g></g><path d="m186.624 314.796c-30.427-27.047-53.836-55.785-70.228-86.215-40.735-75.622 8.676-168.312 94.166-176.652 29.194-2.848 58.35-2.905 87.467-.149 84.757 8.022 134.954 99.697 95.187 174.974-16.433 31.107-40.167 60.454-71.202 88.042z" fill="#95d6a4"/><path d="m298.03 51.78c-18.863-1.785-37.742-2.382-56.638-1.813 9.726.294 19.448.893 29.165 1.813 84.757 8.022 134.954 99.697 95.187 174.975-16.433 31.107-40.167 60.454-71.202 88.042h27.473c31.035-27.587 54.769-56.934 71.202-88.042 39.767-75.278-10.43-166.953-95.187-174.975z" fill="#78c2a4"/><g><path d="m275.231 337.116h-41.599c-3.34 0-6.303-2.147-7.342-5.321-9.435-28.8-16.793-59.811-21.868-92.171-5.995-38.215-6.024-83.894-.078-122.191 8.29-53.407 23.168-69.018 34.19-72.71 10.544-3.532 21.214-3.592 31.716-.18 10.971 3.565 25.812 18.923 34.213 71.832 6.114 38.507 6.216 82.72.282 121.301-5.09 33.08-12.549 64.746-22.172 94.12-1.039 3.174-4.002 5.32-7.342 5.32zm-35.967-15.452h30.335c8.538-27.067 15.217-56.081 19.872-86.338 5.619-36.518 5.517-80.08-.27-116.528-5.996-37.764-16.238-57.124-23.728-59.558-7.386-2.4-14.595-2.355-22.031.136-7.587 2.541-17.896 22.212-23.829 60.429-5.713 36.805-5.686 80.703.074 117.427 4.638 29.554 11.217 57.928 19.577 84.432z" fill="#ccf49f"/></g><path d="m238.562 94.139c.838 1.108 1.767 2.093 2.761 2.969.587-.602 10.911 1.273 11.434.58 3.252-4.3 1.313-4.188 6.663-4.854 13.139-1.636 29.329-16.126 24.176-28.322-2.098-4.966-.385-9.787 1.713-14.753 5.153-12.197 1.786-29.053-11.353-30.689-5.35-.666-10.237-6.551-13.489-10.851-.838-1.108-19.241-1.363-20.234-2.239-.587.602-1.146 1.246-1.67 1.939-3.252 4.3-8.104 7.102-13.454 7.768-13.139 1.636-21.073 15.378-15.92 27.574 2.098 4.966 2.098 10.569 0 15.536-5.153 12.197 2.781 25.939 15.92 27.574 5.348.667 10.201 3.468 13.453 7.768z" fill="#e490d0"/><path d="m299.776 58.797c-2.098-4.966-2.098-10.569 0-15.535 5.153-12.197-2.781-25.939-15.92-27.574-5.35-.666-10.203-3.468-13.454-7.768-7.463-9.868-21.805-10.513-30.17-1.939.994.876 1.923 1.861 2.761 2.969 3.252 4.3 8.105 7.102 13.454 7.768 13.139 1.636 21.073 15.378 15.92 27.574-2.098 4.966-2.098 10.57 0 15.535 5.153 12.197-2.781 25.939-15.92 27.574-5.35.666-10.202 3.468-13.454 7.768-.524.693-1.083 1.337-1.671 1.939 8.474 7.468 21.931 6.484 29.079-2.969 3.251-4.3 8.104-7.102 13.454-7.768 13.14-1.635 21.074-15.377 15.921-27.574z" fill="#dd5ca2"/><g><path d="m254.482 64.512c-4.268 0-7.726-3.459-7.726-7.726v-11.513c0-4.268 3.459-7.726 7.726-7.726 4.268 0 7.726 3.459 7.726 7.726v11.512c0 4.268-3.459 7.727-7.726 7.727z" fill="#f6f1f1"/></g><g><g><path d="m207.593 136.904c-1.186 0-2.39-.275-3.518-.852l-12.221-6.264c-3.798-1.947-5.298-6.603-3.352-10.4 1.947-3.797 6.604-5.296 10.4-3.352l12.221 6.264c3.798 1.947 5.298 6.603 3.352 10.4-1.368 2.669-4.075 4.204-6.882 4.204z" fill="#ccf49f"/></g><g><path d="m209.998 184.925c-2.911 0-5.699-1.653-7.009-4.467-1.802-3.868-.126-8.464 3.742-10.266l13.335-6.21c3.866-1.8 8.465-.127 10.266 3.742 1.802 3.868.126 8.464-3.742 10.266l-13.335 6.21c-1.056.492-2.166.725-3.257.725z" fill="#ccf49f"/></g><g><path d="m211.308 247.969c-.513 0-1.033-.051-1.555-.159l-9.811-2.005c-4.18-.854-6.877-4.936-6.022-9.117.854-4.18 4.936-6.885 9.117-6.022l9.811 2.005c4.18.854 6.877 4.936 6.022 9.117-.749 3.657-3.968 6.181-7.562 6.181z" fill="#ccf49f"/></g><g><path d="m281.526 300.099c-1.845 0-3.696-.657-5.174-1.99l-10.164-9.172c-3.168-2.859-3.419-7.744-.56-10.912s7.743-3.418 10.912-.56l10.164 9.172c3.168 2.859 3.419 7.744.56 10.912-1.526 1.69-3.628 2.55-5.738 2.55z" fill="#ccf49f"/></g><g><path d="m295.129 261.389c-2.927 0-5.726-1.671-7.027-4.505-1.78-3.878-.079-8.465 3.799-10.245l15.123-6.942c3.878-1.778 8.466-.079 10.245 3.799 1.78 3.878.079 8.465-3.799 10.245l-15.123 6.942c-1.044.479-2.139.706-3.218.706z" fill="#ccf49f"/></g><g><path d="m298.797 206.118c-2.06 0-4.115-.819-5.636-2.439l-10.236-10.907c-2.921-3.112-2.765-8.002.346-10.922 3.113-2.922 8.002-2.764 10.922.346l10.236 10.907c2.921 3.112 2.765 8.002-.346 10.922-1.491 1.4-3.391 2.093-5.286 2.093z" fill="#ccf49f"/></g><g><path d="m301.368 145.589c-2.19 0-4.365-.926-5.893-2.725-2.763-3.254-2.364-8.129.888-10.89l10.231-8.687c3.255-2.763 8.13-2.362 10.89.888 2.763 3.254 2.364 8.129-.888 10.89l-10.231 8.687c-1.453 1.234-3.231 1.837-4.997 1.837z" fill="#ccf49f"/></g></g><path d="m151.949 472.487c-32.756-48.334-13.118-103.57-8.181-155.211.134-1.407 1.306-2.48 2.718-2.48h214.089c2.466 0 4.551 1.856 4.801 4.31 5.213 51.115 24.008 105.617-8.362 153.381-3.649 5.384-9.803 8.528-16.307 8.528h-172.451c-6.504 0-12.658-3.144-16.307-8.528z" fill="#f6f1f1"/><path d="m362.208 314.796h-20.14c4.521 52.349 25.326 108.582-7.955 157.691-3.649 5.384-9.803 8.528-16.307 8.528h22.902c6.504 0 12.658-3.144 16.307-8.528 32.699-48.251 13.186-103.379 8.206-154.943-.15-1.559-1.447-2.748-3.013-2.748z" fill="#efe7e4"/></g></svg>