<svg id="Capa_1" enable-background="new 0 0 512.004 512.004" height="512" viewBox="0 0 512.004 512.004" width="512" xmlns="http://www.w3.org/2000/svg"><g><g><path d="m292.991 167.786h-73.979c-2.139 0-4.176-.913-5.599-2.51-1.424-1.597-2.097-3.726-1.852-5.85l17.63-152.784c.474-4.115 4.193-7.073 8.31-6.591 4.115.475 7.066 4.195 6.591 8.31l-16.664 144.425h57.148l-16.663-144.425c-.476-4.114 2.476-7.835 6.591-8.31 4.116-.475 7.835 2.476 8.31 6.591l17.628 152.784c.245 2.124-.428 4.253-1.852 5.85-1.423 1.597-3.461 2.51-5.599 2.51z" fill="#efe7e4"/></g><path d="m295.379 303.423h-78.755c-11.916 0-22.405-7.857-25.756-19.292l-42.558-145.248h215.382l-42.558 145.248c-3.35 11.435-13.839 19.292-25.755 19.292z" fill="#4a80aa"/><path d="m337.558 138.883-42.558 145.248c-3.351 11.435-13.84 19.292-25.756 19.292h26.135c11.916 0 22.405-7.857 25.756-19.292l42.558-145.248z" fill="#407093"/><g><path d="m156.259 512.004c-.881 0-1.776-.156-2.649-.486-3.875-1.463-5.829-5.791-4.365-9.666.111-.297 11.37-30.573 14-69.152 3.462-50.79-8.86-91.238-36.623-120.221-36.651-38.261-44.196-85.629-44.072-118.629.128-34.176 17.562-65.521 46.636-83.851 12.412-7.825 27.434-9.403 41.213-4.326 13.675 5.038 23.999 15.882 28.324 29.75l.199.648c1.195 3.966-1.05 8.15-5.016 9.346-3.967 1.196-8.149-1.05-9.346-5.016l-.152-.493c-2.933-9.404-9.927-16.745-19.195-20.16-9.373-3.452-19.588-2.382-28.027 2.94-24.71 15.577-39.527 42.2-39.636 71.218-.113 30.235 6.717 73.551 39.903 108.194 30.451 31.79 44.535 77.445 40.728 132.033-2.839 40.694-14.413 71.717-14.905 73.018-1.134 3.003-3.987 4.853-7.017 4.853z" fill="#69af81"/></g><g><path d="m126.581 144.697-1.221-9.757c-.448-3.581-1.967-6.942-4.358-9.645l-6.516-7.365c-7.993-9.035-4.952-23.228 6.041-28.195 10.993-4.967 23.654 2.131 25.152 14.101l1.221 9.757c.448 3.581 1.967 6.942 4.358 9.645l6.516 7.365c7.993 9.035 4.952 23.228-6.041 28.195-10.993 4.966-23.654-2.132-25.152-14.101z" fill="#95d6a4"/></g><g><path d="m91.046 189.85-6.114-7.702c-2.243-2.826-5.288-4.909-8.736-5.976l-9.394-2.907c-11.524-3.566-16.301-17.272-9.49-27.229 6.811-9.956 21.317-10.471 28.817-1.022l6.114 7.702c2.243 2.826 5.288 4.909 8.736 5.976l9.394 2.907c11.524 3.566 16.301 17.272 9.49 27.229-6.812 9.956-21.317 10.471-28.817 1.022z" fill="#95d6a4"/></g><g><path d="m102.135 250.629-8.882-4.219c-3.26-1.548-6.911-2.076-10.475-1.515l-9.714 1.531c-11.916 1.878-22.245-8.32-20.519-20.259 1.726-11.939 14.52-18.794 25.417-13.618l8.882 4.219c3.26 1.548 6.911 2.076 10.475 1.515l9.714-1.531c11.916-1.878 22.245 8.32 20.519 20.259-1.727 11.939-14.521 18.794-25.417 13.618z" fill="#95d6a4"/></g><g><path d="m136.381 302.543-9.796-.856c-3.595-.314-7.201.465-10.346 2.235l-8.57 4.823c-10.513 5.917-23.75-.038-26.297-11.829-2.547-11.791 7.052-22.679 19.07-21.629l9.796.856c3.595.314 7.201-.465 10.346-2.235l8.57-4.823c10.513-5.917 23.75.038 26.297 11.829 2.547 11.792-7.052 22.679-19.07 21.629z" fill="#95d6a4"/></g><g><path d="m170.895 355.183-9.828-.321c-3.607-.118-7.165.857-10.208 2.795l-8.294 5.283c-10.175 6.481-23.717 1.256-26.902-10.378-3.186-11.635 5.806-23.029 17.863-22.636l9.828.321c3.607.118 7.165-.857 10.208-2.795l8.294-5.283c10.175-6.481 23.717-1.256 26.902 10.378 3.186 11.635-5.806 23.03-17.863 22.636z" fill="#95d6a4"/></g><g><path d="m190.403 417.893-9.723-1.47c-3.568-.539-7.216.012-10.465 1.58l-8.856 4.275c-10.864 5.244-23.701-1.53-25.502-13.458-1.801-11.928 8.463-22.191 20.391-20.388l9.723 1.47c3.568.539 7.216-.011 10.466-1.58l8.856-4.275c10.864-5.244 23.7 1.53 25.502 13.458 1.8 11.928-8.464 22.191-20.392 20.388z" fill="#95d6a4"/></g><path d="m184.815 483.157-9.395-2.905c-3.448-1.066-7.137-1.066-10.584 0l-9.395 2.905c-11.525 3.564-23.206-5.052-23.206-17.115 0-12.063 11.682-20.678 23.206-17.115l9.395 2.905c3.448 1.066 7.137 1.066 10.584 0l9.395-2.905c11.525-3.564 23.206 5.052 23.206 17.115.001 12.064-11.681 20.679-23.206 17.115z" fill="#95d6a4"/><g><path d="m355.743 512.002c-3.029 0-5.881-1.848-7.015-4.85-.492-1.301-12.066-32.323-14.905-73.018-3.808-54.588 10.276-100.243 40.728-132.033 33.187-34.644 40.017-77.959 39.903-108.194-.108-29.018-14.926-55.641-39.636-71.218-8.439-5.32-18.655-6.393-28.027-2.94-9.269 3.414-16.264 10.756-19.19 20.142l-.168.545c-1.213 3.961-5.409 6.19-9.369 4.973-3.96-1.214-6.187-5.409-4.973-9.369l.186-.601c4.33-13.883 14.654-24.727 28.329-29.765 13.776-5.074 28.798-3.499 41.213 4.326 29.073 18.329 46.508 49.675 46.636 83.851.124 33-7.421 80.367-44.071 118.628-27.763 28.982-40.085 69.431-36.623 120.221 2.63 38.579 13.889 68.855 14.002 69.156 1.459 3.875-.498 8.201-4.372 9.662-.874.328-1.768.484-2.648.484z" fill="#69af81"/></g><g><path d="m385.423 144.697 1.221-9.757c.448-3.581 1.967-6.942 4.358-9.645l6.516-7.365c7.993-9.035 4.952-23.228-6.041-28.195-10.993-4.967-23.654 2.131-25.152 14.101l-1.221 9.757c-.448 3.581-1.967 6.942-4.358 9.645l-6.516 7.365c-7.993 9.035-4.952 23.228 6.041 28.195 10.993 4.966 23.654-2.132 25.152-14.101z" fill="#95d6a4"/></g><g><path d="m420.958 189.85 6.114-7.702c2.243-2.826 5.288-4.909 8.736-5.976l9.394-2.907c11.524-3.566 16.301-17.272 9.49-27.229-6.811-9.956-21.317-10.471-28.817-1.022l-6.114 7.702c-2.243 2.826-5.288 4.909-8.736 5.976l-9.394 2.907c-11.524 3.566-16.301 17.272-9.49 27.229 6.811 9.956 21.317 10.471 28.817 1.022z" fill="#95d6a4"/></g><path d="m409.869 250.629 8.882-4.219c3.259-1.548 6.911-2.076 10.475-1.515l9.714 1.531c11.916 1.878 22.245-8.32 20.519-20.259-1.726-11.939-14.52-18.794-25.417-13.618l-8.882 4.219c-3.259 1.548-6.911 2.076-10.475 1.515l-9.714-1.531c-11.916-1.878-22.245 8.32-20.519 20.259 1.726 11.939 14.52 18.794 25.417 13.618z" fill="#95d6a4"/><g><path d="m375.623 302.543 9.796-.856c3.595-.314 7.201.465 10.346 2.235l8.57 4.823c10.513 5.917 23.75-.038 26.297-11.829 2.547-11.791-7.052-22.679-19.07-21.629l-9.796.856c-3.595.314-7.201-.465-10.346-2.235l-8.57-4.823c-10.513-5.917-23.75.038-26.297 11.829-2.547 11.792 7.052 22.679 19.07 21.629z" fill="#95d6a4"/></g><g><path d="m341.108 355.183 9.828-.321c3.607-.118 7.165.857 10.208 2.795l8.294 5.283c10.175 6.481 23.717 1.256 26.902-10.378 3.186-11.635-5.806-23.029-17.863-22.636l-9.828.321c-3.607.118-7.165-.857-10.208-2.795l-8.294-5.283c-10.175-6.481-23.717-1.256-26.902 10.378-3.185 11.635 5.806 23.03 17.863 22.636z" fill="#95d6a4"/></g><g><path d="m321.601 417.893 9.723-1.47c3.568-.539 7.216.012 10.466 1.58l8.856 4.275c10.864 5.244 23.701-1.53 25.502-13.458 1.801-11.928-8.463-22.191-20.391-20.388l-9.723 1.47c-3.568.539-7.216-.011-10.466-1.58l-8.856-4.275c-10.864-5.244-23.7 1.53-25.502 13.458-1.801 11.928 8.463 22.191 20.391 20.388z" fill="#95d6a4"/></g><g><path d="m327.188 483.157 9.395-2.905c3.448-1.066 7.137-1.066 10.584 0l9.395 2.905c11.525 3.564 23.206-5.052 23.206-17.115 0-12.063-11.682-20.678-23.206-17.115l-9.395 2.905c-3.448 1.066-7.137 1.066-10.584 0l-9.395-2.905c-11.525-3.564-23.206 5.052-23.206 17.115 0 12.064 11.682 20.679 23.206 17.115z" fill="#95d6a4"/></g><g><path d="m242.799 410.664c-1.256 0-2.527-.315-3.697-.979-3.602-2.046-4.863-6.624-2.817-10.226.135-.238 13.846-24.71 20.253-57.19 8.397-42.571.938-78.191-22.174-105.873-13.643-16.34-19.679-33.675-17.942-51.523 2.97-30.512 27.802-50.96 28.857-51.816 3.221-2.607 7.942-2.111 10.55 1.104 2.604 3.214 2.114 7.928-1.092 10.538-.21.173-21.097 17.521-23.396 41.735-1.297 13.666 3.594 27.241 14.537 40.349 25.872 30.987 34.617 72.077 25.289 118.828-6.935 34.757-21.233 60.191-21.839 61.257-1.382 2.431-3.918 3.796-6.529 3.796z" fill="#69af81"/></g><g><path d="m237.452 200.113-8.882-4.219c-3.26-1.548-6.911-2.076-10.475-1.515l-9.714 1.531c-11.916 1.878-22.245-8.32-20.519-20.259 1.726-11.939 14.52-18.794 25.417-13.618l8.882 4.219c3.26 1.548 6.911 2.076 10.475 1.515l9.714-1.531c11.916-1.878 22.245 8.32 20.519 20.259-1.727 11.939-14.521 18.794-25.417 13.618z" fill="#95d6a4"/></g><g><path d="m265.377 258.288-9.795-.865c-3.595-.318-7.201.458-10.348 2.225l-8.574 4.815c-10.518 5.907-23.75-.06-26.286-11.854-2.536-11.794 7.074-22.672 19.09-21.611l9.795.865c3.595.317 7.201-.458 10.348-2.225l8.574-4.815c10.518-5.907 23.75.06 26.286 11.854 2.536 11.794-7.074 22.672-19.09 21.611z" fill="#95d6a4"/></g><g><path d="m266.696 385.612-8.558-4.844c-3.14-1.777-6.744-2.565-10.34-2.26l-9.798.833c-12.02 1.021-21.593-9.889-19.017-21.675 2.575-11.785 15.827-17.708 26.325-11.766l8.558 4.844c3.14 1.777 6.745 2.565 10.34 2.26l9.798-.832c12.02-1.021 21.593 9.889 19.017 21.675-2.575 11.784-15.827 17.707-26.325 11.765z" fill="#95d6a4"/></g><g><path d="m285.278 317.068-9.795-.865c-3.595-.318-7.201.458-10.348 2.225l-8.574 4.815c-10.518 5.907-23.75-.06-26.286-11.854-2.536-11.794 7.074-22.672 19.09-21.611l9.795.865c3.595.318 7.201-.458 10.348-2.225l8.574-4.815c10.518-5.907 23.75.06 26.286 11.854 2.536 11.794-7.073 22.672-19.09 21.611z" fill="#95d6a4"/></g><g><path d="m318.003 220.974c-.92 0-1.854-.17-2.761-.529-3.851-1.525-5.735-5.885-4.21-9.735 4.327-10.922.003-18.381-7.412-29.646-2.116-3.216-4.305-6.541-6.206-10.083-2.264-4.215-3.94-8.408-5.182-12.306-1.512 4.479-2.073 9.683-.248 15.113 1.319 3.927-.794 8.18-4.72 9.499-3.932 1.318-8.18-.794-9.499-4.72-8.358-24.873 12.452-44.387 13.342-45.205 2.184-2.007 5.342-2.541 8.065-1.358 2.721 1.182 4.489 3.855 4.512 6.821.001.101.256 12.604 6.944 25.06 1.585 2.951 3.497 5.856 5.521 8.933 7.239 10.999 16.248 24.688 8.827 43.418-1.165 2.943-3.987 4.738-6.973 4.738z" fill="#69af81"/></g><g><path d="m170.526 121.343c-.265 0-.531-.015-.801-.043-4.119-.438-7.104-4.131-6.666-8.25 1.16-10.93 6.148-16.718 10.129-19.648 8.621-6.348 18.87-4.549 20.012-4.324 4.063.805 6.704 4.751 5.899 8.814-.801 4.038-4.704 6.671-8.744 5.913-.231-.039-5.021-.778-8.342 1.727-2.216 1.672-3.574 4.733-4.038 9.103-.408 3.848-3.662 6.707-7.449 6.708z" fill="#69af81"/></g><g><path d="m341.478 121.343c-3.787 0-7.041-2.859-7.449-6.709-.464-4.368-1.822-7.431-4.038-9.103-3.39-2.556-8.303-1.734-8.352-1.726-4.064.807-7.971-1.844-8.774-5.906-.806-4.063 1.876-8.018 5.938-8.823 1.143-.225 11.39-2.024 20.013 4.325 3.98 2.932 8.969 8.72 10.129 19.648.438 4.119-2.547 7.812-6.666 8.25-.27.029-.536.044-.801.044z" fill="#69af81"/></g></g></svg>