<svg id="Capa_1" enable-background="new 0 0 512 512" height="512" viewBox="0 0 512 512" width="512" xmlns="http://www.w3.org/2000/svg"><g><g><g><path d="m254.509 312.225c-.066 0-.133-.001-.2-.002-4.266-.109-7.636-3.655-7.528-7.92.013-.551.865-56.548-35.163-97.302-15.455-17.484-21.729-42.678-18.143-72.863 2.632-22.148 9.574-39.191 9.868-39.906 1.625-3.946 6.138-5.823 10.086-4.203 3.944 1.624 5.826 6.135 4.205 10.079-.253.618-24.936 62.161 5.56 96.657 40.145 45.412 39.098 105.399 39.035 107.93-.107 4.198-3.544 7.53-7.72 7.53z" fill="#95d6a4"/></g><g><path d="m257.491 312.225c-4.176 0-7.614-3.331-7.72-7.53-.063-2.532-1.11-62.518 39.035-107.93 30.59-34.602 5.817-96.034 5.562-96.65-1.624-3.946.258-8.462 4.203-10.086 3.948-1.621 8.462.257 10.086 4.203 1.186 2.881 28.622 71.031-8.275 112.769-36.163 40.908-35.178 96.743-35.163 97.302.108 4.266-3.263 7.812-7.528 7.92-.067.001-.133.002-.2.002z" fill="#95d6a4"/></g></g><path d="m120.902 152.836c26.364 4.985 41.935 29.412 35.325 55.417-3.178 12.499-11.038 24.38-23.573 32.37-33.015 21.045-51.142-6.733-100.282 9.232-1.819.659-3.615-1.457-2.671-3.145 11.384-22.039 20.343-66.051 51.905-86.17 12.536-7.99 26.624-10.1 39.296-7.704z" fill="#69af81"/><path d="m152.052 174.526c.084 4.185-.387 8.495-1.495 12.852-3.178 12.499-11.038 24.38-23.573 32.37-30.217 19.261-47.967-2.368-88.433 6.066-3.08 7.915-5.883 15.152-8.85 20.896-.945 1.688.852 3.803 2.671 3.145 49.14-15.965 67.267 11.813 100.282-9.232 12.536-7.991 20.396-19.871 23.573-32.371 3.103-12.205 1.318-24.063-4.175-33.726z" fill="#5ea570"/><g><path d="m255.995 312.227c-3.419 0-6.546-2.287-7.464-5.748l-12.379-46.702c-6.313-23.821-21.738-43.374-43.433-55.058s-46.511-13.802-69.873-5.969c-4.044 1.361-8.424-.821-9.782-4.868-1.357-4.045.822-8.425 4.868-9.782 27.458-9.209 56.619-6.716 82.113 7.014 25.497 13.732 43.624 36.711 51.043 64.703l12.379 46.702c1.093 4.125-1.364 8.355-5.489 9.449-.661.174-1.328.259-1.983.259z" fill="#95d6a4"/></g><path d="m391.098 152.836c-26.364 4.985-41.935 29.412-35.325 55.417 3.177 12.499 11.038 24.38 23.573 32.37 33.015 21.045 51.142-6.733 100.282 9.232 1.819.659 3.615-1.457 2.671-3.145-11.384-22.039-20.343-66.051-51.905-86.17-12.536-7.99-26.624-10.1-39.296-7.704z" fill="#69af81"/><path d="m359.948 174.526c-.084 4.185.387 8.495 1.495 12.852 3.178 12.499 11.038 24.38 23.573 32.37 30.217 19.261 47.967-2.368 88.433 6.066 3.08 7.915 5.883 15.152 8.85 20.896.945 1.688-.852 3.803-2.671 3.145-49.14-15.965-67.267 11.813-100.282-9.232-12.536-7.991-20.396-19.871-23.573-32.371-3.103-12.205-1.318-24.063 4.175-33.726z" fill="#5ea570"/><g><path d="m256.006 312.227c-.655 0-1.321-.085-1.985-.26-4.125-1.094-6.581-5.324-5.489-9.449l12.378-46.702c7.419-27.993 25.547-50.971 51.043-64.703 25.496-13.733 54.659-16.223 82.113-7.014 4.046 1.356 6.225 5.736 4.868 9.782-1.356 4.046-5.734 6.23-9.782 4.868-23.364-7.836-48.177-5.716-69.873 5.969-21.695 11.685-37.12 31.238-43.433 55.058l-12.378 46.702c-.916 3.461-4.043 5.749-7.462 5.749z" fill="#95d6a4"/></g><path d="m227.315 40.922c2.295 2.628 5.686 4.033 9.167 3.797 6.751-.457 12.355 5.147 11.898 11.898-.235 3.481 1.169 6.872 3.797 9.167 5.097 4.451 5.097 12.376 0 16.827-2.628 2.295-4.033 5.686-3.797 9.167.457 6.751-5.147 12.355-11.898 11.898-3.481-.235-6.872 1.169-9.167 3.797-4.451 5.097-12.376 5.097-16.827 0-2.295-2.628-5.686-4.033-9.167-3.797-6.751.457-12.355-5.147-11.898-11.898.235-3.481-1.169-6.872-3.797-9.167-5.097-4.451-5.097-12.376 0-16.827 2.628-2.295 4.033-5.686 3.797-9.167-.457-6.751 5.147-12.355 11.898-11.898 3.481.235 6.872-1.169 9.167-3.797 4.451-5.097 12.375-5.097 16.827 0z" fill="#dd5ca2"/><path d="m301.512 40.922c2.295 2.628 5.686 4.033 9.167 3.797 6.751-.457 12.355 5.147 11.898 11.898-.235 3.481 1.169 6.872 3.797 9.167 5.097 4.451 5.097 12.376 0 16.827-2.628 2.295-4.033 5.686-3.797 9.167.457 6.751-5.147 12.355-11.898 11.898-3.481-.235-6.872 1.169-9.167 3.797-4.451 5.097-12.376 5.097-16.827 0-2.295-2.628-5.686-4.033-9.167-3.797-6.751.457-12.355-5.147-11.898-11.898.235-3.481-1.169-6.872-3.797-9.167-5.097-4.451-5.097-12.376 0-16.827 2.628-2.295 4.033-5.686 3.797-9.167-.457-6.751 5.147-12.355 11.898-11.898 3.481.235 6.872-1.169 9.167-3.797 4.452-5.097 12.376-5.097 16.827 0z" fill="#dd5ca2"/><path d="m262.918 3.823c2.295 2.628 5.686 4.033 9.167 3.797 6.751-.457 12.355 5.147 11.898 11.898-.235 3.481 1.169 6.872 3.797 9.167 5.097 4.451 5.097 12.376 0 16.827-2.628 2.295-4.033 5.686-3.797 9.167.457 6.751-5.147 12.355-11.898 11.898-3.481-.235-6.872 1.169-9.167 3.797-4.451 5.097-12.376 5.097-16.827 0-2.295-2.628-5.686-4.033-9.167-3.797-6.751.457-12.355-5.147-11.898-11.898.235-3.481-1.169-6.872-3.797-9.167-5.097-4.451-5.097-12.376 0-16.827 2.628-2.295 4.033-5.686 3.797-9.167-.457-6.751 5.147-12.355 11.898-11.898 3.481.235 6.872-1.169 9.167-3.797 4.451-5.097 12.376-5.097 16.827 0z" fill="#e490d0"/><path d="m347.363 481.017h-182.726c-2.98 0-5.396-2.416-5.396-5.396v-177.303h193.519v177.303c-.001 2.98-2.416 5.396-5.397 5.396z" fill="#f6f1f1"/><path d="m333.402 298.318v182.699h13.962c2.98 0 5.396-2.416 5.396-5.396v-177.303z" fill="#efe7e4"/><path d="m332.062 512h-152.124c-2.98 0-5.396-2.416-5.396-5.396v-25.587h162.917v25.587c-.001 2.98-2.417 5.396-5.397 5.396z" fill="#4a80aa"/><path d="m320.256 481.017v30.983h11.806c2.98 0 5.396-2.416 5.396-5.396v-25.587z" fill="#407093"/><path d="m148.617 260.566c26.294-5.346 49.94 11.387 53.645 37.962 1.781 12.773-1.008 26.743-9.595 38.878-22.616 31.959-49.895 13.09-89.359 46.438-1.435 1.297-3.898.017-3.661-1.902 2.213-24.707-6.122-68.842 15.498-99.394 8.587-12.135 20.833-19.412 33.472-21.982z" fill="#69af81"/><path d="m185.652 268.879c1.659 3.843 2.852 8.011 3.472 12.464 1.781 12.773-1.008 26.743-9.595 38.878-20.699 29.251-45.306 15.932-79.585 39.031.139 8.492.279 16.251-.298 22.691-.237 1.92 2.226 3.199 3.661 1.902 39.465-33.349 66.744-14.48 89.36-46.438 8.587-12.135 11.376-26.104 9.595-38.878-1.739-12.474-7.872-22.779-16.61-29.65z" fill="#5ea570"/><path d="m363.383 260.566c-26.294-5.346-49.94 11.387-53.645 37.962-1.781 12.773 1.008 26.743 9.595 38.878 22.616 31.959 49.895 13.09 89.359 46.438 1.435 1.297 3.898.017 3.661-1.902-2.213-24.707 6.122-68.842-15.498-99.394-8.587-12.135-20.833-19.412-33.472-21.982z" fill="#69af81"/><path d="m326.348 268.879c-1.659 3.843-2.852 8.011-3.472 12.464-1.781 12.773 1.008 26.743 9.595 38.878 20.699 29.251 45.306 15.932 79.585 39.031-.139 8.492-.279 16.251.298 22.691.237 1.92-2.226 3.199-3.661 1.902-39.465-33.349-66.744-14.48-89.36-46.438-8.587-12.135-11.376-26.104-9.595-38.878 1.739-12.474 7.872-22.779 16.61-29.65z" fill="#5ea570"/><g fill="#95d6a4"><path d="m360.829 300.438-8.438-13.661c-9.348-15.139-25.548-23.862-43.33-23.288-17.783.555-33.408 10.255-41.794 25.947l-4.745 8.882h17.52l.854-1.598c5.748-10.756 16.457-17.405 28.647-17.786 12.208-.35 23.293 5.585 29.702 15.964l8.438 13.662c2.242 3.632 7.003 4.758 10.634 2.513 3.628-2.244 4.754-7.004 2.512-10.635z"/><path d="m231.104 296.72.854 1.598h17.521l-4.746-8.882c-8.385-15.692-24.01-25.392-41.793-25.947-17.769-.559-33.982 8.15-43.33 23.287l-8.437 13.662c-2.242 3.631-1.117 8.391 2.513 10.634 3.63 2.242 8.391 1.118 10.634-2.513l8.437-13.663c6.408-10.376 17.52-16.317 29.702-15.963 12.188.382 22.897 7.031 28.645 17.787z"/></g></g></svg>