<svg id="Capa_1" enable-background="new 0 0 512 512" height="512" viewBox="0 0 512 512" width="512" xmlns="http://www.w3.org/2000/svg"><g><g><path d="m256 149.634c-4.204 0-7.611-3.407-7.611-7.611v-134.412c-.001-4.204 3.406-7.611 7.611-7.611s7.612 3.407 7.612 7.611v134.411c-.001 4.205-3.408 7.612-7.612 7.612z" fill="#407093"/></g><path d="m424.945 389.407c0 89.778-75.64 122.593-168.945 122.593s-168.945-32.815-168.945-122.593 75.639-267.682 168.945-267.682 168.945 177.904 168.945 267.682z" fill="#d3effb"/><path d="m256 121.725c-4.135 0-8.234.356-12.294 1.031 87.566 14.569 156.65 180.85 156.65 266.65s-69.085 119.569-156.65 122.394c4.06.132 8.159.2 12.294.2 93.306 0 168.945-32.815 168.945-122.593s-75.64-267.682-168.945-267.682z" fill="#b1e4f9"/><path d="m250.455 316.754c20.962.595 42.355-21.663 63.866-50.18 1.044-1.384 3.239-.848 3.53.861 7.691 45.118-9.941 90.824-45.94 119.088l-13.552 10.64-9.761-57.754z" fill="#5ea570"/><path d="m261.545 316.754c-20.962.595-42.355-21.663-63.866-50.18-1.044-1.384-3.239-.848-3.53.861-7.691 45.118 9.941 90.824 45.94 119.088l13.552 10.64 9.761-57.754z" fill="#5ea570"/><path d="m239.283 334.886c-20.245 5.468-46.24-11.187-73.809-33.9-1.338-1.102-3.347-.069-3.232 1.661 3.045 45.667 30.851 86.001 72.449 105.089l15.66 7.186-3.979-58.438z" fill="#69af81"/><path d="m272.717 334.886c20.245 5.468 46.24-11.187 73.809-33.9 1.338-1.102 3.347-.069 3.232 1.661-3.045 45.667-30.851 86.001-72.449 105.089l-15.66 7.186 3.979-58.438z" fill="#69af81"/><path d="m256 402.1-9.992-9.992c-27.977-27.977-27.977-73.337 0-101.314l9.212-9.212c.431-.431 1.129-.431 1.559 0l9.212 9.212c27.977 27.977 27.977 73.337 0 101.314z" fill="#95d6a4"/><path d="m265.992 290.794-9.212-9.212c-.431-.431-1.129-.431-1.559 0l-9.093 9.093.119.119c27.977 27.977 27.977 73.337 0 101.314l-.119.119 9.872 9.873 9.992-9.992c27.977-27.977 27.977-73.337 0-101.314z" fill="#78c2a4"/><path d="m393.095 407.293c1.018-6.109-3.418-11.784-9.586-12.35-24.22-2.224-27.796-11.716-58.331-11.716-34.587 0-34.587 12.178-69.174 12.178-34.589 0-34.589-12.178-69.178-12.178-30.538 0-34.114 9.493-58.336 11.716-6.168.566-10.604 6.241-9.586 12.35 3.73 22.385 14.937 39.292 33.962 51.38 23.558 14.969 59.221 22.881 103.134 22.881s79.576-7.912 103.134-22.881c19.025-12.088 30.232-28.995 33.961-51.38z" fill="#9d6b6b"/><path d="m383.509 394.943c-5.518-.507-9.959-1.393-13.896-2.456-.017.128-.022.254-.043.382-3.73 22.385-14.937 39.292-33.962 51.38-23.558 14.969-59.221 22.881-103.134 22.881-35.887 0-66.26-5.287-89.023-15.389 2.895 2.463 6.025 4.777 9.415 6.931 23.558 14.969 59.221 22.881 103.134 22.881s79.576-7.912 103.134-22.881c19.025-12.088 30.232-28.995 33.962-51.38 1.017-6.109-3.419-11.783-9.587-12.349z" fill="#8b5e5e"/><g><path d="m294.669 209.791c-4.204 0-7.611-3.407-7.611-7.611 0-17.125-13.933-31.057-31.057-31.057s-31.057 13.933-31.057 31.057c0 4.204-3.407 7.611-7.611 7.611s-7.611-3.407-7.611-7.611c0-25.519 20.761-46.28 46.28-46.28s46.28 20.761 46.28 46.28c-.002 4.204-3.409 7.611-7.613 7.611z" fill="#b1e4f9"/></g></g></svg>