<svg id="Capa_1" enable-background="new 0 0 511.986 511.986" height="512" viewBox="0 0 511.986 511.986" width="512" xmlns="http://www.w3.org/2000/svg"><g><path d="m236.844 350.881c-7.032-99.119-.563-232.21 19.408-332.64.215-1.279 2.173-1.278 2.388 0 19.97 100.429 26.439 233.521 19.407 332.639h-41.203z" fill="#4f8980"/><path d="m99.749 350.881c-5.791-69.638-.508-163.047 15.85-233.79.245-1.231 2.127-1.231 2.372-.001 16.358 70.742 21.641 164.153 15.85 233.791z" fill="#69af81"/><path d="m343.486 350.881s35.318-124.116 168.029-226.045c1.093-.792.11-2.598-1.148-2.112-36.397 12.925-200.538 79.4-204.093 228.158h37.212z" fill="#69af81"/><path d="m394.323 350.881s16.97-85.323 76.48-125.572c.978-.615.495-2.243-.66-2.226-20.111-.348-113.033 4.705-113.033 127.798z" fill="#5ea570"/><path d="m434.612 350.881s9.32-32.462 68.742-70.954c.971-.584.56-2.19-.572-2.236-16.258-1.196-84.222-1.544-105.384 73.19z" fill="#78c2a4"/><path d="m275.31 350.881c-5.79-87.711-.51-205.358 15.839-294.473.2-1.301 2.194-1.3 2.394 0 16.349 89.116 21.629 206.762 15.839 294.473z" fill="#5ea570"/><path d="m160.491 350.881c-8.507-73.992-.617-173.442 23.669-248.222.317-1.1 1.997-1.101 2.315-.001 24.287 74.78 32.177 174.231 23.67 248.223z" fill="#5ea570"/><path d="m65.552 350.881s-5.854-90.429-65.031-130.835c-.98-.622-.479-2.256.681-2.223 16.321-.066 81.012 7.747 101.564 133.057h-37.214z" fill="#78c2a4"/><path d="m162.745 350.881s24.393-105.445 169.8-227.079c1.002-.788.109-2.486-1.108-2.106-29.584 8.267-174.428 57.172-205.905 229.185z" fill="#78c2a4"/><path d="m335.856 350.881c-5.793-59.032-.506-138.221 15.862-198.18.28-1.173 2.069-1.171 2.349.001 16.367 59.959 21.654 139.147 15.861 198.179z" fill="#95d6a4"/><path d="m43.451 371.9c.098-4.356.359-8.789.797-13.297.425-4.37 4.071-7.722 8.462-7.722h409.476c4.391 0 8.037 3.352 8.462 7.722.438 4.507.7 8.941.797 13.297 1.513 67.53-53.536 122.804-121.083 122.804h-185.827c-67.547-.001-122.597-55.274-121.084-122.804z" fill="#f6f1f1"/><path d="m471.448 371.983c-.096-4.382-.358-8.842-.799-13.378-.425-4.371-4.07-7.724-8.462-7.724h-24.212c1.006 7.187 1.561 14.198 1.713 21.019 1.513 67.53-53.536 122.804-121.083 122.804h31.758c67.515-.001 122.566-55.222 121.085-122.721z" fill="#efe7e4"/><path d="m205.516 350.881c-5.79-87.711-.511-205.358 15.838-294.473.2-1.301 2.194-1.3 2.394 0 16.349 89.116 21.629 206.762 15.839 294.473z" fill="#95d6a4"/></g></svg>