<svg id="Capa_1" enable-background="new 0 0 512 512" height="512" viewBox="0 0 512 512" width="512" xmlns="http://www.w3.org/2000/svg"><g><g><g><path d="m317.849 451.514c-.512 0-1.03-.052-1.55-.157-4.204-.852-6.922-4.951-6.07-9.155 15.096-74.514 52.062-171.51 52.433-172.481 1.534-4.007 6.026-6.009 10.031-4.478 4.006 1.533 6.012 6.025 4.479 10.031-.367.959-36.88 96.775-51.717 170.013-.748 3.683-3.987 6.227-7.606 6.227z" fill="#69af81"/></g><g><path d="m306.768 405.058c-.198 0-.398-.007-.6-.022-4.277-.327-7.48-4.06-7.154-8.337 5.797-75.893 31.338-171.039 31.595-171.991 1.119-4.143 5.386-6.591 9.524-5.473 4.142 1.119 6.591 5.383 5.473 9.524-.254.939-25.418 94.708-31.102 169.123-.31 4.076-3.715 7.176-7.736 7.176z" fill="#69af81"/></g><g><path d="m281.019 380.243c-4.273 0-7.746-3.454-7.767-7.732-.35-76.085 17.216-175.724 17.394-176.722.751-4.224 4.777-7.044 9.008-6.287 4.224.751 7.038 4.784 6.287 9.008-.175.984-17.497 99.268-17.153 173.93.019 4.289-3.442 7.783-7.732 7.803-.013 0-.025 0-.037 0z" fill="#69af81"/></g></g><g><g><path d="m194.15 451.513c-3.62 0-6.858-2.542-7.605-6.226-14.836-73.238-51.349-169.054-51.716-170.013-1.533-4.006.472-8.498 4.479-10.031 4.006-1.529 8.498.47 10.031 4.478.371.971 37.337 97.967 52.432 172.481.852 4.204-1.866 8.304-6.07 9.155-.52.105-1.04.156-1.551.156z" fill="#69af81"/></g><g><path d="m205.232 405.058c-4.021 0-7.426-3.1-7.737-7.176-5.688-74.451-30.849-168.184-31.103-169.123-1.12-4.141 1.331-8.406 5.473-9.524 4.137-1.12 8.406 1.331 9.524 5.473.257.952 25.798 96.099 31.596 171.991.327 4.277-2.876 8.01-7.154 8.337-.2.015-.401.022-.599.022z" fill="#69af81"/></g><g><path d="m230.981 380.243c-.012 0-.024 0-.036 0-4.29-.02-7.751-3.514-7.732-7.803.345-74.662-16.978-172.946-17.153-173.93-.751-4.224 2.063-8.256 6.287-9.008 4.226-.758 8.255 2.063 9.008 6.287.178.997 17.745 100.637 17.394 176.722-.022 4.278-3.495 7.732-7.768 7.732z" fill="#69af81"/></g></g><g><path d="m256 380.243c-4.29 0-7.768-3.477-7.768-7.768v-175.325c0-4.29 3.477-7.768 7.768-7.768s7.768 3.477 7.768 7.768v175.326c-.001 4.29-3.478 7.767-7.768 7.767z" fill="#69af81"/></g><path d="m357.63 293.643c-8.828-80.039 31.778-157.433 102.654-195.654 2.161-1.165 4.814.227 5.083 2.667 8.828 80.039-31.778 157.433-102.654 195.654-2.161 1.165-4.814-.227-5.083-2.667z" fill="#78c2a4"/><path d="m327.735 243.429c-18.63-78.34 12.122-160.15 77.743-206.819 2-1.423 4.805-.368 5.373 2.02 18.63 78.339-12.122 160.15-77.743 206.819-2.001 1.422-4.805.368-5.373-2.02z" fill="#95d6a4"/><path d="m289.5 217.423c-24.896-76.579-.852-160.606 60.786-212.423 1.879-1.58 4.759-.755 5.518 1.579 24.897 76.579.852 160.606-60.785 212.422-1.879 1.58-4.76.756-5.519-1.578z" fill="#78c2a4"/><path d="m154.37 293.643c8.828-80.039-31.778-157.433-102.654-195.654-2.161-1.165-4.814.227-5.083 2.667-8.828 80.039 31.778 157.433 102.654 195.654 2.161 1.165 4.814-.227 5.083-2.667z" fill="#78c2a4"/><path d="m184.265 243.429c18.63-78.34-12.122-160.15-77.743-206.819-2-1.423-4.805-.368-5.373 2.02-18.63 78.339 12.122 160.15 77.743 206.819 2.001 1.422 4.805.368 5.373-2.02z" fill="#95d6a4"/><path d="m222.5 217.423c24.896-76.579.852-160.606-60.786-212.423-1.879-1.58-4.759-.755-5.518 1.579-24.897 76.579-.852 160.606 60.785 212.423 1.879 1.579 4.76.755 5.519-1.579z" fill="#78c2a4"/><path d="m367.16 512h-222.32c-3.838 0-7.042-2.93-7.384-6.753l-11.161-124.697c-.388-4.338 3.029-8.075 7.384-8.075h244.642c4.355 0 7.773 3.737 7.384 8.075l-11.161 124.697c-.342 3.823-3.546 6.753-7.384 6.753z" fill="#c6865c"/><path d="m357.682 372.475-12.488 139.525h21.966c3.838 0 7.042-2.93 7.384-6.753l11.161-124.697c.388-4.338-3.029-8.075-7.384-8.075z" fill="#c17d4f"/><path d="m253.13 222.475c-45.004-66.775-45.004-154.174 0-220.948 1.372-2.036 4.368-2.036 5.74 0 45.004 66.775 45.004 154.174 0 220.948-1.372 2.036-4.368 2.036-5.74 0z" fill="#95d6a4"/></g></svg>