<svg id="Capa_1" enable-background="new 0 0 512 512" height="512" viewBox="0 0 512 512" width="512" xmlns="http://www.w3.org/2000/svg"><g><g><path d="m127.503 167.434c-2.796-20.727-5.78-38.337 0-56.983 1.169-3.772 5.032-13.256-8.918-33.181-4.447-2.209-8.91-4.321-13.355-6.312-35.328-15.829-75.588-3.148-87.539 27.91-.136.352-.268.706-.399 1.061-11.455 31.245 10.496 67.297 47.508 78.645 16.98 5.206 35.158 9.414 52.817 11.989 16.345-10.931 11.834-8.688 9.886-23.129z" fill="#69af81"/></g><path d="m487.028 24.778c-.284-.336-.569-.67-.857-1.002-25.383-29.264-70.33-30.688-97.879-3.453-7.277 7.194-14.407 14.953-21.13 23.044-6.45 9.351-2.091 18.249 0 21.409 17.934 27.106 18.713 35.7 14.005 70.608-.752 5.577.766 19.732 12.003 29.181 27.329-7.856 57.171-24.149 82.115-42.554 31.171-23 36.724-67.625 11.743-97.233z" fill="#69af81"/><path d="m367.161 43.366c-20.804 25.039-37.681 53.281-42.722 77.97l41.162 48.116c8.663-.398 17.962-2.126 27.568-4.887.949-5.508 1.797-11.049 2.549-16.626 5.258-38.978-6.189-76-28.557-104.573z" fill="#5ea570"/><path d="m118.585 77.27c-8.781 21.626-12.246 45.748-8.885 70.668 1.948 14.441 4.529 28.647 7.918 42.625 23.97 3.496 46.982 3.98 64.724-.18l19.13-50.92c-16.29-22.733-49.108-45.41-82.887-62.193z" fill="#5ea570"/><g><g><g><path d="m426.265 48.016c-4.008 0-7.393-3.099-7.686-7.159l-1.007-13.952c-.307-4.249 2.889-7.942 7.138-8.249 4.238-.301 7.942 2.889 8.249 7.138l1.007 13.952c.307 4.249-2.889 7.942-7.138 8.249-.189.014-.377.021-.563.021z" fill="#ccf49f"/></g><g><path d="m412.193 81.675c-1.185 0-2.387-.274-3.513-.851l-8.497-4.357c-3.791-1.944-5.288-6.593-3.345-10.384 1.944-3.792 6.592-5.289 10.384-3.345l8.497 4.357c3.791 1.944 5.288 6.593 3.345 10.384-1.367 2.665-4.07 4.196-6.871 4.196z" fill="#ccf49f"/></g><g><path d="m479.357 88.659c-.634 0-1.278-.079-1.919-.244l-11.13-2.852c-4.127-1.057-6.615-5.26-5.558-9.387 1.058-4.127 5.263-6.616 9.387-5.558l11.13 2.852c4.127 1.057 6.615 5.26 5.558 9.387-.893 3.485-4.029 5.802-7.468 5.802z" fill="#ccf49f"/></g><g><path d="m441.61 103.436c-4.124 0-7.544-3.262-7.703-7.419l-.527-13.761c-.164-4.257 3.155-7.841 7.413-8.004 4.293-.137 7.841 3.156 8.003 7.413l.527 13.761c.164 4.257-3.155 7.841-7.413 8.004-.1.004-.2.006-.3.006z" fill="#ccf49f"/></g><g><path d="m424.561 130.536c-1.229 0-2.475-.294-3.635-.915l-10.953-5.866c-3.756-2.011-5.17-6.686-3.158-10.442 2.011-3.755 6.685-5.17 10.442-3.159l10.953 5.866c3.756 2.011 5.17 6.686 3.158 10.442-1.39 2.597-4.054 4.074-6.807 4.074z" fill="#ccf49f"/></g></g><g><path d="m352.812 162.214c-2.205 0-4.364-.946-5.865-2.7l-15.579-18.21c-2.224-2.599-2.47-6.352-.606-9.219 13.945-21.449 43.624-53.555 79.389-85.883 23.699-21.421 50.135-34.66 67.269-33.705 7.859.433 12.377 3.759 14.785 6.471.174.196.344.394.508.595 2.305 2.794 4.891 7.774 4.102 15.605-1.724 17.104-18.882 41.142-43.715 61.239-37.475 30.328-73.789 54.678-97.14 65.134-1.013.453-2.086.673-3.148.673zm-5.886-26.458 7.911 9.247c22.105-11.008 55.318-33.688 88.56-60.59 23.554-19.062 36.981-39.98 38.07-50.792.2-1.983-.033-3.491-.657-4.247l-.144-.168c-.65-.732-2.103-1.196-4.093-1.306-10.831-.579-33.594 9.426-56.075 29.746-31.725 28.676-59.275 57.976-73.572 78.11z" fill="#ccf49f"/></g></g><g><g><g><path d="m50.819 154.775c-2.725 0-5.366-1.447-6.77-4.005-2.049-3.734-.683-8.424 3.051-10.474l11.175-6.132c3.734-2.048 8.424-.683 10.474 3.052 2.049 3.734.683 8.424-3.051 10.474l-11.175 6.132c-1.177.646-2.449.953-3.704.953z" fill="#ccf49f"/></g><g><path d="m98.159 155.267c-3.959 0-7.329-3.032-7.676-7.05l-.724-8.379c-.368-4.245 2.776-7.983 7.021-8.35 4.242-.364 7.983 2.777 8.349 7.021l.724 8.379c.368 4.245-2.776 7.983-7.021 8.35-.226.019-.45.029-.673.029z" fill="#ccf49f"/></g><g><path d="m72.057 101.05c-3.217 0-6.218-2.028-7.306-5.245l-3.342-9.882c-1.365-4.036.801-8.414 4.836-9.779 4.033-1.363 8.413.801 9.778 4.837l3.342 9.882c1.365 4.036-.801 8.414-4.836 9.779-.819.277-1.653.408-2.472.408z" fill="#ccf49f"/></g><g><path d="m89.279 121.006c-2.82 0-5.537-1.552-6.893-4.242-1.918-3.804-.39-8.443 3.414-10.361l11.262-5.679c3.803-1.917 8.443-.39 10.361 3.415 1.918 3.804.39 8.443-3.414 10.361l-11.262 5.679c-1.114.561-2.299.827-3.468.827z" fill="#ccf49f"/></g></g><g><path d="m188.291 182.274c-.285 0-.573-.016-.862-.048-25.08-2.805-67.177-13.949-112.608-29.812-31.148-10.875-56.65-27.695-63.459-41.852-2.855-5.936-2.241-10.63-1.223-13.522.079-.227.17-.467.265-.707 1.138-2.846 3.767-6.782 9.823-9.37 14.446-6.172 44.715-2.04 75.32 10.284 44.636 17.974 83.658 37.304 104.382 51.707 2.9 2.015 4.061 5.742 2.818 9.047l-7.24 19.272c-1.138 3.032-4.035 5.001-7.216 5.001zm-150.618-82.772c-9.066 0-12.517 1.969-12.98 2.631-.088.933 1.882 6.329 13.487 14.791 10.784 7.864 25.604 15.295 41.728 20.924 40.29 14.068 78.984 24.621 103.313 28.264l2.931-7.802c-20.71-13.277-56.781-30.812-96.368-46.752-15.841-6.379-31.887-10.543-45.182-11.726-2.607-.232-4.908-.33-6.929-.33z" fill="#ccf49f"/></g></g><path d="m192.307 299.713c-39.645-46.686-56.534-97.051-63.706-151.094-9.856-74.271 47.893-140.517 122.815-140.902.862-.004 1.725-.004 2.587 0 74.921.385 132.671 66.631 122.815 140.903-7.172 54.043-24.061 104.408-63.706 151.094h-120.805z" fill="#95d6a4"/><path d="m192.307 299.713c-39.645-46.686-56.534-97.051-63.706-151.094-9.856-74.271 47.893-140.517 122.815-140.902.862-.004-.427-.004.435 0 74.921.385 132.671 66.631 122.815 140.903-7.172 54.043-24.061 104.408-63.706 151.094h-118.653z" fill="#95d6a4"/><path d="m254.003 7.717c-.862-.004-1.725-.004-2.587 0-4.209.022-8.36.262-12.451.689 68.741 7.175 119.666 70.114 110.364 140.213-7.172 54.043-24.061 104.408-63.706 151.094h27.489c39.645-46.686 56.534-97.051 63.706-151.094 9.855-74.271-47.894-140.517-122.815-140.902z" fill="#78c2a4"/><g><g><path d="m210.397 63.15c-1.882 0-3.769-.685-5.255-2.069l-12.686-11.813c-3.118-2.903-3.291-7.784-.388-10.902 2.902-3.116 7.783-3.292 10.902-.388l12.686 11.813c3.118 2.903 3.291 7.784.388 10.902-1.518 1.631-3.579 2.457-5.647 2.457z" fill="#ccf49f"/></g><g><path d="m207.642 88.119c-3.782 0-7.083-2.783-7.628-6.635-.597-4.218 2.339-8.121 6.558-8.718l17.568-2.484c4.214-.595 8.122 2.339 8.717 6.558.597 4.218-2.339 8.121-6.558 8.718l-17.568 2.484c-.364.052-.729.077-1.089.077z" fill="#ccf49f"/></g><g><path d="m199.295 142.13c-1.007 0-2.031-.199-3.017-.618l-15.398-6.554c-3.919-1.668-5.745-6.199-4.077-10.119 1.669-3.919 6.198-5.743 10.12-4.076l15.398 6.554c3.919 1.668 5.745 6.199 4.077 10.119-1.251 2.934-4.103 4.694-7.103 4.694z" fill="#ccf49f"/></g><g><path d="m205.29 199.26c-2.152 0-4.294-.896-5.819-2.647-2.799-3.212-2.464-8.085.748-10.883l12.463-10.859c3.212-2.799 8.085-2.464 10.883.749 2.799 3.212 2.464 8.085-.748 10.883l-12.463 10.859c-1.461 1.274-3.267 1.898-5.064 1.898z" fill="#ccf49f"/></g><g><path d="m209.233 259.267c-1.026 0-2.068-.206-3.069-.64l-15.541-6.749c-3.908-1.697-5.7-6.24-4.003-10.148 1.695-3.907 6.241-5.7 10.148-4.003l15.541 6.749c3.908 1.697 5.7 6.24 4.004 10.148-1.262 2.906-4.101 4.643-7.08 4.643z" fill="#ccf49f"/></g><g><path d="m290.626 281.257c-2.91 0-5.695-1.654-7.002-4.467-1.794-3.865-.117-8.451 3.747-10.246l18.286-8.491c3.866-1.794 8.451-.117 10.246 3.747 1.794 3.865.117 8.451-3.747 10.246l-18.286 8.491c-1.052.489-2.157.72-3.244.72z" fill="#ccf49f"/></g><g><path d="m295.364 236.258c-1.665 0-3.342-.537-4.754-1.644l-15.653-12.271c-3.353-2.628-3.94-7.477-1.312-10.83 2.63-3.353 7.477-3.939 10.83-1.311l15.653 12.271c3.353 2.628 3.94 7.477 1.312 10.83-1.522 1.941-3.788 2.955-6.076 2.955z" fill="#ccf49f"/></g><g><path d="m303.809 187.919c-2.554 0-5.053-1.268-6.523-3.585-2.28-3.598-1.212-8.364 2.386-10.645l13.757-8.719c3.6-2.281 8.364-1.214 10.646 2.385 2.28 3.598 1.212 8.364-2.385 10.645l-13.757 8.719c-1.283.812-2.712 1.2-4.124 1.2z" fill="#ccf49f"/></g><g><path d="m304.165 148.145c-1.364 0-2.745-.362-3.996-1.121l-16.629-10.094c-3.642-2.21-4.802-6.955-2.591-10.597s6.957-4.802 10.597-2.591l16.629 10.094c3.642 2.21 4.802 6.955 2.591 10.597-1.451 2.391-3.994 3.712-6.601 3.712z" fill="#ccf49f"/></g><g><path d="m302.013 95.68c-2.166 0-4.319-.907-5.844-2.676-2.783-3.226-2.424-8.097.803-10.879l11.646-10.046c3.225-2.783 8.098-2.424 10.879.803 2.783 3.226 2.424 8.097-.803 10.879l-11.646 10.046c-1.458 1.257-3.25 1.873-5.035 1.873z" fill="#ccf49f"/></g><g><path d="m288.044 51.338c-.334 0-.671-.022-1.01-.066l-16.749-2.192c-4.225-.553-7.201-4.425-6.648-8.65.552-4.226 4.437-7.203 8.649-6.648l16.749 2.192c4.225.553 7.201 4.425 6.648 8.65-.508 3.884-3.824 6.714-7.639 6.714z" fill="#ccf49f"/></g></g><g><path d="m277.836 326.262h-50.253c-3.324 0-6.275-2.129-7.321-5.284-14.91-44.925-23.451-96.678-26.884-162.87-3.225-62.199 10.252-120.685 33.538-145.534 7.705-8.223 16.168-12.452 25.155-12.57.426-.005.851-.005 1.275 0 8.991.119 17.454 4.348 25.159 12.57 23.285 24.849 36.763 83.335 33.538 145.535-3.432 66.19-11.975 117.944-26.883 162.869-1.049 3.154-4 5.284-7.324 5.284zm-44.644-15.428h39.036c13.407-42.368 21.182-91.356 24.405-153.525 2.928-56.456-9.432-112.89-29.387-134.186-4.726-5.044-9.47-7.632-14.1-7.693-.291-.004-.584-.004-.877 0-4.626.061-9.37 2.649-14.096 7.693-19.956 21.296-32.315 77.73-29.387 134.186 3.223 62.17 10.999 111.157 24.406 153.525z" fill="#ccf49f"/></g><path d="m353.187 337.383-19.581-18.502-166.152-.333-15.223 18.835 25.818 142.513 21.982 16.052h102.863l24.475-16.052z" fill="#c6865c"/><path d="m152.231 337.383 3.711 20.482h119.495c25.009 0 43.917 22.641 39.459 47.25l-13.547 74.781 8.742 16.052 17.279-16.052 25.818-142.513-26.232-18.835-152.434.014z" fill="#c17d4f"/><path d="m371.305 337.383h-237.192c-2.467 0-4.466-2-4.466-4.466v-28.737c0-2.467 2-4.466 4.466-4.466h237.192c2.467 0 4.466 2 4.466 4.466v28.737c.001 2.467-1.999 4.466-4.466 4.466z" fill="#9d6b6b"/><path d="m371.305 299.713h-18.623v37.67h18.623c2.467 0 4.467-2 4.467-4.466v-28.737c0-2.467-2-4.467-4.467-4.467z" fill="#8b5e5e"/><path d="m152.058 492.024c-.742-1.811-1.357-3.71-1.845-5.694-.804-3.27 1.678-6.434 5.046-6.434h194.9c3.368 0 5.85 3.164 5.046 6.434-.488 1.983-1.102 3.883-1.845 5.694-5.012 12.229-17.208 19.976-30.424 19.976h-140.453c-13.217 0-25.413-7.747-30.425-19.976z" fill="#9d6b6b"/><path d="m350.159 479.896h-24.384c3.368 0 5.85 3.164 5.046 6.434-.488 1.983-1.102 3.883-1.845 5.694-5.011 12.229-17.207 19.976-30.424 19.976h24.384c13.217 0 25.413-7.747 30.425-19.976.742-1.811 1.357-3.71 1.845-5.694.803-3.27-1.679-6.434-5.047-6.434z" fill="#8b5e5e"/></g></svg>