<svg id="Capa_1" enable-background="new 0 0 512.007 512.007" height="512" viewBox="0 0 512.007 512.007" width="512" xmlns="http://www.w3.org/2000/svg"><g><g><path d="m422.78 48.708c3.344 20.54-7.097 27.703-21.046 29.974s-26.123-1.21-29.467-21.75 5.253-39.032 19.201-41.303 27.968 12.538 31.312 33.079z" fill="#4f8980"/><g><path d="m394.799 86.788c-6.065 0-11.234-1.33-15.662-4.013-7.554-4.577-12.355-12.867-14.271-24.639-1.856-11.401-.537-22.72 3.717-31.869 4.639-9.978 12.541-16.554 21.682-18.041 9.142-1.493 18.721 2.24 26.284 10.231 6.936 7.328 11.778 17.644 13.634 29.045 1.917 11.771-.008 21.156-5.72 27.894-4.755 5.608-11.796 9.104-21.523 10.688-2.881.468-5.59.704-8.141.704zm-.476-63.89c-.541 0-1.091.042-1.649.133-5.691.927-9.015 6.387-10.49 9.56-2.956 6.359-3.872 14.792-2.514 23.136 1.179 7.238 3.614 12.022 7.24 14.22 3.107 1.884 7.562 2.319 13.618 1.333s10.143-2.812 12.492-5.584c2.742-3.233 3.534-8.544 2.356-15.782-1.358-8.344-4.902-16.05-9.724-21.144-2.167-2.292-6.354-5.872-11.329-5.872z" fill="#3d6b73"/></g></g><g><path d="m478.43 64.607c-19.154 8.137-28.596-.298-34.122-13.305s-5.043-25.66 14.111-33.797 39.16-4.19 44.686 8.817-5.521 30.148-24.675 38.285z" fill="#4f8980"/><g><path d="m464.791 75.303c-4.294 0-8.263-.902-11.882-2.709-6.579-3.283-11.65-9.289-15.505-18.36-3.854-9.07-4.655-16.89-2.451-23.905 2.647-8.426 9.555-15.063 20.532-19.727 10.633-4.518 21.94-5.929 31.839-3.977 10.795 2.131 19.062 8.24 22.684 16.764s2.279 18.716-3.682 27.964c-5.466 8.481-14.331 15.64-24.964 20.157v-.001c-5.95 2.529-11.489 3.794-16.571 3.794zm13.566-54.525c-5.456 0-11.394 1.245-17.006 3.63-6.75 2.867-10.816 6.372-12.088 10.417-1.089 3.467-.452 7.896 1.947 13.544 2.4 5.647 5.146 9.182 8.397 10.805 3.793 1.891 9.139 1.398 15.89-1.469v-.001c7.781-3.306 14.422-8.582 18.221-14.477 1.896-2.94 4.738-8.666 2.484-13.973-2.255-5.307-8.35-7.235-11.782-7.912-1.918-.379-3.955-.564-6.063-.564z" fill="#3d6b73"/></g></g><path d="m420.773 116.168c-17.631-11.056-16.113-23.626-8.605-35.599s18.163-18.814 35.793-7.759c17.631 11.056 25.837 29.724 18.329 41.697-7.507 11.973-27.886 12.717-45.517 1.661z" fill="#4f8980"/><g><path d="m446.039 131.556c-9.292 0-19.582-2.972-29.25-9.034-10.104-6.337-15.88-13.979-17.165-22.718-1.071-7.275.954-14.87 6.189-23.22 5.236-8.35 11.191-13.481 18.206-15.686 8.429-2.65 17.823-.778 27.927 5.557 21.464 13.459 30.556 36.316 20.699 52.036-5.416 8.639-15.269 13.065-26.606 13.065zm-14.347-56.814c-1.126 0-2.185.155-3.175.467-3.466 1.09-6.735 4.146-9.995 9.345s-4.588 9.473-4.059 13.067c.617 4.194 4.081 8.297 10.294 12.192 13.859 8.693 29.972 9.019 35.179.71 5.209-8.308-2.1-22.668-15.959-31.358-4.692-2.944-8.808-4.423-12.285-4.423z" fill="#3d6b73"/></g><g><path d="m368.138 180.13c-20.362-4.296-23.273-16.619-20.356-30.447s10.558-23.924 30.921-19.629c20.362 4.296 34.504 18.988 31.587 32.816s-21.789 21.555-42.152 17.26z" fill="#4f8980"/><g><path d="m379.341 188.818c-4.184 0-8.472-.447-12.751-1.35-11.67-2.463-19.728-7.645-23.948-15.403-3.514-6.459-4.232-14.287-2.198-23.931 2.034-9.643 5.854-16.513 11.678-21.002 6.996-5.393 16.46-6.877 28.129-4.417 11.304 2.385 21.382 7.702 28.379 14.972 7.631 7.927 10.91 17.671 8.999 26.732-1.912 9.061-8.849 16.648-19.03 20.817-5.804 2.377-12.39 3.582-19.258 3.582zm-9.359-52.261c-3.668 0-6.581.819-8.702 2.455-2.878 2.218-4.892 6.215-6.158 12.219-1.268 6.005-1.039 10.475.697 13.666 2.025 3.724 6.691 6.38 13.867 7.894 8.272 1.747 16.739 1.224 23.228-1.436 3.238-1.325 8.848-4.392 10.037-10.032 1.19-5.642-2.702-10.713-5.128-13.233-4.863-5.053-12.396-8.951-20.668-10.696-2.643-.558-5.037-.837-7.173-.837z" fill="#3d6b73"/></g></g><g><path d="m337.406 261.075c-20.743 1.673-27.039-9.312-28.176-23.399-1.136-14.086 3.317-25.939 24.06-27.613 20.743-1.673 38.48 8.389 39.616 22.476 1.138 14.087-14.757 26.863-35.5 28.536z" fill="#4f8980"/><g><path d="m333.324 268.747c-23.917 0-30.427-16.305-31.569-30.467-.793-9.824.915-17.496 5.222-23.457 5.173-7.159 13.823-11.275 25.712-12.234 25.251-2.044 46.202 10.853 47.694 29.348.745 9.23-3.746 18.479-12.322 25.372-7.864 6.321-18.537 10.314-30.051 11.243h-.001c-1.63.131-3.192.195-4.685.195zm4.082-7.671h.01zm.358-43.693c-1.274 0-2.564.051-3.869.156-7.311.59-12.276 2.631-14.76 6.068-2.128 2.944-2.922 7.35-2.429 13.465 1.061 13.144 6.504 17.617 20.098 16.527h-.001c8.427-.68 16.395-3.59 21.86-7.983 2.727-2.192 7.232-6.728 6.769-12.474-.726-8.991-13.01-15.759-27.668-15.759z" fill="#3d6b73"/></g></g><g><path d="m364.071 89.211c10.554 17.936 3.415 28.393-8.765 35.56s-24.788 8.33-35.343-9.606-9.236-38.286 2.944-45.453c12.18-7.166 30.609 1.564 41.164 19.499z" fill="#4f8980"/><g><path d="m339.989 137.181c-9.035 0-18.463-4.569-26.49-18.211-5.858-9.957-8.726-20.985-8.073-31.054.711-10.979 5.696-19.971 13.678-24.667s18.26-4.689 28.206.021c9.118 4.319 17.366 12.181 23.225 22.137 14.127 24.008 1.585 38.173-11.425 45.828-5.618 3.307-12.256 5.946-19.121 5.946zm-7.553-62.478c-1.923 0-3.896.398-5.725 1.475-4.97 2.924-6.091 9.218-6.317 12.709-.453 6.998 1.746 15.19 6.033 22.477 6.915 11.752 13.715 13.631 25.075 6.945 11.364-6.688 13.019-13.542 6.104-25.293-4.287-7.286-10.381-13.187-16.719-16.188-1.997-.948-5.149-2.125-8.451-2.125z" fill="#3d6b73"/></g></g><g><path d="m317.958 147.798c15.083 14.338 11.097 26.357 1.36 36.599-9.737 10.243-21.539 14.83-36.621.492-15.083-14.338-19.416-34.265-9.679-44.508 9.737-10.242 29.857-6.922 44.94 7.417z" fill="#4f8980"/><g><path d="m301.087 201.529c-7.078 0-14.997-3.066-23.558-11.204-18.362-17.457-22.731-41.664-9.947-55.111 12.784-13.446 37.182-10.308 55.543 7.148h.001c20.188 19.193 12.027 36.263 1.627 47.203-5.99 6.301-14.052 11.964-23.666 11.964zm-12.758-59.66c-4.027 0-7.504 1.186-9.876 3.681-6.756 7.105-2.446 22.632 9.411 33.904 9.883 9.395 16.933 9.332 26.018-.224 9.085-9.557 8.789-16.603-1.092-25.997h.001c-7.694-7.314-17.018-11.364-24.462-11.364z" fill="#3d6b73"/></g></g><g><path d="m289.056 221.12c16.356 12.867 13.511 25.205 4.774 36.312s-20.059 16.778-36.415 3.911-22.532-32.301-13.795-43.409c8.737-11.107 29.08-9.681 45.436 3.186z" fill="#4f8980"/><g><path d="m274.973 276.299c-6.507 0-13.908-2.542-22.195-9.062-19.912-15.664-26.524-39.357-15.053-53.94 11.472-14.585 36.057-13.735 55.968 1.928 9.374 7.373 14.305 15.587 14.654 24.413.292 7.348-2.529 14.686-8.623 22.432-5.8 7.372-14.069 14.229-24.751 14.229zm-13.903-58.408c-4.921 0-9.071 1.521-11.557 4.681-6.062 7.706-.32 22.762 12.537 32.877 10.717 8.429 17.731 7.711 25.884-2.653 3.794-4.823 5.568-8.933 5.424-12.562-.168-4.237-3.176-8.685-8.939-13.219-7.588-5.969-16.265-9.124-23.349-9.124z" fill="#3d6b73"/></g></g><g><path d="m294.336 297.936c-.142 0-.283-.004-.427-.012-4.135-.231-7.3-3.772-7.068-7.908.097-1.731 2.613-42.989 23.312-93.416 12.175-29.66 28.151-56.311 47.487-79.209 24.229-28.692 53.798-51.515 87.885-67.831 3.735-1.789 4.222.957 6.011 4.695 1.789 3.736 4.202 7.046.465 8.835-32.158 15.395-60.051 36.92-82.9 63.979-18.327 21.704-33.491 47.014-45.071 75.227-19.749 48.114-22.189 88.161-22.212 88.561-.224 3.991-3.532 7.079-7.482 7.079z" fill="#3d6b73"/></g><g><g><path d="m89.278 48.708c-3.344 20.54 7.097 27.703 21.046 29.974s26.123-1.21 29.467-21.75-5.253-39.032-19.201-41.303-27.968 12.538-31.312 33.079z" fill="#4f8980"/><g><path d="m117.258 86.788c-2.551 0-5.26-.235-8.14-.704-9.728-1.583-16.768-5.079-21.522-10.688-5.713-6.737-7.638-16.122-5.721-27.894 1.857-11.402 6.699-21.716 13.635-29.044 7.565-7.99 17.147-11.723 26.284-10.231 9.14 1.487 17.043 8.063 21.681 18.041 4.254 9.149 5.574 20.468 3.718 31.869-1.916 11.771-6.718 20.062-14.272 24.639-4.428 2.682-9.598 4.012-15.663 4.012zm-20.578-36.875c-1.178 7.238-.386 12.549 2.356 15.782 2.35 2.771 6.437 4.598 12.492 5.584 6.056.985 10.512.551 13.619-1.333 3.626-2.197 6.062-6.981 7.24-14.22 1.358-8.344.441-16.776-2.515-23.136-1.475-3.173-4.799-8.633-10.489-9.56-5.688-.926-10.575 3.198-12.98 5.738-4.82 5.095-8.365 12.801-9.723 21.145z" fill="#3d6b73"/></g></g><g><path d="m33.628 64.607c19.154 8.137 28.596-.298 34.122-13.305s5.043-25.66-14.111-33.797-39.16-4.19-44.686 8.817 5.521 30.148 24.675 38.285z" fill="#4f8980"/><g><path d="m47.403 75.36c-4.827 0-10.362-1.154-16.708-3.85 0-.001 0-.001 0-.001-23.318-9.906-35.9-31.043-28.646-48.12 7.257-17.076 31.206-22.695 54.522-12.787 25.638 10.892 23.984 29.738 18.082 43.632-4.442 10.455-12.573 21.126-27.25 21.126zm-10.843-17.656c14.335 6.092 19.922.944 24.287-9.335 5.89-13.863.486-19.446-10.141-23.961-15.057-6.398-31.017-4.179-34.852 4.847-3.832 9.024 5.649 22.052 20.706 28.449z" fill="#3d6b73"/></g></g><g><path d="m90.442 116.168c17.631-11.056 16.113-23.626 8.605-35.599s-18.162-18.815-35.793-7.759-25.837 29.724-18.329 41.697 27.886 12.717 45.517 1.661z" fill="#4f8980"/><g><path d="m65.176 131.556c-11.339 0-21.188-4.425-26.606-13.064-9.856-15.72-.765-38.577 20.699-52.036 10.105-6.336 19.501-8.206 27.927-5.557 7.015 2.204 12.97 7.336 18.206 15.686 5.235 8.35 7.261 15.944 6.189 23.22-1.285 8.738-7.061 16.381-17.165 22.718-9.667 6.061-19.959 9.033-29.25 9.033zm14.347-56.814c-3.477 0-7.592 1.479-12.285 4.423-13.859 8.69-21.168 23.051-15.959 31.358 5.208 8.307 21.317 7.982 35.179-.71 6.213-3.896 9.677-7.998 10.294-12.192.529-3.595-.799-7.869-4.059-13.067s-6.529-8.255-9.995-9.345c-.99-.312-2.049-.467-3.175-.467z" fill="#3d6b73"/></g></g><g><path d="m143.919 180.13c20.362-4.296 23.273-16.619 20.356-30.447s-10.558-23.924-30.921-19.629c-20.362 4.296-34.504 18.988-31.587 32.816 2.918 13.828 21.79 21.555 42.152 17.26z" fill="#4f8980"/><g><path d="m132.558 188.842c-19.267 0-34.979-9.497-38.128-24.423-3.83-18.156 12.588-36.474 37.377-41.704 11.673-2.46 21.135-.976 28.129 4.417 5.824 4.489 9.645 11.359 11.679 21.003 3.115 14.77 1.108 33.582-26.147 39.333-4.408.93-8.744 1.374-12.91 1.374zm9.517-52.285c-2.138 0-4.53.278-7.173.836-16.007 3.377-27.82 14.335-25.796 23.93 2.023 9.593 17.254 14.846 33.265 11.468 15.238-3.215 16.871-10.633 14.565-21.56-1.267-6.004-3.28-10-6.158-12.219-2.122-1.635-5.036-2.455-8.703-2.455z" fill="#3d6b73"/></g></g><g><path d="m174.651 261.075c20.743 1.673 27.039-9.312 28.176-23.399 1.136-14.086-3.317-25.939-24.06-27.613-20.743-1.673-38.48 8.389-39.616 22.476-1.137 14.087 14.757 26.863 35.5 28.536z" fill="#4f8980"/><g><path d="m178.734 268.747c-1.493 0-3.053-.063-4.685-.195h-.001c-11.514-.929-22.187-4.922-30.051-11.243-8.576-6.894-13.067-16.142-12.322-25.372 1.492-18.495 22.432-31.396 47.695-29.348 27.764 2.239 32.146 20.645 30.933 35.69-1.143 14.162-7.656 30.468-31.569 30.468zm-3.48-15.147c13.579 1.095 19.037-3.383 20.098-16.527 1.06-13.143-3.599-18.438-17.188-19.533-16.312-1.323-30.75 5.83-31.538 15.604-.464 5.746 4.042 10.281 6.769 12.474 5.466 4.392 13.433 7.302 21.859 7.982z" fill="#3d6b73"/></g></g><g><path d="m147.987 89.211c-10.554 17.936-3.415 28.393 8.765 35.56s24.788 8.33 35.343-9.606 9.236-38.286-2.944-45.453c-12.18-7.166-30.61 1.564-41.164 19.499z" fill="#4f8980"/><g><path d="m172.068 137.181c-6.865.001-13.501-2.64-19.119-5.945-8.494-4.998-13.791-10.807-16.192-17.756-2.886-8.349-1.281-17.793 4.768-28.072 5.858-9.956 14.106-17.817 23.225-22.137 9.945-4.711 20.225-4.717 28.206-.021s12.967 13.687 13.678 24.667c.652 10.068-2.215 21.097-8.073 31.054-8.03 13.639-17.459 18.21-26.493 18.21zm7.554-62.478c-3.303 0-6.454 1.178-8.452 2.124-6.338 3.002-12.432 8.902-16.719 16.188-3.72 6.32-4.903 11.558-3.519 15.564 1.188 3.435 4.335 6.616 9.623 9.729 11.366 6.688 18.162 4.807 25.075-6.945 4.287-7.286 6.486-15.479 6.033-22.477-.227-3.491-1.348-9.785-6.317-12.709-1.827-1.075-3.801-1.474-5.724-1.474zm-31.635 14.508h.01z" fill="#3d6b73"/></g></g><g><path d="m194.1 147.798c-15.083 14.338-11.097 26.357-1.36 36.599s21.539 14.83 36.621.492 19.416-34.265 9.679-44.508c-9.737-10.242-29.857-6.922-44.94 7.417z" fill="#4f8980"/><g><path d="m210.971 201.529c-9.616 0-17.676-5.662-23.667-11.964-10.4-10.941-18.56-28.011 1.628-47.203h.001c18.36-17.454 42.758-20.597 55.543-7.148 12.784 13.447 8.415 37.654-9.946 55.111-8.56 8.136-16.481 11.204-23.559 11.204zm-11.703-48.296c-9.882 9.394-10.178 16.439-1.093 25.997 9.086 9.555 16.137 9.617 26.02.224 11.856-11.272 16.166-26.799 9.41-33.904-6.754-7.109-22.481-3.588-34.337 7.683z" fill="#3d6b73"/></g></g><g><path d="m217.722 297.936c-3.949 0-7.256-3.086-7.481-7.077-.028-.485-2.565-40.922-22.408-89.041-11.599-28.126-26.765-53.355-45.078-74.989-22.811-26.946-50.635-48.391-82.698-63.74-3.736-1.788.423-3.618 2.212-7.354 1.788-3.736.527-7.963 4.264-6.175 34.087 16.316 63.655 39.139 87.885 67.831 19.336 22.898 35.312 49.549 47.487 79.209 20.698 50.427 23.215 91.685 23.312 93.416.231 4.136-2.934 7.677-7.068 7.908-.144.008-.286.012-.427.012z" fill="#3d6b73"/></g></g><path d="m342.875 476.212h-173.692c-3.91 0-7.08-3.17-7.08-7.08v-177.19c0-3.91 3.17-7.08 7.08-7.08h173.692c3.91 0 7.08 3.17 7.08 7.08v177.19c0 3.91-3.17 7.08-7.08 7.08z" fill="#f6f1f1"/><path d="m331.164 284.862v191.35h11.711c3.91 0 7.08-3.17 7.08-7.08v-177.19c0-3.91-3.17-7.08-7.08-7.08z" fill="#efe7e4"/><path d="m329.594 506.288h-147.13c-3.042 0-5.508-2.466-5.508-5.508v-24.567h158.146v24.567c0 3.041-2.466 5.508-5.508 5.508z" fill="#4a80aa"/><path d="m318.403 476.212v30.076h11.19c3.042 0 5.508-2.466 5.508-5.508v-24.567h-16.698z" fill="#407093"/></g></svg>