<svg id="Capa_1" enable-background="new 0 0 512 512" height="512" viewBox="0 0 512 512" width="512" xmlns="http://www.w3.org/2000/svg"><g><g><path d="m122.389 173.748c.636-9.385 13.653-19.144 26.501-24.782 10.388-4.559 22.612.239 26.867 10.756.05.124.1.249.149.374 4.149 10.604-1.463 22.53-12.199 26.326-13.227 4.677-29.397 6.466-36.282.056z" fill="#4f8980"/></g><g><path d="m106.183 185.881c-4.816 8.081-20.84 10.89-34.848 10.101-11.327-.638-20.054-10.449-19.087-21.753.011-.134.024-.267.037-.401 1.101-11.333 11.504-19.427 22.795-17.952 13.912 1.817 29.139 7.542 32.377 16.374z" fill="#4f8980"/></g><g><path d="m134.296 242.463c2.376 9.102-6.869 22.488-17.262 31.914-8.403 7.621-21.518 6.952-28.892-1.67-.087-.102-.174-.204-.26-.307-7.301-8.738-5.765-21.829 3.21-28.837 11.058-8.635 25.823-15.464 34.387-11.572z" fill="#4f8980"/></g><g><path d="m196.859 259.06c7.171 6.089 7.285 22.357 4.186 36.041-2.506 11.064-13.629 18.045-24.615 15.218-.13-.033-.26-.068-.389-.102-10.994-2.964-17.251-14.565-13.926-25.455 4.098-13.418 12.268-27.486 21.514-29.215z" fill="#4f8980"/></g><path d="m249.38 234.765c-9.826-4.554-20.11-8.312-30.742-11.022-12.147-3.117-24.768-4.784-37.366-4.796-14.93.133-14.339 1.573-25.329-1.672-7.321-2.57-13.114-7.802-17.618-14.234-4.954-7.039-8.63-15.99-11.18-25.475-2.661-9.921-3.988-19.697-4.463-30.204-.229-5.073-4.148-9.345-9.351-9.871-5.718-.578-10.822 3.59-11.4 9.308-1.041 12.605-1.321 22.457.254 35.428.721 5.919 1.816 11.884 3.438 17.869 1.619 5.981 3.782 11.992 6.74 17.889 6.406 12.777 15.918 23.492 28.518 30.349 6.428 3.564 13.413 5.963 20.342 7.377 7.279 1.469 11.14 1.448 17.882 2.187 18.189 2.411 35.51 9.714 51.131 20.172 3.47 2.323 6.855 4.807 10.154 7.415 1.668-14.032 5.127-30.128 8.99-50.72z" fill="#c17d4f"/><g><path d="m404.687 170.425c-9.388.591-20.759-11.044-28.022-23.048-5.873-9.706-2.707-22.45 7.165-28.039.117-.066.234-.131.351-.196 9.973-5.494 22.529-1.483 27.69 8.667 6.36 12.506 10.238 28.304 4.78 35.965z" fill="#4f8980"/></g><g><path d="m368.766 197.009c8.013 4.928 10.6 20.989 9.617 34.985-.795 11.317-10.727 19.907-22.015 18.784-.133-.013-.267-.027-.4-.042-11.317-1.258-19.265-11.772-17.634-23.041 2.01-13.885 7.946-29.031 16.822-32.146z" fill="#4f8980"/></g><g><path d="m412.635 180.17c7.642-5.486 23.455-1.664 35.984 4.651 10.13 5.106 14.215 17.587 8.816 27.564-.064.118-.128.236-.194.353-5.534 9.951-18.303 13.219-28.066 7.359-12.03-7.22-23.705-18.548-23.147-27.938z" fill="#4f8980"/></g><g><path d="m439.873 139.548c-3.63-1.648-7.851-.335-9.946 2.921-4.341 6.743-8.963 12.677-14.52 18.195-5.317 5.274-11.171 9.764-17.134 12.504-5.435 2.513-11.258 3.74-17.068 2.628-8.505-2.083-7.528-2.787-17.334-8.608-8.307-4.822-17.264-8.561-26.465-11.163-9.203-2.62-18.631-4.161-28.033-4.808-3.897-.267-7.79-.377-11.675-.355 1.291 13.533 2.765 25.863 4.324 37.168 2.304-.28 4.61-.502 6.914-.647 14.304-.904 28.519.923 41.43 6.306 4.727 2.097 7.263 3.591 12.624 5.413 5.108 1.724 10.632 2.821 16.234 2.936 10.935.311 21.311-3.105 30.429-9.07 4.21-2.753 7.94-5.885 11.3-9.206 3.363-3.322 6.372-6.834 9.116-10.458 6.01-7.945 9.603-14.545 13.748-23.252 1.812-3.99.046-8.693-3.944-10.504z" fill="#c17d4f"/></g><path d="m271.442 59.547c-4.295 12.801-25.917 21.619-45.806 24.777-16.082 2.554-31.31-8.553-33.395-24.702-.025-.191-.048-.382-.071-.573-1.906-16.232 10.223-30.752 26.509-32.12 20.067-1.686 43.169 1.709 50.399 13.112z" fill="#4f8980"/><g><path d="m287.265 80.747c4.295-12.801 25.917-21.619 45.806-24.777 16.082-2.554 31.31 8.553 33.395 24.702.025.191.048.382.071.573 1.906 16.232-10.223 30.752-26.509 32.12-20.067 1.686-43.169-1.709-50.399-13.112z" fill="#4f8980"/></g><g><path d="m261.766 168.648c-8.649 9.373-30.693 8.617-49.055 3.653-14.847-4.014-23.681-19.471-19.237-34.196.053-.174.106-.348.161-.521 4.63-14.727 20.695-22.554 35.261-17.439 17.947 6.302 36.546 18.156 38.37 30.778z" fill="#4f8980"/></g><g><path d="m317.706 296.114c2.33-9.114 16.902-16.347 30.56-19.559 11.043-2.597 22.193 4.341 24.468 15.455.027.131.053.263.078.395 2.155 11.181-5.53 21.89-16.776 23.674-13.857 2.198-30.082 1.021-35.689-6.532z" fill="#4f8980"/></g><path d="m260.221 363.351c-55.661-78.942 8.006-85.499 3.743-347.492-.141-8.71 6.868-15.859 15.58-15.859 8.712 0 15.722 7.149 15.58 15.859-4.263 261.993 59.404 268.55 3.743 347.492z" fill="#c6865c"/><path d="m377.041 481.017h-194.994c-2.231 0-4.103-1.684-4.338-3.902l-13.427-126.589c-.273-2.577 1.747-4.823 4.338-4.823h221.849c2.591 0 4.611 2.246 4.338 4.823l-13.427 126.588c-.236 2.219-2.107 3.903-4.339 3.903z" fill="#f6f1f1"/><path d="m373.995 345.703-14.353 135.314h17.399c2.231 0 4.103-1.684 4.338-3.902l13.427-126.589c.273-2.577-1.747-4.823-4.338-4.823z" fill="#efe7e4"/><path d="m359.77 512h-160.452c-3.526 0-6.384-2.858-6.384-6.384v-24.599h173.221v24.599c0 3.526-2.859 6.384-6.385 6.384z" fill="#4a80aa"/><path d="m348.952 481.017v30.983h10.818c3.526 0 6.384-2.858 6.384-6.384v-24.599z" fill="#407093"/><g><g><path d="m279.543 318.683c-6.419 0-12.837-1.363-19.211-4.091-3.924-1.678-5.742-6.219-4.064-10.143 1.678-3.923 6.216-5.744 10.143-4.064 8.837 3.781 17.43 3.78 26.267 0 3.925-1.679 8.464.142 10.143 4.064 1.678 3.924-.141 8.465-4.064 10.143-6.376 2.728-12.794 4.091-19.214 4.091z" fill="#c17d4f"/></g><g><path d="m279.543 285.474c-6.419 0-12.837-1.363-19.21-4.09-3.924-1.678-5.743-6.219-4.065-10.142 1.676-3.924 6.215-5.748 10.142-4.065 8.839 3.781 17.43 3.78 26.269 0 3.924-1.679 8.463.142 10.142 4.065 1.678 3.923-.142 8.464-4.065 10.142-6.375 2.727-12.793 4.09-19.213 4.09z" fill="#c17d4f"/></g><g><path d="m279.543 251.535c-4.926 0-9.852-1.161-14.744-3.483-3.854-1.83-5.496-6.439-3.666-10.294s6.439-5.496 10.294-3.666c5.537 2.63 10.697 2.629 16.234 0 3.856-1.83 8.464-.189 10.294 3.666s.188 8.464-3.666 10.294c-4.892 2.322-9.819 3.483-14.746 3.483z" fill="#c17d4f"/></g><g><path d="m279.544 217.315c-3.525 0-7.05-.836-10.479-2.509-3.834-1.872-5.426-6.498-3.554-10.333 1.871-3.833 6.496-5.426 10.333-3.554 2.594 1.266 4.806 1.269 7.399 0 3.835-1.871 8.461-.279 10.333 3.554 1.871 3.834.281 8.461-3.554 10.333-3.426 1.673-6.952 2.509-10.478 2.509z" fill="#c17d4f"/></g></g></g></svg>