<svg id="Capa_1" enable-background="new 0 0 512 512" height="512" viewBox="0 0 512 512" width="512" xmlns="http://www.w3.org/2000/svg"><g><g><path d="m144.929 308.415c-2.204 0-4.391-.953-5.896-2.793-2.661-3.254-2.18-8.05 1.073-10.711 19.883-16.261 13.495-53.007 6.098-95.556-8.71-50.094-18.581-106.872 6.072-158.365 1.814-3.793 6.358-5.394 10.152-3.579 3.792 1.816 5.394 6.361 3.579 10.152-22.552 47.105-13.124 101.337-4.805 149.185 8.214 47.25 15.308 88.057-11.459 109.948-1.413 1.156-3.119 1.719-4.814 1.719z" fill="#69af81"/></g><path d="m46.137 492.289c-.732-1.787-1.339-3.661-1.82-5.618-.793-3.227 1.656-6.349 4.979-6.349h192.312c3.323 0 5.772 3.122 4.979 6.349-.481 1.957-1.088 3.831-1.82 5.618-4.946 12.066-16.98 19.711-30.021 19.711h-138.588c-13.041 0-25.075-7.645-30.021-19.711z" fill="#9d6b6b"/><path d="m241.608 480.322h-24.06c3.323 0 5.772 3.122 4.979 6.349-.481 1.957-1.088 3.831-1.82 5.618-4.946 12.066-16.98 19.711-30.021 19.711h24.06c13.041 0 25.075-7.644 30.021-19.711.732-1.787 1.339-3.661 1.82-5.618.793-3.227-1.656-6.349-4.979-6.349z" fill="#8b5e5e"/><path d="m84.378 480.322c-33.216-56.561-44.944-98.454-35.182-181.324.517-4.392 4.255-7.697 8.677-7.697h175.158c4.422 0 8.16 3.305 8.677 7.697 9.762 82.871-1.966 124.764-35.182 181.324z" fill="#c6865c"/><path d="m233.031 291.301h-14.01c11.41 88.026 0 130.736-34.229 189.021h21.734c33.216-56.561 44.944-98.454 35.182-181.324-.517-4.392-4.255-7.697-8.677-7.697z" fill="#c17d4f"/><path d="m30.045 68.267c12.934 14.541 25.047 33.016 26.682 51.13.494 5.469 6.013 8.995 11.172 7.112l29.956-10.932c3.756-1.371 6.013-5.212 5.382-9.161l-3.002-18.783 14.92-11.799c3.136-2.48 4.074-6.836 2.236-10.387l-14.659-28.319c-2.525-4.877-8.974-6.016-13.038-2.323-13.461 12.233-34.882 17.64-54.244 19.594-6.802.687-9.948 8.76-5.405 13.868z" fill="#95d6a4"/><g><path d="m143.033 125.577c-1.804 0-3.612-.636-5.064-1.931-.422-.377-42.604-37.728-76.509-45.178-4.106-.902-6.703-4.962-5.801-9.067.902-4.106 4.964-6.704 9.067-5.801 37.819 8.31 81.535 47.044 83.378 48.689 3.136 2.799 3.408 7.609.611 10.744-1.503 1.684-3.588 2.544-5.682 2.544z" fill="#69af81"/></g><g><path d="m79.425 102.58c-4.099 0-7.481-3.26-7.605-7.384l-.568-18.967c-.061-2.082.731-4.098 2.196-5.58l12.114-12.252c2.955-2.989 7.774-3.016 10.764-.06 2.989 2.955 3.016 7.775.06 10.764l-9.821 9.933.471 15.707c.126 4.202-3.179 7.711-7.381 7.836-.076.002-.154.003-.23.003z" fill="#69af81"/></g><g><path d="m262.477 71.338c-17.359 8.798-35.394 21.557-43.545 37.816-2.461 4.909-8.888 6.17-13 2.53l-23.876-21.138c-2.994-2.651-3.688-7.052-1.656-10.495l9.668-16.381-9.566-16.441c-2.011-3.456-1.289-7.853 1.721-10.485l24.007-20.988c4.134-3.615 10.553-2.314 12.984 2.611 8.049 16.309 26.004 29.182 43.308 38.088 6.08 3.128 6.053 11.793-.045 14.883z" fill="#95d6a4"/><g><path d="m150.041 82.605c-2.945 0-5.748-1.718-6.991-4.592-1.668-3.857.103-8.335 3.959-10.005 1.878-.814 46.453-19.855 84.9-13.71 4.152.663 6.979 4.566 6.316 8.717-.663 4.152-4.563 6.976-8.717 6.316-34.033-5.433-76.034 12.467-76.454 12.648-.982.425-2.006.626-3.013.626z" fill="#69af81"/></g><g><path d="m206.743 85.724c-1 0-2.016-.198-2.993-.616-3.864-1.656-5.655-6.13-4-9.994l6.187-14.445-5.504-12.838c-1.656-3.863.133-8.338 3.997-9.995 3.862-1.658 8.338.134 9.995 3.997l6.79 15.836c.821 1.914.821 4.081.001 5.996l-7.472 17.443c-1.237 2.887-4.047 4.616-7.001 4.616z" fill="#69af81"/></g></g><g><path d="m301.987 141.796c-7.025 15.964-12.45 35.804-7.797 51.619 1.038 3.529-1.665 7.044-5.342 6.977l-29.634-.544c-2.616-.048-4.83-1.944-5.281-4.521l-2.928-16.749-16.043-5.631c-2.469-.866-3.976-3.361-3.595-5.95l4.315-29.323c.535-3.639 4.446-5.73 7.757-4.128 14.84 7.179 35.3 5.075 52.199.759 4.421-1.13 8.187 3.314 6.349 7.491z" fill="#95d6a4"/><g><path d="m227.964 219.798c-1.204 0-2.426-.286-3.565-.892-3.711-1.972-5.122-6.577-3.151-10.289.807-1.519 20.045-37.43 44.407-55.512 3.374-2.505 8.143-1.801 10.648 1.576 2.505 3.376 1.8 8.143-1.576 10.648-21.578 16.016-39.854 50.088-40.036 50.43-1.367 2.572-4.002 4.039-6.727 4.039z" fill="#69af81"/></g></g><g><path d="m425.344 211.99c-11.101 13.452-21.717 31.069-21.54 47.554.04 3.678-3.517 6.326-7.038 5.261l-32.682-9.886 2.196-21.396-17.593-12.373 13.969-31.156c1.505-3.356 5.836-4.305 8.587-1.863 12.329 10.944 32.59 14.483 50.026 14.924 4.563.114 6.98 5.415 4.075 8.935z" fill="#95d6a4"/><g><path d="m326.469 283.491c-.921 0-1.857-.168-2.767-.524-3.905-1.53-5.841-5.92-4.324-9.831.691-1.779 17.494-43.758 68.28-60.268 3.993-1.295 8.291.888 9.592 4.886 1.299 3.998-.888 8.292-4.886 9.592-43.688 14.201-58.656 50.951-58.802 51.32-1.184 2.992-4.057 4.825-7.093 4.825z" fill="#69af81"/></g></g><g><path d="m269.781 340.114c3.178-17.149 9.86-36.602 22.607-47.056 2.844-2.333 2.589-6.759-.489-8.773l-24.801-16.229c-2.189-1.432-5.087-1.112-6.91.765l-11.847 12.196-16.43-4.375c-2.528-.673-5.179.541-6.321 2.894l-12.937 26.666c-1.606 3.309.45 7.238 4.089 7.778 16.307 2.418 32.035 15.672 43.574 28.751 3.019 3.424 8.633 1.871 9.465-2.617z" fill="#95d6a4"/><g><path d="m253.309 315.434c-2.804 0-5.501-1.555-6.829-4.239-18.378-37.151-.35-81.648.427-83.524 1.608-3.884 6.058-5.731 9.944-4.122 3.881 1.607 5.726 6.052 4.126 9.934-.163.397-16.133 40.073-.851 70.963 1.863 3.767.32 8.333-3.448 10.197-1.084.536-2.235.791-3.369.791z" fill="#69af81"/></g></g><g><path d="m400.212 419.045c5.462-16.564 14.706-34.938 28.747-43.577 3.133-1.928 3.477-6.348.698-8.759l-22.386-19.425c-1.976-1.715-4.89-1.788-6.95-.174l-13.384 10.487-15.69-6.551c-2.414-1.008-5.204-.163-6.653 2.016l-16.415 24.678c-2.037 3.063-.53 7.233 3.002 8.258 15.832 4.595 29.629 19.85 39.298 34.366 2.531 3.797 8.304 3.015 9.733-1.319z" fill="#95d6a4"/><g><path d="m388.24 392.437c-3.18 0-6.146-2.008-7.214-5.189-9.577-28.504.36-58.316 7.136-73.549 1.708-3.841 6.209-5.568 10.048-3.861 3.841 1.709 5.57 6.207 3.861 10.048-5.876 13.211-14.548 38.899-6.614 62.514 1.339 3.985-.806 8.3-4.791 9.639-.805.27-1.622.398-2.426.398z" fill="#69af81"/></g></g><g><path d="m42.938 244.562c19.425-1.179 41.436.72 56.685 10.633 4.604 2.993 10.788.834 12.497-4.385l9.924-30.305c1.244-3.8-.38-7.949-3.874-9.894l-16.62-9.251-.052-19.021c-.011-3.999-2.855-7.428-6.783-8.178l-31.322-5.982c-5.394-1.03-10.276 3.336-9.885 8.813 1.294 18.142-7.696 38.322-18.129 54.75-3.666 5.77.735 13.234 7.559 12.82z" fill="#95d6a4"/><g><path d="m65.545 227.905c-2.198 0-4.379-.947-5.883-2.778-2.67-3.247-2.202-8.044 1.046-10.713 29.993-24.659 80.935-32.533 83.089-32.856 4.157-.62 8.033 2.241 8.656 6.398.623 4.156-2.239 8.031-6.394 8.656-.487.073-48.968 7.597-75.684 29.56-1.417 1.165-3.129 1.733-4.83 1.733z" fill="#69af81"/></g><g><path d="m94.447 229.859c-1.572 0-3.157-.485-4.517-1.491l-15.261-11.278c-1.676-1.238-2.77-3.108-3.029-5.174l-2.142-17.096c-.523-4.171 2.435-7.976 6.606-8.499 4.163-.528 7.976 2.434 8.499 6.606l1.736 13.86 12.637 9.339c3.382 2.498 4.096 7.264 1.598 10.644-1.493 2.021-3.795 3.089-6.127 3.089z" fill="#69af81"/></g></g><g><path d="m476.484 345.681c-.278 0-.56-.016-.842-.047-73.544-8.096-128.266-44.977-176.546-77.517-26.946-18.16-50.217-33.844-72.682-41.7-23.799-8.322-43.185-6.588-62.861 5.619-3.573 2.215-8.265 1.118-10.481-2.455-2.216-3.572-1.117-8.265 2.455-10.481 51.068-31.684 97.877-.137 152.077 36.393 46.822 31.557 99.891 67.323 169.704 75.009 4.178.46 7.193 4.22 6.733 8.398-.43 3.897-3.728 6.781-7.557 6.781z" fill="#69af81"/></g><g><path d="m148.126 166.829c-1.109 0-2.236-.244-3.302-.758-3.786-1.828-5.374-6.378-3.547-10.164 7.935-16.44 19.508-22.976 27.821-25.565 9.035-2.814 16.222-1.677 17.013-1.538 4.14.727 6.906 4.674 6.178 8.815-.723 4.118-4.631 6.881-8.748 6.189-.899-.131-18.341-2.445-28.553 18.716-1.314 2.72-4.032 4.305-6.862 4.305z" fill="#69af81"/></g><g><path d="m426.104 334.969c-1.566 0-3.146-.482-4.503-1.481-3.381-2.49-4.112-7.239-1.629-10.624.805-1.095 19.968-26.839 44.585-25.856 4.2.168 7.47 3.71 7.301 7.91-.169 4.199-3.666 7.461-7.91 7.301-.252-.01-.504-.015-.755-.015-13.433 0-26.85 14.125-30.954 19.675-1.494 2.02-3.8 3.09-6.135 3.09z" fill="#69af81"/></g><g><path d="m160.081 273.201c-1.642 0-3.295-.528-4.688-1.618l-15.638-12.245c-3.309-2.592-3.892-7.376-1.3-10.686 2.593-3.31 7.375-3.891 10.686-1.3l15.638 12.245c3.309 2.592 3.892 7.376 1.3 10.686-1.501 1.916-3.738 2.918-5.998 2.918z" fill="#69af81"/></g><g><path d="m279.048 253.266c-2.505 0-4.958-1.236-6.412-3.501-2.271-3.538-1.244-8.247 2.293-10.517l19.818-12.721c3.538-2.272 8.246-1.243 10.517 2.293 2.271 3.538 1.244 8.247-2.293 10.517l-19.818 12.721c-1.273.817-2.698 1.208-4.105 1.208z" fill="#69af81"/></g><g><path d="m202.206 243.366c-3.039 0-5.909-1.832-7.086-4.831l-8.46-21.54c-1.537-3.913.389-8.331 4.301-9.867 3.914-1.537 8.331.389 9.867 4.301l8.46 21.54c1.537 3.913-.389 8.331-4.301 9.867-.914.359-1.855.53-2.781.53z" fill="#69af81"/></g><g><path d="m151.538 71.355c-2.097 0-4.183-.863-5.685-2.557-.939-1.059-22.956-26.356-18.994-62.027.464-4.177 4.221-7.188 8.405-6.724 4.177.464 7.188 4.227 6.724 8.405-3.197 28.785 15.086 50.054 15.272 50.266 2.762 3.156 2.459 7.961-.689 10.733-1.448 1.276-3.245 1.904-5.033 1.904z" fill="#69af81"/></g><g><path d="m348.678 323.591c-3.833 0-7.13-2.886-7.557-6.783l-2.909-26.535c-.458-4.178 2.558-7.938 6.736-8.395 4.183-.46 7.938 2.558 8.395 6.736l2.909 26.535c.458 4.178-2.558 7.938-6.736 8.395-.281.031-.562.047-.838.047z" fill="#69af81"/></g></g></svg>