<svg id="Capa_1" enable-background="new 0 0 512.004 512.004" height="512" viewBox="0 0 512.004 512.004" width="512" xmlns="http://www.w3.org/2000/svg"><g><g><path d="m337.379 248.723h-162.754c-2.298 0-4.472-1.048-5.903-2.846-1.431-1.799-1.965-4.151-1.449-6.391l53.789-233.631c.935-4.061 4.988-6.598 9.044-5.659 4.06.934 6.594 4.984 5.659 9.044l-51.661 224.395h143.797l-51.662-224.395c-.935-4.06 1.599-8.11 5.659-9.044 4.052-.94 8.11 1.597 9.044 5.659l53.788 233.632c.516 2.24-.018 4.592-1.449 6.391-1.431 1.797-3.603 2.845-5.902 2.845z" fill="#efe7e4"/></g><path d="m240.191 147.26c-6.465-3.717-14.567-3.13-20.43 1.479-3.025 2.379-5.372 4.748-7.13 7.064-.214.282-.55.444-.904.436s-.682-.185-.883-.477c-2.227-3.233-5.818-6.459-11.054-9.469-6.465-3.717-14.567-3.131-20.43 1.479-8.522 6.701-11.715 13.327-11.311 18.913.027.378-.141.743-.445.967-.304.225-.702.277-1.055.14-5.963-2.32-12.807-1.378-17.939 2.657-8.522 6.701-9.704 13.328-9.299 18.914.46 6.361 12.263 27.411 19.021 26.922 3.723-.27 90.257-23.093 93.98-23.363 6.757-.489 2.257-22.214 1.797-28.575-.405-5.586-4.519-11.684-13.918-17.087z" fill="#4f8980"/><path d="m271.813 147.26c6.465-3.717 14.567-3.13 20.43 1.479 3.026 2.379 5.372 4.748 7.13 7.065.214.282.55.444.904.436s.682-.185.883-.477c2.227-3.233 5.818-6.459 11.055-9.47 6.465-3.717 14.567-3.131 20.43 1.479 8.522 6.701 11.715 13.327 11.311 18.913-.027.378.141.743.445.967.304.225.702.277 1.055.14 5.963-2.32 12.808-1.378 17.939 2.657 8.522 6.701 9.704 13.328 9.299 18.914-.461 6.361-12.263 27.411-19.021 26.922-3.723-.27-90.257-23.093-93.98-23.363-6.757-.489-2.257-22.214-1.797-28.575.404-5.586 4.518-11.684 13.917-17.087z" fill="#4f8980"/><path d="m265.53 166.3c-6.33.974-12.726.974-19.056 0-3.483-.536-7.121-.076-10.461 1.454-9.916 4.541-14.604 10.268-15.527 15.826 0 .002-.001.003-.001.005-.005.033-.033.058-.067.059-2.475.047-4.96.581-7.299 1.653-8.609 3.942-13.268 8.778-14.952 13.622-.125.358-.424.627-.794.713s-.757-.025-1.026-.293c-.284-.284-.576-.568-.879-.854-5.516-5.208-13.722-6.376-20.598-3.171-6.002 2.797-10.039 6.034-12.466 9.398-.272.377-.752.543-1.198.415-2.041-.586-4.319-1.046-6.86-1.351-7.487-.899-14.828 2.831-18.441 9.45-5.224 9.57-5.551 16.962-2.965 21.967 2.946 5.7 9.649 21.83 15.704 18.7 0 0 211.378 2.025 214.714 3.75 6.055 3.129 12.758-16.75 15.704-22.45 2.586-5.005 2.259-12.397-2.965-21.967-3.613-6.619-10.954-10.349-18.441-9.45-2.502.301-4.749.752-6.766 1.325-.502.143-1.04-.043-1.348-.465-2.433-3.337-6.454-6.546-12.411-9.321-6.876-3.204-15.082-2.036-20.598 3.171-.247.233-.488.466-.722.698-.302.299-.735.423-1.15.33-.414-.093-.752-.391-.897-.79-1.74-4.778-6.389-9.536-14.882-13.425-2.338-1.071-4.821-1.605-7.295-1.652-.035-.001-.065-.027-.071-.062 0-.001 0-.001 0-.002-.923-5.558-5.611-11.285-15.527-15.826-3.338-1.533-6.976-1.993-10.459-1.457z" fill="#69af81"/><path d="m145.496 329.882c-15.529-25.298-22.63-53.759-21.305-85.385.078-1.859 1.63-3.317 3.491-3.317h256.64c1.861 0 3.413 1.458 3.491 3.317 1.326 31.626-5.776 60.088-21.305 85.385-17.672 28.79-49.21 46.15-82.991 46.15h-55.031c-33.78-.001-65.318-17.361-82.99-46.15z" fill="#c6865c"/><path d="m384.322 241.179h-21.396c1.979 32.956-5.066 62.523-21.136 88.703-17.672 28.79-49.21 46.15-82.991 46.15h24.718c33.781 0 65.319-17.36 82.991-46.15 15.529-25.298 22.63-53.759 21.305-85.385-.078-1.86-1.63-3.318-3.491-3.318z" fill="#c17d4f"/><g><path d="m250.663 212.082c-2.145 0-4.275-.91-5.768-2.676-1.35-1.598-2.78-2.515-3.924-2.515s-2.574.917-3.924 2.515c-2.688 3.183-7.448 3.584-10.632.895-3.183-2.689-3.584-7.448-.896-10.631 4.285-5.074 9.773-7.867 15.451-7.867s11.167 2.794 15.451 7.867c2.689 3.183 2.287 7.942-.896 10.631-1.414 1.196-3.143 1.781-4.862 1.781z" fill="#5ea570"/></g><g><path d="m298.07 222.17c-2.144 0-4.275-.91-5.767-2.676-1.35-1.598-2.78-2.515-3.924-2.515s-2.575.917-3.924 2.515c-2.689 3.183-7.447 3.583-10.631.895-3.184-2.689-3.584-7.448-.896-10.631 4.285-5.074 9.772-7.867 15.451-7.867s11.166 2.794 15.451 7.867c2.689 3.183 2.288 7.942-.896 10.631-1.417 1.197-3.145 1.781-4.864 1.781z" fill="#5ea570"/></g><g><path d="m30.117 512.004c-2.26 0-4.496-1.011-5.981-2.94-2.543-3.301-1.929-8.037 1.371-10.581 2.473-1.906 5.916-4.04 10.274-6.743 27.149-16.835 83.641-51.867 65.208-127.892-9.184-37.877.213-72.896 27.173-101.27 20.022-21.073 42.524-30.933 43.472-31.343 3.826-1.649 8.265.11 9.917 3.935 1.651 3.823-.108 8.259-3.927 9.914-.317.139-21.019 9.308-38.858 28.241-23.326 24.755-31.103 54.016-23.112 86.968 21.007 86.645-44.113 127.027-71.92 144.271-3.836 2.379-7.15 4.433-9.017 5.872-1.372 1.057-2.992 1.568-4.6 1.568z" fill="#4f8980"/></g><g><path d="m190.778 488.712c-2.952 0-5.755-1.744-6.963-4.639-.465-1.114-11.431-27.675-15.202-61.715-5.101-46.043 5.698-83.497 31.229-108.311 31.619-30.733 12.698-67.773 11.877-69.334-1.934-3.68-.533-8.242 3.139-10.188 3.674-1.948 8.222-.566 10.181 3.099.265.496 6.502 12.333 7.825 28.872 1.236 15.448-1.666 38.114-22.505 58.369-53.801 52.292-13.036 152.395-12.618 153.4 1.6 3.846-.219 8.261-4.063 9.863-.949.396-1.933.584-2.9.584z" fill="#4f8980"/></g><g><path d="m121.744 277.681c.598 3.372 4.091 5.337 7.283 4.098 3.156-1.225 6.98-1.562 10.986.692 7.271 4.091 8.975 12.788 5.124 19.632-3.382 6.01-11.165 10.644-24.47 11.731-9.153.748-17.87-4.157-21.982-12.368-5.977-11.936-6.057-20.994-2.675-27.005 3.851-6.845 12.169-9.902 19.44-5.811 4.005 2.254 5.703 5.697 6.294 9.031z" fill="#69af81"/></g><g><path d="m217.52 287.286c.772 3.336 4.363 5.117 7.486 3.713 3.088-1.388 6.889-1.923 11.007.12 7.474 3.707 9.628 12.303 6.138 19.339-3.065 6.178-10.597 11.21-23.827 12.988-9.101 1.223-18.062-3.222-22.595-11.208-6.59-11.609-7.14-20.651-4.076-26.829 3.49-7.035 11.637-10.522 19.111-6.814 4.119 2.042 5.993 5.393 6.756 8.691z" fill="#69af81"/></g><g><path d="m185.011 354.315c.772 3.336 4.363 5.117 7.486 3.713 3.088-1.388 6.889-1.923 11.007.12 7.474 3.707 9.628 12.303 6.138 19.339-3.065 6.178-10.597 11.21-23.827 12.988-9.101 1.223-18.062-3.222-22.595-11.208-6.59-11.609-7.14-20.651-4.076-26.829 3.49-7.035 11.637-10.522 19.111-6.814 4.119 2.042 5.993 5.393 6.756 8.691z" fill="#69af81"/></g><g><path d="m174.047 425.094c2.521 2.318 6.49 1.761 8.275-1.161 1.765-2.888 4.601-5.476 9.153-6.115 8.262-1.159 14.893 4.72 15.984 12.498.958 6.83-2.418 15.235-12.335 24.172-6.822 6.147-16.728 7.537-24.978 3.504-11.993-5.862-17.552-13.014-18.51-19.844-1.091-7.777 3.666-15.254 11.928-16.413 4.553-.64 7.992 1.068 10.483 3.359z" fill="#69af81"/></g><g><path d="m102.716 349.813c2.389 2.453 6.383 2.116 8.327-.703 1.922-2.787 4.896-5.214 9.476-5.601 8.313-.702 14.61 5.534 15.271 13.359.58 6.872-3.254 15.079-13.648 23.455-7.15 5.762-17.118 6.604-25.133 2.122-11.652-6.514-16.808-13.962-17.388-20.834-.661-7.826 4.501-15.029 12.814-15.731 4.58-.386 7.919 1.508 10.281 3.933z" fill="#69af81"/></g><g><path d="m103.239 414.838c1.24 3.192 5.048 4.443 7.939 2.607 2.858-1.814 6.544-2.886 10.912-1.452 7.926 2.603 11.285 10.804 8.835 18.265-2.152 6.552-8.888 12.608-21.73 16.255-8.834 2.509-18.337-.612-23.964-7.87-8.179-10.55-10.014-19.421-7.862-25.973 2.45-7.461 10.017-12.074 17.943-9.472 4.368 1.436 6.701 4.485 7.927 7.64z" fill="#69af81"/></g><g><path d="m68.887 468.974c-.656 3.361 1.895 6.452 5.32 6.444 3.385-.008 7.074 1.055 10.001 4.6 5.311 6.434 3.771 15.161-2.285 20.161-5.318 4.391-14.248 5.913-27.052 2.138-8.809-2.596-15.177-10.31-16.058-19.451-1.281-13.288 1.905-21.767 7.223-26.158 6.056-5 14.917-4.859 20.228 1.575 2.927 3.544 3.272 7.368 2.623 10.691z" fill="#69af81"/></g><g><path d="m481.886 512.004c-1.607 0-3.227-.511-4.598-1.568-1.867-1.439-5.181-3.493-9.018-5.873-27.806-17.244-92.926-57.626-71.919-144.27 7.99-32.952.214-62.212-23.112-86.968-17.887-18.983-38.652-28.151-38.861-28.242-3.816-1.661-5.572-6.101-3.916-9.92 1.656-3.818 6.085-5.578 9.908-3.927.948.41 23.45 10.27 43.472 31.343 26.961 28.374 36.357 63.393 27.173 101.27-18.432 76.025 38.059 111.056 65.207 127.892 4.359 2.702 7.802 4.837 10.274 6.743 3.301 2.543 3.915 7.281 1.372 10.581-1.486 1.928-3.722 2.939-5.982 2.939z" fill="#4f8980"/></g><g><path d="m321.224 488.714c-.969 0-1.953-.188-2.903-.584-3.846-1.604-5.661-6.023-4.056-9.867.416-1.001 41.182-101.104-12.62-153.396-20.839-20.255-23.741-42.921-22.506-58.369 1.323-16.539 7.56-28.376 7.825-28.872 1.963-3.675 6.534-5.064 10.209-3.099 3.669 1.961 5.058 6.52 3.108 10.192-.856 1.63-19.708 38.627 11.88 69.33 25.531 24.814 36.33 62.268 31.23 108.311-3.771 34.04-14.738 60.601-15.203 61.715-1.208 2.894-4.011 4.639-6.964 4.639z" fill="#4f8980"/></g><g><path d="m390.26 277.681c-.598 3.372-4.091 5.337-7.283 4.098-3.155-1.225-6.98-1.562-10.986.692-7.271 4.091-8.975 12.788-5.124 19.632 3.382 6.01 11.165 10.644 24.47 11.731 9.153.748 17.87-4.157 21.982-12.368 5.977-11.936 6.057-20.994 2.675-27.005-3.851-6.845-12.169-9.902-19.44-5.811-4.005 2.254-5.703 5.697-6.294 9.031z" fill="#69af81"/></g><g><path d="m294.484 287.286c-.772 3.336-4.363 5.117-7.486 3.713-3.088-1.388-6.889-1.923-11.007.12-7.474 3.707-9.628 12.303-6.138 19.339 3.065 6.178 10.596 11.21 23.827 12.988 9.101 1.223 18.062-3.222 22.595-11.208 6.59-11.609 7.14-20.651 4.076-26.829-3.49-7.035-11.637-10.522-19.111-6.814-4.119 2.042-5.993 5.393-6.756 8.691z" fill="#69af81"/></g><g><path d="m326.993 354.315c-.772 3.336-4.363 5.117-7.486 3.713-3.088-1.388-6.889-1.923-11.007.12-7.474 3.707-9.628 12.303-6.138 19.339 3.065 6.178 10.596 11.21 23.827 12.988 9.101 1.223 18.062-3.222 22.595-11.208 6.59-11.609 7.14-20.651 4.076-26.829-3.49-7.035-11.637-10.522-19.111-6.814-4.119 2.042-5.993 5.393-6.756 8.691z" fill="#69af81"/></g><g><path d="m337.957 425.094c-2.521 2.318-6.49 1.761-8.275-1.161-1.765-2.888-4.601-5.476-9.153-6.115-8.262-1.159-14.893 4.72-15.984 12.498-.958 6.83 2.418 15.235 12.335 24.172 6.822 6.147 16.728 7.537 24.978 3.504 11.993-5.862 17.552-13.014 18.51-19.844 1.091-7.777-3.666-15.254-11.928-16.413-4.553-.64-7.991 1.068-10.483 3.359z" fill="#69af81"/></g><g><path d="m409.288 349.813c-2.389 2.453-6.383 2.116-8.327-.703-1.922-2.787-4.896-5.214-9.476-5.601-8.313-.702-14.61 5.534-15.271 13.359-.58 6.872 3.254 15.079 13.648 23.455 7.15 5.762 17.118 6.604 25.133 2.122 11.652-6.514 16.808-13.962 17.388-20.834.661-7.826-4.501-15.029-12.814-15.731-4.58-.386-7.919 1.508-10.281 3.933z" fill="#69af81"/></g><g><path d="m408.765 414.838c-1.24 3.192-5.048 4.443-7.939 2.607-2.858-1.814-6.544-2.886-10.912-1.452-7.926 2.603-11.285 10.804-8.835 18.265 2.152 6.552 8.888 12.608 21.73 16.255 8.834 2.509 18.337-.612 23.964-7.87 8.179-10.55 10.014-19.421 7.862-25.973-2.45-7.461-10.017-12.074-17.943-9.472-4.368 1.436-6.701 4.485-7.927 7.64z" fill="#69af81"/></g><path d="m443.117 468.974c.656 3.361-1.895 6.452-5.32 6.444-3.385-.008-7.074 1.055-10.001 4.6-5.311 6.434-3.771 15.161 2.285 20.161 5.318 4.391 14.248 5.913 27.052 2.138 8.809-2.596 15.177-10.31 16.058-19.451 1.281-13.288-1.905-21.767-7.223-26.158-6.056-5-14.917-4.859-20.228 1.575-2.927 3.544-3.272 7.368-2.623 10.691z" fill="#69af81"/></g></svg>