<svg id="Capa_1" enable-background="new 0 0 512 512" height="512" viewBox="0 0 512 512" width="512" xmlns="http://www.w3.org/2000/svg"><g><g><path d="m291.134 148.558c-1.295 0-2.607-.33-3.808-1.026-3.637-2.106-4.879-6.763-2.772-10.401.223-.386 22.482-39.346 18.147-67.852-3.015-19.833.177-34.634 9.489-43.995 11.991-12.056 29.203-9.688 29.931-9.584 4.16.61 7.037 4.476 6.427 8.635-.608 4.145-4.441 7.019-8.59 6.433-.302-.038-10.612-1.241-17.056 5.332-5.578 5.689-7.359 16.37-5.151 30.89 5.143 33.82-18.994 75.991-20.024 77.77-1.411 2.437-3.967 3.798-6.593 3.798z" fill="#ccf49f"/></g><g><path d="m220.865 148.557c-2.626 0-5.181-1.361-6.592-3.797-1.03-1.779-25.166-43.95-20.024-77.771 2.208-14.519.427-25.2-5.151-30.889-6.506-6.635-16.956-5.344-17.063-5.331-4.173.613-7.999-2.273-8.609-6.43-.61-4.16 2.293-8.03 6.453-8.639.729-.104 17.941-2.47 29.932 9.584 9.311 9.361 12.503 24.164 9.489 43.994-4.335 28.507 17.924 67.468 18.149 67.857 2.102 3.639.858 8.294-2.779 10.397-1.201.695-2.511 1.025-3.805 1.025z" fill="#ccf49f"/></g><g><path d="m293.539 167.575h-75.078c-2.173 0-4.243-.929-5.688-2.553-1.444-1.623-2.125-3.788-1.872-5.946l17.891-152.352c.49-4.175 4.273-7.158 8.448-6.672 4.174.491 7.162 4.273 6.672 8.448l-16.893 143.852h57.962l-16.892-143.852c-.49-4.175 2.498-7.957 6.672-8.448 4.182-.473 7.957 2.497 8.448 6.672l17.89 152.352c.253 2.159-.428 4.323-1.872 5.946-1.445 1.624-3.514 2.553-5.688 2.553z" fill="#efe7e4"/></g><path d="m156.857 178.116c2.492 13.754 19.621 108.309 24.491 135.192.57 3.148 3.31 5.428 6.509 5.428h136.285c3.2 0 5.941-2.289 6.511-5.438l24.49-135.182z" fill="#c6865c"/><path d="m156.857 178.116c.583 3.215 1.966 10.854 3.805 21.003h120.754c21.961 0 38.565 19.882 34.65 41.491l-14.153 78.125h22.23c3.2 0 5.941-2.289 6.511-5.438l24.49-135.182h-198.287z" fill="#c17d4f"/><path d="m373.022 178.116h-234.043c-2.434 0-4.407-1.973-4.407-4.407v-28.355c0-2.434 1.973-4.407 4.407-4.407h234.042c2.434 0 4.407 1.973 4.407 4.407v28.355c.001 2.434-1.972 4.407-4.406 4.407z" fill="#9d6b6b"/><path d="m373.022 140.946h-18.375v37.17h18.375c2.434 0 4.407-1.973 4.407-4.407v-28.355c0-2.435-1.973-4.408-4.407-4.408z" fill="#8b5e5e"/><g><g><path d="m161.689 115.94c-4.204 0-7.611-3.407-7.611-7.611v-25.75c0-4.204 3.407-7.611 7.611-7.611s7.611 3.407 7.611 7.611v25.75c0 4.203-3.407 7.611-7.611 7.611z" fill="#ccf49f"/></g><g><path d="m127.498 137.563c-.472 0-.949-.044-1.43-.135l-19.69-3.741c-4.13-.785-6.841-4.769-6.056-8.899s4.765-6.845 8.899-6.056l19.69 3.741c4.13.785 6.841 4.769 6.056 8.899-.694 3.649-3.887 6.191-7.469 6.191z" fill="#ccf49f"/></g><g><path d="m148.031 165.569c-1.063 0-2.145-.224-3.174-.698l-16.645-7.653c-3.82-1.756-5.493-6.277-3.736-10.095 1.756-3.819 6.275-5.495 10.095-3.736l16.645 7.653c3.82 1.756 5.493 6.277 3.736 10.095-1.283 2.79-4.04 4.434-6.921 4.434z" fill="#ccf49f"/></g><g><path d="m138.794 209.24h-17.467c-4.204 0-7.611-3.407-7.611-7.611s3.407-7.611 7.611-7.611h17.467c4.204 0 7.611 3.407 7.611 7.611s-3.407 7.611-7.611 7.611z" fill="#ccf49f"/></g><g><path d="m93.804 189.824c-3.4 0-6.498-2.295-7.372-5.742-1.034-4.074 1.432-8.216 5.506-9.249l19.566-4.962c4.074-1.031 8.216 1.432 9.249 5.506 1.034 4.074-1.432 8.216-5.506 9.249l-19.566 4.962c-.627.16-1.258.236-1.877.236z" fill="#ccf49f"/></g><g><path d="m100.519 252.508c-2.293 0-4.561-1.032-6.058-2.996-2.549-3.343-1.906-8.119 1.437-10.668l17.131-13.062c3.345-2.548 8.12-1.905 10.668 1.437 2.549 3.343 1.906 8.119-1.437 10.668l-17.131 13.062c-1.379 1.05-3.001 1.559-4.61 1.559z" fill="#ccf49f"/></g><g><path d="m149.862 254.95h-18.472c-4.204 0-7.611-3.407-7.611-7.611s3.407-7.611 7.611-7.611h18.472c4.204 0 7.611 3.407 7.611 7.611s-3.406 7.611-7.611 7.611z" fill="#ccf49f"/></g><g><path d="m118.185 298.827c-2.168 0-4.321-.921-5.827-2.71-2.708-3.215-2.295-8.017.921-10.724l16.612-13.987c3.216-2.708 8.018-2.295 10.724.921 2.708 3.215 2.295 8.017-.921 10.724l-16.612 13.987c-1.427 1.202-3.167 1.789-4.897 1.789z" fill="#ccf49f"/></g><g><path d="m178.038 351.935c-1.033 0-2.082-.211-3.086-.658l-18.41-8.179c-3.841-1.707-5.573-6.204-3.865-10.046 1.706-3.842 6.206-5.575 10.046-3.865l18.41 8.178c3.841 1.708 5.573 6.205 3.865 10.047-1.26 2.837-4.043 4.523-6.96 4.523z" fill="#ccf49f"/></g><g><path d="m127.954 351.935c-2.728 0-5.367-1.472-6.733-4.051-1.967-3.715-.551-8.321 3.164-10.289l17.723-9.389c3.716-1.967 8.321-.55 10.289 3.164 1.967 3.715.551 8.321-3.164 10.289l-17.723 9.388c-1.136.602-2.355.888-3.556.888z" fill="#ccf49f"/></g><g><path d="m132.377 405.98c-3.015 0-5.87-1.804-7.063-4.773-1.569-3.901.321-8.334 4.221-9.902l17.489-7.033c3.896-1.572 8.332.32 9.901 4.221s-.321 8.334-4.221 9.902l-17.489 7.033c-.931.375-1.893.552-2.838.552z" fill="#ccf49f"/></g><g><path d="m183.084 408.83c-1.11 0-2.237-.244-3.303-.759l-20.468-9.882c-3.786-1.828-5.373-6.379-3.545-10.164 1.827-3.786 6.378-5.377 10.164-3.545l20.468 9.882c3.786 1.828 5.373 6.379 3.545 10.164-1.313 2.718-4.031 4.304-6.861 4.304z" fill="#ccf49f"/></g><g><path d="m132.378 456.112c-2.123 0-4.235-.883-5.74-2.609-2.762-3.168-2.433-7.976.735-10.739l15.007-13.085c3.167-2.761 7.976-2.434 10.739.735 2.762 3.168 2.433 7.976-.735 10.739l-15.007 13.085c-1.442 1.257-3.225 1.874-4.999 1.874z" fill="#ccf49f"/></g><g><path d="m174.482 456.113c-1.546 0-3.105-.47-4.454-1.444l-16.892-12.213c-3.406-2.463-4.171-7.222-1.709-10.628 2.464-3.407 7.221-4.17 10.628-1.709l16.892 12.213c3.406 2.463 4.171 7.222 1.709 10.628-1.488 2.059-3.814 3.153-6.174 3.153z" fill="#ccf49f"/></g></g><path d="m140.164 247.338c-13.115-31.618-13.114-66.945.005-96.922 4.083-9.329 8.735-16.875 14.223-23.068 4.785-5.399 12.962-6.362 18.619-2.187 5.087 3.753 8.863 9.794 10.949 15.785h28.291c-2.688-14.673-10.985-28.991-22.973-37.835-16.962-12.516-41.295-9.85-55.396 6.065-7.413 8.367-13.568 18.263-18.816 30.254-16.094 36.776-16.172 79.934-.213 118.407 19.195 46.272 37.243 120.214 24.937 176.32-1.621 7.391 3.056 14.697 10.447 16.318.989.217 1.976.321 2.948.321 6.295 0 11.965-4.366 13.37-10.768 6.767-30.851 6.251-67.346-1.533-108.47-7.635-40.333-19.927-72.334-24.858-84.22z" fill="#95d6a4"/><g><g><path d="m350.312 109.08c-4.204 0-7.611-3.407-7.611-7.611v-18.89c0-4.204 3.407-7.611 7.611-7.611s7.612 3.407 7.612 7.611v18.89c0 4.203-3.407 7.611-7.612 7.611z" fill="#ccf49f"/></g><g><path d="m382.387 136.336c-3.814 0-7.104-2.86-7.551-6.74-.482-4.176 2.513-7.952 6.689-8.433l21.805-2.514c4.17-.489 7.952 2.512 8.433 6.689.482 4.176-2.513 7.952-6.689 8.433l-21.805 2.514c-.297.034-.591.051-.882.051z" fill="#ccf49f"/></g><g><path d="m363.97 165.569c-2.882 0-5.638-1.644-6.921-4.434-1.756-3.819-.083-8.339 3.736-10.095l16.645-7.653c3.821-1.756 8.34-.082 10.095 3.736 1.756 3.819.083 8.339-3.736 10.095l-16.645 7.653c-1.029.474-2.11.698-3.174.698z" fill="#ccf49f"/></g><g><path d="m386.188 209.24h-12.981c-4.204 0-7.612-3.407-7.612-7.611s3.407-7.611 7.612-7.611h12.981c4.204 0 7.612 3.407 7.612 7.611s-3.407 7.611-7.612 7.611z" fill="#ccf49f"/></g><g><path d="m418.201 189.823c-.284 0-.57-.016-.859-.049l-20.626-2.315c-4.177-.469-7.183-4.236-6.715-8.413s4.237-7.189 8.413-6.715l20.626 2.315c4.177.469 7.183 4.236 6.715 8.413-.436 3.889-3.731 6.764-7.554 6.764z" fill="#ccf49f"/></g><g><path d="m411.481 252.509c-1.314 0-2.644-.34-3.857-1.055l-15.345-9.044c-3.622-2.134-4.828-6.8-2.693-10.421 2.135-3.622 6.803-4.827 10.421-2.693l15.345 9.044c3.622 2.134 4.828 6.8 2.693 10.421-1.419 2.408-3.958 3.748-6.564 3.748z" fill="#ccf49f"/></g><g><path d="m377.428 254.95h-15.289c-4.204 0-7.611-3.407-7.611-7.611s3.407-7.611 7.611-7.611h15.289c4.204 0 7.612 3.407 7.612 7.611s-3.408 7.611-7.612 7.611z" fill="#ccf49f"/></g><g><path d="m393.814 298.828c-1.468 0-2.951-.424-4.259-1.309l-14.195-9.607c-3.482-2.356-4.394-7.088-2.038-10.569 2.356-3.482 7.087-4.394 10.569-2.038l14.195 9.607c3.482 2.356 4.394 7.088 2.038 10.569-1.471 2.174-3.869 3.347-6.31 3.347z" fill="#ccf49f"/></g><g><path d="m333.957 351.935c-3.251 0-6.261-2.098-7.271-5.367-1.241-4.017 1.009-8.279 5.026-9.519l20.447-6.317c4.021-1.242 8.278 1.01 9.519 5.026 1.241 4.017-1.009 8.279-5.026 9.519l-20.447 6.317c-.748.231-1.505.341-2.248.341z" fill="#ccf49f"/></g><g><path d="m384.048 351.935c-1.201 0-2.42-.285-3.556-.887l-19.444-10.3c-3.715-1.968-5.131-6.575-3.164-10.289 1.969-3.714 6.575-5.13 10.289-3.164l19.444 10.3c3.715 1.968 5.131 6.575 3.164 10.289-1.367 2.579-4.005 4.051-6.733 4.051z" fill="#ccf49f"/></g><g><path d="m379.624 405.98c-.946 0-1.907-.177-2.838-.552l-17.487-7.033c-3.9-1.568-5.79-6.001-4.221-9.902 1.57-3.9 6.004-5.787 9.902-4.221l17.487 7.033c3.9 1.568 5.79 6.001 4.221 9.902-1.195 2.969-4.05 4.773-7.064 4.773z" fill="#ccf49f"/></g><g><path d="m328.912 408.83c-3.076 0-5.972-1.878-7.123-4.927-1.484-3.933.501-8.324 4.435-9.809l18.882-7.124c3.934-1.48 8.324.503 9.809 4.435 1.484 3.933-.501 8.324-4.435 9.809l-18.882 7.124c-.885.333-1.793.492-2.686.492z" fill="#ccf49f"/></g><g><path d="m379.619 456.113c-1.485 0-2.985-.434-4.301-1.338l-15.015-10.309c-3.466-2.38-4.346-7.117-1.966-10.583 2.378-3.466 7.118-4.346 10.583-1.966l15.015 10.309c3.466 2.38 4.346 7.117 1.966 10.583-1.476 2.149-3.859 3.304-6.282 3.304z" fill="#ccf49f"/></g><g><path d="m337.52 456.113c-2.36 0-4.686-1.094-6.174-3.153-2.463-3.406-1.698-8.166 1.709-10.628l14.259-10.309c3.404-2.461 8.165-1.699 10.628 1.709 2.463 3.406 1.698 8.165-1.709 10.628l-14.259 10.309c-1.348.974-2.908 1.444-4.454 1.444z" fill="#ccf49f"/></g></g><path d="m371.837 247.338c13.115-31.618 13.114-66.945-.005-96.922-4.083-9.329-8.735-16.875-14.223-23.068-4.785-5.399-12.962-6.362-18.619-2.187-5.087 3.753-8.878 9.794-10.964 15.785h-28.524c2.688-14.673 11.233-28.991 23.221-37.835 16.962-12.516 41.295-9.85 55.396 6.065 7.413 8.367 13.568 18.263 18.816 30.254 16.094 36.776 16.172 79.934.213 118.407-19.195 46.272-37.243 120.214-24.937 176.32 1.621 7.391-3.056 14.697-10.447 16.318-.989.217-1.976.321-2.948.321-6.295 0-11.965-4.366-13.37-10.768-6.767-30.851-6.251-67.346 1.533-108.47 7.635-40.333 19.928-72.334 24.858-84.22z" fill="#95d6a4"/><g><g><path d="m253.223 106.388c-.908 0-1.832-.164-2.73-.509-3.924-1.508-5.881-5.913-4.372-9.836l5.715-14.858c1.508-3.923 5.908-5.882 9.836-4.372 3.924 1.508 5.881 5.913 4.372 9.836l-5.715 14.858c-1.163 3.025-4.047 4.881-7.106 4.881z" fill="#ccf49f"/></g><g><path d="m194.986 167.143c-3.813 0-7.103-2.859-7.551-6.739-.483-4.175 2.511-7.951 6.688-8.434l19.697-2.276c4.167-.486 7.951 2.509 8.434 6.688.483 4.175-2.511 7.951-6.688 8.434l-19.697 2.276c-.296.034-.59.051-.883.051z" fill="#ccf49f"/></g><g><path d="m247.636 167.37c-.069 0-.139-.001-.209-.003l-15.618-.421c-4.202-.113-7.517-3.611-7.403-7.814.111-4.132 3.497-7.406 7.605-7.406.069 0 .139.001.209.003l15.618.421c4.202.113 7.517 3.611 7.403 7.814-.111 4.131-3.497 7.406-7.605 7.406z" fill="#ccf49f"/></g><g><path d="m203.425 216.244c-2.125 0-4.239-.885-5.744-2.614-2.76-3.17-2.427-7.978.744-10.738l12.98-11.298c3.168-2.76 7.977-2.428 10.738.744 2.76 3.17 2.427 7.978-.744 10.738l-12.98 11.298c-1.441 1.255-3.222 1.87-4.994 1.87z" fill="#ccf49f"/></g><g><path d="m258.544 223.661c-.274 0-.549-.015-.828-.046l-18.713-2.025c-4.179-.452-7.201-4.206-6.748-8.386.451-4.179 4.198-7.219 8.386-6.748l18.713 2.025c4.179.452 7.201 4.206 6.748 8.386-.421 3.901-3.721 6.794-7.558 6.794z" fill="#ccf49f"/></g><g><path d="m226.831 272.115c-1.372 0-2.761-.371-4.012-1.149-3.57-2.219-4.665-6.912-2.445-10.483l8.107-13.042c2.219-3.57 6.915-4.664 10.483-2.445 3.57 2.219 4.665 6.912 2.445 10.483l-8.107 13.042c-1.442 2.32-3.928 3.594-6.471 3.594z" fill="#ccf49f"/></g><g><path d="m289.829 282.815h-22.708c-4.204 0-7.612-3.407-7.612-7.612s3.407-7.612 7.612-7.612h22.708c4.204 0 7.612 3.407 7.612 7.612s-3.408 7.612-7.612 7.612z" fill="#ccf49f"/></g><g><path d="m255.483 341.433c-1.785 0-3.578-.624-5.023-1.896-3.158-2.775-3.466-7.585-.69-10.741l13.266-15.086c2.776-3.159 7.586-3.467 10.741-.69 3.158 2.775 3.466 7.585.69 10.741l-13.266 15.086c-1.504 1.712-3.606 2.586-5.718 2.586z" fill="#ccf49f"/></g><g><path d="m310.229 349.589c-.736 0-1.485-.108-2.225-.334l-15.622-4.769c-4.021-1.227-6.285-5.482-5.057-9.501 1.227-4.022 5.486-6.28 9.501-5.057l15.622 4.769c4.021 1.227 6.285 5.482 5.057 9.501-1 3.28-4.016 5.391-7.276 5.391z" fill="#ccf49f"/></g><g><path d="m259.604 400.163c-3.721 0-6.974-2.731-7.523-6.522-.602-4.161 2.282-8.021 6.443-8.623l16.793-2.43c4.161-.609 8.021 2.282 8.623 6.443s-2.282 8.021-6.443 8.623l-16.793 2.43c-.37.053-.738.079-1.1.079z" fill="#ccf49f"/></g><g><path d="m308.483 425.289c-.932 0-1.878-.171-2.797-.535l-17.969-7.104c-3.909-1.545-5.826-5.967-4.279-9.877 1.546-3.909 5.969-5.826 9.877-4.279l17.969 7.104c3.909 1.545 5.826 5.967 4.279 9.877-1.182 2.989-4.048 4.814-7.08 4.814z" fill="#ccf49f"/></g><g><path d="m245.291 468.821c-3.868 0-7.178-2.937-7.566-6.866-.412-4.183 2.644-7.909 6.829-8.321l22.711-2.239c4.174-.406 7.908 2.645 8.321 6.829.412 4.183-2.644 7.909-6.829 8.321l-22.711 2.239c-.254.024-.506.037-.755.037z" fill="#ccf49f"/></g><g><path d="m291.811 492.702c-1.508 0-3.031-.447-4.36-1.379l-13.452-9.423c-3.443-2.411-4.279-7.158-1.867-10.601 2.411-3.443 7.158-4.281 10.601-1.867l13.452 9.423c3.443 2.411 4.279 7.158 1.867 10.601-1.481 2.114-3.842 3.246-6.241 3.246z" fill="#ccf49f"/></g></g><path d="m241.773 202.529c-7.525-28.91-6.573-55.479 2.831-78.97.563-1.407 1.629-2.162 3.17-2.24 1.073-.045 2.524.227 3.452 1.843l8.452 17.784h31.462l-14.407-30.314c-.079-.166-.162-.331-.247-.495-5.897-11.256-17.459-17.843-30.16-17.198-12.642.645-23.411 8.332-28.105 20.06-11.542 28.835-12.908 62.269-3.949 96.687 6.207 23.846 17.707 45.016 28.827 65.488 20.33 37.425 39.532 72.774 27.114 123.276-9.943 40.435-16.862 76.783-19.364 97.453-1.036 8.561 5.64 16.098 14.264 16.098 7.288 0 13.425-5.448 14.268-12.687 1.782-15.302 6.417-45.241 18.426-94.079 15.046-61.183-8.746-104.981-29.737-143.624-10.781-19.848-20.964-38.594-26.297-59.082z" fill="#95d6a4"/><g><path d="m320.165 272.115c-2.555 0-5.051-1.286-6.489-3.621-.724-1.177-17.603-29.287-4.847-69.183 7.189-22.49 2.429-39.275-1.354-47.715-9.165 6.784-24.654 23.007-16.394 51.409 1.174 4.037-1.146 8.261-5.182 9.434-4.033 1.175-8.26-1.146-9.434-5.182-7.726-26.566.973-45.103 9.632-55.975 9.256-11.62 20.397-16.99 20.867-17.213 3.275-1.555 7.188-.583 9.359 2.319.818 1.094 19.889 27.264 7.006 67.559-10.648 33.307 3.17 56.337 3.311 56.566 2.204 3.579 1.088 8.268-2.491 10.472-1.245.766-2.623 1.13-3.984 1.13z" fill="#ccf49f"/></g></g></svg>