<svg id="Capa_1" enable-background="new 0 0 512 512" height="512" viewBox="0 0 512 512" width="512" xmlns="http://www.w3.org/2000/svg"><g><path d="m298.995 107.147s-27.541 5.277-40.619-12.389c-12.02-16.237 3.818-45.285 31.93-66.096 21.907-16.217 51.2-27.191 87.09-28.524 16.168-.601 33.674.755 52.448 4.469 2.919.577 4.446 3.835 3.026 6.449-16.121 29.672-.987 26.872-12.57 62.728-9.403 29.107-29.167 50.074-48.776 64.59-28.113 20.811-60.519 27.478-72.539 11.24-13.078-17.667.01-42.467.01-42.467z" fill="#95d6a4"/><path d="m356.588 236.232s-14.957-23.72-3.276-42.34c10.736-17.114 43.559-12.959 73.189 5.629 23.089 14.485 43.989 37.759 58.318 70.692 6.455 14.835 11.577 31.631 14.964 50.466.527 2.928-1.95 5.539-4.902 5.169-33.508-4.191-25.382 8.88-62.992 11.17-30.531 1.859-57.262-8.899-77.929-21.864-29.63-18.588-47.654-46.332-36.918-63.445 11.681-18.621 39.546-15.477 39.546-15.477z" fill="#95d6a4"/><g><path d="m263.539 371.015c-3.859 0-7.195-2.888-7.663-6.814l-16.36-137.477c-5.715-48.703 15.331-96.909 54.923-125.818 3.446-2.517 8.281-1.764 10.798 1.684 2.516 3.447 1.762 8.28-1.684 10.798-35.097 25.626-53.754 68.36-48.689 111.522l16.359 137.464c.504 4.238-2.522 8.082-6.759 8.586-.312.037-.62.055-.925.055z" fill="#69af81"/></g><g><path d="m274.246 371.014c-.174 0-.348-.005-.523-.017-4.258-.285-7.479-3.967-7.195-8.225l5.628-84.234c1.619-20.31 13.151-38.276 30.855-48.157 17.705-9.882 39.051-10.264 57.097-1.028 3.799 1.945 5.302 6.601 3.358 10.399-1.946 3.8-6.602 5.3-10.399 3.358-13.642-6.983-29.141-6.705-42.524.765-13.381 7.469-21.755 20.515-22.974 35.793l-5.621 84.134c-.273 4.083-3.67 7.212-7.702 7.212z" fill="#69af81"/></g><path d="m166.545 117.41s27.997-1.584 36.383-21.902c7.707-18.674-14.723-42.994-47.056-56.338-25.195-10.398-56.278-13.913-91.414-6.473-15.828 3.352-32.478 8.927-49.783 17.098-2.69 1.27-3.379 4.802-1.365 6.992 22.858 24.857 7.497 25.824 27.458 57.783 16.204 25.944 40.476 41.47 63.029 50.778 32.332 13.344 65.386 11.924 73.094-6.751 8.385-20.317-10.346-41.187-10.346-41.187z" fill="#95d6a4"/><path d="m142.099 256.63s8.735-26.647-7.127-41.864c-14.578-13.986-45.403-1.969-69.618 23.271-18.87 19.668-33.478 47.329-39.362 82.759-2.651 15.96-3.531 33.497-2.233 52.59.202 2.968 3.239 4.898 6.012 3.821 31.48-12.219 26.78 2.436 63.817-4.496 30.066-5.627 53.374-22.566 70.266-40.172 24.216-25.24 34.946-56.536 20.368-70.522-15.861-15.217-42.123-5.387-42.123-5.387z" fill="#95d6a4"/><g><path d="m246.623 227.627c-3.825 0-7.148-2.839-7.653-6.734-5.558-42.843-34.422-79.752-75.326-96.32-3.955-1.602-5.863-6.107-4.261-10.062 1.603-3.956 6.108-5.863 10.063-4.261 46.062 18.658 78.575 60.292 84.849 108.655.549 4.232-2.436 8.107-6.669 8.657-.336.044-.672.065-1.003.065z" fill="#69af81"/></g><g><path d="m252.17 368.528c-3.296 0-6.349-2.125-7.377-5.438l-25.208-81.214c-4.915-14.476-16.197-25.058-30.965-29.038-14.797-3.986-29.9-.486-41.432 9.606-3.211 2.811-8.092 2.487-10.904-.725-2.81-3.212-2.485-8.093.726-10.903 15.258-13.353 36.054-18.177 55.631-12.899 19.576 5.276 35.134 19.895 41.615 39.107.02.059.039.12.058.179l25.237 81.306c1.266 4.076-1.013 8.405-5.089 9.671-.762.236-1.534.348-2.292.348z" fill="#69af81"/></g><g><path d="m195.084 500.952c-20.096-40.158-26.724-89.092-19.884-146.803.305-2.577 2.509-4.511 5.104-4.511h162.83c2.595 0 4.799 1.934 5.104 4.511 6.84 57.711.212 106.645-19.884 146.803-3.383 6.76-10.277 11.048-17.836 11.048h-97.597c-7.56 0-14.454-4.288-17.837-11.048z" fill="#c6865c"/><path d="m343.134 349.638h-19.818c7.747 59.77 1.273 110.274-19.422 151.509-3.356 6.687-10.257 10.853-17.739 10.853h24.362c7.56 0 14.454-4.288 17.837-11.048 20.096-40.158 26.724-89.092 19.884-146.803-.305-2.577-2.508-4.511-5.104-4.511z" fill="#c17d4f"/></g><g><g><path d="m320.429 94.388c-1.868 0-3.743-.673-5.226-2.037-3.14-2.886-3.35-7.767-.467-10.909 1.141-1.244 28.484-30.712 75.883-53.487 3.842-1.849 8.463-.23 10.311 3.618 1.848 3.846.228 8.462-3.618 10.311-44.569 21.416-70.933 49.728-71.194 50.012-1.524 1.653-3.604 2.492-5.689 2.492z" fill="#78c2a4"/></g><g><path d="m327.925 87.068c-.18 0-.36-.006-.542-.018-4.258-.296-7.469-3.986-7.175-8.243l2.284-32.94c.295-4.258 3.994-7.452 8.243-7.175 4.258.296 7.469 3.986 7.175 8.243l-2.284 32.94c-.283 4.076-3.677 7.193-7.701 7.193z" fill="#78c2a4"/></g><g><path d="m380.371 71.465c-.256 0-.513-.013-.772-.039l-29.673-2.945c-4.247-.421-7.348-4.206-6.926-8.451.421-4.248 4.216-7.351 8.451-6.926l29.673 2.945c4.247.421 7.348 4.206 6.926 8.451-.395 3.986-3.755 6.965-7.679 6.965z" fill="#78c2a4"/></g><g><path d="m372.566 54.129c-.419 0-.842-.034-1.27-.105-4.21-.696-7.059-4.673-6.363-8.884l3.057-18.488c.696-4.21 4.663-7.051 8.884-6.363 4.21.696 7.059 4.673 6.363 8.884l-3.057 18.488c-.625 3.784-3.9 6.468-7.614 6.468z" fill="#78c2a4"/></g><g><path d="m458.473 306.05c-1.884 0-3.774-.685-5.263-2.071-36.194-33.691-72.171-47.914-72.53-48.054-3.974-1.546-5.948-6.022-4.406-9.997 1.543-3.976 6.011-5.95 9.989-4.414 1.574.609 38.984 15.322 77.477 51.152 3.123 2.908 3.298 7.797.391 10.921-1.522 1.636-3.588 2.463-5.658 2.463z" fill="#78c2a4"/></g><g><path d="m393.023 260.751c-3.287 0-6.335-2.114-7.371-5.416-1.278-4.072.988-8.408 5.06-9.686l31.505-9.885c4.075-1.276 8.408.988 9.686 5.06s-.988 8.408-5.06 9.686l-31.504 9.885c-.771.241-1.551.356-2.316.356z" fill="#78c2a4"/></g><g><path d="m426.676 303.894c-3.375 0-6.474-2.228-7.434-5.635l-8.079-28.704c-1.156-4.108 1.237-8.376 5.344-9.532 4.111-1.156 8.375 1.238 9.532 5.344l8.079 28.704c1.156 4.108-1.237 8.376-5.344 9.532-.7.198-1.404.291-2.098.291z" fill="#78c2a4"/></g><g><path d="m439.967 290.306c-3.571 0-6.778-2.49-7.55-6.122-.887-4.174 1.778-8.277 5.951-9.165l18.33-3.896c4.18-.891 8.278 1.778 9.165 5.951.887 4.174-1.778 8.277-5.951 9.165l-18.33 3.896c-.542.115-1.083.171-1.615.171z" fill="#78c2a4"/></g><g><g><path d="m140.764 110.489c-1.459 0-2.934-.413-4.244-1.276-.598-.389-32.988-21.294-81.218-31.178-4.181-.857-6.875-4.94-6.019-9.121s4.94-6.871 9.12-6.019c51.517 10.557 85.209 32.484 86.618 33.413 3.564 2.347 4.55 7.139 2.202 10.703-1.484 2.254-3.948 3.478-6.459 3.478z" fill="#78c2a4"/></g><g><path d="m131.725 105.209c-3.255 0-6.282-2.073-7.345-5.334l-10.231-31.395c-1.323-4.058.895-8.419 4.953-9.741 4.056-1.327 8.418.895 9.741 4.952l10.231 31.394c1.323 4.058-.895 8.419-4.953 9.741-.795.26-1.603.383-2.396.383z" fill="#78c2a4"/></g><g><path d="m77.061 102.835c-3.169 0-6.14-1.964-7.273-5.118-1.442-4.016.644-8.441 4.661-9.883l28.066-10.077c4.018-1.445 8.441.645 9.884 4.661 1.442 4.016-.644 8.441-4.661 9.883l-28.066 10.077c-.863.31-1.745.457-2.611.457z" fill="#78c2a4"/></g><g><path d="m80.416 84.123c-2.985 0-5.827-1.74-7.092-4.651l-7.464-17.19c-1.7-3.915.096-8.465 4.01-10.165 3.914-1.702 8.465.096 10.165 4.009l7.465 17.19c1.7 3.915-.096 8.465-4.01 10.165-1.002.435-2.047.642-3.074.642z" fill="#78c2a4"/></g></g><g><path d="m58.378 349.378c-1.441 0-2.899-.402-4.198-1.246-3.58-2.322-4.6-7.107-2.278-10.687 28.616-44.12 61.321-67.495 62.699-68.469 3.486-2.462 8.307-1.631 10.769 1.853 2.46 3.484 1.633 8.301-1.847 10.765-.314.222-31.748 22.774-58.655 64.26-1.479 2.281-3.959 3.524-6.49 3.524z" fill="#78c2a4"/></g><g><path d="m110.85 289.51c-.151 0-.303-.004-.456-.013l-32.963-1.921c-4.26-.249-7.513-3.903-7.265-8.164.249-4.261 3.912-7.523 8.163-7.264l32.963 1.921c4.26.249 7.513 3.903 7.265 8.164-.24 4.107-3.646 7.277-7.707 7.277z" fill="#78c2a4"/></g><g><path d="m88.703 339.547c-.074 0-.149-.001-.224-.003-4.266-.122-7.625-3.678-7.504-7.944l.851-29.808c.122-4.266 3.676-7.65 7.944-7.504 4.266.122 7.625 3.678 7.504 7.944l-.851 29.808c-.12 4.191-3.555 7.507-7.72 7.507z" fill="#78c2a4"/></g><g><path d="m53.764 330.285c-4.138 0-7.565-3.277-7.717-7.445-.155-4.265 3.176-7.849 7.441-8.004l18.727-.682c4.278-.137 7.848 3.176 8.003 7.44.155 4.265-3.176 7.849-7.441 8.004l-18.727.682c-.095.003-.191.005-.286.005z" fill="#78c2a4"/></g></g></g></svg>