<svg id="Capa_1" enable-background="new 0 0 512 512" height="512" viewBox="0 0 512 512" width="512" xmlns="http://www.w3.org/2000/svg"><g><g><path d="m206.831 30.335c-1.23 0-2.479-.296-3.64-.917l-18.114-9.698c-3.762-2.014-5.179-6.697-3.165-10.459 2.015-3.761 6.695-5.176 10.459-3.165l18.114 9.698c3.762 2.014 5.179 6.697 3.165 10.459-1.393 2.601-4.061 4.082-6.819 4.082z" fill="#ccf49f"/></g><g><path d="m295.966 39.04c-2.218 0-4.421-.951-5.949-2.791-2.725-3.284-2.274-8.155 1.009-10.88l18.544-15.396c3.282-2.727 8.154-2.275 10.88 1.009 2.725 3.284 2.274 8.155-1.009 10.88l-18.544 15.396c-1.442 1.198-3.192 1.782-4.931 1.782z" fill="#ccf49f"/></g><g><g><path d="m115.369 202.313c-3.184 0-6.166-1.984-7.286-5.157-1.421-4.024.69-8.438 4.714-9.857l16.578-5.85c4.024-1.422 8.438.691 9.857 4.714 1.421 4.024-.69 8.438-4.714 9.857l-16.578 5.85c-.849.301-1.717.443-2.571.443z" fill="#ccf49f"/></g><g><path d="m123.097 153.247h-15.989c-4.268 0-7.726-3.459-7.726-7.726 0-4.268 3.459-7.726 7.726-7.726h15.989c4.268 0 7.726 3.459 7.726 7.726s-3.458 7.726-7.726 7.726z" fill="#ccf49f"/></g><g><path d="m131.942 105.918c-1.675 0-3.362-.542-4.78-1.66l-16.578-13.076c-3.35-2.643-3.925-7.501-1.282-10.851 2.641-3.35 7.499-3.926 10.851-1.282l16.578 13.076c3.35 2.643 3.925 7.501 1.282 10.851-1.524 1.933-3.786 2.942-6.071 2.942z" fill="#ccf49f"/></g><g><path d="m164.193 77.452c-3.743 0-7.031-2.725-7.626-6.538l-3.009-19.324c-.656-4.216 2.229-8.167 6.446-8.824 4.236-.652 8.167 2.231 8.824 6.446l3.009 19.324c.656 4.216-2.229 8.167-6.446 8.824-.403.062-.804.092-1.198.092z" fill="#ccf49f"/></g></g><g><g><path d="m332.587 98.045c-1.217 0-2.453-.289-3.605-.897-3.772-1.995-5.213-6.67-3.219-10.443l9.931-18.784c1.995-3.771 6.667-5.214 10.443-3.219 3.772 1.995 5.213 6.67 3.219 10.443l-9.931 18.784c-1.387 2.62-4.066 4.116-6.838 4.116z" fill="#ccf49f"/></g><g><path d="m374.25 128.896c-2.503 0-4.958-1.214-6.445-3.456-2.359-3.555-1.389-8.35 2.166-10.709l13.855-9.193c3.555-2.362 8.35-1.389 10.709 2.166s1.389 8.35-2.166 10.709l-13.855 9.193c-1.313.873-2.797 1.29-4.264 1.29z" fill="#ccf49f"/></g><g><path d="m392.743 170.903h-19.657c-4.268 0-7.726-3.459-7.726-7.726 0-4.268 3.459-7.726 7.726-7.726h19.657c4.268 0 7.726 3.459 7.726 7.726.001 4.267-3.458 7.726-7.726 7.726z" fill="#ccf49f"/></g></g><g><g><path d="m396.171 238.661c-2.208 0-4.4-.942-5.929-2.767-2.739-3.273-2.307-8.145.965-10.884l17.236-14.428c3.273-2.737 8.146-2.306 10.884.965 2.739 3.273 2.307 8.145-.965 10.884l-17.236 14.428c-1.446 1.211-3.206 1.802-4.955 1.802z" fill="#ccf49f"/></g><g><path d="m413.404 281.891c-.781 0-1.573-.119-2.357-.369l-21.355-6.834c-4.064-1.301-6.304-5.65-5.004-9.714 1.301-4.063 5.649-6.3 9.714-5.004l21.355 6.834c4.064 1.301 6.304 5.65 5.004 9.714-1.05 3.28-4.087 5.373-7.357 5.373z" fill="#ccf49f"/></g></g><g><path d="m272.02 143.065c20.933-4.757 29.355-28.549 29.342-57.687-.012-26.399-14.435-79.075-35.907-83.111-4.666-.877-25.075-1.697-28.796-1.697-4.667.418-9.334 1.059-14 1.936-21.472 4.037-37.229 26.747-37.241 53.147-.013 29.138 5.28 58.275 15.879 87.413z" fill="#69af81"/><path d="m276.068 2.506c-13.137-2.47-26.273-3.111-39.41-1.936 4.667.417 9.333 1.059 14 1.936 21.472 4.037 37.229 26.747 37.24 53.147.013 29.138-5.28 58.275-15.879 87.413h25.41c10.598-29.138 15.891-58.275 15.879-87.413-.011-26.4-15.768-49.111-37.24-53.147z" fill="#5ea570"/></g><g><path d="m339.56 224.9c22.94-4.026 31.138-56.07 31.125-85.208-.011-26.399-17.56-50.973-39.032-55.009-4.667-.878-22.788-1.861-27.454-2.279-4.667.418-9.333 1.059-14 1.936-21.472 4.037-37.229 26.747-37.241 53.147-.013 29.138 5.28 58.275 15.879 87.413z" fill="#4f8980"/><path d="m343.609 84.341c-13.137-2.47-26.273-3.111-39.41-1.936 4.667.417 9.333 1.059 14 1.936 21.472 4.037 37.229 26.747 37.24 53.147.013 29.138-5.28 58.275-15.879 87.413h25.41c10.598-29.138 15.891-58.275 15.879-87.413-.011-26.4-15.768-49.111-37.24-53.147z" fill="#3d6b73"/></g><g><path d="m392.552 337.101-19.613-18.533-238.534-.333-15.247 18.866 25.859 142.743 22.018 16.078h175.142l24.516-16.078z" fill="#c6865c"/><path d="m119.158 337.101 3.717 20.515h191.801c25.049 0 43.988 22.678 39.523 47.326l-13.569 74.902 8.756 16.078 17.307-16.078 25.86-142.743-26.275-18.866-224.794.014z" fill="#c17d4f"/><path d="m410.7 337.101h-309.69c-2.471 0-4.474-2.003-4.474-4.474v-28.784c0-2.471 2.003-4.474 4.474-4.474h309.69c2.471 0 4.474 2.003 4.474 4.474v28.784c-.001 2.471-2.004 4.474-4.474 4.474z" fill="#9d6b6b"/><path d="m410.7 299.37h-18.653v37.731h18.653c2.471 0 4.474-2.003 4.474-4.474v-28.784c-.001-2.47-2.004-4.473-4.474-4.473z" fill="#8b5e5e"/><path d="m118.984 491.992c-.743-1.814-1.359-3.716-1.848-5.703-.805-3.276 1.681-6.445 5.054-6.445h267.329c3.373 0 5.86 3.169 5.054 6.445-.488 1.986-1.104 3.889-1.848 5.703-5.02 12.248-17.235 20.008-30.473 20.008h-212.794c-13.238 0-25.453-7.76-30.474-20.008z" fill="#9d6b6b"/><path d="m389.519 479.844h-24.423c3.373 0 5.86 3.169 5.054 6.445-.488 1.986-1.104 3.889-1.848 5.703-5.02 12.248-17.235 20.008-30.473 20.008h24.423c13.238 0 25.454-7.76 30.474-20.008.743-1.814 1.359-3.716 1.848-5.703.805-3.276-1.681-6.445-5.055-6.445z" fill="#8b5e5e"/></g><g><path d="m392.047 233.098c-.011-19.851-20.099-36.813-39.717-39.849-3.455-.534-17.718-.522-21.173-.829-3.456.308-6.911.722-10.366 1.256-19.617 3.035-34.013 20.112-34.023 39.963-.012 21.91 4.824 43.82 14.507 65.73h59.765c26.038-5.668 31.018-44.361 31.007-66.271z" fill="#69af81"/><path d="m369.587 193.676c-12.81-1.982-25.62-2.396-38.43-1.256 3.455.307 6.911.722 10.366 1.256 19.617 3.035 34.013 20.113 34.024 39.964.011 21.91-4.824 43.82-14.507 65.73h28.064c9.683-21.91 14.519-43.82 14.507-65.73-.011-19.851-14.407-36.929-34.024-39.964z" fill="#5ea570"/></g><g><path d="m218.127 222.84c29.444-7.256 27.367-64.485 27.353-97.174-.013-29.617-12.727-55.345-36.817-59.874-5.899-1.109-24.576-3.386-32.199-2.982-5.9.454-11.8 1.227-17.7 2.336-24.09 4.529-41.767 30.008-41.78 59.625-.014 32.689 5.924 65.379 17.814 98.069z" fill="#4f8980"/><path d="m218.684 65.146c-14.074-2.646-28.147-3.419-42.221-2.336 5.899.454 11.799 1.227 17.698 2.336 24.09 4.529 41.767 30.008 41.78 59.625.014 32.689-5.924 65.379-17.814 98.069h24.523c11.89-32.689 17.828-65.379 17.814-98.069-.013-29.617-17.69-55.096-41.78-59.625z" fill="#3d6b73"/></g><g><g><path d="m331.165 272.747c-.202 0-.405-.007-.611-.023l-21.78-1.704c-4.255-.333-7.433-4.051-7.101-8.306.333-4.254 4.059-7.421 8.306-7.101l21.78 1.704c4.255.333 7.433 4.051 7.101 8.306-.316 4.049-3.701 7.124-7.695 7.124z" fill="#ccf49f"/></g><g><path d="m333.934 225.215h-19.168c-4.268 0-7.726-3.459-7.726-7.726s3.459-7.726 7.726-7.726h19.168c4.268 0 7.726 3.459 7.726 7.726s-3.459 7.726-7.726 7.726z" fill="#ccf49f"/></g><g><path d="m291.701 184.8c-.81 0-1.633-.128-2.444-.398-4.048-1.349-6.236-5.724-4.887-9.773l6.49-19.473c1.35-4.048 5.72-6.239 9.773-4.887 4.048 1.349 6.236 5.724 4.887 9.773l-6.49 19.473c-1.079 3.237-4.095 5.285-7.329 5.285z" fill="#ccf49f"/></g></g><g><path d="m308.625 214.55c-.014-25.764-13.625-48.012-39.086-51.952-6.14-.95-29.969-2.417-37.036-2.417-6.14.397-12.281 1.063-18.421 2.013-25.461 3.94-44.145 26.104-44.158 51.867-.015 28.436 6.261 56.873 18.828 85.309h87.501c32.372-5.834 32.387-56.384 32.372-84.82z" fill="#95d6a4"/><path d="m277.413 162.193c-14.97-2.316-29.94-2.981-44.91-2.013 6.14.397 12.28 1.063 18.42 2.013 25.461 3.94 44.145 26.104 44.158 51.867.015 28.436-6.261 56.873-18.828 85.309h26.489c12.567-28.436 18.843-56.873 18.828-85.309-.013-25.763-18.696-47.927-44.157-51.867z" fill="#78c2a4"/></g><g><g><path d="m197.305 250.932c-3.232 0-6.245-2.043-7.326-5.278-1.354-4.046.829-8.425 4.876-9.778l17.695-5.92c4.051-1.358 8.425.83 9.778 4.876 1.354 4.046-.829 8.425-4.876 9.778l-17.695 5.92c-.813.273-1.64.402-2.452.402z" fill="#ccf49f"/></g><g><path d="m212.472 287.764c-.816 0-1.645-.13-2.461-.404l-18.351-6.164c-4.045-1.358-6.223-5.74-4.864-9.784 1.358-4.045 5.738-6.224 9.784-4.864l18.351 6.164c4.045 1.358 6.223 5.739 4.864 9.784-1.085 3.229-4.095 5.268-7.323 5.268z" fill="#ccf49f"/></g><g><path d="m105.645 289.145c-3.223 0-6.23-2.032-7.319-5.256-1.366-4.042.804-8.427 4.847-9.793l17.606-5.949c4.041-1.366 8.427.804 9.793 4.847 1.366 4.042-.804 8.427-4.847 9.793l-17.606 5.949c-.82.278-1.654.409-2.474.409z" fill="#ccf49f"/></g><g><path d="m117.423 255.557c-1.278 0-2.573-.317-3.768-.986l-18.833-10.545c-3.723-2.085-5.051-6.793-2.967-10.516 2.085-3.722 6.794-5.051 10.516-2.967l18.833 10.545c3.723 2.085 5.051 6.793 2.967 10.516-1.415 2.529-4.042 3.953-6.748 3.953z" fill="#ccf49f"/></g></g><g><path d="m189.577 262.772c-.008-15.463-9.229-43.025-24.509-45.39-2.669-.412-17.594-1.073-20.262-1.312-2.715.24-5.429.551-8.143.971-15.281 2.365-26.494 15.667-26.502 31.129-.009 17.067 3.758 34.133 11.3 51.2h46.553c14.226-1.38 21.572-19.532 21.563-36.598z" fill="#69af81"/><path d="m174.671 217.041c-9.978-1.544-19.956-1.853-29.934-.965 2.691.239 5.383.549 8.074.965 15.281 2.364 26.494 15.666 26.502 31.129.009 17.066-3.758 34.133-11.3 51.199h21.86c7.542-17.067 11.309-34.133 11.3-51.199-.008-15.462-11.221-28.764-26.502-31.129z" fill="#5ea570"/></g><g><path d="m371.558 240.711c-2.476 0-4.908-1.188-6.402-3.392l-4.167-6.147c-2.394-3.531-1.472-8.336 2.06-10.73 3.531-2.396 8.335-1.473 10.73 2.06l4.167 6.147c2.394 3.531 1.472 8.336-2.06 10.73-1.328.901-2.836 1.332-4.328 1.332z" fill="#ccf49f"/></g><g><path d="m355.102 278.045c-1.636 0-3.284-.517-4.684-1.587-3.391-2.591-4.04-7.44-1.45-10.83l4.047-5.298c2.592-3.39 7.439-4.039 10.83-1.45 3.391 2.591 4.04 7.44 1.45 10.83l-4.047 5.298c-1.521 1.991-3.82 3.037-6.146 3.037z" fill="#ccf49f"/></g><g><g><path d="m267.069 203.018c-1.644 0-3.301-.522-4.705-1.603l-4.553-3.503c-3.382-2.602-4.014-7.453-1.412-10.835 2.602-3.381 7.451-4.017 10.835-1.412l4.553 3.503c3.382 2.602 4.014 7.453 1.412 10.835-1.522 1.978-3.813 3.015-6.13 3.015z" fill="#ccf49f"/></g><g><path d="m220.57 210.937c-2.191 0-4.367-.927-5.895-2.727-2.761-3.254-2.361-8.13.892-10.89l4.265-3.619c3.254-2.763 8.13-2.361 10.89.892 2.761 3.254 2.361 8.13-.892 10.89l-4.265 3.619c-1.453 1.233-3.229 1.835-4.995 1.835z" fill="#ccf49f"/></g><g><path d="m282.5 253.309c-1.411 0-2.84-.386-4.122-1.196l-7.523-4.756c-3.607-2.281-4.682-7.052-2.402-10.66 2.281-3.607 7.051-4.683 10.66-2.402l7.523 4.756c3.607 2.281 4.682 7.052 2.402 10.66-1.471 2.324-3.977 3.598-6.538 3.598z" fill="#ccf49f"/></g><g><path d="m252.952 279.668c-1.492 0-3-.432-4.328-1.332-3.532-2.394-4.455-7.198-2.06-10.73l2.895-4.272c2.393-3.533 7.198-4.456 10.73-2.06 3.532 2.394 4.455 7.198 2.06 10.73l-2.895 4.272c-1.493 2.204-3.926 3.392-6.402 3.392z" fill="#ccf49f"/></g></g><g><g><path d="m141.058 256.192c-1.988 0-3.975-.763-5.486-2.286l-5.219-5.263c-3.005-3.029-2.985-7.922.045-10.927 3.028-3.004 7.921-2.985 10.927.045l5.219 5.263c3.005 3.029 2.985 7.922-.045 10.927-1.507 1.495-3.474 2.241-5.441 2.241z" fill="#ccf49f"/></g><g><path d="m168.975 263.726c-1.168 0-2.354-.267-3.469-.828-3.811-1.919-5.345-6.564-3.426-10.375l3.004-5.966c1.919-3.81 6.564-5.342 10.375-3.426 3.811 1.919 5.345 6.564 3.426 10.375l-3.004 5.966c-1.357 2.696-4.08 4.254-6.906 4.254z" fill="#ccf49f"/></g></g><g><g><path d="m170.888 108.119c-3.546 0-6.742-2.457-7.537-6.062l-.971-4.396c-.921-4.167 1.711-8.291 5.878-9.21 4.175-.925 8.291 1.711 9.21 5.878l.971 4.396c.921 4.167-1.711 8.291-5.878 9.21-.561.123-1.122.184-1.673.184z" fill="#ccf49f"/></g><g><path d="m215.573 110.664c-1.297 0-2.61-.326-3.817-1.013l-8.331-4.745c-3.707-2.112-5.002-6.83-2.89-10.538 2.113-3.709 6.83-5 10.538-2.89l8.331 4.745c3.707 2.112 5.002 6.83 2.89 10.538-1.425 2.5-4.035 3.903-6.721 3.903z" fill="#ccf49f"/></g><g><path d="m161.186 165.326c-1.497 0-3.01-.435-4.341-1.34-3.527-2.401-4.44-7.208-2.039-10.736l6.017-8.839c2.402-3.526 7.208-4.439 10.736-2.039 3.527 2.401 4.44 7.208 2.039 10.736l-6.017 8.839c-1.497 2.196-3.924 3.379-6.395 3.379z" fill="#ccf49f"/></g></g><g><g><path d="m273.743 43.655c-1.433 0-2.881-.397-4.175-1.23l-7.169-4.615c-3.588-2.31-4.625-7.091-2.315-10.679 2.31-3.589 7.091-4.625 10.679-2.315l7.169 4.615c3.588 2.31 4.625 7.091 2.315 10.679-1.477 2.294-3.965 3.545-6.504 3.545z" fill="#ccf49f"/></g><g><path d="m222.622 47.055c-2.336 0-4.643-1.054-6.163-3.058-2.577-3.4-1.911-8.247 1.489-10.825l7.529-5.708c3.402-2.58 8.247-1.91 10.825 1.489 2.577 3.4 1.911 8.247-1.489 10.825l-7.529 5.708c-1.396 1.058-3.036 1.569-4.662 1.569z" fill="#ccf49f"/></g></g><g><path d="m314.507 130.128c-2.024 0-4.045-.791-5.561-2.362l-5.418-5.616c-2.963-3.07-2.875-7.962.196-10.925 3.069-2.965 7.962-2.875 10.925.196l5.418 5.616c2.963 3.07 2.875 7.962-.196 10.925-1.5 1.447-3.433 2.166-5.364 2.166z" fill="#ccf49f"/></g><g><path d="m338.113 165.326c-1.577 0-3.169-.482-4.542-1.482-3.45-2.512-4.209-7.344-1.697-10.794l4.405-6.049c2.512-3.45 7.344-4.21 10.794-1.697 3.45 2.512 4.209 7.344 1.697 10.794l-4.405 6.049c-1.513 2.077-3.866 3.179-6.252 3.179z" fill="#ccf49f"/></g></g></svg>