<svg id="Capa_1" enable-background="new 0 0 512 512" height="512" viewBox="0 0 512 512" width="512" xmlns="http://www.w3.org/2000/svg"><g><path d="m349.683 311.402h-187.366c-14.862 0-26.909-12.048-26.909-26.909v-187.365c0-14.862 12.048-26.909 26.909-26.909h187.365c14.862 0 26.909 12.048 26.909 26.909v187.365c.001 14.862-12.047 26.909-26.908 26.909z" fill="#9d6b6b"/><path d="m349.683 70.219h-24.383c14.862 0 26.909 12.048 26.909 26.909v187.365c0 14.861-12.048 26.909-26.909 26.909h24.383c14.862 0 26.909-12.048 26.909-26.909v-187.365c0-14.861-12.048-26.909-26.909-26.909z" fill="#8b5e5e"/><path d="m319.064 200.112-8.854 8.606c-2.165 2.104-3.912 4.6-5.147 7.354l-7.372 16.43-7.991 15.783c-3.422 6.758-9.845 11.494-17.313 12.764l-9.233 1.57c-4.664.793-9.458.184-13.775-1.75l-16.365-7.33c-1.679-.752-3.439-1.308-5.246-1.656l-18.524-3.57c-5.8-1.118-10.981-4.344-14.542-9.057l-3.739-4.948c-5.777-7.644-6.429-18-1.657-26.309l4.239-7.381c3.566-6.208 4.16-13.688 1.619-20.382-3.876-10.211-.336-21.751 8.6-28.031l8.005-5.626 13.593-9.627c4.183-2.963 9.209-4.502 14.334-4.39l13.826.302c1.648.036 3.288.242 4.893.616l16.107 3.748c2.219.516 4.501.713 6.776.583l12.763-.728c9.986-.57 19.27 5.14 23.267 14.309l4.255 9.761c.612 1.404 1.088 2.863 1.42 4.358l2.731 12.274c1.802 8.095-.723 16.546-6.67 22.327z" fill="#c6865c"/><path d="m325.735 177.785-2.731-12.274c-.333-1.495-.808-2.954-1.42-4.358l-4.255-9.762c-3.997-9.169-13.281-14.878-23.267-14.309l-12.763.728c-2.275.13-4.557-.066-6.776-.583l-16.107-3.747c-1.605-.374-3.245-.58-4.893-.616l-13.826-.302c-2.22-.049-4.415.231-6.537.783.219.044.438.084.656.135l16.107 3.747c2.219.516 4.501.713 6.776.583l12.763-.728c9.986-.569 19.27 5.14 23.267 14.309l4.255 9.762c.612 1.404 1.088 2.863 1.42 4.358l2.731 12.274c1.801 8.096-.723 16.546-6.671 22.327l-8.854 8.606c-2.165 2.104-3.911 4.6-5.147 7.354l-7.372 16.43-7.991 15.783c-3.21 6.339-9.061 10.899-15.937 12.488l.216.097c4.317 1.934 9.112 2.543 13.775 1.75l9.233-1.57c7.468-1.27 13.891-6.006 17.313-12.764l7.991-15.783 7.372-16.43c1.236-2.755 2.982-5.25 5.147-7.354l8.854-8.606c5.947-5.782 8.472-14.233 6.671-22.328z" fill="#c17d4f"/><g fill="#95d6a4"><path d="m227.387 166.335-38.147-39.127c-11.221-11.51-26.219-18.823-42.262-19.83-6.053-.38-12.119.094-18.202 1.527-22.946 5.405-47.105-.333-64.454-16.293-14.674-13.5-28.194-28.267-40.653-44.203-3.953-5.056-11.254-5.956-16.332-2.031-4.372 3.38-5.76 9.354-3.376 14.339 12.277 25.679 27.694 47.582 46.143 65.84 6.854 6.783 1.217 18.361-8.341 17.084-7.646-1.022-15.067-3.526-22.282-7.387-8.816-4.719-19.481 1.522-19.481 11.521 0 4.09 1.889 7.971 5.148 10.443 15.715 11.923 33.625 17.736 52.946 19.622 6.272.612 10.471 6.724 8.702 12.772-6.594 22.549-19.986 42.514-38.349 57.168l-14.132 11.28c-7.004 5.59-6.404 16.417 1.173 21.2 3.988 2.517 9.024 2.682 13.168.432l11.854-6.435c30.858-16.752 55.735-42.695 71.179-74.228 2.282-4.66 8.128-6.181 12.453-3.314 28.004 18.559 70.62 15.857 101.725-8.216 3.112-2.408 5.127-5.969 5.627-9.872.58-4.511-.933-9.037-4.107-12.292z"/><path d="m229.656 214.696-34.751 23.271c-9.793 6.558-16.138 17.155-17.295 28.884-1.293 13.11-9.049 24.708-20.673 30.909l-15.067 8.038c-28.584 15.25-46.991 44.459-48.415 76.824-.704 16.007.945 32.031 4.893 47.559l2.132 8.384c1.835 7.216 9 11.73 16.301 10.27 5.582-1.116 9.93-5.503 10.997-11.095l5.443-28.518c.859-4.498 6.599-5.916 9.453-2.335l8.989 11.278c12.577 15.779 19.425 35.359 19.425 55.537v3.035c0 7.36 5.966 13.326 13.326 13.326 7.802 0 13.935-6.672 13.279-14.446l-2.71-32.13c-1.458-17.285-1.189-34.672.804-51.904l.603-5.215c.537-4.642 6.574-6.09 9.157-2.196l9.532 14.367c7.389 11.137 13.911 22.825 19.51 34.96l22.392 48.542c2.256 4.89 7.149 8.022 12.534 8.022 9.534 0 16.198-9.436 13.009-18.421l-13.22-37.248c-8.677-24.446-9.931-50.913-3.606-76.07 4.41-17.54 5.608-35.734 3.536-53.701l-8.725-75.666c-.603-5.225-3.248-10-7.359-13.28-6.78-5.412-16.285-5.809-23.494-.981z"/><path d="m286.964 187.107 6.36-2.225c36.234-12.675 76.165-8.68 109.285 10.726 26.076 15.279 60.572 31.362 97.126 36.984 7.048 1.084 12.264 7.121 12.264 14.253 0 9.031-8.215 15.897-17.081 14.18-10.119-1.959-20.391-5.324-30.79-9.862-7.174-3.13-14.118 4.877-10.091 11.588l6.933 11.555c8.544 14.24 20.505 26.124 34.8 34.577l9.778 5.781c3.998 2.364 6.451 6.664 6.451 11.309 0 8.819-8.518 15.134-16.956 12.57l-8.343-2.534c-21.04-6.391-39.381-19.549-52.178-37.432l-11.304-15.796c-4.367-6.102-14.007-3.462-14.609 4.017-.62 7.703-.694 15.298-.25 22.792 1.661 28.04 13.607 54.486 33.191 74.623l19.236 19.778c5.549 5.705 3.025 15.267-4.613 17.503-.149.044-.229.067-.229.067-3.498 1.024-7.199.254-9.947-2.041-4.775-3.988-12.921-10.782-21.744-18.138-25.913-21.605-45.401-49.912-56.334-81.83l-6.984-20.388c-6.614-19.31-20.222-35.442-38.141-45.216-9.473-5.167-17.828-12.161-24.581-20.577l-18.057-22.503c-2.023-2.521-3.186-5.623-3.318-8.852-.274-6.656 3.837-12.709 10.126-14.909z"/><path d="m261.431 152.057-5.112-23.598c-1.317-6.081 1.534-12.303 7-15.276l7.444-4.048c3.838-2.087 6.483-5.846 7.152-10.164l5.423-34.994c.805-5.193 4.448-9.5 9.436-11.154l8.329-2.762c12.257-4.065 23.914-9.754 34.659-16.917l13.285-8.855c5.775-3.85 13.499-2.891 18.158 2.253 5.796 6.4 4.481 16.469-2.765 21.165l-41.87 27.136c-3.986 2.583-6.391 7.009-6.391 11.759v19.338c0 2.509-.674 4.971-1.95 7.131l-25.511 43.152c-2.521 4.265-7.108 6.881-12.062 6.881h-1.529c-6.597-.001-12.3-4.601-13.696-11.047z"/></g><g><path d="m141.545 169.66c-3.574 0-6.78-2.495-7.55-6.124-.447-2.023-3.11-11.943-11.809-10.493-25.665 4.247-45.127-9.775-45.943-10.374-3.441-2.524-4.182-7.36-1.657-10.8 2.524-3.44 7.362-4.181 10.8-1.657.123.087 15.199 10.745 34.277 7.586 18.958-3.129 27.562 13.391 29.457 22.571.863 4.179-1.825 8.267-6.004 9.129-.527.109-1.054.162-1.571.162z" fill="#78c2a4"/></g><g><path d="m198.644 181.045c-2.184 0-4.354-.921-5.882-2.712-4.859-5.697-13.465-4.523-13.553-4.509-4.207.688-8.15-2.167-8.842-6.378-.691-4.21 2.196-8.19 6.406-8.881.698-.113 17.171-2.657 27.745 9.74 2.77 3.246 2.382 8.124-.864 10.892-1.455 1.241-3.237 1.848-5.01 1.848z" fill="#78c2a4"/></g><g><path d="m139.059 371.172c-.674 0-1.357-.089-2.038-.275-4.117-1.123-6.543-5.37-5.421-9.487 9.469-34.722 52.849-47.859 54.691-48.401 4.095-1.204 8.389 1.137 9.594 5.229 1.204 4.091-1.132 8.382-5.219 9.592-.475.142-36.98 11.329-44.158 37.647-.937 3.436-4.052 5.695-7.449 5.695z" fill="#78c2a4"/></g><g><path d="m230.612 379.616c-3.293 0-6.343-2.121-7.374-5.429-13.339-42.791-4.036-82.091-3.634-83.742 1.011-4.147 5.189-6.688 9.336-5.678 4.144 1.01 6.685 5.185 5.679 9.329-.121.509-8.625 37.009 3.371 75.492 1.27 4.074-1.003 8.406-5.076 9.676-.765.238-1.54.352-2.302.352z" fill="#78c2a4"/></g><g><path d="m382.542 289.996c-4.021 0-7.413-3.113-7.699-7.185-1.553-22.121-23.493-33.367-23.714-33.478-3.805-1.907-5.364-6.538-3.471-10.35 1.892-3.813 6.495-5.384 10.317-3.503 1.227.604 30.1 15.15 32.283 46.249.299 4.257-2.909 7.95-7.166 8.248-.185.013-.368.019-.55.019z" fill="#78c2a4"/></g><g><path d="m362.329 215.776h-22.768c-4.268 0-7.726-3.459-7.726-7.726 0-4.268 3.459-7.726 7.726-7.726h22.768c4.268 0 7.726 3.459 7.726 7.726.001 4.267-3.458 7.726-7.726 7.726z" fill="#78c2a4"/></g></g></svg>