<svg id="Capa_1" enable-background="new 0 0 512 512" height="512" viewBox="0 0 512 512" width="512" xmlns="http://www.w3.org/2000/svg"><g><path d="m457.501 218.35c16.038-11.164 26.205-29.261 31.356-53.28 1.235-5.756-4.959-10.23-10.008-7.203-31.188 18.701-66.876 28.566-103.242 28.538-30.711-.023-59.724 14.091-78.662 38.267l-23.781 29.685c-7.845 9.793-13.657 21.054-17.095 33.122l-16.13 56.627 92.829-56.892 19.947-30.188 97.061-13.717z" fill="#95d6a4"/><path d="m54.499 218.35c-16.038-11.164-26.205-29.261-31.356-53.28-1.235-5.756 4.959-10.23 10.008-7.203 31.188 18.701 66.876 28.566 103.242 28.538 30.711-.023 59.724 14.091 78.662 38.267l35.668 44.522 21.339 74.911-92.829-56.892-19.947-30.188-97.061-13.717z" fill="#95d6a4"/><path d="m132.723 269.904c2.904-2.199 21.565.436 24.662-1.395 11.777-6.966 8.791-1.324 22.182-2.822 3.468-.388 7.155 3.782 10.836-15.185l-3.433-2.981c-15.402-13.373-35.956-19.199-56.085-15.898-13.134 2.154-26.613.125-38.531-5.801-26.226-13.041-57.714-9.082-79.896 10.043-16.089 13.872-16.679 38.605-1.269 53.228l.385.365c8.958 8.5 22.089 10.532 33.418 5.617 7.356-3.191 15.797-2.498 25.097 1.269 9.623 3.898 20.717 2.844 29.029-3.378 2.375-1.777 4.464-3.908 6.212-6.437 6.509-9.416 16.592-15.46 27.393-16.625z" fill="#69af81"/><path d="m499.543 235.866c-22.182-19.126-53.671-23.084-79.897-10.043-11.918 5.926-25.397 7.955-38.531 5.801-20.129-3.301-40.683 2.525-56.085 15.898l-3.433 2.981c0 7.921 3.085 7.778 5.228 7.928 14.577 1.018 21.382 1.684 34.188 9.141 3.295 1.919 6.899 0 18.263 2.333 10.801 1.165 20.884 7.209 27.394 16.628 1.748 2.529 3.837 4.659 6.212 6.437 8.312 6.222 19.406 7.276 29.029 3.378 9.3-3.767 17.741-4.46 25.097-1.269 11.329 4.915 24.46 2.883 33.418-5.617l.385-.365c15.411-14.626 14.821-39.359-1.268-53.231z" fill="#69af81"/><path d="m190.403 250.503c-20.559.065-40.867 6.672-57.679 19.401 4.949-.534 10.049-.044 15.026 1.617 5.781 1.929 10.844 4.862 15.125 8.892l7.545 6.691 42.919-16.687z" fill="#5ea570"/><path d="m321.597 250.503c20.559.065 40.867 6.672 57.679 19.401-4.949-.534-10.049-.044-15.026 1.617-5.781 1.929-10.844 4.862-15.125 8.892l-7.545 6.691-42.919-16.687z" fill="#5ea570"/><g><g><path d="m149.824 491.481c-.742-1.81-1.356-3.708-1.844-5.69-.804-3.269 1.678-6.431 5.043-6.431h194.791c3.366 0 5.847 3.162 5.043 6.431-.487 1.982-1.102 3.881-1.844 5.69-5.01 12.222-17.199 19.965-30.408 19.965h-140.373c-13.209 0-25.399-7.743-30.408-19.965z" fill="#9d6b6b"/><path d="m347.814 479.36h-24.37c3.366 0 5.847 3.162 5.043 6.431-.487 1.982-1.102 3.881-1.844 5.69-5.01 12.222-17.199 19.965-30.408 19.965h24.37c13.209 0 25.398-7.743 30.408-19.965.742-1.81 1.356-3.708 1.844-5.69.804-3.269-1.677-6.431-5.043-6.431z" fill="#8b5e5e"/></g><path d="m188.558 479.36c-34.671-59.037-46.228-102.297-34.671-191.458h193.063c11.557 89.161 0 132.422-34.671 191.458z" fill="#c6865c"/><path d="m346.951 287.902h-22.014c11.557 89.161 0 132.422-34.671 191.458h22.014c34.671-59.037 46.227-102.297 34.671-191.458z" fill="#c17d4f"/></g><g fill="#95d6a4"><path d="m230.821 292.282c-.095.013-.19.026-.285.038.095-.012.19-.025.285-.038z"/><path d="m119.83 308.388c.228 1.354.62 2.694 1.201 3.985 7.551 16.784 2.492 35.575-10.96 46.198-.565.446-1.122.896-1.671 1.35-17.156 14.194-17 40.596-.052 55.037l.323.275c7.772 6.623 17.84 9.805 27.868 8.575 6.647-.815 12.586-3.075 17.615-7.191 5.702-4.667 9.391-11.352 10.717-18.601 1.825-9.98 4.426-29.209 1.277-45.678-2.021-10.571-.583-21.601 4.381-31.151 10.989-21.144 33.053-25.175 55.471-28.253 10.625-5.833-2.83-15.321-9.291-16.871-20.938-5.022-55.042.751-74.471 9.525-8.938 4.038-17.321 10.024-22.408 22.8z"/></g><g><path d="m225.999 292.936c10.068-1.382 20.207-2.573 29.447-5.034l-23.073-10.942c-35.531-16.851-77.877-10.714-106.775 15.956-.275.254-.549.509-.823.765-4.069 3.81-5.843 9.376-4.945 14.707 28.876-26.218 70.877-32.176 106.169-15.452z" fill="#78c2a4"/></g><g fill="#95d6a4"><path d="m280.976 292.255c.175.024.351.048.526.071-.175-.024-.351-.048-.526-.071z"/><path d="m403.6 359.922c-.549-.454-1.106-.905-1.671-1.35-13.737-10.848-18.254-29.745-11.162-45.748.618-1.395 1.086-2.554 1.403-4.436-2.509-11.815-10.813-19.243-23.786-23.307-14.548-4.558-58.487-9.366-73.664-6.774-8.623 1.473-10.584 2.752-8.719 14.628 22.419 3.078 44.482 7.109 55.471 28.253 4.963 9.55 6.402 20.58 4.381 31.151-3.149 16.469-.548 35.698 1.278 45.678 1.326 7.248 5.015 13.934 10.717 18.601 5.029 4.116 10.967 6.376 17.615 7.191 10.027 1.229 20.096-1.952 27.868-8.575l.323-.275c16.946-14.441 17.102-40.843-.054-55.037z"/></g><g><path d="m286.001 292.936c-10.068-1.382-20.207-2.573-29.447-5.034l23.073-10.942c35.531-16.851 77.877-10.714 106.775 15.956.275.254.549.509.823.765 4.069 3.81 5.843 9.376 4.945 14.707-28.876-26.218-70.877-32.176-106.169-15.452z" fill="#78c2a4"/></g><g><g><path d="m454.831 265.889c-18.328 4.726-48.139-2.086-49.399-2.379-4.148-.963-6.73-5.105-5.767-9.253s5.108-6.734 9.253-5.767c7.571 1.751 29.894 5.608 42.062 2.468 11.509-2.97 20.991-2.281 28.18 2.046.985.593 1.877 1.227 2.684 1.883 4.902 3.988 2.945 11.92-3.201 13.391l-.451.108c-2.136.511-4.347-.056-6.09-1.393-2.388-1.831-7.371-3.66-17.271-1.104z" fill="#5ea570"/></g><g><path d="m32.249 268.279c-6.146-1.471-8.103-9.404-3.2-13.392.807-.656 1.698-1.289 2.684-1.882 7.191-4.328 16.672-5.013 28.179-2.047 12.171 3.145 34.493-.717 42.066-2.468 4.146-.956 8.288 1.624 9.249 5.771s-1.62 8.288-5.767 9.25c-1.259.293-31.07 7.107-49.4 2.378-9.898-2.554-14.881-.725-17.269 1.107-1.847 1.415-4.278 1.825-6.542 1.283z" fill="#5ea570"/></g></g><g><g><path d="m127.371 398.243c-2.362 0-4.693-1.081-6.205-3.125-2.532-3.424-1.809-8.252 1.615-10.783 8.999-6.655 7.813-20.216 7.8-20.351-.404-4.222 2.675-8 6.894-8.427 4.213-.428 7.989 2.609 8.441 6.825.098.909 2.201 22.394-13.967 34.351-1.378 1.019-2.985 1.51-4.578 1.51z" fill="#78c2a4"/></g><g><path d="m383.52 398.243c-1.593 0-3.199-.491-4.579-1.511-16.168-11.958-14.063-33.443-13.966-34.351.454-4.233 4.267-7.299 8.488-6.843 4.221.453 7.279 4.231 6.847 8.449-.028.315-1.137 13.738 7.8 20.347 3.423 2.532 4.146 7.359 1.614 10.783-1.511 2.045-3.843 3.126-6.204 3.126z" fill="#78c2a4"/></g></g><g><path d="m255.442 295.612c-3.318 0-6.382-2.158-7.382-5.5-.461-1.539-11.328-38.256-14.795-85.745-4.712-64.519 6.255-115.317 32.594-150.985 2.53-3.425 7.355-4.153 10.781-1.622 3.425 2.53 4.152 7.356 1.622 10.781-57.775 78.239-15.86 221.711-15.429 223.152 1.218 4.079-1.1 8.374-5.179 9.594-.736.22-1.481.325-2.212.325z" fill="#69af81"/></g><g><g fill="#dd5ca2"><path d="m280.158 56.407h-21.754l-8.521-29.961c-3.646-12.819 5.82-25.827 19.147-25.891.167-.001.334-.001.501 0 13.327.064 22.793 13.072 19.147 25.891z"/><path d="m282.626 80.628v-21.753l29.961-8.521c12.819-3.646 25.827 5.82 25.891 19.147.001.167.001.334 0 .501-.064 13.327-13.072 22.793-25.891 19.147z"/><path d="m258.405 83.095h21.754l8.521 29.961c3.646 12.819-5.82 25.827-19.147 25.891-.167.001-.334.001-.501 0-13.327-.064-22.793-13.072-19.147-25.891z"/><path d="m255.938 58.875v21.754l-29.961 8.521c-12.819 3.646-25.827-5.82-25.891-19.147-.001-.167-.001-.334 0-.501.064-13.327 13.072-22.793 25.891-19.147z"/></g><path d="m286.408 68.007-15.382-15.382 15.161-27.211c6.487-11.642 22.378-14.147 31.847-4.769.119.118.237.236.354.354 9.378 9.469 6.873 25.36-4.769 31.847z" fill="#e490d0"/><path d="m271.026 86.878 15.382-15.382 27.211 15.161c11.642 6.487 14.147 22.378 4.769 31.847-.117.119-.236.237-.354.354-9.469 9.378-25.36 6.873-31.847-4.769z" fill="#e490d0"/><path d="m252.155 71.496 15.382 15.382-15.161 27.211c-6.487 11.642-22.378 14.147-31.847 4.769-.119-.118-.237-.236-.354-.354-9.378-9.469-6.873-25.36 4.769-31.847z" fill="#e490d0"/><path d="m267.537 52.625-15.382 15.382-27.211-15.161c-11.642-6.487-14.147-22.378-4.769-31.847.118-.119.236-.237.354-.354 9.469-9.378 25.36-6.873 31.847 4.769z" fill="#e490d0"/><circle cx="269.282" cy="69.751" fill="#ecbe6b" r="18.179"/></g><g><path d="m248.264 265.297c-3.838 0-7.159-2.855-7.639-6.76-.09-.729-2.124-18.095 4.227-38.147 5.95-18.79 20.568-43.552 56.41-54.814 4.065-1.279 8.39.983 9.666 5.044 1.276 4.062-.982 8.39-5.044 9.666-56.2 17.658-50.235 73.997-49.953 76.388.497 4.221-2.515 8.058-6.734 8.566-.313.039-.625.057-.933.057z" fill="#69af81"/></g><g><path d="m240.804 209.498c-3.958 0-7.325-3.029-7.672-7.045-2.801-32.355-40.834-34.85-42.452-34.94-4.243-.237-7.505-3.864-7.279-8.108.226-4.243 3.852-7.521 8.078-7.29.534.027 13.213.731 26.417 6.824 18.362 8.476 28.943 23.063 30.598 42.185.367 4.241-2.774 7.979-7.016 8.345-.227.02-.452.029-.674.029z" fill="#69af81"/></g></g></svg>