<svg id="Capa_1" enable-background="new 0 0 512.002 512.002" height="512" viewBox="0 0 512.002 512.002" width="512" xmlns="http://www.w3.org/2000/svg"><g><path d="m284.571 386.229-.041-19.223c-.262-121.98-23.868-242.782-69.546-355.887l-2.47-6.115c-1.005-2.489-4.707-1.766-4.702.919l.014 6.595c.262 121.98 23.868 242.782 69.546 355.887z" fill="#69af81"/><path d="m227.431 386.229.041-19.223c.262-121.98 23.868-242.782 69.546-355.887l2.47-6.115c1.005-2.489 4.707-1.766 4.702.919l-.014 6.595c-.262 121.98-23.868 242.782-69.546 355.887z" fill="#69af81"/><path d="m267.571 389.945-4.562-18.674c-28.947-118.496-80.307-230.356-151.308-329.542l-3.839-5.363c-1.563-2.183-4.991-.609-4.354 1.999l1.565 6.407c28.947 118.496 80.307 230.356 151.308 329.542z" fill="#95d6a4"/><path d="m261.89 389.945-7.437-17.726c-47.193-112.481-115.48-214.889-201.174-301.698l-4.633-4.693c-1.886-1.91-5.024.182-3.986 2.658l2.552 6.081c47.193 112.481 115.48 214.889 201.174 301.697z" fill="#78c2a4"/><path d="m279.457 444.729-1.145-19.189c-7.265-121.764-37.769-241.011-89.865-351.307l-2.817-5.963c-1.147-2.427-4.801-1.493-4.641 1.187l.393 6.583c7.265 121.764 37.769 241.011 89.865 351.307z" fill="#78c2a4"/><path d="m244.431 389.945 4.562-18.674c28.947-118.496 80.306-230.356 151.307-329.543l3.839-5.363c1.563-2.183 4.991-.609 4.354 1.999l-1.565 6.407c-28.947 118.496-80.307 230.356-151.308 329.542z" fill="#95d6a4"/><path d="m250.111 389.945 7.437-17.726c47.193-112.481 115.48-214.889 201.174-301.697l4.633-4.693c1.886-1.91 5.024.182 3.986 2.658l-2.552 6.081c-47.193 112.481-115.48 214.889-201.174 301.697z" fill="#78c2a4"/><path d="m232.545 444.729 1.145-19.189c7.265-121.764 37.769-241.011 89.865-351.307l2.817-5.963c1.147-2.427 4.801-1.493 4.641 1.187l-.393 6.583c-7.265 121.764-37.769 241.011-89.865 351.307z" fill="#78c2a4"/><g><path d="m256.001 389.945-3.646-18.874c-23.137-119.766-23.137-242.853 0-362.618l1.251-6.475c.509-2.636 4.281-2.636 4.791 0l1.251 6.475c23.137 119.766 23.137 242.853 0 362.618z" fill="#95d6a4"/></g><path d="m328.198 512.002h-144.394c-2.94 0-5.393-2.247-5.649-5.177l-17.171-196.48c-.29-3.314 2.322-6.164 5.649-6.164h178.737c3.326 0 5.938 2.85 5.649 6.164l-17.171 196.48c-.257 2.929-2.71 5.177-5.65 5.177z" fill="#4a80aa"/><path d="m328.455 304.181-18.162 207.821h17.905c2.94 0 5.393-2.247 5.649-5.177l17.171-196.48c.29-3.314-2.322-6.164-5.649-6.164z" fill="#407093"/></g></svg>