<svg id="Capa_1" enable-background="new 0 0 512 512" height="512" viewBox="0 0 512 512" width="512" xmlns="http://www.w3.org/2000/svg"><g><path d="m270.485 153.027 1.705-5.477c18.877-60.647 58.8-112.554 112.57-146.365l1.531-.963c.514-.323 1.175-.292 1.657.078.481.37.681 1.001.501 1.581l-.537 1.727c-18.877 60.647-58.8 112.554-112.57 146.365z" fill="#78c2a4"/><g><path d="m243.217 153.027-5.64-1.044c-62.456-11.557-126.987-.422-181.958 31.399l-1.565.906c-.526.304-.806.904-.703 1.502s.568 1.069 1.166 1.18l1.778.329c62.456 11.557 126.987.422 181.958-31.399z" fill="#95d6a4"/></g><g><path d="m270.485 153.027 4.826-3.1c53.443-34.325 117.391-48.428 180.314-39.767l1.792.247c.602.083 1.088.532 1.219 1.125s-.122 1.205-.633 1.533l-1.522.977c-53.443 34.325-117.391 48.428-180.314 39.767z" fill="#78c2a4"/></g><g><path d="m270.485 153.027 3.383-4.631c37.468-51.289 92.027-87.504 153.84-102.117l1.76-.416c.591-.14 1.207.103 1.542.61.336.506.321 1.168-.037 1.658l-1.067 1.46c-37.468 51.289-92.027 87.504-153.84 102.117z" fill="#95d6a4"/></g><g><path d="m248.168 242.224 4.818-.724c53.358-8.021 107.826 3.284 153.584 31.877l.802.501c.515.322.775.93.652 1.525s-.604 1.049-1.205 1.14l-.935.141c-53.358 8.021-107.826-3.284-153.584-31.877z" fill="#78c2a4"/></g><g><path d="m248.168 242.224 4.233-2.413c46.875-26.724 101.755-35.822 154.745-25.655l.928.178c.596.114 1.059.588 1.158 1.188.099.599-.185 1.197-.713 1.498l-.821.468c-46.875 26.724-101.755 35.822-154.745 25.655z" fill="#95d6a4"/></g><g><path d="m243.217 153.027-1.705-5.477c-18.877-60.647-58.8-112.554-112.57-146.365-.85-.478-2.196-1.766-3.188-.884-1.107.73-.206 2.367.037 3.308 18.877 60.647 58.8 112.554 112.57 146.365z" fill="#78c2a4"/></g><g><path d="m243.217 153.027-4.826-3.1c-53.443-34.325-117.391-48.428-180.314-39.767l-1.792.247c-.602.083-1.088.532-1.219 1.125s.122 1.205.633 1.533l1.522.977c53.443 34.325 117.391 48.428 180.314 39.767z" fill="#78c2a4"/></g><g><path d="m243.217 153.027-3.383-4.631c-37.468-51.289-92.027-87.504-153.84-102.117l-1.76-.416c-.591-.14-1.207.103-1.542.61-.336.506-.321 1.168.037 1.658l1.067 1.46c37.468 51.289 92.027 87.504 153.84 102.117z" fill="#95d6a4"/></g><path d="m173.206 496.757c-35.502-44.113-44.836-94.384-28.001-150.815 1.73-5.799 7.096-9.755 13.148-9.755h184.24c6.051 0 11.418 3.957 13.148 9.755 16.835 56.43 7.501 106.702-28.001 150.815-7.77 9.653-19.519 15.243-31.91 15.243h-90.715c-12.391 0-24.14-5.59-31.909-15.243z" fill="#4a80aa"/><path d="m355.74 345.942c-1.73-5.799-7.096-9.755-13.148-9.755h-27.397c6.051 0 11.418 3.957 13.148 9.755 16.835 56.43 7.501 106.702-28.001 150.814-7.769 9.654-19.518 15.244-31.909 15.244h27.397c12.391 0 24.14-5.59 31.909-15.243 35.501-44.113 44.835-94.384 28.001-150.815z" fill="#407093"/><path d="m279.612 336.187h-58.279v-201.144c0-.801.65-1.451 1.451-1.451h55.378c.801 0 1.451.65 1.451 1.451v201.144z" fill="#c6865c"/><path d="m261.358 133.593v202.594h18.254v-201.144c0-.801-.65-1.451-1.451-1.451h-16.803z" fill="#c17d4f"/><g><g><path d="m265.661 176.77h-23.14c-4.283 0-7.755-3.471-7.755-7.755s3.471-7.755 7.755-7.755h23.14c4.283 0 7.755 3.471 7.755 7.755s-3.472 7.755-7.755 7.755z" fill="#c17d4f"/></g><g><path d="m265.661 209.707h-23.14c-4.283 0-7.755-3.471-7.755-7.755s3.471-7.755 7.755-7.755h23.14c4.283 0 7.755 3.471 7.755 7.755s-3.472 7.755-7.755 7.755z" fill="#c17d4f"/></g><g><path d="m273.416 234.889c0 4.283-3.471 7.755-7.755 7.755h-23.14c-4.283 0-7.755-3.471-7.755-7.755s3.471-7.755 7.755-7.755h23.14c4.283.001 7.755 3.472 7.755 7.755z" fill="#c17d4f"/></g><g><path d="m273.416 267.827c0 4.283-3.471 7.755-7.755 7.755h-23.14c-4.283 0-7.755-3.471-7.755-7.755s3.471-7.755 7.755-7.755h23.14c4.283.001 7.755 3.472 7.755 7.755z" fill="#c17d4f"/></g><g><path d="m265.661 308.518h-23.14c-4.283 0-7.755-3.471-7.755-7.755s3.471-7.755 7.755-7.755h23.14c4.283 0 7.755 3.471 7.755 7.755s-3.472 7.755-7.755 7.755z" fill="#c17d4f"/></g></g></g></svg>