<svg id="Capa_1" enable-background="new 0 0 512 512" height="512" viewBox="0 0 512 512" width="512" xmlns="http://www.w3.org/2000/svg"><g><path d="m255.622 138.626c-27.35-.792-53.42-22.812-53.42-52.136 0-37 36.499-64.302 50.453-84.918 1.419-2.097 4.514-2.097 5.933 0 13.954 20.616 50.453 47.918 50.453 84.918 0 29.325-26.069 51.344-53.419 52.136z" fill="#f6f1f1"/><g><g><path d="m255.629 294.039c-2.48 0-4.918-1.184-6.425-3.386-22.269-32.53-11.663-63.082-2.305-90.039 6.153-17.723 11.964-34.463 7.255-49.155-3.546-11.064-5.343-22.769-5.343-34.789v-17.821c0-4.296 3.482-7.778 7.778-7.778s7.778 3.482 7.778 7.778v17.821c0 10.407 1.548 20.514 4.602 30.042 6.293 19.636-.655 39.649-7.374 59.004-8.943 25.763-17.391 50.097.445 76.151 2.426 3.545 1.52 8.384-2.024 10.811-1.344.919-2.874 1.361-4.387 1.361z" fill="#78c2a4"/></g></g><g><g><g><path d="m233.247 77.456c-3.636 0-6.885-2.561-7.621-6.263-.838-4.213 1.9-8.307 6.113-9.145l10.405-2.068c4.214-.833 8.307 1.9 9.145 6.113s-1.9 8.307-6.113 9.145l-10.405 2.068c-.511.101-1.021.15-1.524.15z" fill="#e7a52e"/></g><g><path d="m233.26 104.745c-2.921 0-5.72-1.654-7.045-4.472-1.827-3.888-.156-8.52 3.732-10.347l10.405-4.888c3.887-1.827 8.52-.156 10.347 3.732s.156 8.52-3.732 10.347l-10.405 4.888c-1.069.502-2.194.74-3.302.74z" fill="#e7a52e"/></g></g><g><g><path d="m279.93 77.456c-.502 0-1.013-.049-1.524-.15l-10.404-2.068c-4.213-.838-6.95-4.932-6.113-9.145.839-4.213 4.928-6.947 9.145-6.113l10.404 2.068c4.213.838 6.95 4.932 6.113 9.145-.736 3.702-3.985 6.263-7.621 6.263z" fill="#e7a52e"/></g><g><path d="m279.917 104.745c-1.108 0-2.233-.238-3.303-.74l-10.404-4.888c-3.888-1.827-5.559-6.459-3.732-10.347 1.827-3.887 6.459-5.557 10.347-3.732l10.404 4.888c3.888 1.827 5.559 6.459 3.732 10.347-1.324 2.818-4.123 4.472-7.044 4.472z" fill="#e7a52e"/></g></g></g><path d="m152.159 159.22c-24.357 12.466-57.805 5.707-71.915-19.999-17.803-32.435 1.055-73.931 3.368-98.718.235-2.521 2.948-4.01 5.201-2.855 22.152 11.358 67.285 17.729 85.089 50.164 14.11 25.707 1.852 57.553-21.743 71.408z" fill="#f6f1f1"/><g><g><path d="m99.635 118.316c-2.22 0-4.424-.945-5.962-2.778-2.762-3.29-2.332-8.196.958-10.958l8.125-6.819c3.291-2.761 8.196-2.331 10.958.958 2.762 3.29 2.332 8.196-.958 10.958l-8.125 6.819c-1.457 1.222-3.231 1.82-4.996 1.82z" fill="#e7a52e"/></g><g><path d="m112.755 142.237c-1.589 0-3.192-.485-4.574-1.493-3.473-2.529-4.236-7.394-1.706-10.866l6.769-9.291c2.529-3.474 7.397-4.236 10.866-1.706 3.473 2.529 4.236 7.394 1.706 10.866l-6.769 9.291c-1.522 2.09-3.89 3.199-6.292 3.199z" fill="#e7a52e"/></g></g><g><g><path d="m129.911 97.06c-3.304 0-6.368-2.121-7.415-5.438-1.293-4.097.979-8.465 5.076-9.759l10.115-3.193c4.095-1.294 8.465.979 9.759 5.076s-.979 8.465-5.076 9.759l-10.115 3.193c-.779.246-1.568.362-2.344.362z" fill="#e7a52e"/></g><g><path d="m141.679 118.507c-4.073 0-7.496-3.169-7.756-7.29-.269-4.287 2.988-7.981 7.274-8.251l11.472-.721c4.299-.261 7.981 2.988 8.251 7.274.269 4.287-2.988 7.981-7.274 8.251l-11.472.721c-.166.011-.331.016-.495.016z" fill="#e7a52e"/></g></g><g><path d="m235.949 294.26c-.575 0-1.159-.065-1.744-.199-4.187-.959-6.804-5.13-5.844-9.318 5.547-24.217 4.955-40.71-1.86-51.903-5.991-9.84-16.64-15.326-28.97-21.678-17.575-9.054-37.495-19.316-49.799-45.138-1.341-2.816-2.798-5.815-4.37-8.678-.034-.062-.068-.125-.099-.187l-16.091-31.303c-1.965-3.82-.46-8.509 3.361-10.473 3.82-1.965 8.51-.459 10.473 3.361l16.045 31.21c1.74 3.177 3.298 6.383 4.725 9.378 10.047 21.087 26.738 29.685 42.879 38.001 26.246 13.521 53.385 27.503 38.87 90.883-.827 3.603-4.03 6.044-7.576 6.044z" fill="#78c2a4"/></g><path d="m359.085 159.22c24.357 12.466 57.805 5.707 71.915-19.999 17.803-32.435-1.055-73.931-3.368-98.718-.235-2.521-2.948-4.01-5.201-2.855-22.152 11.358-67.285 17.729-85.089 50.164-14.11 25.707-1.852 57.553 21.743 71.408z" fill="#f6f1f1"/><g><g><g><path d="m411.609 118.316c-1.764 0-3.538-.597-4.996-1.82l-8.126-6.819c-3.29-2.761-3.72-7.666-.958-10.958 2.761-3.289 7.666-3.721 10.958-.958l8.126 6.819c3.29 2.761 3.72 7.666.958 10.958-1.539 1.833-3.742 2.778-5.962 2.778z" fill="#e7a52e"/></g><g><path d="m398.489 142.237c-2.401 0-4.77-1.109-6.292-3.199l-6.769-9.291c-2.53-3.472-1.766-8.337 1.706-10.866 3.47-2.528 8.336-1.767 10.866 1.706l6.769 9.291c2.53 3.472 1.766 8.337-1.706 10.866-1.382 1.007-2.985 1.493-4.574 1.493z" fill="#e7a52e"/></g></g><g><g><path d="m381.333 97.06c-.776 0-1.564-.116-2.343-.363l-10.116-3.193c-4.096-1.293-6.369-5.662-5.076-9.759 1.293-4.095 5.659-6.369 9.759-5.076l10.116 3.193c4.096 1.293 6.369 5.662 5.076 9.759-1.048 3.318-4.112 5.439-7.416 5.439z" fill="#e7a52e"/></g><g><path d="m369.565 118.507c-.164 0-.329-.005-.495-.015l-11.473-.721c-4.287-.269-7.544-3.964-7.274-8.251s3.969-7.536 8.251-7.274l11.473.721c4.287.269 7.544 3.964 7.274 8.251-.26 4.12-3.683 7.289-7.756 7.289z" fill="#e7a52e"/></g></g></g><g><path d="m275.311 294.258c-.454 0-.913-.039-1.376-.123-4.228-.754-7.045-4.794-6.289-9.023 9.79-54.85 33.905-72.006 53.282-85.793 12.805-9.11 22.918-16.305 27.677-32.619 2.749-9.423 6.701-18.769 12.082-28.572.048-.088.098-.175.15-.261l11.753-19.571c2.211-3.682 6.988-4.874 10.672-2.663 3.682 2.212 4.875 6.99 2.663 10.672l-11.674 19.439c-4.792 8.75-8.297 17.031-10.713 25.312-6.273 21.501-20.161 31.383-33.592 40.939-18.836 13.4-38.313 27.258-46.988 75.852-.671 3.766-3.95 6.411-7.647 6.411z" fill="#78c2a4"/></g><path d="m291.193 185.03c-48.958 27.723-76.759 70.021-86.176 124.984l74.131 10.484c-7.988-39.053.266-83.801 16.841-131.466 1.012-2.911-2.115-5.52-4.796-4.002z" fill="#5ea570"/><path d="m154.137 491.859c-.748-1.826-1.368-3.741-1.86-5.741-.811-3.297 1.692-6.487 5.088-6.487h196.513c3.396 0 5.899 3.19 5.088 6.487-.492 2-1.112 3.915-1.86 5.741-5.054 12.33-17.351 20.141-30.677 20.141h-141.615c-13.326 0-25.623-7.811-30.677-20.141z" fill="#9d6b6b"/><path d="m353.878 479.63h-24.585c3.396 0 5.899 3.19 5.088 6.487-.492 2-1.112 3.915-1.86 5.741-5.054 12.331-17.351 20.142-30.677 20.142h24.585c13.326 0 25.623-7.811 30.677-20.141.748-1.826 1.368-3.741 1.86-5.741.811-3.298-1.692-6.488-5.088-6.488z" fill="#8b5e5e"/><path d="m193.214 479.63c-33.621-57.25-45.697-99.793-36.228-182.894.665-5.839 5.609-10.257 11.486-10.257h174.301c5.876 0 10.82 4.418 11.486 10.257 9.469 83.1-2.607 125.644-36.228 182.894z" fill="#c6865c"/><path d="m342.772 286.48h-11.974c11.659 89.949 0 133.592-34.977 193.151h22.209c33.621-57.25 45.697-99.793 36.228-182.894-.666-5.839-5.61-10.257-11.486-10.257z" fill="#c17d4f"/><path d="m255.622 286.26c-4.169-10.909-112.849-162.517-211.777 4.019-1.507 2.536 1.489 5.324 3.923 3.657 54.58-37.375 140.945-49.741 207.854-7.676z" fill="#69af81"/><path d="m255.386 286.548c4.169-10.909 113.801-161.825 212.77 4.74 1.507 2.536-1.489 5.324-3.923 3.657-54.689-37.459-141.935-50.464-208.847-8.397z" fill="#69af81"/><path d="m255.622 286.26c-14.487-21.731-171.812-93.108-186.938 79.949-.252 2.878 3.539 4.127 5.063 1.672 31.521-50.801 111.454-89.222 181.875-81.621z" fill="#78c2a4"/><path d="m255.622 286.26c14.91-22.214 171.833-93.13 186.939 79.951.251 2.878-3.539 4.127-5.063 1.672-31.521-50.803-111.455-89.224-181.876-81.623z" fill="#78c2a4"/><path d="m258.138 286.26c-8.064-4.986-152.487-48.174-135.862 106.137.312 2.893 4.352 3.367 5.305.618 17.566-50.667 67.211-100.988 130.557-106.755z" fill="#95d6a4"/><path d="m253.105 286.26c8.064-4.986 152.487-48.174 135.862 106.137-.312 2.893-4.352 3.367-5.305.618-17.565-50.667-67.21-100.988-130.557-106.755z" fill="#95d6a4"/><g fill="#ecbe6b"><path d="m256.589 107.08c-8.286 0-15.003-6.717-15.003-15.003v-32.689c0-8.286 6.717-15.003 15.003-15.003 8.286 0 15.003 6.717 15.003 15.003v32.689c0 8.286-6.717 15.003-15.003 15.003z"/><path d="m137.827 131.101c-7.264 3.987-16.384 1.331-20.371-5.933l-15.729-28.656c-3.987-7.264-1.331-16.384 5.933-20.371 7.264-3.987 16.384-1.331 20.371 5.933l15.729 28.656c3.987 7.263 1.331 16.384-5.933 20.371z"/><path d="m373.416 131.101c7.264 3.987 16.384 1.331 20.371-5.933l15.729-28.656c3.987-7.264 1.331-16.384-5.933-20.371-7.264-3.987-16.384-1.331-20.371 5.933l-15.729 28.656c-3.987 7.263-1.33 16.384 5.933 20.371z"/></g></g></svg>