<svg id="Capa_1" enable-background="new 0 0 512 512" height="512" viewBox="0 0 512 512" width="512" xmlns="http://www.w3.org/2000/svg"><g><g><path d="m202.094 274.359c1.187-3.273 4.664-5.302 4.843-8.836l1.962-11.437c1.013-7.043 3.782-32.828-3.279-33.707l-.415-.052c-6.246-.778-9.961 2.691-10.117-3.6l-6.063-9.181c-.176-7.076-6.097-12.646-13.17-12.389-6.512.236-14.217-.293-15.121-6.747l-.074-.531c-1.035-7.398-10.938-23.755-18.214-22.063l-.818.191c-6.344 1.476-35.013-9.894-37.742-15.693l-.228-.485c-2.102-4.465-19.106-11.292-23.728-11.444-4.453-.147-8.331 10.055-12.628 8.964.432 3.233.655 6.498.741 9.77.123 4.623 2.772 9.01 7.223 11.14l.484.231c5.781 2.767 8.598 9.404 6.574 15.484l-.62 1.861c-2.192 6.581 1.297 13.705 7.84 16.009l.34.12c6.144 2.163 9.659 8.619 8.142 14.953l-.196.817c-1.74 7.265 3.129 14.457 10.521 15.54l.531.077c6.448.945 11.137 6.611 10.859 13.122-.302 7.072 5.23 13.029 12.304 13.25l1.714.053c6.291.197 11.491 4.967 12.228 11.218l.049.415c.834 7.067 7.305 12.073 14.354 11.106l21.857-.965c7.23-.318 14.146-2.851 19.847-7.191z" fill="#4f8980"/><path d="m206.077 211.753-.416-.052c-6.246-.778-10.982-6.008-11.139-12.3l-.043-1.714c-.176-7.076-6.097-12.646-13.17-12.389-6.512.236-12.148-4.49-13.051-10.943l-.074-.531c-1.035-7.399-8.196-12.314-15.472-10.621l-.818.19c-6.344 1.476-12.777-2.081-14.9-8.238l-.118-.341c-2.261-6.558-9.362-10.092-15.958-7.943l-1.865.608c-6.094 1.986-12.712-.875-15.442-6.673l-.228-.485c-2.102-4.465-6.472-7.143-11.094-7.295-5.906-.195-11.774-1.021-17.34-3.007l-3.858-1.377c-3.925-1.4-7.788 2.229-6.635 6.234l.979 3.401c.858 2.979 1.453 6.011 1.862 9.072 4.297 1.091 8.727 1.598 13.181 1.745 4.622.152 8.992 2.83 11.094 7.295l.228.485c2.729 5.799 9.348 8.659 15.442 6.673l1.865-.608c6.595-2.149 13.696 1.385 15.958 7.943l.118.341c2.123 6.157 8.556 9.714 14.9 8.238l.818-.191c7.276-1.693 14.437 3.222 15.472 10.621l.074.531c.903 6.454 6.539 11.179 13.052 10.943 7.073-.257 12.994 5.313 13.17 12.389l.042 1.714c.156 6.292 4.893 11.523 11.139 12.3l.416.052c7.061.879 12.026 7.382 11.013 14.425l-1.105 21.85c-.179 3.535-.894 6.988-2.081 10.261 1.226-.934 2.4-1.947 3.504-3.044 6.239-6.199 9.943-14.502 10.387-23.286l1.105-21.85c1.014-7.041-3.951-13.544-11.012-14.423z" fill="#3d6b73"/></g><path d="m296.015 248.028c.299 5.915 2.082 11.61 5.117 16.593 3.49 1.325 7.196 2.103 10.988 2.271l17.312 9.155c7.05.967 24.691-5.406 24.691-5.406.737-6.251.43-7.985 6.721-8.182l6.721-9.173c7.075-.221 14.328-7.57 14.026-14.642-.116-2.706 8.74-5.11 14.172-10.227 7.636-7.194 6.053-24.012 9.643-25.276l14.026-13.003c6.543-2.304-4.32-13.597 1.461-16.363l11.98-12.273c4.451-2.13 2.507-15.393 2.63-20.016.09-3.371-8.85-5.761-8.392-9.09-2.447.344-4.919.546-7.399.628-4.622.152-8.992 2.83-11.094 7.295l-.228.485c-2.729 5.799-9.348 8.659-15.442 6.673l-1.865-.607c-6.595-2.149-13.696 1.385-15.958 7.943l-.118.341c-2.123 6.157-8.557 9.714-14.9 8.238l-.818-.19c-7.276-1.693-14.437 3.222-15.472 10.621l-.074.531c-.903 6.453-6.539 11.179-13.052 10.943-7.074-.257-12.994 5.313-13.17 12.389l-.043 1.714c-.156 6.292-4.893 11.523-11.139 12.301l-.416.052c-7.061.879-12.026 7.382-11.013 14.425z" fill="#4f8980"/><path d="m440.907 128.642-3.858 1.377c-3.229 1.152-6.561 1.904-9.941 2.379-.458 3.328-.695 6.691-.784 10.062-.122 4.623-2.772 9.01-7.223 11.14l-.484.232c-5.781 2.767-8.598 9.404-6.574 15.484l.62 1.861c2.192 6.581-1.297 13.705-7.84 16.009l-.34.12c-6.143 2.163-9.659 8.619-8.142 14.953l.196.817c1.74 7.265-3.129 14.457-10.521 15.54l-.53.077c-6.448.945-11.137 6.611-10.859 13.122.302 7.072-5.23 13.029-12.304 13.249l-1.714.054c-6.291.197-11.491 4.967-12.228 11.217l-.049.416c-.834 7.067-7.305 12.073-14.354 11.106l-21.857-.965c-3.792-.168-7.498-.945-10.988-2.271 1.471 2.417 3.233 4.669 5.27 6.693 6.239 6.199 14.566 9.849 23.352 10.236l21.857.965c7.05.967 13.52-4.039 14.354-11.106l.049-.416c.737-6.251 5.938-11.021 12.228-11.218l1.714-.053c7.075-.221 12.607-6.178 12.304-13.25-.278-6.511 4.411-12.177 10.859-13.122l.531-.077c7.392-1.083 12.261-8.275 10.521-15.54l-.196-.817c-1.517-6.334 1.998-12.79 8.142-14.953l.34-.12c6.543-2.304 10.032-9.427 7.84-16.009l-.619-1.861c-2.025-6.081.793-12.718 6.573-15.484l.484-.231c4.451-2.131 7.101-6.518 7.223-11.14.169-6.371.84-12.718 2.603-18.843l.979-3.401c1.154-4.003-2.709-7.633-6.634-6.232z" fill="#3d6b73"/><g><path d="m240.012 362.492c-.079 0-.16-.001-.24-.004-4.265-.13-7.617-3.693-7.486-7.959.418-13.667-6.749-33.177-20.727-56.422-10.915-18.152-22.155-32.096-22.267-32.234-2.684-3.317-2.172-8.181 1.144-10.865 3.316-2.686 8.181-2.173 10.865 1.141 1.946 2.402 47.641 59.292 46.43 98.853-.129 4.185-3.561 7.49-7.719 7.49z" fill="#95d6a4"/></g><g><path d="m271.988 362.492c-4.158 0-7.591-3.306-7.718-7.49-1.21-39.561 44.485-96.451 46.431-98.853 2.684-3.314 7.547-3.827 10.865-1.141 3.316 2.684 3.828 7.548 1.144 10.865-.112.139-11.351 14.082-22.267 32.234-13.978 23.244-21.146 42.755-20.728 56.422.131 4.266-3.221 7.829-7.486 7.959-.081.003-.162.004-.241.004z" fill="#95d6a4"/></g><g><path d="m258.806 188.142c3.248 7.766 13.044 16.856 11.744 15.786 6.494 1.211 13.237.851 19.643-1.141l24.176-7.518c8.055-1.71 20.644 2.113 18.781-5.907l3.581-17.903c7.616-3.014 14.838-5.215 11.736-12.796 0 0 4.49-24.086 11.14-27.642l6.962-41.517c4.695-23.87 11.824-57.181 10.145-62.262-1.633-4.942-5.45-15.317-14.758-19.794-4.219 2.837-8.806 5.102-13.555 6.991-4.973 1.978-8.681 6.606-9.219 12.291l-.058.618c-.699 7.383-6.784 13.092-14.197 13.319l-2.268.069c-8.024.245-14.369 6.878-14.261 14.904l.006.418c.102 7.536-5.508 13.931-12.994 14.81l-.965.114c-8.586 1.009-14.455 9.168-12.682 17.629l.127.607c1.547 7.381-2.737 14.735-9.92 17.031-7.802 2.493-12.065 10.879-9.483 18.652l.625 1.883c2.297 6.912-.81 14.464-7.306 17.759l-.432.219c-7.343 3.725-10.2 12.752-6.336 20.023z" fill="#69af81"/></g><path d="m344.023 185.706c-1.648-7.095 2.144-14.327 8.917-17.007l1.845-.73c7.616-3.014 11.304-11.668 8.203-19.249-2.855-6.98.029-14.987 6.679-18.543l.547-.293c7.623-4.077 10.105-13.816 5.363-21.044l-.533-.813c-4.135-6.302-2.838-14.709 3.003-19.472l.324-.264c6.221-5.073 7.227-14.197 2.261-20.503l-1.404-1.783c-4.588-5.826-4.122-14.157 1.087-19.436l.436-.442c4.011-4.065 5.176-9.88 3.498-14.961-2.314-7.003-4.072-14.177-4.552-21.536l-.267-4.087c-.314-4.812-5.943-7.25-9.667-4.186l-3.66 3.011c-1.334 1.097-2.719 2.121-4.146 3.08.825 5.118 2.17 10.148 3.803 15.09 1.679 5.081.514 10.897-3.498 14.961l-.436.442c-5.209 5.278-5.676 13.609-1.087 19.436l1.404 1.783c4.966 6.307 3.96 15.43-2.261 20.503l-.324.264c-5.841 4.763-7.138 13.17-3.003 19.472l.533.813c4.742 7.228 2.26 16.968-5.363 21.044l-.547.293c-6.65 3.556-9.534 11.564-6.679 18.543 3.101 7.581-.587 16.235-8.203 19.25l-1.845.73c-6.772 2.68-10.564 9.912-8.917 17.007l.109.472c1.863 8.021-3.22 16.008-11.275 17.718l-24.176 7.518c-6.406 1.992-13.148 2.353-19.643 1.141 2.638 2.171 5.549 4.028 8.693 5.495 9.223 4.304 19.72 5.013 29.439 1.991l24.175-7.518c8.055-1.71 13.137-9.698 11.275-17.718z" fill="#5ea570"/><g><g><path d="m227.748 211.364c2.576-3.098 4.708-6.578 6.288-10.356l9.018-21.562-7.616-13.606-3.066-12.174c-2.782-3.362-3.981-7.859-3.091-12.272l-5.244-20.822c-.976-.593 2.289-14.688-2.075-8.175l-1.024-9.624-5.529-18.634c-7.486-.88-14.357-13.924-14.357-13.924.109-8.027-5.468-19.822-13.492-20.067 0 0-33.524-29.966-38.496-31.944-4.791-1.905-10.27-5.938-18.289 2.034-.797 3.689-1.835 7.331-3.023 10.928-1.679 5.081-.514 10.896 3.497 14.961l.436.442c5.21 5.279 5.676 13.609 1.087 19.436l-1.404 1.783c-4.966 6.307-3.96 15.43 2.261 20.503l.324.264c5.841 4.763 7.138 13.171 3.003 19.472l-.533.813c-4.742 7.228-2.26 16.968 5.363 21.044l.547.293c6.65 3.556 9.534 11.564 6.679 18.543-3.101 7.581.587 16.235 8.203 19.249l1.845.73c6.772 2.68 10.564 9.912 8.917 17.007l-.11.472c-1.863 8.021 3.22 16.008 11.275 17.719l24.175 7.518c8.777 2.729 18.184 2.404 26.719-.852-.756.287-1.518.559-2.288.801z" fill="#69af81"/></g><path d="m256.627 144.762-.432-.219c-6.495-3.295-9.602-10.847-7.306-17.759l.626-1.883c2.582-7.773-1.681-16.159-9.483-18.652-7.183-2.296-11.467-9.651-9.92-17.031l.127-.607c1.773-8.461-4.096-16.62-12.682-17.629l-.965-.113c-7.486-.88-13.096-7.274-12.994-14.81l.006-.418c.109-8.026-6.237-14.658-14.261-14.904l-2.268-.069c-7.413-.227-13.498-5.936-14.197-13.319l-.058-.618c-.538-5.685-4.246-10.314-9.219-12.291-6.354-2.527-12.42-5.727-17.701-10.071l-3.66-3.011c-3.725-3.063-9.353-.626-9.667 4.186l-.267 4.087c-.234 3.579-.774 7.114-1.529 10.608 4.25 2.872 8.876 5.161 13.667 7.067 4.973 1.978 8.681 6.606 9.219 12.291l.058.618c.699 7.383 6.784 13.092 14.197 13.319l2.268.069c8.024.245 14.369 6.877 14.261 14.904l-.006.418c-.102 7.536 5.508 13.931 12.994 14.81l.965.113c8.586 1.009 14.455 9.168 12.682 17.629l-.127.607c-1.547 7.381 2.738 14.735 9.92 17.031 7.802 2.493 12.065 10.879 9.483 18.652l-.626 1.883c-2.296 6.912.81 14.464 7.306 17.759l.432.219c7.343 3.725 10.2 12.752 6.336 20.023l-9.769 23.357c-1.58 3.778-3.713 7.258-6.288 10.356 1.701-.536 3.376-1.179 5.009-1.941 9.223-4.304 16.51-11.892 20.438-21.281l9.769-23.357c3.861-7.272 1.005-16.298-6.338-20.023z" fill="#5ea570"/></g><path d="m263.116 258.024 29.084-14.034c6.576-4.956 2.137-21.96-4.173-32.625l6.31-8.925c5.627-5.952 6.457-12.409.441-17.967-5.538-5.118 0-17.735 0-17.735 5.185-6.918 3.12-18.109-4.234-22.654 0 0-6.408-8.961-3.129-15.748l-4.782-24.7c-12.083-20.283-14.277-38.749-17.948-42.644-3.57-3.788-6.642-13.743-19.137-10.329-2.624 4.355-5.823 8.347-9.328 12.067-3.67 3.895-5.073 9.657-3.157 15.037l.208.585c2.489 6.986-.611 14.733-7.233 18.072l-2.026 1.022c-7.167 3.615-10.113 12.308-6.621 19.536l.182.376c3.279 6.786.899 14.953-5.513 18.915l-.827.511c-7.354 4.545-9.223 14.42-4.038 21.338l.372.496c4.522 6.034 3.75 14.511-1.788 19.628-6.016 5.559-6.333 14.961-.706 20.912l1.363 1.442c5.004 5.292 5.382 13.45.889 19.182l-.299.382c-5.079 6.481-3.851 15.868 2.725 20.824l18.729 17.035c4.963 4.515 10.921 7.692 17.318 9.34 6.398-1.648 12.356-4.825 17.318-9.339z" fill="#95d6a4"/><path d="m304.674 219.783c-4.493-5.732-4.115-13.89.889-19.182l1.363-1.442c5.627-5.952 5.31-15.354-.706-20.912-5.538-5.118-6.311-13.594-1.788-19.628l.372-.496c5.184-6.918 3.316-16.793-4.038-21.338l-.827-.511c-6.411-3.962-8.792-12.129-5.512-18.915l.182-.376c3.492-7.228.546-15.921-6.621-19.536l-2.026-1.022c-6.622-3.34-9.722-11.086-7.233-18.072l.208-.585c1.916-5.38.513-11.142-3.157-15.037-5.058-5.367-9.684-11.125-13.231-17.591l-1.97-3.591c-2.32-4.228-8.451-4.057-10.531.295l-2.044 4.276c-.745 1.559-1.567 3.072-2.454 4.544 2.912 4.289 6.258 8.278 9.827 12.067 3.67 3.895 5.073 9.657 3.157 15.037l-.208.585c-2.489 6.986.611 14.733 7.233 18.072l2.026 1.022c7.167 3.615 10.113 12.308 6.621 19.536l-.182.376c-3.279 6.786-.899 14.953 5.512 18.915l.827.511c7.354 4.545 9.223 14.42 4.038 21.338l-.372.496c-4.522 6.034-3.75 14.511 1.788 19.628 6.016 5.559 6.333 14.961.706 20.912l-1.363 1.442c-5.004 5.292-5.382 13.45-.889 19.182l.299.382c5.079 6.481 3.851 15.868-2.725 20.824l-18.729 17.035c-4.963 4.514-10.92 7.692-17.318 9.34 3.308.852 6.732 1.304 10.201 1.304 10.178 0 19.99-3.795 27.519-10.644l18.729-17.035c6.576-4.956 7.804-14.343 2.725-20.824z" fill="#78c2a4"/><g><path d="m255.999 362.492c-4.236 0-7.689-3.415-7.725-7.66l-2.163-253.527c-.036-4.268 3.393-7.757 7.66-7.793h.067c4.236 0 7.689 3.415 7.725 7.66l2.163 253.527c.036 4.268-3.393 7.757-7.66 7.793-.023 0-.045 0-.067 0z" fill="#4f8980"/></g><path d="" style="fill:none;stroke:#000;stroke-width:15;stroke-linecap:round;stroke-linejoin:round;stroke-miterlimit:10"/><path d="" style="fill:none;stroke:#000;stroke-width:15;stroke-linecap:round;stroke-linejoin:round;stroke-miterlimit:10"/><g><g><path d="m253.253 159.385c-1.851 0-3.707-.661-5.186-2.001l-14.247-12.911c-3.162-2.865-3.402-7.752-.537-10.913 2.866-3.164 7.754-3.4 10.913-.537l14.247 12.911c3.162 2.865 3.402 7.752.537 10.913-1.525 1.683-3.622 2.538-5.727 2.538z" fill="#4f8980"/></g><g><path d="m255.898 198.553c-1.991 0-3.982-.765-5.493-2.293-3.001-3.033-2.975-7.926.059-10.927l17.448-17.261c3.033-3 7.926-2.976 10.927.059 3.001 3.033 2.975 7.926-.059 10.927l-17.448 17.261c-1.506 1.49-3.47 2.234-5.434 2.234z" fill="#4f8980"/></g><g><path d="m254.001 243.989c-1.495 0-3.005-.433-4.335-1.336l-17.38-11.808c-3.529-2.398-4.447-7.203-2.049-10.733 2.399-3.53 7.203-4.447 10.733-2.049l17.38 11.808c3.529 2.398 4.447 7.203 2.049 10.733-1.495 2.2-3.926 3.385-6.398 3.385z" fill="#4f8980"/></g></g><path d="m308.604 512h-105.208c-22.901 0-41.465-18.565-41.465-41.465v-126.07h188.139v126.07c-.001 22.9-18.565 41.465-41.466 41.465z" fill="#4a80aa"/><path d="m328.432 344.465v126.07c0 22.901-18.565 41.465-41.465 41.465h21.637c22.901 0 41.465-18.565 41.465-41.465v-126.07z" fill="#407093"/><path d="m487.169 422.317c8.84-5.319 12.704-8.225 11.465-12.505-1.286-4.442-8.974-10.118-13.819-11.055 0 0-9.406-3.693-8.982-10.088 0 0-2.899-15.731-9.812-16.307 0 0-13.549-6.895-13.681-13.407 0 0-4.459-13.807-11.884-12.988l-13.405-10.641c-6.477.714-15.12-10.307-17.412-16.168l-31.369-12.437c-2.591-6.627-20.707-2.716-27.284 0l-10.58 7.048c-3.382 1.044-6.656 7.236-9.536 9.193-2.803 6.594-3.554 13.922-2.082 21.008l4.449 21.422c.799 7.07 7.245 12.109 14.299 11.176l.415-.055c6.24-.825 12.144 3.04 13.884 9.088l.474 1.648c1.957 6.802 9.093 10.696 15.872 8.661 6.241-1.873 12.888 1.276 15.392 7.292l.206.495c2.87 6.897 11.04 9.845 17.653 6.369l.743-.391c5.765-3.031 12.888-1.214 16.498 4.208l.2.3c3.844 5.774 11.607 7.4 17.446 3.655l1.651-1.059c5.395-3.46 12.521-2.364 16.626 2.557l.344.412c3.161 3.789 8.066 5.276 12.576 4.257 3.194-.722 6.414-1.31 9.653-1.688z" fill="#69af81"/><path d="m390.565 303.681.153.39c2.292 5.862 8.528 9.164 14.665 7.765l1.672-.381c6.901-1.573 13.758 2.794 15.252 9.712 1.375 6.37 7.344 10.668 13.821 9.954l.533-.059c7.426-.819 13.953 4.91 14.105 12.379l.017.84c.132 6.512 5.164 11.871 11.654 12.412l.36.03c6.913.576 12.088 6.588 11.629 13.509l-.13 1.957c-.423 6.395 3.979 12.105 10.271 13.322l.526.102c4.845.937 8.517 4.513 9.803 8.955 1.643 5.676 3.889 11.16 7.185 16.065l2.284 3.4c2.324 3.459-.242 8.097-4.407 7.966l-3.538-.112c-3.098-.098-6.184.072-9.252.43-2.116-3.895-3.699-8.065-4.938-12.345-1.286-4.442-4.958-8.018-9.803-8.955l-.527-.102c-6.292-1.217-10.695-6.927-10.271-13.322l.13-1.957c.458-6.922-4.716-12.933-11.629-13.509l-.36-.03c-6.491-.541-11.522-5.9-11.654-12.412l-.017-.84c-.151-7.469-6.679-13.198-14.105-12.379l-.533.059c-6.477.714-12.446-3.584-13.821-9.954-1.494-6.919-8.35-11.285-15.252-9.712l-1.672.381c-6.137 1.398-12.373-1.904-14.665-7.766l-.153-.39c-2.591-6.627-10.117-9.837-16.694-7.121l-20.905 6.453c-3.382 1.044-6.553 2.588-9.432 4.545.603-1.419 1.296-2.805 2.088-4.146 4.471-7.574 11.606-13.209 20.01-15.803l20.905-6.453c6.578-2.715 14.104.495 16.695 7.122z" fill="#5ea570"/><path d="m346.741 322.222c-.782-.395-19.361-9.585-37.939-2.031-10.192 4.143-18.16 12.3-23.776 24.274h17.735c3.294-4.724 7.221-8.048 11.755-9.916 11.926-4.914 24.994 1.339 25.287 1.48 3.803 1.902 8.433.373 10.351-3.428 1.924-3.809.396-8.456-3.413-10.379z" fill="#95d6a4"/><g><path d="m181.131 322.962c-2.88-1.957-6.051-3.501-9.432-4.545l-17.431-12.854c-6.577-2.716-61.351 15.721-62.845 22.64-1.375 6.37-22.395 24.441-28.885 24.982l-20.298 17.565c-.566 8.752-6.509 13.181-6.05 20.103 0 0-15.175 13.632-16.461 18.073-1.239 4.28-1.962 7.601 5.104 13.39 3.239.378 6.459.966 9.652 1.689 4.511 1.02 9.415-.467 12.576-4.257l.344-.412c4.105-4.921 11.232-6.017 16.627-2.557l1.651 1.059c5.839 3.745 13.602 2.119 17.446-3.655l.2-.3c3.61-5.422 10.733-7.238 16.498-4.208l.743.391c6.613 3.476 14.783.528 17.653-6.369l.206-.495c2.504-6.017 9.151-9.165 15.392-7.292 6.779 2.035 13.915-1.859 15.872-8.661l.474-1.648c1.74-6.048 7.644-9.913 13.884-9.088l.415.055c7.054.933 13.5-4.106 14.3-11.176l4.449-21.422c1.469-7.086.718-14.413-2.084-21.008z" fill="#69af81"/><path d="m121.435 303.681-.153.39c-2.292 5.862-8.528 9.164-14.665 7.765l-1.672-.381c-6.901-1.573-13.758 2.794-15.252 9.712-1.375 6.37-7.344 10.668-13.821 9.954l-.533-.059c-7.426-.819-13.953 4.91-14.105 12.379l-.017.84c-.132 6.512-5.164 11.871-11.654 12.412l-.36.03c-6.913.576-12.088 6.588-11.629 13.509l.13 1.957c.423 6.395-3.979 12.105-10.271 13.322l-.526.102c-4.845.937-8.517 4.513-9.803 8.955-1.643 5.676-3.889 11.16-7.185 16.065l-2.284 3.4c-2.324 3.459.242 8.097 4.407 7.966l3.538-.112c3.098-.098 6.184.072 9.252.43 2.116-3.895 3.699-8.065 4.938-12.345 1.286-4.442 4.958-8.018 9.803-8.955l.527-.102c6.292-1.217 10.695-6.927 10.271-13.322l-.13-1.957c-.458-6.922 4.716-12.933 11.629-13.509l.36-.03c6.491-.541 11.522-5.9 11.654-12.412l.017-.84c.151-7.469 6.679-13.198 14.105-12.379l.533.059c6.477.714 12.446-3.584 13.821-9.954 1.494-6.919 8.35-11.285 15.252-9.712l1.672.381c6.137 1.398 12.373-1.904 14.665-7.766l.153-.39c2.591-6.627 10.117-9.837 16.694-7.121l20.905 6.453c3.382 1.044 6.553 2.588 9.432 4.545-.603-1.419-1.296-2.805-2.088-4.146-4.471-7.574-11.606-13.209-20.01-15.803l-20.905-6.453c-6.578-2.715-14.104.495-16.695 7.122z" fill="#5ea570"/></g><path d="m172.192 336.031c.132-.064 13.289-6.431 25.291-1.482 4.534 1.868 8.462 5.192 11.756 9.916h17.735c-5.617-11.974-13.585-20.131-23.776-24.274-18.583-7.553-37.158 1.638-37.94 2.031-3.796 1.917-5.312 6.533-3.413 10.338 1.898 3.805 6.53 5.354 10.347 3.471z" fill="#95d6a4"/></g></svg>