<svg id="Capa_1" enable-background="new 0 0 512 512" height="512" viewBox="0 0 512 512" width="512" xmlns="http://www.w3.org/2000/svg"><g><path d="m245.202 251.431c-.258-.262-.517-.522-.775-.781-44.108-44.134-119.818-19.877-130.13 41.661-1.817 10.842-2.586 22.209-2.666 33.922-.03 4.367 5.013 6.834 8.459 4.15 22.806-17.765 53.597-22.422 80.117-10.914 16.035 6.958 35.032 4.075 54.543-18.544l1.785-32.301z" fill="#ccf49f"/><g><path d="m147.582 293.598c-2.223 0-4.428-.954-5.957-2.799-2.722-3.287-2.263-8.159 1.024-10.881 17.449-14.446 41.108-20.321 68.415-17.002 20.123 2.449 35.168 8.99 35.798 9.268 3.907 1.718 5.682 6.277 3.963 10.184-1.716 3.903-6.27 5.677-10.175 3.968-.533-.233-53.777-22.973-88.146 5.487-1.439 1.193-3.185 1.775-4.922 1.775z" fill="#aaddb4"/></g><g><path d="m171.193 299.069c-.511 0-1.029-.051-1.55-.157-4.182-.851-6.882-4.931-6.031-9.114l2.998-14.733-10.875-9.512c-3.213-2.81-3.539-7.692-.729-10.904 2.81-3.213 7.692-3.538 10.904-.729l14.256 12.469c2.09 1.828 3.039 4.637 2.485 7.358l-3.894 19.134c-.745 3.662-3.967 6.187-7.564 6.188z" fill="#aaddb4"/></g><g><path d="m200.162 295.754c-.61 0-1.23-.072-1.848-.224-4.145-1.018-6.68-5.203-5.663-9.348l3.795-15.458-7.628-14.596c-1.977-3.782-.513-8.451 3.269-10.427 3.779-1.977 8.451-.514 10.427 3.269l8.98 17.183c.871 1.667 1.105 3.594.657 5.421l-4.491 18.293c-.865 3.525-4.023 5.886-7.498 5.887z" fill="#aaddb4"/></g><path d="m265.576 129.918c.258-.262.517-.522.775-.781 44.108-44.134 119.819-19.877 130.13 41.662 1.817 10.842 2.586 22.209 2.666 33.922.03 4.367-5.013 6.834-8.459 4.15-22.806-17.765-53.597-22.422-80.117-10.914-16.035 6.958-35.032 4.075-54.543-18.544l-1.785-32.301z" fill="#ccf49f"/><g><path d="m363.197 172.084c-1.737 0-3.482-.582-4.924-1.775-34.369-28.457-87.61-5.72-88.146-5.487-3.909 1.701-8.465-.074-10.175-3.979-1.711-3.906.06-8.457 3.963-10.173.631-.278 15.676-6.819 35.798-9.268 27.309-3.323 50.967 2.556 68.415 17.002 3.287 2.722 3.746 7.594 1.024 10.881-1.527 1.845-3.734 2.799-5.955 2.799z" fill="#aaddb4"/></g><g><path d="m339.586 177.555c-3.598 0-6.819-2.527-7.565-6.188l-3.894-19.134c-.553-2.722.395-5.53 2.485-7.358l14.256-12.468c3.215-2.81 8.094-2.482 10.904.729 2.809 3.213 2.483 8.095-.729 10.904l-10.875 9.511 2.998 14.733c.851 4.183-1.849 8.263-6.031 9.114-.519.106-1.038.157-1.549.157z" fill="#aaddb4"/></g><g><path d="m310.617 174.24c-3.475 0-6.633-2.362-7.499-5.887l-4.491-18.292c-.448-1.827-.214-3.754.657-5.421l8.98-17.183c1.976-3.782 6.647-5.246 10.427-3.269 3.782 1.976 5.246 6.645 3.269 10.427l-7.628 14.596 3.795 15.457c1.017 4.145-1.518 8.329-5.663 9.348-.618.15-1.237.224-1.847.224z" fill="#aaddb4"/></g><path d="m246.424 129.918c-.258-.262-.517-.522-.775-.781-44.108-44.134-119.819-19.877-130.13 41.662-1.817 10.842-2.586 22.209-2.666 33.922-.03 4.367 5.013 6.834 8.459 4.15 22.806-17.765 53.597-22.422 80.117-10.914 16.035 6.958 35.032 4.075 54.543-18.544l1.785-32.301z" fill="#ccf49f"/><g><path d="m148.804 172.084c-2.223 0-4.428-.954-5.957-2.799-2.722-3.287-2.263-8.159 1.024-10.881 17.449-14.446 41.107-20.322 68.415-17.002 20.123 2.449 35.168 8.99 35.798 9.268 3.907 1.718 5.682 6.277 3.963 10.184-1.716 3.903-6.271 5.677-10.175 3.968-.533-.234-53.776-22.972-88.146 5.487-1.44 1.193-3.186 1.775-4.922 1.775z" fill="#aaddb4"/></g><g><path d="m172.414 177.555c-.511 0-1.028-.051-1.549-.157-4.183-.851-6.882-4.931-6.032-9.113l2.997-14.734-10.874-9.511c-3.213-2.81-3.539-7.691-.729-10.904s7.692-3.538 10.904-.729l14.255 12.468c2.09 1.828 3.039 4.637 2.485 7.357l-3.893 19.134c-.745 3.663-3.966 6.188-7.564 6.189z" fill="#aaddb4"/></g><g><path d="m201.383 174.24c-.61 0-1.23-.072-1.848-.224-4.145-1.018-6.68-5.203-5.663-9.348l3.795-15.457-7.629-14.595c-1.977-3.782-.514-8.451 3.268-10.428 3.783-1.977 8.451-.514 10.428 3.268l8.981 17.183c.871 1.667 1.105 3.595.657 5.422l-4.491 18.292c-.865 3.525-4.022 5.887-7.498 5.887z" fill="#aaddb4"/></g><path d="m266.798 251.431c.258-.262.517-.522.775-.781 44.108-44.134 119.818-19.877 130.13 41.661 1.817 10.842 2.586 22.209 2.666 33.922.03 4.367-5.013 6.834-8.459 4.15-22.806-17.765-53.597-22.422-80.117-10.914-16.035 6.958-35.032 4.075-54.543-18.544l-1.785-32.301z" fill="#ccf49f"/><g><path d="m364.417 293.598c-1.737 0-3.482-.582-4.924-1.775-34.501-28.568-87.603-5.726-88.137-5.491-3.909 1.718-8.465-.058-10.185-3.964-1.718-3.907.057-8.466 3.964-10.185.631-.277 15.677-6.818 35.799-9.267 27.311-3.323 50.968 2.556 68.414 17.002 3.287 2.722 3.746 7.594 1.024 10.881-1.527 1.845-3.733 2.799-5.955 2.799z" fill="#aaddb4"/></g><g><path d="m340.808 299.069c-3.598 0-6.819-2.527-7.565-6.188l-3.894-19.134c-.553-2.721.395-5.53 2.485-7.358l14.255-12.469c3.211-2.81 8.093-2.483 10.904.729 2.809 3.212 2.483 8.094-.729 10.904l-10.874 9.512 2.998 14.733c.851 4.183-1.849 8.263-6.031 9.114-.52.106-1.038.157-1.549.157z" fill="#aaddb4"/></g><g><path d="m311.837 295.754c-3.475 0-6.633-2.362-7.499-5.887l-4.49-18.293c-.448-1.827-.214-3.755.657-5.421l8.98-17.183c1.975-3.781 6.646-5.246 10.427-3.269 3.782 1.976 5.246 6.645 3.269 10.427l-7.628 14.596 3.794 15.458c1.017 4.146-1.518 8.33-5.663 9.348-.617.152-1.237.224-1.847.224z" fill="#aaddb4"/></g><g><path d="m204.815 500.951c-19.923-39.812-26.61-88.25-20.061-145.313.393-3.42 3.28-6.013 6.723-6.013h129.047c3.443 0 6.33 2.593 6.723 6.013 6.55 57.063-.137 105.501-20.061 145.313-3.384 6.761-10.279 11.049-17.839 11.049h-66.694c-7.56 0-14.455-4.288-17.838-11.049z" fill="#c6865c"/><path d="m327.246 355.638c-.393-3.42-3.28-6.013-6.723-6.013h-18.376c7.748 59.775 1.273 110.282-19.424 151.521-3.356 6.687-10.258 10.854-17.74 10.854h24.364c7.56 0 14.455-4.288 17.838-11.049 19.924-39.812 26.611-88.25 20.061-145.313z" fill="#c17d4f"/></g><path d="m230.45 349.625c-12.851-60.585 17.116-116.455 15.058-284.756h20.985c-2.058 168.301 27.909 224.171 15.058 284.756z" fill="#4a80aa"/><path d="m266.492 64.869h-19.654c-2.058 168.301 27.909 224.171 15.058 284.756h19.654c12.851-60.585-17.115-116.455-15.058-284.756z" fill="#407093"/><path d="m282.834 91.875c.026-.027.051-.055.077-.082 1.495-1.603 15.342-8.432 14.552-15.406-1.243-10.973-17.785-23.699-15.848-27.633l.26-.528c2.254-4.578-8.526-9.704-12.162-13.284-4.24-4.175-26.313-15.374-26.735-16.188-1.132 3.292-5.223 4.603-8.07 2.406-4.154-3.204-9.933-3.25-14.136-.11-4.512 3.37-5.979 9.477-3.492 14.529l7.519 15.27c.569 1.156-.55 2.42-1.766 1.996-8.164-2.849-17.11 1.337-20.153 9.431-2.092 5.565-.961 11.881 3.064 16.256.158.171.316.342.475.511 15.762 16.85 38.142 23.758 59.33 20.726 4.339-.621 8.163-1.517 11.725-2.788 1.844-1.586 3.662-3.292 5.36-5.106z" fill="#ecbe6b"/><g><path d="m309.118 62.275c-3.043-8.094-11.989-12.28-20.153-9.431-1.216.425-2.336-.84-1.766-1.996l7.361-14.949c2.421-4.918 1.359-10.978-2.86-14.477-4.246-3.522-10.335-3.59-14.649-.232-2.979 2.319-7.366.683-8.196-2.999l-2.102-9.323c-1.052-4.666-4.883-8.337-9.643-8.812-5.576-.557-10.584 3.133-11.79 8.485l-2.175 9.65c-.044.195-.103.38-.166.562.421.815.745 1.692.955 2.62l2.175 9.65c.835 3.702 5.23 5.287 8.235 2.969 4.577-3.531 11.129-3.226 15.369.95 3.636 3.58 4.365 9.192 2.111 13.77l-.26.528c-3.168 6.434-.145 14.007 6.402 16.935 4.124 1.844 7.461 5.43 8.825 10.201 1.549 5.423-.033 11.294-3.88 15.418-.026.027-.051.055-.077.082-1.705 1.823-3.508 3.515-5.358 5.105 10.383-3.431 20.107-9.389 28.103-17.937.159-.17.317-.34.475-.511 4.026-4.378 5.156-10.693 3.064-16.258z" fill="#e7a52e"/></g></g></svg>