<svg id="Capa_1" enable-background="new 0 0 512 512" height="512" viewBox="0 0 512 512" width="512" xmlns="http://www.w3.org/2000/svg"><g><g><g><path d="m393.818 65.867c-2.601 0-5.143-1.3-6.622-3.669l-7.387-11.827c-2.282-3.653-1.17-8.465 2.484-10.747 3.652-2.28 8.463-1.171 10.746 2.483l7.387 11.827c2.282 3.653 1.17 8.465-2.484 10.747-1.285.803-2.712 1.186-4.124 1.186z" fill="#ccf49f"/></g><g><path d="m417.683 53.01c-3.814 0-7.149-2.802-7.71-6.689-.613-4.263 2.345-8.217 6.608-8.831l14.51-2.089c4.251-.615 8.217 2.343 8.832 6.608.613 4.263-2.345 8.217-6.608 8.831l-14.51 2.089c-.377.055-.752.081-1.122.081z" fill="#ccf49f"/></g><g><path d="m432.524 130.334c-.664 0-1.337-.085-2.01-.264l-14.505-3.857c-4.163-1.107-6.64-5.379-5.533-9.542s5.379-6.638 9.542-5.533l14.505 3.857c4.163 1.107 6.64 5.379 5.533 9.542-.928 3.491-4.084 5.797-7.532 5.797z" fill="#ccf49f"/></g><g><path d="m406.466 213.428c-2.088 0-4.171-.833-5.706-2.481l-9.211-9.88c-2.938-3.151-2.764-8.086.386-11.023 3.151-2.937 8.088-2.764 11.022.386l9.211 9.88c2.938 3.151 2.764 8.086-.386 11.023-1.502 1.401-3.412 2.095-5.316 2.095z" fill="#ccf49f"/></g><g><path d="m367.527 271.416c-2.275 0-4.53-.99-6.071-2.897l-8.498-10.515c-2.707-3.35-2.186-8.261 1.164-10.968s8.262-2.186 10.968 1.163l8.498 10.516c2.707 3.35 2.186 8.26-1.164 10.968-1.443 1.167-3.176 1.733-4.897 1.733z" fill="#ccf49f"/></g></g><g><g><path d="m137.535 102.342c-1.139 0-2.296-.251-3.389-.78-3.878-1.875-5.502-6.538-3.626-10.416l6.174-12.769c1.876-3.878 6.54-5.5 10.416-3.626 3.878 1.875 5.502 6.538 3.626 10.416l-6.174 12.769c-1.347 2.784-4.13 4.406-7.027 4.406z" fill="#ccf49f"/></g><g><path d="m93.486 79.838c-.219 0-.44-.009-.663-.028-4.293-.362-7.479-4.134-7.117-8.426l1.082-12.844c.362-4.292 4.13-7.478 8.426-7.117 4.293.362 7.479 4.134 7.117 8.426l-1.082 12.844c-.342 4.069-3.752 7.145-7.763 7.145z" fill="#ccf49f"/></g><g><path d="m137.988 272.831c-2.048 0-4.093-.801-5.624-2.395-2.985-3.107-2.887-8.043.219-11.028l6.744-6.482c3.106-2.985 8.043-2.886 11.028.219 2.985 3.106 2.887 8.042-.219 11.027l-6.744 6.481c-1.513 1.456-3.46 2.178-5.404 2.178z" fill="#ccf49f"/></g><g><path d="m135.258 232.537h-10.326c-4.307 0-7.799-3.492-7.799-7.799s3.492-7.799 7.799-7.799h10.326c4.307 0 7.799 3.492 7.799 7.799s-3.492 7.799-7.799 7.799z" fill="#ccf49f"/></g><g><path d="m113.883 158.38c-3.628 0-6.878-2.545-7.633-6.238-.863-4.22 1.859-8.34 6.079-9.204l11.822-2.417c4.221-.864 8.34 1.858 9.204 6.079.863 4.22-1.859 8.34-6.079 9.204l-11.822 2.417c-.528.107-1.053.159-1.571.159z" fill="#ccf49f"/></g><g><path d="m89.06 99.811c-1.192 0-2.402-.274-3.537-.853-3.837-1.956-5.362-6.653-3.406-10.491l3.763-7.38c1.957-3.837 6.653-5.363 10.491-3.406 3.837 1.956 5.362 6.653 3.406 10.491l-3.763 7.38c-1.378 2.704-4.115 4.259-6.954 4.259z" fill="#ccf49f"/></g></g><path d="m159.221 105.768c-22.742-17.697-48.824-31.188-77.09-39.446l-8.752-2.557c-1.306-.382-2.267 1.224-1.311 2.194 30.913 31.37 51.768 64.257 52.639 100.159 1.892 61.167 15.119 106.56 43.226 131.248h21.72l6.198-15.271c-16.549-43.752-28.366-95.997-26.232-140.822.254-5.386-.002-17.008-10.398-35.505z" fill="#95d6a4"/><path d="m225.596 188.022c-15.639-32.538-38.495-60.56-66.375-82.254-8.126 50.599-3.09 102.974 15.407 151.877l15.024 39.721h42.084z" fill="#78c2a4"/><g><g><path d="m216.47 57.225c-2.973 0-5.813-1.71-7.115-4.596-1.77-3.927-.022-8.545 3.905-10.315l10.669-4.809c3.927-1.769 8.546-.022 10.315 3.905 1.77 3.927.022 8.545-3.905 10.315l-10.669 4.809c-1.039.469-2.128.691-3.2.691z" fill="#ccf49f"/></g><g><path d="m228.69 98.247c-2.201 0-4.388-.926-5.931-2.73-2.8-3.274-2.415-8.197.858-10.997l9.239-7.902c3.274-2.799 8.197-2.416 10.997.858s2.415 8.197-.858 10.997l-9.239 7.902c-1.47 1.256-3.273 1.872-5.066 1.872z" fill="#ccf49f"/></g><g><path d="m254.079 127.516c-2.213 0-4.411-.936-5.955-2.757-2.785-3.286-2.378-8.207.908-10.993l9.108-7.718c3.286-2.784 8.208-2.378 10.992.908 2.785 3.286 2.378 8.207-.908 10.993l-9.108 7.718c-1.465 1.242-3.256 1.849-5.037 1.849z" fill="#ccf49f"/></g><g><path d="m196.715 59.186c-1.158 0-2.334-.259-3.443-.805l-10.482-5.168c-3.864-1.905-5.451-6.581-3.547-10.444 1.905-3.863 6.58-5.45 10.444-3.547l10.482 5.168c3.864 1.905 5.451 6.581 3.547 10.444-1.358 2.755-4.125 4.352-7.001 4.352z" fill="#ccf49f"/></g><g><path d="m184.277 100.326c-2.182 0-4.352-.91-5.894-2.688l-6.857-7.902c-2.823-3.253-2.474-8.179.779-11.002s8.18-2.474 11.002.779l6.857 7.902c2.823 3.253 2.474 8.179-.779 11.002-1.475 1.281-3.296 1.909-5.108 1.909z" fill="#ccf49f"/></g><g><path d="m178.531 154.068h-12.269c-4.307 0-7.799-3.492-7.799-7.799s3.492-7.799 7.799-7.799h12.269c4.307 0 7.799 3.492 7.799 7.799s-3.492 7.799-7.799 7.799z" fill="#ccf49f"/></g><g><path d="m169.743 205.399c-3.302 0-6.369-2.114-7.428-5.428-1.311-4.103.954-8.492 5.056-9.803l11.577-3.698c4.105-1.311 8.492.953 9.803 5.056s-.954 8.492-5.056 9.803l-11.577 3.698c-.789.252-1.589.372-2.375.372z" fill="#ccf49f"/></g><g><path d="m185.054 256.614c-1.83 0-3.667-.64-5.148-1.943-3.234-2.845-3.55-7.773-.705-11.007l6.053-6.88c2.845-3.234 7.774-3.549 11.007-.705 3.234 2.845 3.55 7.773.705 11.007l-6.053 6.88c-1.542 1.752-3.695 2.648-5.859 2.648z" fill="#ccf49f"/></g></g><path d="m261.518 294.892 26.795 1.173c7.103-4.547 21.654-.228 28.199-5.385 63.27-49.853 103.164-136.505 100.869-217.999l-12.264-43.206c-16.04 34.199-36.073 62.518-62.44 81.514l-25.201 42.685-56.94 143.693z" fill="#69af81"/><path d="m424.629 69.323-4.904-68.097c-.102-1.411-2.05-1.695-2.551-.372-3.762 9.917-7.767 19.476-12.055 28.619l1.225 43.497c2.532 89.924-42.263 174.594-118.029 223.095l-26.795-1.173-.98 2.474h55.932c73.571-51.768 114.62-138.316 108.157-228.043z" fill="#5ea570"/><path d="m203.754 282.095c19.152-15.772 8.427-45.879 34.731-71.872 11.991-11.849 26.429-33.791 30.024-66.728-5.881-14.658-13.815-27.718-25.214-38.083-11.279-10.255-19.61-23.422-23.054-38.272-4.343-18.726-3.568-38.67-1.525-65.263.111-1.444-1.848-1.99-2.5-.696l-9.184 18.229c-37.357 74.152-41.901 160.573-12.527 238.235z" fill="#69af81"/><path d="m267.817 297.366 8.039-131.248c-2.057-7.846-4.459-15.424-7.347-22.623-9.745 14.407-20.576 27.577-32.567 39.426-26.305 25.994-38.625 62.989-32.188 99.174l5.776 15.271z" fill="#5ea570"/><path d="m231.735 297.366c-.973-3.577-1.857-7.126-2.642-10.644-8.391-37.635 3.847-76.699 31.274-103.802 36.28-35.852 61.994-83.737 78.871-141.685.402-1.382 2.411-1.214 2.578.216l8.141 69.537c7.834 66.908-11.747 134.139-54.282 186.377z" fill="#95d6a4"/><g><g><path d="m230.678 249.41c-1.206 0-2.429-.28-3.575-.872l-9.885-5.11c-3.826-1.978-5.325-6.683-3.347-10.51 1.978-3.825 6.683-5.324 10.51-3.347l9.885 5.11c3.826 1.978 5.325 6.683 3.347 10.51-1.386 2.68-4.111 4.219-6.935 4.219z" fill="#ccf49f"/></g><g><path d="m248.861 207.478c-2.865 0-5.623-1.585-6.987-4.324l-5.609-11.262c-1.92-3.855-.351-8.538 3.504-10.458 3.855-1.921 8.538-.352 10.458 3.504l5.609 11.262c1.92 3.855.351 8.538-3.504 10.458-1.116.557-2.303.82-3.471.82z" fill="#ccf49f"/></g><g><path d="m306.908 131.372c-1.883 0-3.772-.678-5.269-2.05l-8.415-7.715c-3.176-2.911-3.389-7.844-.478-11.019 2.91-3.176 7.845-3.388 11.019-.478l8.415 7.715c3.176 2.911 3.389 7.844.478 11.019-1.537 1.677-3.64 2.528-5.75 2.528z" fill="#ccf49f"/></g><g><path d="m327.566 87.492c-1.584 0-3.183-.481-4.564-1.48l-8.943-6.467c-3.49-2.524-4.274-7.4-1.75-10.89 2.525-3.49 7.401-4.272 10.889-1.75l8.943 6.467c3.49 2.524 4.274 7.4 1.75 10.89-1.523 2.109-3.908 3.23-6.325 3.23z" fill="#ccf49f"/></g><g><path d="m341.872 68.347c-3.391 0-6.512-2.229-7.493-5.651-1.188-4.14 1.205-8.459 5.346-9.647l10.437-2.994c4.144-1.185 8.46 1.206 9.647 5.347 1.188 4.14-1.205 8.459-5.346 9.647l-10.437 2.994c-.718.206-1.442.304-2.154.304z" fill="#ccf49f"/></g><g><path d="m346.054 237.715h-13.277c-4.308 0-7.799-3.492-7.799-7.799s3.491-7.799 7.799-7.799h13.277c4.308 0 7.799 3.492 7.799 7.799s-3.491 7.799-7.799 7.799z" fill="#ccf49f"/></g><g><path d="m346.547 186.398c-3.782 0-7.104-2.757-7.698-6.611-.657-4.257 2.262-8.24 6.519-8.897l10.862-1.676c4.255-.658 8.241 2.261 8.897 6.519.657 4.257-2.262 8.24-6.519 8.897l-10.862 1.676c-.403.062-.803.092-1.199.092z" fill="#ccf49f"/></g><g><path d="m362.231 146.254c-.736 0-1.484-.105-2.226-.325l-12.658-3.763c-4.128-1.227-6.48-5.57-5.253-9.698 1.228-4.129 5.567-6.478 9.699-5.253l12.658 3.763c4.128 1.227 6.48 5.57 5.253 9.698-1.007 3.386-4.111 5.578-7.473 5.578z" fill="#ccf49f"/></g></g><path d="m275.299 297.366s13.469-2.613 16.393-6.108c37.92-45.306 45.957-74.32 50.077-138.856l1.147-49.811-16.952-22.497c-16.174 40.757-37.775 75.334-65.597 102.827-27.427 27.103-39.665 66.167-31.274 103.802.784 3.518 1.668 7.067 2.642 10.644z" fill="#95d6a4"/><path d="m349.958 110.989-8.142-69.538c-.167-1.43-2.175-1.598-2.578-.216-3.936 13.509-8.357 26.468-13.274 38.86l3.617 30.894c7.834 66.908-11.747 134.139-54.282 186.377h-43.564 63.941c42.535-52.238 62.116-119.469 54.282-186.377z" fill="#78c2a4"/><g><path d="m266.283 309.117c-3.704 0-6.99-2.648-7.667-6.422-.682-3.803-1.271-7.569-1.751-11.192-5.373-40.671 10.716-80.925 43.038-107.679 3.317-2.746 8.234-2.283 10.981 1.035s2.283 8.234-1.035 10.981c-28.159 23.308-42.185 58.306-37.52 93.62.447 3.387.999 6.912 1.639 10.479.762 4.24-2.058 8.294-6.298 9.054-.466.083-.93.124-1.387.124z" fill="#78c2a4"/></g><path d="m348.45 335.453-19.798-18.707-167.989-.336-15.391 19.043 26.104 144.088 22.225 16.23h103.999l24.747-16.23z" fill="#c6865c"/><path d="m145.272 335.453 3.752 20.708h120.816c25.285 0 44.402 22.892 39.895 47.772l-13.697 75.608 8.839 16.229 17.47-16.229 26.103-144.088-26.522-19.043-154.119.014z" fill="#c17d4f"/><path d="m366.768 335.453h-239.814c-2.494 0-4.516-2.022-4.516-4.516v-29.055c0-2.494 2.022-4.516 4.516-4.516h239.815c2.494 0 4.516 2.022 4.516 4.516v29.055c-.001 2.494-2.022 4.516-4.517 4.516z" fill="#9d6b6b"/><path d="m366.768 297.366h-18.828v38.087h18.829c2.494 0 4.516-2.022 4.516-4.516v-29.055c-.001-2.494-2.022-4.516-4.517-4.516z" fill="#8b5e5e"/><path d="m145.097 491.803c-.75-1.831-1.372-3.751-1.865-5.757-.813-3.306 1.697-6.505 5.102-6.505h197.055c3.405 0 5.915 3.199 5.102 6.505-.493 2.005-1.115 3.926-1.865 5.757-5.069 12.364-17.399 20.197-30.762 20.197h-142.006c-13.362 0-25.693-7.833-30.761-20.197z" fill="#9d6b6b"/><path d="m345.389 479.541h-24.653c3.405 0 5.915 3.199 5.102 6.505-.493 2.005-1.115 3.926-1.865 5.757-5.069 12.364-17.4 20.197-30.762 20.197h24.653c13.363 0 25.694-7.833 30.762-20.197.75-1.831 1.372-3.751 1.865-5.757.812-3.306-1.697-6.505-5.102-6.505z" fill="#8b5e5e"/></g></svg>